%TF.GenerationSoftware,KiCad,Pcbnew,8.0.2*%
%TF.CreationDate,2024-06-23T14:40:44+03:00*%
%TF.ProjectId,Chaos Circuits,4368616f-7320-4436-9972-63756974732e,1*%
%TF.SameCoordinates,Original*%
%TF.FileFunction,Copper,L2,Inr*%
%TF.FilePolarity,Positive*%
%FSLAX46Y46*%
G04 Gerber Fmt 4.6, Leading zero omitted, Abs format (unit mm)*
G04 Created by KiCad (PCBNEW 8.0.2) date 2024-06-23 14:40:44*
%MOMM*%
%LPD*%
G01*
G04 APERTURE LIST*
%TA.AperFunction,ComponentPad*%
%ADD10R,1.268000X1.268000*%
%TD*%
%TA.AperFunction,ComponentPad*%
%ADD11C,1.268000*%
%TD*%
%TA.AperFunction,ComponentPad*%
%ADD12C,2.032000*%
%TD*%
%TA.AperFunction,ComponentPad*%
%ADD13C,2.200000*%
%TD*%
%TA.AperFunction,ComponentPad*%
%ADD14C,2.800000*%
%TD*%
%TA.AperFunction,ComponentPad*%
%ADD15C,2.600000*%
%TD*%
%TA.AperFunction,ComponentPad*%
%ADD16R,1.050000X1.500000*%
%TD*%
%TA.AperFunction,ComponentPad*%
%ADD17O,1.050000X1.500000*%
%TD*%
%TA.AperFunction,ComponentPad*%
%ADD18R,1.500000X1.050000*%
%TD*%
%TA.AperFunction,ComponentPad*%
%ADD19O,1.500000X1.050000*%
%TD*%
%TA.AperFunction,ComponentPad*%
%ADD20C,2.000000*%
%TD*%
%TA.AperFunction,ComponentPad*%
%ADD21C,3.900000*%
%TD*%
%TA.AperFunction,ComponentPad*%
%ADD22C,1.800000*%
%TD*%
%TA.AperFunction,ComponentPad*%
%ADD23R,1.950000X1.950000*%
%TD*%
%TA.AperFunction,ComponentPad*%
%ADD24C,1.950000*%
%TD*%
%TA.AperFunction,ViaPad*%
%ADD25C,0.635000*%
%TD*%
G04 APERTURE END LIST*
D10*
%TO.N,Net-(C6-Pad1)*%
%TO.C,R4*%
X65665000Y-36720000D03*
D11*
%TO.N,Net-(R4-Pad2)*%
X70745000Y-39260000D03*
%TO.N,unconnected-(R4-Pad3)*%
X65665000Y-41800000D03*
%TD*%
D12*
%TO.N,GND*%
%TO.C,J2*%
X32969999Y-70936599D03*
%TO.N,/5V*%
X32969999Y-75936599D03*
%TD*%
D13*
%TO.N,GND*%
%TO.C,TP1*%
X27757000Y-64400000D03*
%TD*%
D14*
%TO.N,Net-(U13-W)*%
%TO.C,TP27*%
X109300000Y-65720000D03*
%TD*%
%TO.N,Net-(U13-X1)*%
%TO.C,TP25*%
X104150000Y-62650000D03*
%TD*%
%TO.N,/-Y_Rossler*%
%TO.C,TP23*%
X118250000Y-44290000D03*
%TD*%
%TO.N,/-X_Rossler*%
%TO.C,TP22*%
X118220000Y-32790000D03*
%TD*%
%TO.N,/Y_Rossler*%
%TO.C,TP21*%
X106010000Y-45500000D03*
%TD*%
%TO.N,/X_Rossler*%
%TO.C,TP20*%
X106070000Y-33680000D03*
%TD*%
D15*
%TO.N,GND*%
%TO.C,TP19*%
X108600000Y-99110000D03*
%TO.N,Net-(R50-Pad2)*%
X116220000Y-99110000D03*
%TD*%
%TO.N,GND*%
%TO.C,TP18*%
X123380000Y-79380000D03*
%TO.N,Net-(R49-Pad2)*%
X123380000Y-71760000D03*
%TD*%
%TO.N,Net-(R48-Pad2)*%
%TO.C,TP17*%
X112730000Y-49020000D03*
%TO.N,GND*%
X120350000Y-49020000D03*
%TD*%
%TO.N,Net-(R47-Pad2)*%
%TO.C,TP16*%
X113440000Y-54150000D03*
%TO.N,GND*%
X121060000Y-54150000D03*
%TD*%
%TO.N,Net-(Q2-C)*%
%TO.C,TP15*%
X49547500Y-80515000D03*
%TO.N,GND*%
X49547500Y-72895000D03*
%TD*%
%TO.N,Net-(C26-Pad1)*%
%TO.C,TP14*%
X44127500Y-80600000D03*
%TO.N,GND*%
X44127500Y-72980000D03*
%TD*%
%TO.N,Net-(C25-Pad1)*%
%TO.C,TP13*%
X48897500Y-90960000D03*
%TO.N,GND*%
X56517500Y-90960000D03*
%TD*%
%TO.N,Net-(Q1-C)*%
%TO.C,TP12*%
X36072500Y-90229999D03*
%TO.N,GND*%
X36072500Y-97849999D03*
%TD*%
D10*
%TO.N,VIN+*%
%TO.C,R41*%
X111230000Y-80080000D03*
D11*
%TO.N,Net-(R40-Pad1)*%
X113770000Y-75000000D03*
%TO.N,VIN-*%
X116310000Y-80080000D03*
%TD*%
D10*
%TO.N,Net-(Q2-B)*%
%TO.C,R25*%
X49932500Y-100360000D03*
D11*
%TO.N,GND*%
X52472500Y-95280000D03*
%TO.N,unconnected-(R25-Pad3)*%
X55012500Y-100360000D03*
%TD*%
D16*
%TO.N,Net-(Q2-C)*%
%TO.C,Q2*%
X50872500Y-86515000D03*
D17*
%TO.N,Net-(Q2-B)*%
X52142501Y-86515000D03*
%TO.N,GND*%
X53412500Y-86515000D03*
%TD*%
D18*
%TO.N,Net-(Q1-C)*%
%TO.C,Q1*%
X40635000Y-89980000D03*
D19*
%TO.N,Net-(Q1-B)*%
X40635000Y-88709999D03*
%TO.N,GND*%
X40635000Y-87440000D03*
%TD*%
D20*
%TO.N,GND*%
%TO.C,TP3*%
X95750000Y-52970000D03*
%TD*%
%TO.N,VIN-*%
%TO.C,TP5*%
X45000000Y-61800000D03*
%TD*%
%TO.N,GND*%
%TO.C,TP4*%
X66470000Y-68380000D03*
%TD*%
D21*
%TO.N,N/C*%
%TO.C,H4*%
X30100000Y-100300000D03*
%TD*%
D15*
%TO.N,Net-(U1-+)*%
%TO.C,TP8*%
X75945000Y-36435000D03*
%TO.N,GND*%
X75945000Y-28815000D03*
%TD*%
D21*
%TO.N,N/C*%
%TO.C,H2*%
X122100000Y-28300000D03*
%TD*%
D15*
%TO.N,Net-(C6-Pad1)*%
%TO.C,TP7*%
X64240000Y-32410000D03*
%TO.N,GND*%
X56620000Y-32410000D03*
%TD*%
D20*
%TO.N,VIN+*%
%TO.C,TP6*%
X45000000Y-40700000D03*
%TD*%
D22*
%TO.N,Net-(C6-Pad1)*%
%TO.C,L1*%
X55270000Y-38235000D03*
%TO.N,GND*%
X55270000Y-43235000D03*
%TD*%
D15*
%TO.N,/-Y*%
%TO.C,TP11*%
X87710000Y-82000000D03*
%TO.N,GND*%
X95330000Y-82000000D03*
%TD*%
%TO.N,/Z*%
%TO.C,TP9*%
X87710000Y-94350000D03*
%TO.N,GND*%
X95330000Y-94350000D03*
%TD*%
D23*
%TO.N,VIN+*%
%TO.C,J1*%
X33000000Y-46600000D03*
D24*
%TO.N,GND*%
X33000000Y-51679999D03*
%TO.N,VIN-*%
X33000000Y-56760000D03*
%TD*%
D20*
%TO.N,GND*%
%TO.C,TP2*%
X45000000Y-51400000D03*
%TD*%
D15*
%TO.N,/X*%
%TO.C,TP10*%
X87660000Y-70300000D03*
%TO.N,GND*%
X95280000Y-70300000D03*
%TD*%
D21*
%TO.N,N/C*%
%TO.C,H3*%
X122100000Y-100300000D03*
%TD*%
%TO.N,N/C*%
%TO.C,H1*%
X30100000Y-28300000D03*
%TD*%
D25*
%TO.N,GND*%
X64730000Y-89110000D03*
X121820000Y-87110000D03*
X115690000Y-91870000D03*
X111060000Y-92530000D03*
X110800000Y-84270000D03*
X104600000Y-89180000D03*
X106420000Y-92310000D03*
X102900000Y-67690000D03*
X108690000Y-72230000D03*
X104230000Y-69330000D03*
X109790000Y-70660000D03*
X117640000Y-71530000D03*
X117040000Y-67200000D03*
X123010000Y-62470000D03*
X109790000Y-61590000D03*
X104930000Y-55260000D03*
X101730000Y-57280000D03*
X104390000Y-39490000D03*
X117250000Y-26100000D03*
X100470000Y-35690000D03*
X98810000Y-32470000D03*
X103770000Y-28610000D03*
X108704196Y-31214238D03*
X112800000Y-34020000D03*
X117200000Y-37820000D03*
X112550000Y-45640000D03*
X110970000Y-42440000D03*
X98760000Y-44340000D03*
X100180000Y-47540000D03*
X80230000Y-38000000D03*
X83250000Y-31670000D03*
X90590000Y-34840000D03*
X74130000Y-43680000D03*
X80840000Y-41240000D03*
X85990000Y-46000000D03*
X83440000Y-53080000D03*
X86880000Y-64660000D03*
X82540000Y-72790000D03*
X80600000Y-69630000D03*
X62970000Y-82470000D03*
X65480000Y-81510000D03*
X65130000Y-75650000D03*
X73480000Y-76830000D03*
X86670000Y-76360000D03*
X80280000Y-81550000D03*
X82390000Y-84230000D03*
X72220000Y-87850000D03*
X74560000Y-88550000D03*
X86910000Y-88940000D03*
X80580000Y-93420000D03*
X82390000Y-96610000D03*
X63840000Y-94190000D03*
X65990000Y-93260000D03*
X54140000Y-90660000D03*
X48090000Y-88370000D03*
X45020000Y-94660000D03*
X40260000Y-98880000D03*
X39940000Y-83370000D03*
X35340000Y-81960000D03*
X39320000Y-70960000D03*
X38390000Y-48400000D03*
X61920000Y-39820000D03*
X38650000Y-54360000D03*
X33120000Y-63860000D03*
X34650000Y-62440000D03*
X34790000Y-40480000D03*
X32660000Y-37580000D03*
%TO.N,VIN+*%
X121550000Y-91420000D03*
X111220000Y-88230000D03*
X122565102Y-64520000D03*
X109800000Y-68750000D03*
X106910000Y-63160000D03*
X104390000Y-43671900D03*
X118670000Y-40820000D03*
X117110000Y-30180000D03*
X104450000Y-31826900D03*
X73460000Y-78820000D03*
X74600000Y-90140000D03*
X88270000Y-91720000D03*
X88160000Y-79430000D03*
X88200000Y-67580000D03*
X79220000Y-53120000D03*
X90580000Y-39100000D03*
%TO.N,VIN-*%
X96280000Y-34690000D03*
X108710000Y-33330000D03*
X96290000Y-46690000D03*
X110380000Y-46490000D03*
X101740000Y-53080000D03*
X116110000Y-71570000D03*
X104670000Y-73210000D03*
X103400000Y-93840000D03*
X112180000Y-95600000D03*
X78110000Y-96590000D03*
X63780000Y-90020000D03*
X62940000Y-78370000D03*
X78270000Y-84310000D03*
X78280000Y-72790000D03*
X82930000Y-43730000D03*
X76190000Y-43750000D03*
%TO.N,/-X_Rossler*%
X121440000Y-43500000D03*
X122330000Y-43750000D03*
X113880000Y-85040000D03*
X113010000Y-84650000D03*
X93820000Y-40040000D03*
X93820000Y-41040000D03*
%TO.N,/Z_Rossler*%
X93700000Y-28820000D03*
X124860000Y-68250000D03*
%TO.N,/X_Rossler*%
X109510000Y-50290000D03*
X108350000Y-50320000D03*
%TO.N,/Z_Rossler*%
X94330000Y-27800000D03*
X124880000Y-67320000D03*
%TO.N,/X*%
X65880000Y-86940000D03*
%TO.N,/-Y*%
X73520000Y-67500000D03*
%TD*%
%TA.AperFunction,Conductor*%
%TO.N,GND*%
G36*
X123103736Y-24808726D02*
G01*
X123392835Y-24826213D01*
X123407692Y-24828017D01*
X123688880Y-24879546D01*
X123703417Y-24883130D01*
X123976332Y-24968174D01*
X123990330Y-24973482D01*
X124251025Y-25090811D01*
X124264271Y-25097763D01*
X124508920Y-25245659D01*
X124521232Y-25254157D01*
X124746268Y-25430461D01*
X124757476Y-25440391D01*
X124959608Y-25642523D01*
X124969538Y-25653731D01*
X125082654Y-25798114D01*
X125145838Y-25878762D01*
X125154344Y-25891085D01*
X125302233Y-26135722D01*
X125309192Y-26148981D01*
X125426516Y-26409666D01*
X125431825Y-26423667D01*
X125516869Y-26696582D01*
X125520453Y-26711121D01*
X125571981Y-26992303D01*
X125573786Y-27007167D01*
X125591274Y-27296263D01*
X125591500Y-27303750D01*
X125591500Y-66577032D01*
X125571815Y-66644071D01*
X125519011Y-66689826D01*
X125449853Y-66699770D01*
X125400260Y-66678333D01*
X125399138Y-66680120D01*
X125237165Y-66578345D01*
X125237164Y-66578344D01*
X125237163Y-66578344D01*
X125195396Y-66563729D01*
X125063171Y-66517461D01*
X124880003Y-66496824D01*
X124879997Y-66496824D01*
X124696828Y-66517461D01*
X124522834Y-66578345D01*
X124366757Y-66676415D01*
X124236415Y-66806757D01*
X124138345Y-66962834D01*
X124077461Y-67136828D01*
X124056824Y-67319997D01*
X124056824Y-67320002D01*
X124077461Y-67503171D01*
X124138344Y-67677163D01*
X124154649Y-67703112D01*
X124173649Y-67770349D01*
X124154650Y-67835054D01*
X124118344Y-67892835D01*
X124057461Y-68066828D01*
X124036824Y-68249997D01*
X124036824Y-68250002D01*
X124057461Y-68433171D01*
X124094744Y-68539718D01*
X124118344Y-68607163D01*
X124216415Y-68763242D01*
X124346758Y-68893585D01*
X124502837Y-68991656D01*
X124635059Y-69037922D01*
X124676828Y-69052538D01*
X124859997Y-69073176D01*
X124860000Y-69073176D01*
X124860003Y-69073176D01*
X125043171Y-69052538D01*
X125043174Y-69052537D01*
X125217163Y-68991656D01*
X125373242Y-68893585D01*
X125379819Y-68887008D01*
X125441142Y-68853523D01*
X125510834Y-68858507D01*
X125566767Y-68900379D01*
X125591184Y-68965843D01*
X125591500Y-68974689D01*
X125591500Y-101296249D01*
X125591274Y-101303736D01*
X125573786Y-101592832D01*
X125571981Y-101607696D01*
X125520453Y-101888878D01*
X125516869Y-101903417D01*
X125431825Y-102176332D01*
X125426516Y-102190333D01*
X125309192Y-102451018D01*
X125302233Y-102464277D01*
X125154344Y-102708914D01*
X125145838Y-102721237D01*
X124969538Y-102946268D01*
X124959608Y-102957476D01*
X124757476Y-103159608D01*
X124746268Y-103169538D01*
X124521237Y-103345838D01*
X124508914Y-103354344D01*
X124264277Y-103502233D01*
X124251018Y-103509192D01*
X123990333Y-103626516D01*
X123976332Y-103631825D01*
X123703417Y-103716869D01*
X123688878Y-103720453D01*
X123407696Y-103771981D01*
X123392832Y-103773786D01*
X123103736Y-103791274D01*
X123096249Y-103791500D01*
X29103751Y-103791500D01*
X29096264Y-103791274D01*
X28807167Y-103773786D01*
X28792303Y-103771981D01*
X28511121Y-103720453D01*
X28496582Y-103716869D01*
X28223667Y-103631825D01*
X28209666Y-103626516D01*
X27948981Y-103509192D01*
X27935722Y-103502233D01*
X27691085Y-103354344D01*
X27678762Y-103345838D01*
X27453731Y-103169538D01*
X27442523Y-103159608D01*
X27240391Y-102957476D01*
X27230461Y-102946268D01*
X27054157Y-102721232D01*
X27045659Y-102708920D01*
X26897763Y-102464271D01*
X26890811Y-102451025D01*
X26773482Y-102190330D01*
X26768174Y-102176332D01*
X26683130Y-101903417D01*
X26679546Y-101888878D01*
X26628017Y-101607692D01*
X26626213Y-101592832D01*
X26619877Y-101488091D01*
X26608726Y-101303736D01*
X26608500Y-101296249D01*
X26608500Y-100299994D01*
X27644655Y-100299994D01*
X27644655Y-100300005D01*
X27664014Y-100607725D01*
X27664015Y-100607732D01*
X27676591Y-100673655D01*
X27721771Y-100910500D01*
X27721795Y-100910623D01*
X27817078Y-101203874D01*
X27817080Y-101203879D01*
X27948362Y-101482867D01*
X27948366Y-101482873D01*
X28113577Y-101743206D01*
X28113579Y-101743209D01*
X28113584Y-101743216D01*
X28310131Y-101980799D01*
X28525982Y-102183498D01*
X28534902Y-102191874D01*
X28534912Y-102191882D01*
X28784348Y-102373108D01*
X28784353Y-102373110D01*
X28784360Y-102373116D01*
X29054565Y-102521663D01*
X29054570Y-102521665D01*
X29054572Y-102521666D01*
X29054573Y-102521667D01*
X29341253Y-102635171D01*
X29341256Y-102635172D01*
X29628463Y-102708914D01*
X29639914Y-102711854D01*
X29704091Y-102719961D01*
X29945816Y-102750499D01*
X29945825Y-102750499D01*
X29945828Y-102750500D01*
X29945830Y-102750500D01*
X30254170Y-102750500D01*
X30254172Y-102750500D01*
X30254175Y-102750499D01*
X30254183Y-102750499D01*
X30436722Y-102727438D01*
X30560086Y-102711854D01*
X30858743Y-102635172D01*
X30858746Y-102635171D01*
X31145426Y-102521667D01*
X31145427Y-102521666D01*
X31145425Y-102521666D01*
X31145435Y-102521663D01*
X31415640Y-102373116D01*
X31665096Y-102191876D01*
X31889869Y-101980799D01*
X32086416Y-101743216D01*
X32251635Y-101482871D01*
X32382922Y-101203873D01*
X32478206Y-100910619D01*
X32535984Y-100607736D01*
X32551570Y-100360000D01*
X32555345Y-100300005D01*
X32555345Y-100299994D01*
X32535985Y-99992274D01*
X32535984Y-99992267D01*
X32535984Y-99992264D01*
X32478206Y-99689381D01*
X32474552Y-99678135D01*
X48798000Y-99678135D01*
X48798000Y-101041870D01*
X48798001Y-101041876D01*
X48804408Y-101101483D01*
X48854702Y-101236328D01*
X48854706Y-101236335D01*
X48940952Y-101351544D01*
X48940955Y-101351547D01*
X49056164Y-101437793D01*
X49056171Y-101437797D01*
X49191017Y-101488091D01*
X49191016Y-101488091D01*
X49197944Y-101488835D01*
X49250627Y-101494500D01*
X50614372Y-101494499D01*
X50673983Y-101488091D01*
X50808831Y-101437796D01*
X50924046Y-101351546D01*
X51010296Y-101236331D01*
X51060591Y-101101483D01*
X51067000Y-101041873D01*
X51066999Y-100359999D01*
X53873140Y-100359999D01*
X53873140Y-100360000D01*
X53892539Y-100569352D01*
X53892539Y-100569354D01*
X53892540Y-100569357D01*
X53922215Y-100673654D01*
X53950079Y-100771587D01*
X54043793Y-100959790D01*
X54043798Y-100959798D01*
X54170504Y-101127584D01*
X54325881Y-101269228D01*
X54325883Y-101269230D01*
X54369521Y-101296249D01*
X54504644Y-101379913D01*
X54700699Y-101455866D01*
X54907373Y-101494500D01*
X54907375Y-101494500D01*
X55117625Y-101494500D01*
X55117627Y-101494500D01*
X55324301Y-101455866D01*
X55520356Y-101379913D01*
X55699118Y-101269229D01*
X55854497Y-101127582D01*
X55981203Y-100959796D01*
X56074922Y-100771584D01*
X56132460Y-100569357D01*
X56151860Y-100360000D01*
X56132460Y-100150643D01*
X56074922Y-99948416D01*
X56010456Y-99818951D01*
X55981206Y-99760209D01*
X55981201Y-99760201D01*
X55854495Y-99592415D01*
X55699118Y-99450771D01*
X55699116Y-99450769D01*
X55548530Y-99357531D01*
X55520356Y-99340087D01*
X55324301Y-99264134D01*
X55117627Y-99225500D01*
X54907373Y-99225500D01*
X54700699Y-99264134D01*
X54700696Y-99264134D01*
X54700696Y-99264135D01*
X54504643Y-99340087D01*
X54504640Y-99340089D01*
X54325883Y-99450769D01*
X54325881Y-99450771D01*
X54170504Y-99592415D01*
X54043798Y-99760201D01*
X54043793Y-99760209D01*
X53950079Y-99948412D01*
X53892539Y-100150647D01*
X53873140Y-100359999D01*
X51066999Y-100359999D01*
X51066999Y-99678128D01*
X51060591Y-99618517D01*
X51057336Y-99609791D01*
X51010297Y-99483671D01*
X51010293Y-99483664D01*
X50924047Y-99368455D01*
X50924044Y-99368452D01*
X50808835Y-99282206D01*
X50808828Y-99282202D01*
X50673982Y-99231908D01*
X50673983Y-99231908D01*
X50614383Y-99225501D01*
X50614381Y-99225500D01*
X50614373Y-99225500D01*
X50614364Y-99225500D01*
X49250629Y-99225500D01*
X49250623Y-99225501D01*
X49191016Y-99231908D01*
X49056171Y-99282202D01*
X49056164Y-99282206D01*
X48940955Y-99368452D01*
X48940952Y-99368455D01*
X48854706Y-99483664D01*
X48854702Y-99483671D01*
X48804408Y-99618517D01*
X48801863Y-99642195D01*
X48798001Y-99678123D01*
X48798000Y-99678135D01*
X32474552Y-99678135D01*
X32382922Y-99396127D01*
X32374875Y-99379026D01*
X32251637Y-99117132D01*
X32251633Y-99117126D01*
X32086422Y-98856793D01*
X32086420Y-98856791D01*
X32086416Y-98856784D01*
X31889869Y-98619201D01*
X31845958Y-98577966D01*
X31665097Y-98408125D01*
X31665087Y-98408117D01*
X31415651Y-98226891D01*
X31415644Y-98226886D01*
X31415640Y-98226884D01*
X31145435Y-98078337D01*
X31145432Y-98078335D01*
X31145427Y-98078333D01*
X31145426Y-98078332D01*
X30858746Y-97964828D01*
X30858743Y-97964827D01*
X30560089Y-97888146D01*
X30560076Y-97888144D01*
X30258093Y-97849994D01*
X34267453Y-97849994D01*
X34267453Y-97850003D01*
X34287613Y-98119025D01*
X34287613Y-98119027D01*
X34347642Y-98382032D01*
X34347648Y-98382051D01*
X34446209Y-98633180D01*
X34446208Y-98633180D01*
X34581102Y-98866821D01*
X34634794Y-98934150D01*
X34634795Y-98934150D01*
X35356653Y-98212292D01*
X35363549Y-98228941D01*
X35451099Y-98359969D01*
X35562530Y-98471400D01*
X35693558Y-98558950D01*
X35710205Y-98565845D01*
X34987348Y-99288701D01*
X35169983Y-99413219D01*
X35169985Y-99413220D01*
X35413039Y-99530268D01*
X35413037Y-99530268D01*
X35670837Y-99609789D01*
X35670843Y-99609791D01*
X35937601Y-99649998D01*
X35937610Y-99649999D01*
X36207390Y-99649999D01*
X36207398Y-99649998D01*
X36474156Y-99609791D01*
X36474162Y-99609789D01*
X36731961Y-99530268D01*
X36975021Y-99413217D01*
X37157650Y-99288701D01*
X36978944Y-99109995D01*
X106794953Y-99109995D01*
X106794953Y-99110004D01*
X106815113Y-99379026D01*
X106815113Y-99379028D01*
X106875142Y-99642033D01*
X106875148Y-99642052D01*
X106973709Y-99893181D01*
X106973708Y-99893181D01*
X107108602Y-100126822D01*
X107162294Y-100194151D01*
X107162295Y-100194151D01*
X107884153Y-99472293D01*
X107891049Y-99488942D01*
X107978599Y-99619970D01*
X108090030Y-99731401D01*
X108221058Y-99818951D01*
X108237705Y-99825846D01*
X107514848Y-100548702D01*
X107697483Y-100673220D01*
X107697485Y-100673221D01*
X107940539Y-100790269D01*
X107940537Y-100790269D01*
X108198337Y-100869790D01*
X108198343Y-100869792D01*
X108465101Y-100909999D01*
X108465110Y-100910000D01*
X108734890Y-100910000D01*
X108734898Y-100909999D01*
X109001656Y-100869792D01*
X109001662Y-100869790D01*
X109259461Y-100790269D01*
X109502521Y-100673218D01*
X109685150Y-100548702D01*
X108962294Y-99825846D01*
X108978942Y-99818951D01*
X109109970Y-99731401D01*
X109221401Y-99619970D01*
X109308951Y-99488942D01*
X109315846Y-99472294D01*
X110037703Y-100194151D01*
X110037704Y-100194150D01*
X110091393Y-100126828D01*
X110091400Y-100126817D01*
X110226290Y-99893181D01*
X110324851Y-99642052D01*
X110324857Y-99642033D01*
X110384886Y-99379028D01*
X110384886Y-99379026D01*
X110405047Y-99110004D01*
X110405047Y-99109995D01*
X114414451Y-99109995D01*
X114414451Y-99110004D01*
X114434616Y-99379101D01*
X114494664Y-99642188D01*
X114494666Y-99642195D01*
X114540983Y-99760209D01*
X114593257Y-99893398D01*
X114728185Y-100127102D01*
X114781655Y-100194151D01*
X114896442Y-100338089D01*
X115083183Y-100511358D01*
X115094259Y-100521635D01*
X115317226Y-100673651D01*
X115560359Y-100790738D01*
X115818228Y-100870280D01*
X115818229Y-100870280D01*
X115818232Y-100870281D01*
X116085063Y-100910499D01*
X116085068Y-100910499D01*
X116085071Y-100910500D01*
X116085072Y-100910500D01*
X116354928Y-100910500D01*
X116354929Y-100910500D01*
X116354936Y-100910499D01*
X116621767Y-100870281D01*
X116621768Y-100870280D01*
X116621772Y-100870280D01*
X116879641Y-100790738D01*
X117122775Y-100673651D01*
X117345741Y-100521635D01*
X117543561Y-100338085D01*
X117573938Y-100299994D01*
X119644655Y-100299994D01*
X119644655Y-100300005D01*
X119664014Y-100607725D01*
X119664015Y-100607732D01*
X119676591Y-100673655D01*
X119721771Y-100910500D01*
X119721795Y-100910623D01*
X119817078Y-101203874D01*
X119817080Y-101203879D01*
X119948362Y-101482867D01*
X119948366Y-101482873D01*
X120113577Y-101743206D01*
X120113579Y-101743209D01*
X120113584Y-101743216D01*
X120310131Y-101980799D01*
X120525982Y-102183498D01*
X120534902Y-102191874D01*
X120534912Y-102191882D01*
X120784348Y-102373108D01*
X120784353Y-102373110D01*
X120784360Y-102373116D01*
X121054565Y-102521663D01*
X121054570Y-102521665D01*
X121054572Y-102521666D01*
X121054573Y-102521667D01*
X121341253Y-102635171D01*
X121341256Y-102635172D01*
X121628463Y-102708914D01*
X121639914Y-102711854D01*
X121704091Y-102719961D01*
X121945816Y-102750499D01*
X121945825Y-102750499D01*
X121945828Y-102750500D01*
X121945830Y-102750500D01*
X122254170Y-102750500D01*
X122254172Y-102750500D01*
X122254175Y-102750499D01*
X122254183Y-102750499D01*
X122436722Y-102727438D01*
X122560086Y-102711854D01*
X122858743Y-102635172D01*
X122858746Y-102635171D01*
X123145426Y-102521667D01*
X123145427Y-102521666D01*
X123145425Y-102521666D01*
X123145435Y-102521663D01*
X123415640Y-102373116D01*
X123665096Y-102191876D01*
X123889869Y-101980799D01*
X124086416Y-101743216D01*
X124251635Y-101482871D01*
X124382922Y-101203873D01*
X124478206Y-100910619D01*
X124535984Y-100607736D01*
X124551570Y-100360000D01*
X124555345Y-100300005D01*
X124555345Y-100299994D01*
X124535985Y-99992274D01*
X124535984Y-99992267D01*
X124535984Y-99992264D01*
X124478206Y-99689381D01*
X124382922Y-99396127D01*
X124374875Y-99379026D01*
X124251637Y-99117132D01*
X124251633Y-99117126D01*
X124086422Y-98856793D01*
X124086420Y-98856791D01*
X124086416Y-98856784D01*
X123889869Y-98619201D01*
X123845958Y-98577966D01*
X123665097Y-98408125D01*
X123665087Y-98408117D01*
X123415651Y-98226891D01*
X123415644Y-98226886D01*
X123415640Y-98226884D01*
X123145435Y-98078337D01*
X123145432Y-98078335D01*
X123145427Y-98078333D01*
X123145426Y-98078332D01*
X122858746Y-97964828D01*
X122858743Y-97964827D01*
X122560089Y-97888146D01*
X122560076Y-97888144D01*
X122254183Y-97849500D01*
X122254172Y-97849500D01*
X121945828Y-97849500D01*
X121945816Y-97849500D01*
X121639923Y-97888144D01*
X121639910Y-97888146D01*
X121341256Y-97964827D01*
X121341253Y-97964828D01*
X121054573Y-98078332D01*
X121054572Y-98078333D01*
X120784360Y-98226884D01*
X120784348Y-98226891D01*
X120534912Y-98408117D01*
X120534902Y-98408125D01*
X120310132Y-98619199D01*
X120113577Y-98856793D01*
X119948366Y-99117126D01*
X119948362Y-99117132D01*
X119817080Y-99396120D01*
X119817078Y-99396125D01*
X119721795Y-99689376D01*
X119664015Y-99992267D01*
X119664014Y-99992274D01*
X119644655Y-100299994D01*
X117573938Y-100299994D01*
X117711815Y-100127102D01*
X117846743Y-99893398D01*
X117945334Y-99642195D01*
X118005383Y-99379103D01*
X118016413Y-99231909D01*
X118025549Y-99110004D01*
X118025549Y-99109995D01*
X118006574Y-98856793D01*
X118005383Y-98840897D01*
X117945334Y-98577805D01*
X117846743Y-98326602D01*
X117711815Y-98092898D01*
X117543561Y-97881915D01*
X117543560Y-97881914D01*
X117543557Y-97881910D01*
X117345741Y-97698365D01*
X117173557Y-97580972D01*
X117122775Y-97546349D01*
X117122769Y-97546346D01*
X117122768Y-97546345D01*
X117122767Y-97546344D01*
X116879643Y-97429263D01*
X116879645Y-97429263D01*
X116621773Y-97349720D01*
X116621767Y-97349718D01*
X116354936Y-97309500D01*
X116354929Y-97309500D01*
X116085071Y-97309500D01*
X116085063Y-97309500D01*
X115818232Y-97349718D01*
X115818226Y-97349720D01*
X115560358Y-97429262D01*
X115317230Y-97546346D01*
X115094258Y-97698365D01*
X114896442Y-97881910D01*
X114728185Y-98092898D01*
X114593258Y-98326599D01*
X114593256Y-98326603D01*
X114494666Y-98577804D01*
X114494664Y-98577811D01*
X114434616Y-98840898D01*
X114414451Y-99109995D01*
X110405047Y-99109995D01*
X110384886Y-98840973D01*
X110384886Y-98840971D01*
X110324857Y-98577966D01*
X110324851Y-98577947D01*
X110226290Y-98326818D01*
X110226291Y-98326818D01*
X110091397Y-98093177D01*
X110037704Y-98025847D01*
X109315846Y-98747705D01*
X109308951Y-98731058D01*
X109221401Y-98600030D01*
X109109970Y-98488599D01*
X108978942Y-98401049D01*
X108962294Y-98394153D01*
X109685150Y-97671296D01*
X109502517Y-97546779D01*
X109502516Y-97546778D01*
X109259460Y-97429730D01*
X109259462Y-97429730D01*
X109001662Y-97350209D01*
X109001656Y-97350207D01*
X108734898Y-97310000D01*
X108465101Y-97310000D01*
X108198343Y-97350207D01*
X108198337Y-97350209D01*
X107940538Y-97429730D01*
X107697485Y-97546778D01*
X107697476Y-97546783D01*
X107514848Y-97671296D01*
X108237705Y-98394153D01*
X108221058Y-98401049D01*
X108090030Y-98488599D01*
X107978599Y-98600030D01*
X107891049Y-98731058D01*
X107884153Y-98747706D01*
X107162295Y-98025848D01*
X107108600Y-98093180D01*
X106973709Y-98326818D01*
X106875148Y-98577947D01*
X106875142Y-98577966D01*
X106815113Y-98840971D01*
X106815113Y-98840973D01*
X106794953Y-99109995D01*
X36978944Y-99109995D01*
X36434794Y-98565845D01*
X36451442Y-98558950D01*
X36582470Y-98471400D01*
X36693901Y-98359969D01*
X36781451Y-98228941D01*
X36788346Y-98212293D01*
X37510203Y-98934150D01*
X37510204Y-98934149D01*
X37563893Y-98866827D01*
X37563900Y-98866816D01*
X37698790Y-98633180D01*
X37797351Y-98382051D01*
X37797357Y-98382032D01*
X37857386Y-98119027D01*
X37857386Y-98119025D01*
X37877547Y-97850003D01*
X37877547Y-97849994D01*
X37857386Y-97580972D01*
X37857386Y-97580970D01*
X37797357Y-97317965D01*
X37797351Y-97317946D01*
X37698790Y-97066817D01*
X37698791Y-97066817D01*
X37563897Y-96833176D01*
X37510204Y-96765846D01*
X36788346Y-97487704D01*
X36781451Y-97471057D01*
X36693901Y-97340029D01*
X36582470Y-97228598D01*
X36451442Y-97141048D01*
X36434794Y-97134152D01*
X36978948Y-96589997D01*
X77286824Y-96589997D01*
X77286824Y-96590002D01*
X77307461Y-96773171D01*
X77353729Y-96905396D01*
X77368344Y-96947163D01*
X77466415Y-97103242D01*
X77596758Y-97233585D01*
X77752837Y-97331656D01*
X77885059Y-97377922D01*
X77926828Y-97392538D01*
X78109997Y-97413176D01*
X78110000Y-97413176D01*
X78110003Y-97413176D01*
X78293171Y-97392538D01*
X78293174Y-97392537D01*
X78467163Y-97331656D01*
X78623242Y-97233585D01*
X78753585Y-97103242D01*
X78851656Y-96947163D01*
X78912537Y-96773174D01*
X78912537Y-96773173D01*
X78912538Y-96773171D01*
X78933176Y-96590002D01*
X78933176Y-96589997D01*
X78912538Y-96406828D01*
X78874970Y-96299465D01*
X78851656Y-96232837D01*
X78753585Y-96076758D01*
X78623242Y-95946415D01*
X78571102Y-95913653D01*
X78467165Y-95848345D01*
X78467164Y-95848344D01*
X78467163Y-95848344D01*
X78425396Y-95833729D01*
X78293171Y-95787461D01*
X78110003Y-95766824D01*
X78109997Y-95766824D01*
X77926828Y-95787461D01*
X77752834Y-95848345D01*
X77596757Y-95946415D01*
X77466415Y-96076757D01*
X77368345Y-96232834D01*
X77307461Y-96406828D01*
X77286824Y-96589997D01*
X36978948Y-96589997D01*
X37157650Y-96411295D01*
X36975017Y-96286778D01*
X36975016Y-96286777D01*
X36731960Y-96169729D01*
X36731962Y-96169729D01*
X36474162Y-96090208D01*
X36474156Y-96090206D01*
X36207398Y-96049999D01*
X35937601Y-96049999D01*
X35670843Y-96090206D01*
X35670837Y-96090208D01*
X35413038Y-96169729D01*
X35169985Y-96286777D01*
X35169976Y-96286782D01*
X34987348Y-96411295D01*
X35710205Y-97134152D01*
X35693558Y-97141048D01*
X35562530Y-97228598D01*
X35451099Y-97340029D01*
X35363549Y-97471057D01*
X35356653Y-97487705D01*
X34634795Y-96765847D01*
X34581100Y-96833179D01*
X34446209Y-97066817D01*
X34347648Y-97317946D01*
X34347642Y-97317965D01*
X34287613Y-97580970D01*
X34287613Y-97580972D01*
X34267453Y-97849994D01*
X30258093Y-97849994D01*
X30254183Y-97849500D01*
X30254172Y-97849500D01*
X29945828Y-97849500D01*
X29945816Y-97849500D01*
X29639923Y-97888144D01*
X29639910Y-97888146D01*
X29341256Y-97964827D01*
X29341253Y-97964828D01*
X29054573Y-98078332D01*
X29054572Y-98078333D01*
X28784360Y-98226884D01*
X28784348Y-98226891D01*
X28534912Y-98408117D01*
X28534902Y-98408125D01*
X28310132Y-98619199D01*
X28113577Y-98856793D01*
X27948366Y-99117126D01*
X27948362Y-99117132D01*
X27817080Y-99396120D01*
X27817078Y-99396125D01*
X27721795Y-99689376D01*
X27664015Y-99992267D01*
X27664014Y-99992274D01*
X27644655Y-100299994D01*
X26608500Y-100299994D01*
X26608500Y-95279999D01*
X51333642Y-95279999D01*
X51333642Y-95280000D01*
X51353032Y-95489264D01*
X51410546Y-95691400D01*
X51410553Y-95691418D01*
X51504220Y-95879528D01*
X51504221Y-95879529D01*
X51510758Y-95888186D01*
X51510759Y-95888186D01*
X52092500Y-95306446D01*
X52092500Y-95330028D01*
X52118396Y-95426675D01*
X52168424Y-95513325D01*
X52239175Y-95584076D01*
X52325825Y-95634104D01*
X52422472Y-95660000D01*
X52446053Y-95660000D01*
X51867113Y-96238937D01*
X51964868Y-96299464D01*
X51964869Y-96299465D01*
X52160834Y-96375381D01*
X52367421Y-96414000D01*
X52577579Y-96414000D01*
X52784165Y-96375381D01*
X52980132Y-96299464D01*
X52980133Y-96299463D01*
X53077885Y-96238937D01*
X52498948Y-95660000D01*
X52522528Y-95660000D01*
X52619175Y-95634104D01*
X52705825Y-95584076D01*
X52776576Y-95513325D01*
X52826604Y-95426675D01*
X52852500Y-95330028D01*
X52852500Y-95306447D01*
X53434239Y-95888186D01*
X53440778Y-95879527D01*
X53440782Y-95879521D01*
X53534446Y-95691418D01*
X53534453Y-95691400D01*
X53591967Y-95489264D01*
X53611358Y-95280000D01*
X53611358Y-95279999D01*
X53591967Y-95070735D01*
X53534453Y-94868599D01*
X53534448Y-94868586D01*
X53440775Y-94680466D01*
X53434239Y-94671811D01*
X52852500Y-95253551D01*
X52852500Y-95229972D01*
X52826604Y-95133325D01*
X52776576Y-95046675D01*
X52705825Y-94975924D01*
X52619175Y-94925896D01*
X52522528Y-94900000D01*
X52498948Y-94900000D01*
X53048951Y-94349995D01*
X85904451Y-94349995D01*
X85904451Y-94350004D01*
X85924616Y-94619101D01*
X85984664Y-94882188D01*
X85984666Y-94882195D01*
X86064951Y-95086757D01*
X86083257Y-95133398D01*
X86218185Y-95367102D01*
X86354080Y-95537509D01*
X86386442Y-95578089D01*
X86508583Y-95691418D01*
X86584259Y-95761635D01*
X86807226Y-95913651D01*
X87050359Y-96030738D01*
X87308228Y-96110280D01*
X87308229Y-96110280D01*
X87308232Y-96110281D01*
X87575063Y-96150499D01*
X87575068Y-96150499D01*
X87575071Y-96150500D01*
X87575072Y-96150500D01*
X87844928Y-96150500D01*
X87844929Y-96150500D01*
X87844936Y-96150499D01*
X88111767Y-96110281D01*
X88111768Y-96110280D01*
X88111772Y-96110280D01*
X88369641Y-96030738D01*
X88612775Y-95913651D01*
X88835741Y-95761635D01*
X89009942Y-95600000D01*
X89033557Y-95578089D01*
X89033557Y-95578087D01*
X89033561Y-95578085D01*
X89201815Y-95367102D01*
X89336743Y-95133398D01*
X89435334Y-94882195D01*
X89495383Y-94619103D01*
X89502105Y-94529402D01*
X89515549Y-94350004D01*
X89515549Y-94349995D01*
X93524953Y-94349995D01*
X93524953Y-94350004D01*
X93545113Y-94619026D01*
X93545113Y-94619028D01*
X93605142Y-94882033D01*
X93605148Y-94882052D01*
X93703709Y-95133181D01*
X93703708Y-95133181D01*
X93838602Y-95366822D01*
X93892294Y-95434151D01*
X93892295Y-95434151D01*
X94614153Y-94712293D01*
X94621049Y-94728942D01*
X94708599Y-94859970D01*
X94820030Y-94971401D01*
X94951058Y-95058951D01*
X94967705Y-95065846D01*
X94244848Y-95788702D01*
X94427483Y-95913220D01*
X94427485Y-95913221D01*
X94670539Y-96030269D01*
X94670537Y-96030269D01*
X94928337Y-96109790D01*
X94928343Y-96109792D01*
X95195101Y-96149999D01*
X95195110Y-96150000D01*
X95464890Y-96150000D01*
X95464898Y-96149999D01*
X95731656Y-96109792D01*
X95731662Y-96109790D01*
X95989461Y-96030269D01*
X96232521Y-95913218D01*
X96415150Y-95788702D01*
X96226445Y-95599997D01*
X111356824Y-95599997D01*
X111356824Y-95600002D01*
X111377461Y-95783171D01*
X111438345Y-95957165D01*
X111521942Y-96090208D01*
X111536415Y-96113242D01*
X111666758Y-96243585D01*
X111822837Y-96341656D01*
X111955059Y-96387922D01*
X111996828Y-96402538D01*
X112179997Y-96423176D01*
X112180000Y-96423176D01*
X112180003Y-96423176D01*
X112363171Y-96402538D01*
X112363174Y-96402537D01*
X112537163Y-96341656D01*
X112693242Y-96243585D01*
X112823585Y-96113242D01*
X112921656Y-95957163D01*
X112982537Y-95783174D01*
X112982537Y-95783173D01*
X112982538Y-95783171D01*
X113003176Y-95600002D01*
X113003176Y-95599997D01*
X112982538Y-95416828D01*
X112952165Y-95330028D01*
X112921656Y-95242837D01*
X112823585Y-95086758D01*
X112693242Y-94956415D01*
X112575122Y-94882195D01*
X112537165Y-94858345D01*
X112537164Y-94858344D01*
X112537163Y-94858344D01*
X112495396Y-94843729D01*
X112363171Y-94797461D01*
X112180003Y-94776824D01*
X112179997Y-94776824D01*
X111996828Y-94797461D01*
X111822834Y-94858345D01*
X111666757Y-94956415D01*
X111536415Y-95086757D01*
X111438345Y-95242834D01*
X111377461Y-95416828D01*
X111356824Y-95599997D01*
X96226445Y-95599997D01*
X95692294Y-95065846D01*
X95708942Y-95058951D01*
X95839970Y-94971401D01*
X95951401Y-94859970D01*
X96038951Y-94728942D01*
X96045846Y-94712294D01*
X96767703Y-95434151D01*
X96767704Y-95434150D01*
X96821393Y-95366828D01*
X96821400Y-95366817D01*
X96956290Y-95133181D01*
X97054851Y-94882052D01*
X97054857Y-94882033D01*
X97114886Y-94619028D01*
X97114886Y-94619026D01*
X97135047Y-94350004D01*
X97135047Y-94349995D01*
X97114886Y-94080973D01*
X97114886Y-94080971D01*
X97059885Y-93839997D01*
X102576824Y-93839997D01*
X102576824Y-93840002D01*
X102597461Y-94023171D01*
X102630171Y-94116649D01*
X102653954Y-94184618D01*
X102658345Y-94197165D01*
X102704869Y-94271207D01*
X102756415Y-94353242D01*
X102886758Y-94483585D01*
X103042837Y-94581656D01*
X103175059Y-94627922D01*
X103216828Y-94642538D01*
X103399997Y-94663176D01*
X103400000Y-94663176D01*
X103400003Y-94663176D01*
X103583171Y-94642538D01*
X103583174Y-94642537D01*
X103757163Y-94581656D01*
X103913242Y-94483585D01*
X104043585Y-94353242D01*
X104141656Y-94197163D01*
X104202537Y-94023174D01*
X104202537Y-94023173D01*
X104202538Y-94023171D01*
X104223176Y-93840002D01*
X104223176Y-93839997D01*
X104202538Y-93656828D01*
X104187922Y-93615059D01*
X104141656Y-93482837D01*
X104043585Y-93326758D01*
X103913242Y-93196415D01*
X103757163Y-93098344D01*
X103715396Y-93083729D01*
X103583171Y-93037461D01*
X103400003Y-93016824D01*
X103399997Y-93016824D01*
X103216828Y-93037461D01*
X103042834Y-93098345D01*
X102886757Y-93196415D01*
X102756415Y-93326757D01*
X102658345Y-93482834D01*
X102597461Y-93656828D01*
X102576824Y-93839997D01*
X97059885Y-93839997D01*
X97054857Y-93817966D01*
X97054851Y-93817947D01*
X96956290Y-93566818D01*
X96956291Y-93566818D01*
X96821397Y-93333177D01*
X96767704Y-93265847D01*
X96045846Y-93987705D01*
X96038951Y-93971058D01*
X95951401Y-93840030D01*
X95839970Y-93728599D01*
X95708942Y-93641049D01*
X95692294Y-93634153D01*
X96415150Y-92911296D01*
X96232517Y-92786779D01*
X96232516Y-92786778D01*
X95989460Y-92669730D01*
X95989462Y-92669730D01*
X95731662Y-92590209D01*
X95731656Y-92590207D01*
X95464898Y-92550000D01*
X95195101Y-92550000D01*
X94928343Y-92590207D01*
X94928337Y-92590209D01*
X94670538Y-92669730D01*
X94427485Y-92786778D01*
X94427476Y-92786783D01*
X94244848Y-92911296D01*
X94967705Y-93634153D01*
X94951058Y-93641049D01*
X94820030Y-93728599D01*
X94708599Y-93840030D01*
X94621049Y-93971058D01*
X94614153Y-93987705D01*
X93892295Y-93265848D01*
X93838600Y-93333180D01*
X93703709Y-93566818D01*
X93605148Y-93817947D01*
X93605142Y-93817966D01*
X93545113Y-94080971D01*
X93545113Y-94080973D01*
X93524953Y-94349995D01*
X89515549Y-94349995D01*
X89495389Y-94080973D01*
X89495383Y-94080897D01*
X89435334Y-93817805D01*
X89336743Y-93566602D01*
X89201815Y-93332898D01*
X89033561Y-93121915D01*
X89033560Y-93121914D01*
X89033557Y-93121910D01*
X88835741Y-92938365D01*
X88796038Y-92911296D01*
X88612775Y-92786349D01*
X88612772Y-92786348D01*
X88612770Y-92786346D01*
X88498050Y-92731100D01*
X88446191Y-92684277D01*
X88427878Y-92616850D01*
X88448926Y-92550226D01*
X88502652Y-92505558D01*
X88510882Y-92502344D01*
X88627163Y-92461656D01*
X88783242Y-92363585D01*
X88913585Y-92233242D01*
X89011656Y-92077163D01*
X89072537Y-91903174D01*
X89072537Y-91903173D01*
X89072538Y-91903171D01*
X89093176Y-91720002D01*
X89093176Y-91719997D01*
X89072538Y-91536828D01*
X89049143Y-91469970D01*
X89031657Y-91419997D01*
X120726824Y-91419997D01*
X120726824Y-91420002D01*
X120747461Y-91603171D01*
X120770479Y-91668951D01*
X120802338Y-91760000D01*
X120808345Y-91777165D01*
X120892274Y-91910737D01*
X120906415Y-91933242D01*
X121036758Y-92063585D01*
X121192837Y-92161656D01*
X121325059Y-92207922D01*
X121366828Y-92222538D01*
X121549997Y-92243176D01*
X121550000Y-92243176D01*
X121550003Y-92243176D01*
X121733171Y-92222538D01*
X121733174Y-92222537D01*
X121907163Y-92161656D01*
X122063242Y-92063585D01*
X122193585Y-91933242D01*
X122291656Y-91777163D01*
X122352537Y-91603174D01*
X122352537Y-91603173D01*
X122352538Y-91603171D01*
X122373176Y-91420002D01*
X122373176Y-91419997D01*
X122352538Y-91236828D01*
X122337325Y-91193351D01*
X122291656Y-91062837D01*
X122193585Y-90906758D01*
X122063242Y-90776415D01*
X122039750Y-90761654D01*
X121907165Y-90678345D01*
X121907164Y-90678344D01*
X121907163Y-90678344D01*
X121864981Y-90663584D01*
X121733171Y-90617461D01*
X121550003Y-90596824D01*
X121549997Y-90596824D01*
X121366828Y-90617461D01*
X121192834Y-90678345D01*
X121036757Y-90776415D01*
X120906415Y-90906757D01*
X120808345Y-91062834D01*
X120747461Y-91236828D01*
X120726824Y-91419997D01*
X89031657Y-91419997D01*
X89011656Y-91362837D01*
X88913585Y-91206758D01*
X88783242Y-91076415D01*
X88682953Y-91013399D01*
X88627165Y-90978345D01*
X88627164Y-90978344D01*
X88627163Y-90978344D01*
X88574724Y-90959995D01*
X88453171Y-90917461D01*
X88270003Y-90896824D01*
X88269997Y-90896824D01*
X88086828Y-90917461D01*
X87912834Y-90978345D01*
X87756757Y-91076415D01*
X87626415Y-91206757D01*
X87528345Y-91362834D01*
X87467461Y-91536828D01*
X87446824Y-91719997D01*
X87446824Y-91720002D01*
X87467461Y-91903171D01*
X87528345Y-92077165D01*
X87626415Y-92233242D01*
X87730992Y-92337819D01*
X87764477Y-92399142D01*
X87759493Y-92468834D01*
X87717621Y-92524767D01*
X87652157Y-92549184D01*
X87643311Y-92549500D01*
X87575063Y-92549500D01*
X87308232Y-92589718D01*
X87308226Y-92589720D01*
X87050358Y-92669262D01*
X86807230Y-92786346D01*
X86584258Y-92938365D01*
X86386442Y-93121910D01*
X86218185Y-93332898D01*
X86083258Y-93566599D01*
X86083256Y-93566603D01*
X85984666Y-93817804D01*
X85984664Y-93817811D01*
X85924616Y-94080898D01*
X85904451Y-94349995D01*
X53048951Y-94349995D01*
X53077885Y-94321061D01*
X53077884Y-94321060D01*
X52980136Y-94260537D01*
X52980130Y-94260534D01*
X52784165Y-94184618D01*
X52577579Y-94146000D01*
X52367421Y-94146000D01*
X52160834Y-94184618D01*
X51964868Y-94260535D01*
X51867113Y-94321061D01*
X52446053Y-94900000D01*
X52422472Y-94900000D01*
X52325825Y-94925896D01*
X52239175Y-94975924D01*
X52168424Y-95046675D01*
X52118396Y-95133325D01*
X52092500Y-95229972D01*
X52092500Y-95253552D01*
X51510759Y-94671812D01*
X51510758Y-94671812D01*
X51504224Y-94680466D01*
X51504218Y-94680476D01*
X51410553Y-94868581D01*
X51410546Y-94868599D01*
X51353032Y-95070735D01*
X51333642Y-95279999D01*
X26608500Y-95279999D01*
X26608500Y-90229994D01*
X34266951Y-90229994D01*
X34266951Y-90230003D01*
X34287116Y-90499100D01*
X34347164Y-90762187D01*
X34347166Y-90762194D01*
X34442657Y-91005500D01*
X34445757Y-91013397D01*
X34580685Y-91247101D01*
X34672982Y-91362837D01*
X34748942Y-91458088D01*
X34881843Y-91581401D01*
X34946759Y-91641634D01*
X35169726Y-91793650D01*
X35412859Y-91910737D01*
X35670728Y-91990279D01*
X35670729Y-91990279D01*
X35670732Y-91990280D01*
X35937563Y-92030498D01*
X35937568Y-92030498D01*
X35937571Y-92030499D01*
X35937572Y-92030499D01*
X36207428Y-92030499D01*
X36207429Y-92030499D01*
X36207436Y-92030498D01*
X36474267Y-91990280D01*
X36474268Y-91990279D01*
X36474272Y-91990279D01*
X36732141Y-91910737D01*
X36975275Y-91793650D01*
X37198241Y-91641634D01*
X37396061Y-91458084D01*
X37564315Y-91247101D01*
X37699243Y-91013397D01*
X37797834Y-90762194D01*
X37857883Y-90499102D01*
X37878049Y-90229999D01*
X37875107Y-90190743D01*
X37857883Y-89960897D01*
X37857883Y-89960896D01*
X37797834Y-89697804D01*
X37699243Y-89446601D01*
X37564315Y-89212897D01*
X37396061Y-89001914D01*
X37396060Y-89001913D01*
X37396057Y-89001909D01*
X37198241Y-88818364D01*
X37187443Y-88811002D01*
X36975275Y-88666348D01*
X36975269Y-88666345D01*
X36975268Y-88666344D01*
X36975267Y-88666343D01*
X36856173Y-88608991D01*
X39384500Y-88608991D01*
X39384500Y-88811006D01*
X39423907Y-89009118D01*
X39423910Y-89009130D01*
X39457325Y-89089801D01*
X39464794Y-89159270D01*
X39445038Y-89204660D01*
X39445454Y-89204887D01*
X39442919Y-89209528D01*
X39442037Y-89211556D01*
X39441206Y-89212665D01*
X39441202Y-89212672D01*
X39390908Y-89347517D01*
X39385612Y-89396783D01*
X39384501Y-89407123D01*
X39384500Y-89407135D01*
X39384500Y-90552870D01*
X39384501Y-90552876D01*
X39390908Y-90612483D01*
X39441202Y-90747328D01*
X39441206Y-90747335D01*
X39527452Y-90862544D01*
X39527455Y-90862547D01*
X39642664Y-90948793D01*
X39642671Y-90948797D01*
X39777517Y-90999091D01*
X39777516Y-90999091D01*
X39784444Y-90999835D01*
X39837127Y-91005500D01*
X41432872Y-91005499D01*
X41492483Y-90999091D01*
X41597305Y-90959995D01*
X47091951Y-90959995D01*
X47091951Y-90960004D01*
X47112116Y-91229101D01*
X47172164Y-91492188D01*
X47172166Y-91492195D01*
X47261574Y-91720002D01*
X47270757Y-91743398D01*
X47405685Y-91977102D01*
X47485483Y-92077165D01*
X47573942Y-92188089D01*
X47735314Y-92337819D01*
X47771759Y-92371635D01*
X47994726Y-92523651D01*
X48237859Y-92640738D01*
X48495728Y-92720280D01*
X48495729Y-92720280D01*
X48495732Y-92720281D01*
X48762563Y-92760499D01*
X48762568Y-92760499D01*
X48762571Y-92760500D01*
X48762572Y-92760500D01*
X49032428Y-92760500D01*
X49032429Y-92760500D01*
X49032436Y-92760499D01*
X49299267Y-92720281D01*
X49299268Y-92720280D01*
X49299272Y-92720280D01*
X49557141Y-92640738D01*
X49800275Y-92523651D01*
X50023241Y-92371635D01*
X50176759Y-92229190D01*
X50221057Y-92188089D01*
X50221057Y-92188087D01*
X50221061Y-92188085D01*
X50389315Y-91977102D01*
X50524243Y-91743398D01*
X50622834Y-91492195D01*
X50682883Y-91229103D01*
X50695343Y-91062834D01*
X50703049Y-90960004D01*
X50703049Y-90959995D01*
X54712453Y-90959995D01*
X54712453Y-90960004D01*
X54732613Y-91229026D01*
X54732613Y-91229028D01*
X54792642Y-91492033D01*
X54792648Y-91492052D01*
X54891209Y-91743181D01*
X54891208Y-91743181D01*
X55026102Y-91976822D01*
X55079794Y-92044151D01*
X55079795Y-92044151D01*
X55801653Y-91322293D01*
X55808549Y-91338942D01*
X55896099Y-91469970D01*
X56007530Y-91581401D01*
X56138558Y-91668951D01*
X56155205Y-91675846D01*
X55432348Y-92398702D01*
X55614983Y-92523220D01*
X55614985Y-92523221D01*
X55858039Y-92640269D01*
X55858037Y-92640269D01*
X56115837Y-92719790D01*
X56115843Y-92719792D01*
X56382601Y-92759999D01*
X56382610Y-92760000D01*
X56652390Y-92760000D01*
X56652398Y-92759999D01*
X56919156Y-92719792D01*
X56919162Y-92719790D01*
X57176961Y-92640269D01*
X57420021Y-92523218D01*
X57602650Y-92398702D01*
X56879794Y-91675846D01*
X56896442Y-91668951D01*
X57027470Y-91581401D01*
X57138901Y-91469970D01*
X57226451Y-91338942D01*
X57233346Y-91322294D01*
X57955203Y-92044151D01*
X57955204Y-92044150D01*
X58008893Y-91976828D01*
X58008900Y-91976817D01*
X58143790Y-91743181D01*
X58242351Y-91492052D01*
X58242357Y-91492033D01*
X58302386Y-91229028D01*
X58302386Y-91229026D01*
X58322547Y-90960004D01*
X58322547Y-90959995D01*
X58302386Y-90690973D01*
X58302386Y-90690971D01*
X58242357Y-90427966D01*
X58242351Y-90427947D01*
X58143790Y-90176818D01*
X58143791Y-90176818D01*
X58053249Y-90019997D01*
X62956824Y-90019997D01*
X62956824Y-90020002D01*
X62977461Y-90203171D01*
X63038345Y-90377165D01*
X63084129Y-90450030D01*
X63136415Y-90533242D01*
X63266758Y-90663585D01*
X63422837Y-90761656D01*
X63555059Y-90807922D01*
X63596828Y-90822538D01*
X63779997Y-90843176D01*
X63780000Y-90843176D01*
X63780003Y-90843176D01*
X63963171Y-90822538D01*
X63963174Y-90822537D01*
X64137163Y-90761656D01*
X64293242Y-90663585D01*
X64423585Y-90533242D01*
X64521656Y-90377163D01*
X64582537Y-90203174D01*
X64582537Y-90203173D01*
X64582538Y-90203171D01*
X64589656Y-90139997D01*
X73776824Y-90139997D01*
X73776824Y-90140002D01*
X73797461Y-90323171D01*
X73858345Y-90497165D01*
X73956415Y-90653242D01*
X74086758Y-90783585D01*
X74242837Y-90881656D01*
X74375059Y-90927922D01*
X74416828Y-90942538D01*
X74599997Y-90963176D01*
X74600000Y-90963176D01*
X74600003Y-90963176D01*
X74783171Y-90942538D01*
X74783174Y-90942537D01*
X74957163Y-90881656D01*
X75113242Y-90783585D01*
X75243585Y-90653242D01*
X75341656Y-90497163D01*
X75402537Y-90323174D01*
X75402537Y-90323173D01*
X75402538Y-90323171D01*
X75423176Y-90140002D01*
X75423176Y-90139997D01*
X75402538Y-89956828D01*
X75387922Y-89915059D01*
X75341656Y-89782837D01*
X75243585Y-89626758D01*
X75113242Y-89496415D01*
X74971154Y-89407135D01*
X74957165Y-89398345D01*
X74957164Y-89398344D01*
X74957163Y-89398344D01*
X74915396Y-89383729D01*
X74783171Y-89337461D01*
X74600003Y-89316824D01*
X74599997Y-89316824D01*
X74416828Y-89337461D01*
X74242834Y-89398345D01*
X74086757Y-89496415D01*
X73956415Y-89626757D01*
X73858345Y-89782834D01*
X73797461Y-89956828D01*
X73776824Y-90139997D01*
X64589656Y-90139997D01*
X64603176Y-90020002D01*
X64603176Y-90019997D01*
X64582538Y-89836828D01*
X64567922Y-89795059D01*
X64521656Y-89662837D01*
X64423585Y-89506758D01*
X64293242Y-89376415D01*
X64137163Y-89278344D01*
X64095396Y-89263729D01*
X63963171Y-89217461D01*
X63780003Y-89196824D01*
X63779997Y-89196824D01*
X63596828Y-89217461D01*
X63422834Y-89278345D01*
X63266757Y-89376415D01*
X63136415Y-89506757D01*
X63038345Y-89662834D01*
X62977461Y-89836828D01*
X62956824Y-90019997D01*
X58053249Y-90019997D01*
X58008897Y-89943177D01*
X57955204Y-89875847D01*
X57233346Y-90597705D01*
X57226451Y-90581058D01*
X57138901Y-90450030D01*
X57027470Y-90338599D01*
X56896442Y-90251049D01*
X56879794Y-90244153D01*
X57602650Y-89521296D01*
X57420017Y-89396779D01*
X57420016Y-89396778D01*
X57176960Y-89279730D01*
X57176962Y-89279730D01*
X56919162Y-89200209D01*
X56919156Y-89200207D01*
X56652398Y-89160000D01*
X56382601Y-89160000D01*
X56115843Y-89200207D01*
X56115837Y-89200209D01*
X55858038Y-89279730D01*
X55614985Y-89396778D01*
X55614976Y-89396783D01*
X55432348Y-89521296D01*
X56155205Y-90244153D01*
X56138558Y-90251049D01*
X56007530Y-90338599D01*
X55896099Y-90450030D01*
X55808549Y-90581058D01*
X55801653Y-90597706D01*
X55079795Y-89875848D01*
X55026100Y-89943180D01*
X54891209Y-90176818D01*
X54792648Y-90427947D01*
X54792642Y-90427966D01*
X54732613Y-90690971D01*
X54732613Y-90690973D01*
X54712453Y-90959995D01*
X50703049Y-90959995D01*
X50682889Y-90690973D01*
X50682883Y-90690897D01*
X50622834Y-90427805D01*
X50524243Y-90176602D01*
X50389315Y-89942898D01*
X50221061Y-89731915D01*
X50221060Y-89731914D01*
X50221057Y-89731910D01*
X50023241Y-89548365D01*
X49962213Y-89506757D01*
X49800275Y-89396349D01*
X49800269Y-89396346D01*
X49800268Y-89396345D01*
X49800267Y-89396344D01*
X49557143Y-89279263D01*
X49557145Y-89279263D01*
X49299273Y-89199720D01*
X49299267Y-89199718D01*
X49032436Y-89159500D01*
X49032429Y-89159500D01*
X48762571Y-89159500D01*
X48762563Y-89159500D01*
X48495732Y-89199718D01*
X48495726Y-89199720D01*
X48237858Y-89279262D01*
X47994730Y-89396346D01*
X47771758Y-89548365D01*
X47573942Y-89731910D01*
X47405685Y-89942898D01*
X47270758Y-90176599D01*
X47270756Y-90176603D01*
X47172166Y-90427804D01*
X47172164Y-90427811D01*
X47112116Y-90690898D01*
X47091951Y-90959995D01*
X41597305Y-90959995D01*
X41627331Y-90948796D01*
X41742546Y-90862546D01*
X41828796Y-90747331D01*
X41879091Y-90612483D01*
X41885500Y-90552873D01*
X41885499Y-89407128D01*
X41879091Y-89347517D01*
X41875340Y-89337461D01*
X41828797Y-89212671D01*
X41828796Y-89212670D01*
X41828796Y-89212669D01*
X41827967Y-89211562D01*
X41827485Y-89210268D01*
X41824546Y-89204886D01*
X41825319Y-89204463D01*
X41803551Y-89146099D01*
X41812673Y-89089801D01*
X41846091Y-89009126D01*
X41885500Y-88811002D01*
X41885500Y-88608996D01*
X41846091Y-88410872D01*
X41771169Y-88229997D01*
X110396824Y-88229997D01*
X110396824Y-88230002D01*
X110417461Y-88413171D01*
X110478345Y-88587165D01*
X110528096Y-88666343D01*
X110576415Y-88743242D01*
X110706758Y-88873585D01*
X110862837Y-88971656D01*
X110995059Y-89017922D01*
X111036828Y-89032538D01*
X111219997Y-89053176D01*
X111220000Y-89053176D01*
X111220003Y-89053176D01*
X111403171Y-89032538D01*
X111403174Y-89032537D01*
X111577163Y-88971656D01*
X111733242Y-88873585D01*
X111863585Y-88743242D01*
X111961656Y-88587163D01*
X112022537Y-88413174D01*
X112022537Y-88413173D01*
X112022538Y-88413171D01*
X112043176Y-88230002D01*
X112043176Y-88229997D01*
X112022538Y-88046828D01*
X111980092Y-87925525D01*
X111961656Y-87872837D01*
X111863585Y-87716758D01*
X111733242Y-87586415D01*
X111728738Y-87583585D01*
X111577165Y-87488345D01*
X111577164Y-87488344D01*
X111577163Y-87488344D01*
X111535396Y-87473729D01*
X111403171Y-87427461D01*
X111220003Y-87406824D01*
X111219997Y-87406824D01*
X111036828Y-87427461D01*
X110862834Y-87488345D01*
X110706757Y-87586415D01*
X110576415Y-87716757D01*
X110478345Y-87872834D01*
X110417461Y-88046828D01*
X110396824Y-88229997D01*
X41771169Y-88229997D01*
X41768786Y-88224243D01*
X41714795Y-88143440D01*
X41693918Y-88076763D01*
X41712403Y-88009383D01*
X41714797Y-88005658D01*
X41768339Y-87925528D01*
X41768347Y-87925513D01*
X41845609Y-87738983D01*
X41845612Y-87738974D01*
X41855353Y-87690000D01*
X41000871Y-87690000D01*
X40976679Y-87687617D01*
X40961004Y-87684499D01*
X40961003Y-87684499D01*
X40920831Y-87684499D01*
X40935075Y-87670255D01*
X40984444Y-87584745D01*
X41010000Y-87489370D01*
X41010000Y-87390630D01*
X40984444Y-87295255D01*
X40935075Y-87209745D01*
X40915330Y-87190000D01*
X41855353Y-87190000D01*
X41845612Y-87141025D01*
X41845609Y-87141016D01*
X41768347Y-86954486D01*
X41768340Y-86954473D01*
X41656170Y-86786600D01*
X41656167Y-86786596D01*
X41513403Y-86643832D01*
X41513399Y-86643829D01*
X41345526Y-86531659D01*
X41345513Y-86531652D01*
X41158983Y-86454390D01*
X41158974Y-86454387D01*
X40960958Y-86415000D01*
X40885000Y-86415000D01*
X40885000Y-87159670D01*
X40865255Y-87139925D01*
X40779745Y-87090556D01*
X40684370Y-87065000D01*
X40585630Y-87065000D01*
X40490255Y-87090556D01*
X40404745Y-87139925D01*
X40385000Y-87159670D01*
X40385000Y-86415000D01*
X40309041Y-86415000D01*
X40111025Y-86454387D01*
X40111016Y-86454390D01*
X39924486Y-86531652D01*
X39924473Y-86531659D01*
X39756600Y-86643829D01*
X39756596Y-86643832D01*
X39613832Y-86786596D01*
X39613829Y-86786600D01*
X39501659Y-86954473D01*
X39501652Y-86954486D01*
X39424390Y-87141016D01*
X39424387Y-87141025D01*
X39414647Y-87190000D01*
X40354670Y-87190000D01*
X40334925Y-87209745D01*
X40285556Y-87295255D01*
X40260000Y-87390630D01*
X40260000Y-87489370D01*
X40285556Y-87584745D01*
X40334925Y-87670255D01*
X40349169Y-87684499D01*
X40308997Y-87684499D01*
X40308996Y-87684499D01*
X40293321Y-87687617D01*
X40269129Y-87690000D01*
X39414647Y-87690000D01*
X39424387Y-87738974D01*
X39424390Y-87738983D01*
X39501652Y-87925512D01*
X39501659Y-87925525D01*
X39555203Y-88005658D01*
X39576081Y-88072335D01*
X39557597Y-88139715D01*
X39555204Y-88143438D01*
X39501214Y-88224242D01*
X39423909Y-88410871D01*
X39423907Y-88410879D01*
X39384500Y-88608991D01*
X36856173Y-88608991D01*
X36732143Y-88549262D01*
X36732145Y-88549262D01*
X36474273Y-88469719D01*
X36474267Y-88469717D01*
X36207436Y-88429499D01*
X36207429Y-88429499D01*
X35937571Y-88429499D01*
X35937563Y-88429499D01*
X35670732Y-88469717D01*
X35670726Y-88469719D01*
X35412858Y-88549261D01*
X35169730Y-88666345D01*
X34946758Y-88818364D01*
X34748942Y-89001909D01*
X34580685Y-89212897D01*
X34445758Y-89446598D01*
X34445756Y-89446602D01*
X34347166Y-89697803D01*
X34347164Y-89697810D01*
X34287116Y-89960897D01*
X34266951Y-90229994D01*
X26608500Y-90229994D01*
X26608500Y-85717135D01*
X49847000Y-85717135D01*
X49847000Y-87312870D01*
X49847001Y-87312876D01*
X49853408Y-87372483D01*
X49903702Y-87507328D01*
X49903706Y-87507335D01*
X49989952Y-87622544D01*
X49989955Y-87622547D01*
X50105164Y-87708793D01*
X50105171Y-87708797D01*
X50240017Y-87759091D01*
X50240016Y-87759091D01*
X50246944Y-87759835D01*
X50299627Y-87765500D01*
X51445372Y-87765499D01*
X51504983Y-87759091D01*
X51639831Y-87708796D01*
X51640934Y-87707970D01*
X51642225Y-87707488D01*
X51647612Y-87704547D01*
X51648034Y-87705321D01*
X51706396Y-87683551D01*
X51762698Y-87692673D01*
X51843374Y-87726091D01*
X52041488Y-87765498D01*
X52041493Y-87765499D01*
X52041497Y-87765500D01*
X52041498Y-87765500D01*
X52243505Y-87765500D01*
X52243506Y-87765499D01*
X52441628Y-87726091D01*
X52628257Y-87648786D01*
X52709061Y-87594794D01*
X52775735Y-87573918D01*
X52843115Y-87592402D01*
X52846840Y-87594796D01*
X52926982Y-87648345D01*
X53113516Y-87725609D01*
X53113525Y-87725612D01*
X53162500Y-87735353D01*
X53162500Y-86880870D01*
X53164883Y-86856676D01*
X53168001Y-86841002D01*
X53168001Y-86800831D01*
X53182245Y-86815075D01*
X53267755Y-86864444D01*
X53363130Y-86890000D01*
X53461870Y-86890000D01*
X53557245Y-86864444D01*
X53642755Y-86815075D01*
X53662500Y-86795330D01*
X53662500Y-87735352D01*
X53711474Y-87725612D01*
X53711483Y-87725609D01*
X53898013Y-87648347D01*
X53898026Y-87648340D01*
X54065899Y-87536170D01*
X54065903Y-87536167D01*
X54208667Y-87393403D01*
X54208670Y-87393399D01*
X54320840Y-87225526D01*
X54320847Y-87225513D01*
X54398109Y-87038983D01*
X54398112Y-87038974D01*
X54417799Y-86939997D01*
X65056824Y-86939997D01*
X65056824Y-86940002D01*
X65077461Y-87123171D01*
X65100846Y-87190000D01*
X65137676Y-87295255D01*
X65138345Y-87297165D01*
X65207249Y-87406824D01*
X65236415Y-87453242D01*
X65366758Y-87583585D01*
X65522837Y-87681656D01*
X65643587Y-87723908D01*
X65696828Y-87742538D01*
X65879997Y-87763176D01*
X65880000Y-87763176D01*
X65880003Y-87763176D01*
X66063171Y-87742538D01*
X66070210Y-87740075D01*
X66237163Y-87681656D01*
X66393242Y-87583585D01*
X66523585Y-87453242D01*
X66621656Y-87297163D01*
X66682537Y-87123174D01*
X66682537Y-87123173D01*
X66682538Y-87123171D01*
X66703176Y-86940002D01*
X66703176Y-86939997D01*
X66682538Y-86756828D01*
X66648567Y-86659745D01*
X66621656Y-86582837D01*
X66523585Y-86426758D01*
X66393242Y-86296415D01*
X66343245Y-86265000D01*
X66237165Y-86198345D01*
X66237164Y-86198344D01*
X66237163Y-86198344D01*
X66195396Y-86183729D01*
X66063171Y-86137461D01*
X65880003Y-86116824D01*
X65879997Y-86116824D01*
X65696828Y-86137461D01*
X65522834Y-86198345D01*
X65366757Y-86296415D01*
X65236415Y-86426757D01*
X65138345Y-86582834D01*
X65077461Y-86756828D01*
X65056824Y-86939997D01*
X54417799Y-86939997D01*
X54437499Y-86840958D01*
X54437500Y-86840955D01*
X54437500Y-86765000D01*
X53692830Y-86765000D01*
X53712575Y-86745255D01*
X53761944Y-86659745D01*
X53787500Y-86564370D01*
X53787500Y-86465630D01*
X53761944Y-86370255D01*
X53712575Y-86284745D01*
X53692830Y-86265000D01*
X54437500Y-86265000D01*
X54437500Y-86189045D01*
X54437499Y-86189041D01*
X54398112Y-85991025D01*
X54398109Y-85991016D01*
X54320847Y-85804486D01*
X54320840Y-85804473D01*
X54208670Y-85636600D01*
X54208667Y-85636596D01*
X54065903Y-85493832D01*
X54065899Y-85493829D01*
X53898026Y-85381659D01*
X53898013Y-85381652D01*
X53711484Y-85304390D01*
X53711477Y-85304388D01*
X53662500Y-85294645D01*
X53662500Y-86234670D01*
X53642755Y-86214925D01*
X53557245Y-86165556D01*
X53461870Y-86140000D01*
X53363130Y-86140000D01*
X53267755Y-86165556D01*
X53182245Y-86214925D01*
X53168001Y-86229169D01*
X53168001Y-86188996D01*
X53168000Y-86188995D01*
X53164883Y-86173321D01*
X53162500Y-86149129D01*
X53162500Y-85294646D01*
X53162499Y-85294645D01*
X53113522Y-85304388D01*
X53113515Y-85304390D01*
X52926987Y-85381652D01*
X52926971Y-85381661D01*
X52846838Y-85435203D01*
X52780160Y-85456080D01*
X52712781Y-85437594D01*
X52709060Y-85435203D01*
X52628257Y-85381214D01*
X52441628Y-85303909D01*
X52441620Y-85303907D01*
X52243508Y-85264500D01*
X52243504Y-85264500D01*
X52041498Y-85264500D01*
X52041493Y-85264500D01*
X51843381Y-85303907D01*
X51843369Y-85303910D01*
X51762698Y-85337325D01*
X51693228Y-85344794D01*
X51647841Y-85325036D01*
X51647614Y-85325454D01*
X51642947Y-85322905D01*
X51640932Y-85322028D01*
X51639831Y-85321204D01*
X51639830Y-85321203D01*
X51639828Y-85321202D01*
X51504982Y-85270908D01*
X51504983Y-85270908D01*
X51445383Y-85264501D01*
X51445381Y-85264500D01*
X51445373Y-85264500D01*
X51445364Y-85264500D01*
X50299629Y-85264500D01*
X50299623Y-85264501D01*
X50240016Y-85270908D01*
X50105171Y-85321202D01*
X50105164Y-85321206D01*
X49989955Y-85407452D01*
X49989952Y-85407455D01*
X49903706Y-85522664D01*
X49903702Y-85522671D01*
X49853408Y-85657517D01*
X49847001Y-85717116D01*
X49847000Y-85717135D01*
X26608500Y-85717135D01*
X26608500Y-84309997D01*
X77446824Y-84309997D01*
X77446824Y-84310002D01*
X77467461Y-84493171D01*
X77479214Y-84526758D01*
X77522338Y-84650000D01*
X77528345Y-84667165D01*
X77626415Y-84823242D01*
X77756758Y-84953585D01*
X77912837Y-85051656D01*
X78045059Y-85097922D01*
X78086828Y-85112538D01*
X78269997Y-85133176D01*
X78270000Y-85133176D01*
X78270003Y-85133176D01*
X78453171Y-85112538D01*
X78453174Y-85112537D01*
X78627163Y-85051656D01*
X78783242Y-84953585D01*
X78913585Y-84823242D01*
X79011656Y-84667163D01*
X79017663Y-84649997D01*
X112186824Y-84649997D01*
X112186824Y-84650002D01*
X112207461Y-84833171D01*
X112268345Y-85007165D01*
X112347523Y-85133176D01*
X112366415Y-85163242D01*
X112496758Y-85293585D01*
X112652837Y-85391656D01*
X112777288Y-85435203D01*
X112826828Y-85452538D01*
X113009997Y-85473176D01*
X113010000Y-85473176D01*
X113010002Y-85473176D01*
X113097037Y-85463369D01*
X113165859Y-85475423D01*
X113215915Y-85520617D01*
X113217204Y-85522669D01*
X113236415Y-85553242D01*
X113366758Y-85683585D01*
X113522837Y-85781656D01*
X113655059Y-85827922D01*
X113696828Y-85842538D01*
X113879997Y-85863176D01*
X113880000Y-85863176D01*
X113880003Y-85863176D01*
X114063171Y-85842538D01*
X114063174Y-85842537D01*
X114237163Y-85781656D01*
X114393242Y-85683585D01*
X114523585Y-85553242D01*
X114621656Y-85397163D01*
X114682537Y-85223174D01*
X114682537Y-85223173D01*
X114682538Y-85223171D01*
X114703176Y-85040002D01*
X114703176Y-85039997D01*
X114682538Y-84856828D01*
X114667922Y-84815059D01*
X114621656Y-84682837D01*
X114523585Y-84526758D01*
X114393242Y-84396415D01*
X114255717Y-84310002D01*
X114237165Y-84298345D01*
X114237164Y-84298344D01*
X114237163Y-84298344D01*
X114195396Y-84283729D01*
X114063171Y-84237461D01*
X113880003Y-84216824D01*
X113879997Y-84216824D01*
X113792961Y-84226630D01*
X113724139Y-84214575D01*
X113674085Y-84169383D01*
X113653586Y-84136759D01*
X113523242Y-84006415D01*
X113367165Y-83908345D01*
X113367164Y-83908344D01*
X113367163Y-83908344D01*
X113325396Y-83893729D01*
X113193171Y-83847461D01*
X113010003Y-83826824D01*
X113009997Y-83826824D01*
X112826828Y-83847461D01*
X112652834Y-83908345D01*
X112496757Y-84006415D01*
X112366415Y-84136757D01*
X112268345Y-84292834D01*
X112207461Y-84466828D01*
X112186824Y-84649997D01*
X79017663Y-84649997D01*
X79072537Y-84493174D01*
X79072537Y-84493173D01*
X79072538Y-84493171D01*
X79093176Y-84310002D01*
X79093176Y-84309997D01*
X79072538Y-84126828D01*
X79057922Y-84085059D01*
X79011656Y-83952837D01*
X78913585Y-83796758D01*
X78783242Y-83666415D01*
X78627163Y-83568344D01*
X78585396Y-83553729D01*
X78453171Y-83507461D01*
X78270003Y-83486824D01*
X78269997Y-83486824D01*
X78086828Y-83507461D01*
X77912834Y-83568345D01*
X77756757Y-83666415D01*
X77626415Y-83796757D01*
X77528345Y-83952834D01*
X77467461Y-84126828D01*
X77446824Y-84309997D01*
X26608500Y-84309997D01*
X26608500Y-80599995D01*
X42321951Y-80599995D01*
X42321951Y-80600004D01*
X42342116Y-80869101D01*
X42402164Y-81132188D01*
X42402166Y-81132195D01*
X42498873Y-81378599D01*
X42500757Y-81383398D01*
X42635685Y-81617102D01*
X42736157Y-81743089D01*
X42803942Y-81828089D01*
X42989214Y-81999995D01*
X43001759Y-82011635D01*
X43224726Y-82163651D01*
X43467859Y-82280738D01*
X43725728Y-82360280D01*
X43725729Y-82360280D01*
X43725732Y-82360281D01*
X43992563Y-82400499D01*
X43992568Y-82400499D01*
X43992571Y-82400500D01*
X43992572Y-82400500D01*
X44262428Y-82400500D01*
X44262429Y-82400500D01*
X44262436Y-82400499D01*
X44529267Y-82360281D01*
X44529268Y-82360280D01*
X44529272Y-82360280D01*
X44787141Y-82280738D01*
X45030275Y-82163651D01*
X45253241Y-82011635D01*
X45451061Y-81828085D01*
X45619315Y-81617102D01*
X45754243Y-81383398D01*
X45852834Y-81132195D01*
X45912883Y-80869103D01*
X45933049Y-80600000D01*
X45926679Y-80515000D01*
X45926679Y-80514995D01*
X47741951Y-80514995D01*
X47741951Y-80515004D01*
X47762116Y-80784101D01*
X47822164Y-81047188D01*
X47822166Y-81047195D01*
X47917872Y-81291049D01*
X47920757Y-81298398D01*
X48055685Y-81532102D01*
X48191580Y-81702509D01*
X48223942Y-81743089D01*
X48410683Y-81916358D01*
X48421759Y-81926635D01*
X48644726Y-82078651D01*
X48887859Y-82195738D01*
X49145728Y-82275280D01*
X49145729Y-82275280D01*
X49145732Y-82275281D01*
X49412563Y-82315499D01*
X49412568Y-82315499D01*
X49412571Y-82315500D01*
X49412572Y-82315500D01*
X49682428Y-82315500D01*
X49682429Y-82315500D01*
X49682436Y-82315499D01*
X49949267Y-82275281D01*
X49949268Y-82275280D01*
X49949272Y-82275280D01*
X50207141Y-82195738D01*
X50450275Y-82078651D01*
X50565642Y-81999995D01*
X85904451Y-81999995D01*
X85904451Y-82000004D01*
X85924616Y-82269101D01*
X85949687Y-82378942D01*
X85984666Y-82532195D01*
X86083257Y-82783398D01*
X86218185Y-83017102D01*
X86271655Y-83084151D01*
X86386442Y-83228089D01*
X86573183Y-83401358D01*
X86584259Y-83411635D01*
X86807226Y-83563651D01*
X87050359Y-83680738D01*
X87308228Y-83760280D01*
X87308229Y-83760280D01*
X87308232Y-83760281D01*
X87575063Y-83800499D01*
X87575068Y-83800499D01*
X87575071Y-83800500D01*
X87575072Y-83800500D01*
X87844928Y-83800500D01*
X87844929Y-83800500D01*
X87844936Y-83800499D01*
X88111767Y-83760281D01*
X88111768Y-83760280D01*
X88111772Y-83760280D01*
X88369641Y-83680738D01*
X88612775Y-83563651D01*
X88835741Y-83411635D01*
X89033561Y-83228085D01*
X89201815Y-83017102D01*
X89336743Y-82783398D01*
X89435334Y-82532195D01*
X89495383Y-82269103D01*
X89503285Y-82163651D01*
X89515549Y-82000004D01*
X89515549Y-81999995D01*
X93524953Y-81999995D01*
X93524953Y-82000004D01*
X93545113Y-82269026D01*
X93545113Y-82269028D01*
X93605142Y-82532033D01*
X93605148Y-82532052D01*
X93703709Y-82783181D01*
X93703708Y-82783181D01*
X93838602Y-83016822D01*
X93892294Y-83084151D01*
X93892295Y-83084151D01*
X94614153Y-82362293D01*
X94621049Y-82378942D01*
X94708599Y-82509970D01*
X94820030Y-82621401D01*
X94951058Y-82708951D01*
X94967705Y-82715846D01*
X94244848Y-83438702D01*
X94427483Y-83563220D01*
X94427485Y-83563221D01*
X94670539Y-83680269D01*
X94670537Y-83680269D01*
X94928337Y-83759790D01*
X94928343Y-83759792D01*
X95195101Y-83799999D01*
X95195110Y-83800000D01*
X95464890Y-83800000D01*
X95464898Y-83799999D01*
X95731656Y-83759792D01*
X95731662Y-83759790D01*
X95989461Y-83680269D01*
X96232521Y-83563218D01*
X96415150Y-83438702D01*
X95692294Y-82715846D01*
X95708942Y-82708951D01*
X95839970Y-82621401D01*
X95951401Y-82509970D01*
X96038951Y-82378942D01*
X96045846Y-82362294D01*
X96767703Y-83084151D01*
X96767704Y-83084150D01*
X96821393Y-83016828D01*
X96821400Y-83016817D01*
X96956290Y-82783181D01*
X97054851Y-82532052D01*
X97054857Y-82532033D01*
X97114886Y-82269028D01*
X97114886Y-82269026D01*
X97135047Y-82000004D01*
X97135047Y-81999995D01*
X97114886Y-81730973D01*
X97114886Y-81730971D01*
X97054857Y-81467966D01*
X97054851Y-81467947D01*
X96956290Y-81216818D01*
X96956291Y-81216818D01*
X96821397Y-80983177D01*
X96767704Y-80915847D01*
X96045846Y-81637705D01*
X96038951Y-81621058D01*
X95951401Y-81490030D01*
X95839970Y-81378599D01*
X95708942Y-81291049D01*
X95692294Y-81284153D01*
X96415150Y-80561296D01*
X96232517Y-80436779D01*
X96232516Y-80436778D01*
X95989460Y-80319730D01*
X95989462Y-80319730D01*
X95731662Y-80240209D01*
X95731656Y-80240207D01*
X95464898Y-80200000D01*
X95195101Y-80200000D01*
X94928343Y-80240207D01*
X94928337Y-80240209D01*
X94670538Y-80319730D01*
X94427485Y-80436778D01*
X94427476Y-80436783D01*
X94244848Y-80561296D01*
X94967705Y-81284153D01*
X94951058Y-81291049D01*
X94820030Y-81378599D01*
X94708599Y-81490030D01*
X94621049Y-81621058D01*
X94614153Y-81637705D01*
X93892295Y-80915848D01*
X93838600Y-80983180D01*
X93703709Y-81216818D01*
X93605148Y-81467947D01*
X93605142Y-81467966D01*
X93545113Y-81730971D01*
X93545113Y-81730973D01*
X93524953Y-81999995D01*
X89515549Y-81999995D01*
X89495389Y-81730973D01*
X89495383Y-81730897D01*
X89435334Y-81467805D01*
X89336743Y-81216602D01*
X89201815Y-80982898D01*
X89033561Y-80771915D01*
X89033560Y-80771914D01*
X89033557Y-80771910D01*
X88835741Y-80588365D01*
X88728140Y-80515004D01*
X88612775Y-80436349D01*
X88612772Y-80436348D01*
X88612770Y-80436346D01*
X88522137Y-80392700D01*
X88470278Y-80345878D01*
X88451965Y-80278451D01*
X88473013Y-80211827D01*
X88512626Y-80177524D01*
X88511267Y-80175361D01*
X88581954Y-80130945D01*
X88673242Y-80073585D01*
X88803585Y-79943242D01*
X88901656Y-79787163D01*
X88962537Y-79613174D01*
X88962537Y-79613173D01*
X88962538Y-79613171D01*
X88983176Y-79430002D01*
X88983176Y-79429997D01*
X88979586Y-79398135D01*
X110095500Y-79398135D01*
X110095500Y-80761870D01*
X110095501Y-80761876D01*
X110101908Y-80821483D01*
X110152202Y-80956328D01*
X110152206Y-80956335D01*
X110238452Y-81071544D01*
X110238455Y-81071547D01*
X110353664Y-81157793D01*
X110353671Y-81157797D01*
X110488517Y-81208091D01*
X110488516Y-81208091D01*
X110495444Y-81208835D01*
X110548127Y-81214500D01*
X111911872Y-81214499D01*
X111971483Y-81208091D01*
X112106331Y-81157796D01*
X112221546Y-81071546D01*
X112307796Y-80956331D01*
X112358091Y-80821483D01*
X112364500Y-80761873D01*
X112364499Y-80079999D01*
X115170640Y-80079999D01*
X115170640Y-80080000D01*
X115190039Y-80289352D01*
X115190039Y-80289354D01*
X115190040Y-80289357D01*
X115239773Y-80464151D01*
X115247579Y-80491587D01*
X115341293Y-80679790D01*
X115341298Y-80679798D01*
X115468004Y-80847584D01*
X115623381Y-80989228D01*
X115623383Y-80989230D01*
X115698675Y-81035848D01*
X115802144Y-81099913D01*
X115998199Y-81175866D01*
X116204873Y-81214500D01*
X116204875Y-81214500D01*
X116415125Y-81214500D01*
X116415127Y-81214500D01*
X116621801Y-81175866D01*
X116817856Y-81099913D01*
X116996618Y-80989229D01*
X117151997Y-80847582D01*
X117278703Y-80679796D01*
X117372422Y-80491584D01*
X117429960Y-80289357D01*
X117449360Y-80080000D01*
X117448765Y-80073584D01*
X117429960Y-79870647D01*
X117429960Y-79870643D01*
X117372422Y-79668416D01*
X117287514Y-79497898D01*
X117278706Y-79480209D01*
X117278701Y-79480201D01*
X117203029Y-79379995D01*
X121574953Y-79379995D01*
X121574953Y-79380004D01*
X121595113Y-79649026D01*
X121595113Y-79649028D01*
X121655142Y-79912033D01*
X121655148Y-79912052D01*
X121753709Y-80163181D01*
X121753708Y-80163181D01*
X121888602Y-80396822D01*
X121942294Y-80464151D01*
X121942295Y-80464151D01*
X122664153Y-79742293D01*
X122671049Y-79758942D01*
X122758599Y-79889970D01*
X122870030Y-80001401D01*
X123001058Y-80088951D01*
X123017705Y-80095846D01*
X122294848Y-80818702D01*
X122477483Y-80943220D01*
X122477485Y-80943221D01*
X122720539Y-81060269D01*
X122720537Y-81060269D01*
X122978337Y-81139790D01*
X122978343Y-81139792D01*
X123245101Y-81179999D01*
X123245110Y-81180000D01*
X123514890Y-81180000D01*
X123514898Y-81179999D01*
X123781656Y-81139792D01*
X123781662Y-81139790D01*
X124039461Y-81060269D01*
X124282521Y-80943218D01*
X124465150Y-80818702D01*
X123742294Y-80095846D01*
X123758942Y-80088951D01*
X123889970Y-80001401D01*
X124001401Y-79889970D01*
X124088951Y-79758942D01*
X124095846Y-79742294D01*
X124817703Y-80464151D01*
X124817704Y-80464150D01*
X124871393Y-80396828D01*
X124871400Y-80396817D01*
X125006290Y-80163181D01*
X125104851Y-79912052D01*
X125104857Y-79912033D01*
X125164886Y-79649028D01*
X125164886Y-79649026D01*
X125185047Y-79380004D01*
X125185047Y-79379995D01*
X125164886Y-79110973D01*
X125164886Y-79110971D01*
X125104857Y-78847966D01*
X125104851Y-78847947D01*
X125006290Y-78596818D01*
X125006291Y-78596818D01*
X124871397Y-78363177D01*
X124817704Y-78295847D01*
X124095846Y-79017705D01*
X124088951Y-79001058D01*
X124001401Y-78870030D01*
X123889970Y-78758599D01*
X123758942Y-78671049D01*
X123742294Y-78664153D01*
X124465150Y-77941296D01*
X124282517Y-77816779D01*
X124282516Y-77816778D01*
X124039460Y-77699730D01*
X124039462Y-77699730D01*
X123781662Y-77620209D01*
X123781656Y-77620207D01*
X123514898Y-77580000D01*
X123245101Y-77580000D01*
X122978343Y-77620207D01*
X122978337Y-77620209D01*
X122720538Y-77699730D01*
X122477485Y-77816778D01*
X122477476Y-77816783D01*
X122294848Y-77941296D01*
X123017705Y-78664153D01*
X123001058Y-78671049D01*
X122870030Y-78758599D01*
X122758599Y-78870030D01*
X122671049Y-79001058D01*
X122664153Y-79017706D01*
X121942295Y-78295848D01*
X121888600Y-78363180D01*
X121753709Y-78596818D01*
X121655148Y-78847947D01*
X121655142Y-78847966D01*
X121595113Y-79110971D01*
X121595113Y-79110973D01*
X121574953Y-79379995D01*
X117203029Y-79379995D01*
X117151995Y-79312415D01*
X116996618Y-79170771D01*
X116996616Y-79170769D01*
X116817859Y-79060089D01*
X116817856Y-79060087D01*
X116756574Y-79036346D01*
X116621801Y-78984134D01*
X116415127Y-78945500D01*
X116204873Y-78945500D01*
X115998199Y-78984134D01*
X115998196Y-78984134D01*
X115998196Y-78984135D01*
X115802143Y-79060087D01*
X115802140Y-79060089D01*
X115623383Y-79170769D01*
X115623381Y-79170771D01*
X115468004Y-79312415D01*
X115341298Y-79480201D01*
X115341293Y-79480209D01*
X115247579Y-79668412D01*
X115190039Y-79870647D01*
X115170640Y-80079999D01*
X112364499Y-80079999D01*
X112364499Y-79398128D01*
X112358091Y-79338517D01*
X112344175Y-79301207D01*
X112307797Y-79203671D01*
X112307793Y-79203664D01*
X112221547Y-79088455D01*
X112221544Y-79088452D01*
X112106335Y-79002206D01*
X112106328Y-79002202D01*
X111971482Y-78951908D01*
X111971483Y-78951908D01*
X111911883Y-78945501D01*
X111911881Y-78945500D01*
X111911873Y-78945500D01*
X111911864Y-78945500D01*
X110548129Y-78945500D01*
X110548123Y-78945501D01*
X110488516Y-78951908D01*
X110353671Y-79002202D01*
X110353664Y-79002206D01*
X110238455Y-79088452D01*
X110238452Y-79088455D01*
X110152206Y-79203664D01*
X110152202Y-79203671D01*
X110101908Y-79338517D01*
X110095501Y-79398116D01*
X110095501Y-79398123D01*
X110095500Y-79398135D01*
X88979586Y-79398135D01*
X88962538Y-79246828D01*
X88947922Y-79205059D01*
X88901656Y-79072837D01*
X88803585Y-78916758D01*
X88673242Y-78786415D01*
X88517163Y-78688344D01*
X88475396Y-78673729D01*
X88343171Y-78627461D01*
X88160003Y-78606824D01*
X88159997Y-78606824D01*
X87976828Y-78627461D01*
X87802834Y-78688345D01*
X87646757Y-78786415D01*
X87516415Y-78916757D01*
X87418345Y-79072834D01*
X87357461Y-79246828D01*
X87336824Y-79429997D01*
X87336824Y-79430002D01*
X87357461Y-79613171D01*
X87418345Y-79787165D01*
X87516415Y-79943242D01*
X87573103Y-79999930D01*
X87606588Y-80061253D01*
X87601604Y-80130945D01*
X87559732Y-80186878D01*
X87503903Y-80210226D01*
X87308232Y-80239718D01*
X87308226Y-80239720D01*
X87050358Y-80319262D01*
X86807230Y-80436346D01*
X86584258Y-80588365D01*
X86386442Y-80771910D01*
X86218185Y-80982898D01*
X86083258Y-81216599D01*
X86083256Y-81216603D01*
X85984666Y-81467804D01*
X85984664Y-81467811D01*
X85924616Y-81730898D01*
X85904451Y-81999995D01*
X50565642Y-81999995D01*
X50673241Y-81926635D01*
X50871061Y-81743085D01*
X51039315Y-81532102D01*
X51174243Y-81298398D01*
X51272834Y-81047195D01*
X51332883Y-80784103D01*
X51353049Y-80515000D01*
X51351294Y-80491587D01*
X51332883Y-80245898D01*
X51331473Y-80239720D01*
X51272834Y-79982805D01*
X51174243Y-79731602D01*
X51039315Y-79497898D01*
X50871061Y-79286915D01*
X50871060Y-79286914D01*
X50871057Y-79286910D01*
X50673241Y-79103365D01*
X50609764Y-79060087D01*
X50450275Y-78951349D01*
X50450269Y-78951346D01*
X50450268Y-78951345D01*
X50450267Y-78951344D01*
X50207143Y-78834263D01*
X50207145Y-78834263D01*
X49949273Y-78754720D01*
X49949267Y-78754718D01*
X49682436Y-78714500D01*
X49682429Y-78714500D01*
X49412571Y-78714500D01*
X49412563Y-78714500D01*
X49145732Y-78754718D01*
X49145726Y-78754720D01*
X48887858Y-78834262D01*
X48644730Y-78951346D01*
X48421758Y-79103365D01*
X48223942Y-79286910D01*
X48055685Y-79497898D01*
X47920758Y-79731599D01*
X47920756Y-79731603D01*
X47822166Y-79982804D01*
X47822164Y-79982811D01*
X47762116Y-80245898D01*
X47741951Y-80514995D01*
X45926679Y-80514995D01*
X45912883Y-80330898D01*
X45903402Y-80289357D01*
X45852834Y-80067805D01*
X45754243Y-79816602D01*
X45619315Y-79582898D01*
X45451061Y-79371915D01*
X45451060Y-79371914D01*
X45451057Y-79371910D01*
X45253241Y-79188365D01*
X45192055Y-79146649D01*
X45030275Y-79036349D01*
X45030269Y-79036346D01*
X45030268Y-79036345D01*
X45030267Y-79036344D01*
X44787143Y-78919263D01*
X44787145Y-78919263D01*
X44529273Y-78839720D01*
X44529267Y-78839718D01*
X44262436Y-78799500D01*
X44262429Y-78799500D01*
X43992571Y-78799500D01*
X43992563Y-78799500D01*
X43725732Y-78839718D01*
X43725726Y-78839720D01*
X43467858Y-78919262D01*
X43224730Y-79036346D01*
X43001758Y-79188365D01*
X42803942Y-79371910D01*
X42635685Y-79582898D01*
X42500758Y-79816599D01*
X42500756Y-79816603D01*
X42402166Y-80067804D01*
X42402164Y-80067811D01*
X42342116Y-80330898D01*
X42321951Y-80599995D01*
X26608500Y-80599995D01*
X26608500Y-78369997D01*
X62116824Y-78369997D01*
X62116824Y-78370002D01*
X62137461Y-78553171D01*
X62198345Y-78727165D01*
X62256677Y-78820000D01*
X62296415Y-78883242D01*
X62426758Y-79013585D01*
X62582837Y-79111656D01*
X62715059Y-79157922D01*
X62756828Y-79172538D01*
X62939997Y-79193176D01*
X62940000Y-79193176D01*
X62940003Y-79193176D01*
X63123171Y-79172538D01*
X63128221Y-79170771D01*
X63297163Y-79111656D01*
X63453242Y-79013585D01*
X63583585Y-78883242D01*
X63623324Y-78819997D01*
X72636824Y-78819997D01*
X72636824Y-78820002D01*
X72657461Y-79003171D01*
X72695422Y-79111656D01*
X72716725Y-79172537D01*
X72718345Y-79177165D01*
X72803330Y-79312418D01*
X72816415Y-79333242D01*
X72946758Y-79463585D01*
X73102837Y-79561656D01*
X73235059Y-79607922D01*
X73276828Y-79622538D01*
X73459997Y-79643176D01*
X73460000Y-79643176D01*
X73460003Y-79643176D01*
X73643171Y-79622538D01*
X73669426Y-79613351D01*
X73817163Y-79561656D01*
X73973242Y-79463585D01*
X74103585Y-79333242D01*
X74201656Y-79177163D01*
X74262537Y-79003174D01*
X74262537Y-79003173D01*
X74262538Y-79003171D01*
X74283176Y-78820002D01*
X74283176Y-78819997D01*
X74262538Y-78636828D01*
X74233265Y-78553171D01*
X74201656Y-78462837D01*
X74103585Y-78306758D01*
X73973242Y-78176415D01*
X73817163Y-78078344D01*
X73775396Y-78063729D01*
X73643171Y-78017461D01*
X73460003Y-77996824D01*
X73459997Y-77996824D01*
X73276828Y-78017461D01*
X73102834Y-78078345D01*
X72946757Y-78176415D01*
X72816415Y-78306757D01*
X72718345Y-78462834D01*
X72657461Y-78636828D01*
X72636824Y-78819997D01*
X63623324Y-78819997D01*
X63681656Y-78727163D01*
X63742537Y-78553174D01*
X63742537Y-78553173D01*
X63742538Y-78553171D01*
X63763176Y-78370002D01*
X63763176Y-78369997D01*
X63742538Y-78186828D01*
X63704578Y-78078345D01*
X63681656Y-78012837D01*
X63583585Y-77856758D01*
X63453242Y-77726415D01*
X63297163Y-77628344D01*
X63255396Y-77613729D01*
X63123171Y-77567461D01*
X62940003Y-77546824D01*
X62939997Y-77546824D01*
X62756828Y-77567461D01*
X62582834Y-77628345D01*
X62426757Y-77726415D01*
X62296415Y-77856757D01*
X62198345Y-78012834D01*
X62137461Y-78186828D01*
X62116824Y-78369997D01*
X26608500Y-78369997D01*
X26608500Y-75936599D01*
X31448810Y-75936599D01*
X31467537Y-76174562D01*
X31523260Y-76406667D01*
X31614607Y-76627199D01*
X31614609Y-76627203D01*
X31614610Y-76627204D01*
X31739331Y-76830731D01*
X31894356Y-77012242D01*
X32075867Y-77167267D01*
X32279394Y-77291988D01*
X32279396Y-77291988D01*
X32279398Y-77291990D01*
X32355070Y-77323334D01*
X32499926Y-77383336D01*
X32732033Y-77439060D01*
X32969999Y-77457788D01*
X33207965Y-77439060D01*
X33440072Y-77383336D01*
X33660604Y-77291988D01*
X33864131Y-77167267D01*
X34045642Y-77012242D01*
X34200667Y-76830731D01*
X34325388Y-76627204D01*
X34416736Y-76406672D01*
X34472460Y-76174565D01*
X34491188Y-75936599D01*
X34472460Y-75698633D01*
X34416736Y-75466526D01*
X34325388Y-75245994D01*
X34200667Y-75042467D01*
X34164396Y-74999999D01*
X112630640Y-74999999D01*
X112630640Y-75000000D01*
X112650039Y-75209352D01*
X112650039Y-75209354D01*
X112650040Y-75209357D01*
X112707578Y-75411584D01*
X112707579Y-75411587D01*
X112801293Y-75599790D01*
X112801298Y-75599798D01*
X112928004Y-75767584D01*
X113083381Y-75909228D01*
X113083383Y-75909230D01*
X113127586Y-75936599D01*
X113262144Y-76019913D01*
X113458199Y-76095866D01*
X113664873Y-76134500D01*
X113664875Y-76134500D01*
X113875125Y-76134500D01*
X113875127Y-76134500D01*
X114081801Y-76095866D01*
X114277856Y-76019913D01*
X114456618Y-75909229D01*
X114611997Y-75767582D01*
X114738703Y-75599796D01*
X114832422Y-75411584D01*
X114889960Y-75209357D01*
X114909360Y-75000000D01*
X114889960Y-74790643D01*
X114832422Y-74588416D01*
X114825876Y-74575269D01*
X114738706Y-74400209D01*
X114738701Y-74400201D01*
X114611995Y-74232415D01*
X114456618Y-74090771D01*
X114456616Y-74090769D01*
X114277859Y-73980089D01*
X114277856Y-73980087D01*
X114101661Y-73911828D01*
X114081801Y-73904134D01*
X113875127Y-73865500D01*
X113664873Y-73865500D01*
X113458199Y-73904134D01*
X113458196Y-73904134D01*
X113458196Y-73904135D01*
X113262143Y-73980087D01*
X113262140Y-73980089D01*
X113083383Y-74090769D01*
X113083381Y-74090771D01*
X112928004Y-74232415D01*
X112801298Y-74400201D01*
X112801293Y-74400209D01*
X112707579Y-74588412D01*
X112707578Y-74588416D01*
X112653069Y-74779999D01*
X112650039Y-74790647D01*
X112630640Y-74999999D01*
X34164396Y-74999999D01*
X34045642Y-74860956D01*
X33864131Y-74705931D01*
X33660604Y-74581210D01*
X33660603Y-74581209D01*
X33660599Y-74581207D01*
X33440067Y-74489860D01*
X33207961Y-74434137D01*
X33207962Y-74434137D01*
X32969999Y-74415410D01*
X32732035Y-74434137D01*
X32499930Y-74489860D01*
X32279398Y-74581207D01*
X32075866Y-74705931D01*
X31894356Y-74860956D01*
X31739331Y-75042466D01*
X31614607Y-75245998D01*
X31523260Y-75466530D01*
X31467537Y-75698635D01*
X31448810Y-75936599D01*
X26608500Y-75936599D01*
X26608500Y-72979995D01*
X42322453Y-72979995D01*
X42322453Y-72980004D01*
X42342613Y-73249026D01*
X42342613Y-73249028D01*
X42402642Y-73512033D01*
X42402648Y-73512052D01*
X42501209Y-73763181D01*
X42501208Y-73763181D01*
X42636102Y-73996822D01*
X42689794Y-74064151D01*
X42689795Y-74064151D01*
X43411653Y-73342293D01*
X43418549Y-73358942D01*
X43506099Y-73489970D01*
X43617530Y-73601401D01*
X43748558Y-73688951D01*
X43765205Y-73695846D01*
X43042348Y-74418702D01*
X43224983Y-74543220D01*
X43224985Y-74543221D01*
X43468039Y-74660269D01*
X43468037Y-74660269D01*
X43725837Y-74739790D01*
X43725843Y-74739792D01*
X43992601Y-74779999D01*
X43992610Y-74780000D01*
X44262390Y-74780000D01*
X44262398Y-74779999D01*
X44529156Y-74739792D01*
X44529162Y-74739790D01*
X44786961Y-74660269D01*
X45030021Y-74543218D01*
X45212650Y-74418702D01*
X44489794Y-73695846D01*
X44506442Y-73688951D01*
X44637470Y-73601401D01*
X44748901Y-73489970D01*
X44836451Y-73358942D01*
X44843346Y-73342294D01*
X45565203Y-74064151D01*
X45565204Y-74064150D01*
X45618893Y-73996828D01*
X45618900Y-73996817D01*
X45753790Y-73763181D01*
X45852351Y-73512052D01*
X45852357Y-73512033D01*
X45912386Y-73249028D01*
X45912386Y-73249026D01*
X45932547Y-72980004D01*
X45932547Y-72979995D01*
X45926177Y-72894995D01*
X47742453Y-72894995D01*
X47742453Y-72895004D01*
X47762613Y-73164026D01*
X47762613Y-73164028D01*
X47822642Y-73427033D01*
X47822648Y-73427052D01*
X47921209Y-73678181D01*
X47921208Y-73678181D01*
X48056102Y-73911822D01*
X48109794Y-73979151D01*
X48109795Y-73979151D01*
X48831653Y-73257293D01*
X48838549Y-73273942D01*
X48926099Y-73404970D01*
X49037530Y-73516401D01*
X49168558Y-73603951D01*
X49185205Y-73610846D01*
X48462348Y-74333702D01*
X48644983Y-74458220D01*
X48644985Y-74458221D01*
X48888039Y-74575269D01*
X48888037Y-74575269D01*
X49145837Y-74654790D01*
X49145843Y-74654792D01*
X49412601Y-74694999D01*
X49412610Y-74695000D01*
X49682390Y-74695000D01*
X49682398Y-74694999D01*
X49949156Y-74654792D01*
X49949162Y-74654790D01*
X50206961Y-74575269D01*
X50450021Y-74458218D01*
X50632650Y-74333702D01*
X49909794Y-73610846D01*
X49926442Y-73603951D01*
X50057470Y-73516401D01*
X50168901Y-73404970D01*
X50256451Y-73273942D01*
X50263346Y-73257294D01*
X50985203Y-73979151D01*
X50985204Y-73979150D01*
X51038893Y-73911828D01*
X51038900Y-73911817D01*
X51173790Y-73678181D01*
X51272351Y-73427052D01*
X51272357Y-73427033D01*
X51332386Y-73164028D01*
X51332386Y-73164026D01*
X51352547Y-72895004D01*
X51352547Y-72894995D01*
X51344678Y-72789997D01*
X77456824Y-72789997D01*
X77456824Y-72790002D01*
X77477461Y-72973171D01*
X77496237Y-73026828D01*
X77538344Y-73147163D01*
X77636415Y-73303242D01*
X77766758Y-73433585D01*
X77922837Y-73531656D01*
X78024311Y-73567163D01*
X78096828Y-73592538D01*
X78279997Y-73613176D01*
X78280000Y-73613176D01*
X78280003Y-73613176D01*
X78463171Y-73592538D01*
X78463174Y-73592537D01*
X78637163Y-73531656D01*
X78793242Y-73433585D01*
X78923585Y-73303242D01*
X78982175Y-73209997D01*
X103846824Y-73209997D01*
X103846824Y-73210002D01*
X103867461Y-73393171D01*
X103928345Y-73567165D01*
X104008669Y-73695000D01*
X104026415Y-73723242D01*
X104156758Y-73853585D01*
X104312837Y-73951656D01*
X104441901Y-73996817D01*
X104486828Y-74012538D01*
X104669997Y-74033176D01*
X104670000Y-74033176D01*
X104670003Y-74033176D01*
X104853171Y-74012538D01*
X104853174Y-74012537D01*
X105027163Y-73951656D01*
X105183242Y-73853585D01*
X105313585Y-73723242D01*
X105411656Y-73567163D01*
X105472537Y-73393174D01*
X105472537Y-73393173D01*
X105472538Y-73393171D01*
X105493176Y-73210002D01*
X105493176Y-73209997D01*
X105472538Y-73026828D01*
X105428581Y-72901207D01*
X105411656Y-72852837D01*
X105313585Y-72696758D01*
X105183242Y-72566415D01*
X105146611Y-72543398D01*
X105027165Y-72468345D01*
X105027164Y-72468344D01*
X105027163Y-72468344D01*
X104968926Y-72447966D01*
X104853171Y-72407461D01*
X104670003Y-72386824D01*
X104669997Y-72386824D01*
X104486828Y-72407461D01*
X104312834Y-72468345D01*
X104156757Y-72566415D01*
X104026415Y-72696757D01*
X103928345Y-72852834D01*
X103867461Y-73026828D01*
X103846824Y-73209997D01*
X78982175Y-73209997D01*
X79021656Y-73147163D01*
X79082537Y-72973174D01*
X79082537Y-72973173D01*
X79082538Y-72973171D01*
X79103176Y-72790002D01*
X79103176Y-72789997D01*
X79082538Y-72606828D01*
X79034670Y-72470030D01*
X79021656Y-72432837D01*
X78923585Y-72276758D01*
X78793242Y-72146415D01*
X78719373Y-72100000D01*
X78637165Y-72048345D01*
X78637164Y-72048344D01*
X78637163Y-72048344D01*
X78582175Y-72029103D01*
X78463171Y-71987461D01*
X78280003Y-71966824D01*
X78279997Y-71966824D01*
X78096828Y-71987461D01*
X77922834Y-72048345D01*
X77766757Y-72146415D01*
X77636415Y-72276757D01*
X77538345Y-72432834D01*
X77477461Y-72606828D01*
X77456824Y-72789997D01*
X51344678Y-72789997D01*
X51332386Y-72625973D01*
X51332386Y-72625971D01*
X51272357Y-72362966D01*
X51272351Y-72362947D01*
X51173790Y-72111818D01*
X51173791Y-72111818D01*
X51038897Y-71878177D01*
X50985204Y-71810847D01*
X50263346Y-72532705D01*
X50256451Y-72516058D01*
X50168901Y-72385030D01*
X50057470Y-72273599D01*
X49926442Y-72186049D01*
X49909794Y-72179153D01*
X50632650Y-71456296D01*
X50450017Y-71331779D01*
X50450016Y-71331778D01*
X50206960Y-71214730D01*
X50206962Y-71214730D01*
X49949162Y-71135209D01*
X49949156Y-71135207D01*
X49682398Y-71095000D01*
X49412601Y-71095000D01*
X49145843Y-71135207D01*
X49145837Y-71135209D01*
X48888038Y-71214730D01*
X48644985Y-71331778D01*
X48644976Y-71331783D01*
X48462348Y-71456296D01*
X49185205Y-72179153D01*
X49168558Y-72186049D01*
X49037530Y-72273599D01*
X48926099Y-72385030D01*
X48838549Y-72516058D01*
X48831653Y-72532706D01*
X48109795Y-71810848D01*
X48056100Y-71878180D01*
X47921209Y-72111818D01*
X47822648Y-72362947D01*
X47822642Y-72362966D01*
X47762613Y-72625971D01*
X47762613Y-72625973D01*
X47742453Y-72894995D01*
X45926177Y-72894995D01*
X45912386Y-72710973D01*
X45912386Y-72710971D01*
X45852357Y-72447966D01*
X45852351Y-72447947D01*
X45753790Y-72196818D01*
X45753791Y-72196818D01*
X45618897Y-71963177D01*
X45565204Y-71895847D01*
X44843346Y-72617705D01*
X44836451Y-72601058D01*
X44748901Y-72470030D01*
X44637470Y-72358599D01*
X44506442Y-72271049D01*
X44489794Y-72264153D01*
X45212650Y-71541296D01*
X45030017Y-71416779D01*
X45030016Y-71416778D01*
X44786960Y-71299730D01*
X44786962Y-71299730D01*
X44529162Y-71220209D01*
X44529156Y-71220207D01*
X44262398Y-71180000D01*
X43992601Y-71180000D01*
X43725843Y-71220207D01*
X43725837Y-71220209D01*
X43468038Y-71299730D01*
X43224985Y-71416778D01*
X43224976Y-71416783D01*
X43042348Y-71541296D01*
X43765205Y-72264153D01*
X43748558Y-72271049D01*
X43617530Y-72358599D01*
X43506099Y-72470030D01*
X43418549Y-72601058D01*
X43411653Y-72617706D01*
X42689795Y-71895848D01*
X42636100Y-71963180D01*
X42501209Y-72196818D01*
X42402648Y-72447947D01*
X42402642Y-72447966D01*
X42342613Y-72710971D01*
X42342613Y-72710973D01*
X42322453Y-72979995D01*
X26608500Y-72979995D01*
X26608500Y-70936599D01*
X31449311Y-70936599D01*
X31468032Y-71174482D01*
X31523741Y-71406524D01*
X31615055Y-71626977D01*
X31733228Y-71819816D01*
X32283235Y-71269808D01*
X32294723Y-71297541D01*
X32378115Y-71422346D01*
X32484252Y-71528483D01*
X32609057Y-71611875D01*
X32636788Y-71623361D01*
X32086780Y-72173368D01*
X32279620Y-72291542D01*
X32500074Y-72382856D01*
X32500071Y-72382856D01*
X32732115Y-72438565D01*
X32969999Y-72457286D01*
X33207882Y-72438565D01*
X33439924Y-72382856D01*
X33660377Y-72291542D01*
X33853216Y-72173369D01*
X33853216Y-72173368D01*
X33303209Y-71623361D01*
X33330941Y-71611875D01*
X33455746Y-71528483D01*
X33561883Y-71422346D01*
X33645275Y-71297541D01*
X33656761Y-71269809D01*
X34206768Y-71819816D01*
X34206769Y-71819816D01*
X34324942Y-71626977D01*
X34416256Y-71406524D01*
X34471965Y-71174482D01*
X34490686Y-70936599D01*
X34471965Y-70698715D01*
X34416256Y-70466673D01*
X34347216Y-70299995D01*
X85854451Y-70299995D01*
X85854451Y-70300004D01*
X85874616Y-70569101D01*
X85934664Y-70832188D01*
X85934666Y-70832195D01*
X85991342Y-70976603D01*
X86033257Y-71083398D01*
X86168185Y-71317102D01*
X86252115Y-71422346D01*
X86336442Y-71528089D01*
X86426743Y-71611875D01*
X86534259Y-71711635D01*
X86757226Y-71863651D01*
X87000359Y-71980738D01*
X87258228Y-72060280D01*
X87258229Y-72060280D01*
X87258232Y-72060281D01*
X87525063Y-72100499D01*
X87525068Y-72100499D01*
X87525071Y-72100500D01*
X87525072Y-72100500D01*
X87794928Y-72100500D01*
X87794929Y-72100500D01*
X87794936Y-72100499D01*
X88061767Y-72060281D01*
X88061768Y-72060280D01*
X88061772Y-72060280D01*
X88319641Y-71980738D01*
X88532605Y-71878180D01*
X88562767Y-71863655D01*
X88562767Y-71863654D01*
X88562775Y-71863651D01*
X88785741Y-71711635D01*
X88983561Y-71528085D01*
X89151815Y-71317102D01*
X89286743Y-71083398D01*
X89385334Y-70832195D01*
X89445383Y-70569103D01*
X89453059Y-70466673D01*
X89465549Y-70300004D01*
X89465549Y-70299995D01*
X93474953Y-70299995D01*
X93474953Y-70300004D01*
X93495113Y-70569026D01*
X93495113Y-70569028D01*
X93555142Y-70832033D01*
X93555148Y-70832052D01*
X93653709Y-71083181D01*
X93653708Y-71083181D01*
X93788602Y-71316822D01*
X93842294Y-71384151D01*
X93842295Y-71384151D01*
X94564153Y-70662293D01*
X94571049Y-70678942D01*
X94658599Y-70809970D01*
X94770030Y-70921401D01*
X94901058Y-71008951D01*
X94917705Y-71015846D01*
X94194848Y-71738702D01*
X94377483Y-71863220D01*
X94377485Y-71863221D01*
X94620539Y-71980269D01*
X94620537Y-71980269D01*
X94878337Y-72059790D01*
X94878343Y-72059792D01*
X95145101Y-72099999D01*
X95145110Y-72100000D01*
X95414890Y-72100000D01*
X95414898Y-72099999D01*
X95681656Y-72059792D01*
X95681662Y-72059790D01*
X95939461Y-71980269D01*
X96182521Y-71863218D01*
X96365150Y-71738702D01*
X96196445Y-71569997D01*
X115286824Y-71569997D01*
X115286824Y-71570002D01*
X115307461Y-71753171D01*
X115345970Y-71863221D01*
X115357386Y-71895848D01*
X115368345Y-71927165D01*
X115401713Y-71980269D01*
X115466415Y-72083242D01*
X115596758Y-72213585D01*
X115752837Y-72311656D01*
X115885059Y-72357922D01*
X115926828Y-72372538D01*
X116109997Y-72393176D01*
X116110000Y-72393176D01*
X116110003Y-72393176D01*
X116293171Y-72372538D01*
X116293174Y-72372537D01*
X116467163Y-72311656D01*
X116623242Y-72213585D01*
X116753585Y-72083242D01*
X116851656Y-71927163D01*
X116910150Y-71759995D01*
X121574451Y-71759995D01*
X121574451Y-71760004D01*
X121594616Y-72029101D01*
X121654664Y-72292188D01*
X121654666Y-72292195D01*
X121723800Y-72468345D01*
X121753257Y-72543398D01*
X121888185Y-72777102D01*
X121948582Y-72852837D01*
X122056442Y-72988089D01*
X122243183Y-73161358D01*
X122254259Y-73171635D01*
X122477226Y-73323651D01*
X122720359Y-73440738D01*
X122978228Y-73520280D01*
X122978229Y-73520280D01*
X122978232Y-73520281D01*
X123245063Y-73560499D01*
X123245068Y-73560499D01*
X123245071Y-73560500D01*
X123245072Y-73560500D01*
X123514928Y-73560500D01*
X123514929Y-73560500D01*
X123514936Y-73560499D01*
X123781767Y-73520281D01*
X123781768Y-73520280D01*
X123781772Y-73520280D01*
X124039641Y-73440738D01*
X124282775Y-73323651D01*
X124505741Y-73171635D01*
X124703561Y-72988085D01*
X124871815Y-72777102D01*
X125006743Y-72543398D01*
X125105334Y-72292195D01*
X125165383Y-72029103D01*
X125177781Y-71863655D01*
X125185549Y-71760004D01*
X125185549Y-71759995D01*
X125165383Y-71490898D01*
X125165383Y-71490897D01*
X125105334Y-71227805D01*
X125006743Y-70976602D01*
X124871815Y-70742898D01*
X124703561Y-70531915D01*
X124703560Y-70531914D01*
X124703557Y-70531910D01*
X124505741Y-70348365D01*
X124500387Y-70344715D01*
X124282775Y-70196349D01*
X124282769Y-70196346D01*
X124282768Y-70196345D01*
X124282767Y-70196344D01*
X124039643Y-70079263D01*
X124039645Y-70079263D01*
X123781773Y-69999720D01*
X123781767Y-69999718D01*
X123514936Y-69959500D01*
X123514929Y-69959500D01*
X123245071Y-69959500D01*
X123245063Y-69959500D01*
X122978232Y-69999718D01*
X122978226Y-69999720D01*
X122720358Y-70079262D01*
X122477230Y-70196346D01*
X122254258Y-70348365D01*
X122056442Y-70531910D01*
X121888185Y-70742898D01*
X121753258Y-70976599D01*
X121753256Y-70976603D01*
X121654666Y-71227804D01*
X121654664Y-71227811D01*
X121594616Y-71490898D01*
X121574451Y-71759995D01*
X116910150Y-71759995D01*
X116912537Y-71753174D01*
X116912537Y-71753173D01*
X116912538Y-71753171D01*
X116933176Y-71570002D01*
X116933176Y-71569997D01*
X116912538Y-71386828D01*
X116893275Y-71331778D01*
X116851656Y-71212837D01*
X116753585Y-71056758D01*
X116623242Y-70926415D01*
X116615262Y-70921401D01*
X116467165Y-70828345D01*
X116467164Y-70828344D01*
X116467163Y-70828344D01*
X116414653Y-70809970D01*
X116293171Y-70767461D01*
X116110003Y-70746824D01*
X116109997Y-70746824D01*
X115926828Y-70767461D01*
X115752834Y-70828345D01*
X115596757Y-70926415D01*
X115466415Y-71056757D01*
X115368345Y-71212834D01*
X115307461Y-71386828D01*
X115286824Y-71569997D01*
X96196445Y-71569997D01*
X95642294Y-71015846D01*
X95658942Y-71008951D01*
X95789970Y-70921401D01*
X95901401Y-70809970D01*
X95988951Y-70678942D01*
X95995846Y-70662294D01*
X96717703Y-71384151D01*
X96717704Y-71384150D01*
X96771393Y-71316828D01*
X96771400Y-71316817D01*
X96906290Y-71083181D01*
X97004851Y-70832052D01*
X97004857Y-70832033D01*
X97064886Y-70569028D01*
X97064886Y-70569026D01*
X97085047Y-70300004D01*
X97085047Y-70299995D01*
X97064886Y-70030973D01*
X97064886Y-70030971D01*
X97004857Y-69767966D01*
X97004851Y-69767947D01*
X96906290Y-69516818D01*
X96906291Y-69516818D01*
X96771397Y-69283177D01*
X96717704Y-69215847D01*
X95995846Y-69937705D01*
X95988951Y-69921058D01*
X95901401Y-69790030D01*
X95789970Y-69678599D01*
X95658942Y-69591049D01*
X95642294Y-69584153D01*
X96365150Y-68861296D01*
X96201904Y-68749997D01*
X108976824Y-68749997D01*
X108976824Y-68750002D01*
X108997461Y-68933171D01*
X109039230Y-69052537D01*
X109058344Y-69107163D01*
X109156415Y-69263242D01*
X109286758Y-69393585D01*
X109442837Y-69491656D01*
X109554542Y-69530743D01*
X109616828Y-69552538D01*
X109799997Y-69573176D01*
X109800000Y-69573176D01*
X109800003Y-69573176D01*
X109983171Y-69552538D01*
X109983174Y-69552537D01*
X110157163Y-69491656D01*
X110313242Y-69393585D01*
X110443585Y-69263242D01*
X110541656Y-69107163D01*
X110602537Y-68933174D01*
X110602537Y-68933173D01*
X110602538Y-68933171D01*
X110623176Y-68750002D01*
X110623176Y-68749997D01*
X110602538Y-68566828D01*
X110577094Y-68494115D01*
X110541656Y-68392837D01*
X110443585Y-68236758D01*
X110313242Y-68106415D01*
X110185974Y-68026447D01*
X110157165Y-68008345D01*
X110157164Y-68008344D01*
X110157163Y-68008344D01*
X110115396Y-67993729D01*
X109983171Y-67947461D01*
X109800003Y-67926824D01*
X109799997Y-67926824D01*
X109616828Y-67947461D01*
X109442834Y-68008345D01*
X109286757Y-68106415D01*
X109156415Y-68236757D01*
X109058345Y-68392834D01*
X108997461Y-68566828D01*
X108976824Y-68749997D01*
X96201904Y-68749997D01*
X96182517Y-68736779D01*
X96182516Y-68736778D01*
X95939460Y-68619730D01*
X95939462Y-68619730D01*
X95681662Y-68540209D01*
X95681656Y-68540207D01*
X95414898Y-68500000D01*
X95145101Y-68500000D01*
X94878343Y-68540207D01*
X94878337Y-68540209D01*
X94620538Y-68619730D01*
X94377485Y-68736778D01*
X94377476Y-68736783D01*
X94194848Y-68861296D01*
X94917705Y-69584153D01*
X94901058Y-69591049D01*
X94770030Y-69678599D01*
X94658599Y-69790030D01*
X94571049Y-69921058D01*
X94564153Y-69937706D01*
X93842295Y-69215848D01*
X93788600Y-69283180D01*
X93653709Y-69516818D01*
X93555148Y-69767947D01*
X93555142Y-69767966D01*
X93495113Y-70030971D01*
X93495113Y-70030973D01*
X93474953Y-70299995D01*
X89465549Y-70299995D01*
X89445389Y-70030973D01*
X89445383Y-70030897D01*
X89385334Y-69767805D01*
X89286743Y-69516602D01*
X89151815Y-69282898D01*
X88983561Y-69071915D01*
X88983560Y-69071914D01*
X88983557Y-69071910D01*
X88785741Y-68888365D01*
X88626944Y-68780099D01*
X88562775Y-68736349D01*
X88562769Y-68736346D01*
X88562768Y-68736345D01*
X88562766Y-68736344D01*
X88321116Y-68619972D01*
X88269256Y-68573150D01*
X88250943Y-68505723D01*
X88271991Y-68439099D01*
X88325717Y-68394430D01*
X88361035Y-68385032D01*
X88383170Y-68382538D01*
X88383172Y-68382537D01*
X88383174Y-68382537D01*
X88557163Y-68321656D01*
X88713242Y-68223585D01*
X88843585Y-68093242D01*
X88941656Y-67937163D01*
X89002537Y-67763174D01*
X89002537Y-67763173D01*
X89002538Y-67763171D01*
X89023176Y-67580002D01*
X89023176Y-67579997D01*
X89002538Y-67396828D01*
X88975655Y-67320002D01*
X88941656Y-67222837D01*
X88843585Y-67066758D01*
X88713242Y-66936415D01*
X88557165Y-66838345D01*
X88557164Y-66838344D01*
X88557163Y-66838344D01*
X88515396Y-66823729D01*
X88383171Y-66777461D01*
X88200003Y-66756824D01*
X88199997Y-66756824D01*
X88016828Y-66777461D01*
X87842834Y-66838345D01*
X87686757Y-66936415D01*
X87556415Y-67066757D01*
X87458345Y-67222834D01*
X87397461Y-67396828D01*
X87376824Y-67579997D01*
X87376824Y-67580002D01*
X87397461Y-67763171D01*
X87458345Y-67937165D01*
X87556415Y-68093242D01*
X87686757Y-68223584D01*
X87686763Y-68223589D01*
X87761432Y-68270507D01*
X87807723Y-68322841D01*
X87818371Y-68391895D01*
X87789996Y-68455743D01*
X87731606Y-68494115D01*
X87695460Y-68499500D01*
X87525063Y-68499500D01*
X87258232Y-68539718D01*
X87258226Y-68539720D01*
X87000358Y-68619262D01*
X86757230Y-68736346D01*
X86534258Y-68888365D01*
X86336442Y-69071910D01*
X86168185Y-69282898D01*
X86033258Y-69516599D01*
X86033256Y-69516603D01*
X85934666Y-69767804D01*
X85934664Y-69767811D01*
X85874616Y-70030898D01*
X85854451Y-70299995D01*
X34347216Y-70299995D01*
X34324942Y-70246220D01*
X34206768Y-70053380D01*
X33656761Y-70603387D01*
X33645275Y-70575657D01*
X33561883Y-70450852D01*
X33455746Y-70344715D01*
X33330941Y-70261323D01*
X33303209Y-70249836D01*
X33853216Y-69699828D01*
X33660377Y-69581655D01*
X33439923Y-69490341D01*
X33439926Y-69490341D01*
X33207882Y-69434632D01*
X32969999Y-69415911D01*
X32732115Y-69434632D01*
X32500073Y-69490341D01*
X32279620Y-69581655D01*
X32086780Y-69699828D01*
X32636788Y-70249836D01*
X32609057Y-70261323D01*
X32484252Y-70344715D01*
X32378115Y-70450852D01*
X32294723Y-70575657D01*
X32283236Y-70603388D01*
X31733228Y-70053380D01*
X31615055Y-70246220D01*
X31523741Y-70466673D01*
X31468032Y-70698715D01*
X31449311Y-70936599D01*
X26608500Y-70936599D01*
X26608500Y-68379994D01*
X64964859Y-68379994D01*
X64964859Y-68380005D01*
X64985385Y-68627729D01*
X64985387Y-68627738D01*
X65046412Y-68868717D01*
X65146266Y-69096364D01*
X65246564Y-69249882D01*
X65987037Y-68509409D01*
X66004075Y-68572993D01*
X66069901Y-68687007D01*
X66162993Y-68780099D01*
X66277007Y-68845925D01*
X66340590Y-68862962D01*
X65599942Y-69603609D01*
X65646768Y-69640055D01*
X65646770Y-69640056D01*
X65865385Y-69758364D01*
X65865396Y-69758369D01*
X66100506Y-69839083D01*
X66345707Y-69880000D01*
X66594293Y-69880000D01*
X66839493Y-69839083D01*
X67074603Y-69758369D01*
X67074614Y-69758364D01*
X67293228Y-69640057D01*
X67293231Y-69640055D01*
X67340056Y-69603609D01*
X66599409Y-68862962D01*
X66662993Y-68845925D01*
X66777007Y-68780099D01*
X66870099Y-68687007D01*
X66935925Y-68572993D01*
X66952962Y-68509410D01*
X67693434Y-69249882D01*
X67793731Y-69096369D01*
X67893587Y-68868717D01*
X67954612Y-68627738D01*
X67954614Y-68627729D01*
X67975141Y-68380005D01*
X67975141Y-68379994D01*
X67954614Y-68132270D01*
X67954612Y-68132261D01*
X67893587Y-67891282D01*
X67793731Y-67663630D01*
X67693434Y-67510116D01*
X66952962Y-68250589D01*
X66935925Y-68187007D01*
X66870099Y-68072993D01*
X66777007Y-67979901D01*
X66662993Y-67914075D01*
X66599410Y-67897037D01*
X66996450Y-67499997D01*
X72696824Y-67499997D01*
X72696824Y-67500002D01*
X72717461Y-67683171D01*
X72778345Y-67857165D01*
X72835082Y-67947461D01*
X72876415Y-68013242D01*
X73006758Y-68143585D01*
X73162837Y-68241656D01*
X73295059Y-68287922D01*
X73336828Y-68302538D01*
X73519997Y-68323176D01*
X73520000Y-68323176D01*
X73520003Y-68323176D01*
X73703171Y-68302538D01*
X73703174Y-68302537D01*
X73877163Y-68241656D01*
X74033242Y-68143585D01*
X74163585Y-68013242D01*
X74261656Y-67857163D01*
X74322537Y-67683174D01*
X74322537Y-67683173D01*
X74322538Y-67683171D01*
X74343176Y-67500002D01*
X74343176Y-67499997D01*
X74322538Y-67316828D01*
X74267651Y-67159971D01*
X74261656Y-67142837D01*
X74163585Y-66986758D01*
X74033242Y-66856415D01*
X74004482Y-66838344D01*
X73877165Y-66758345D01*
X73877164Y-66758344D01*
X73877163Y-66758344D01*
X73835396Y-66743729D01*
X73703171Y-66697461D01*
X73520003Y-66676824D01*
X73519997Y-66676824D01*
X73336828Y-66697461D01*
X73162834Y-66758345D01*
X73006757Y-66856415D01*
X72876415Y-66986757D01*
X72778345Y-67142834D01*
X72717461Y-67316828D01*
X72696824Y-67499997D01*
X66996450Y-67499997D01*
X67340057Y-67156390D01*
X67340056Y-67156389D01*
X67293229Y-67119943D01*
X67074614Y-67001635D01*
X67074603Y-67001630D01*
X66839493Y-66920916D01*
X66594293Y-66880000D01*
X66345707Y-66880000D01*
X66100506Y-66920916D01*
X65865396Y-67001630D01*
X65865390Y-67001632D01*
X65646761Y-67119949D01*
X65599942Y-67156388D01*
X65599942Y-67156390D01*
X66340590Y-67897037D01*
X66277007Y-67914075D01*
X66162993Y-67979901D01*
X66069901Y-68072993D01*
X66004075Y-68187007D01*
X65987037Y-68250589D01*
X65246564Y-67510116D01*
X65146267Y-67663632D01*
X65046412Y-67891282D01*
X64985387Y-68132261D01*
X64985385Y-68132270D01*
X64964859Y-68379994D01*
X26608500Y-68379994D01*
X26608500Y-65792205D01*
X26628185Y-65725166D01*
X26680989Y-65679411D01*
X26750147Y-65669467D01*
X26809231Y-65696198D01*
X26809691Y-65695565D01*
X26812760Y-65697795D01*
X26813039Y-65697921D01*
X26813636Y-65698431D01*
X27028368Y-65830019D01*
X27261043Y-65926396D01*
X27505927Y-65985187D01*
X27757000Y-66004947D01*
X28008072Y-65985187D01*
X28252956Y-65926396D01*
X28485631Y-65830019D01*
X28665169Y-65719998D01*
X107394645Y-65719998D01*
X107394645Y-65720001D01*
X107414039Y-65991160D01*
X107414040Y-65991167D01*
X107417038Y-66004947D01*
X107471825Y-66256801D01*
X107548330Y-66461920D01*
X107566830Y-66511519D01*
X107697109Y-66750107D01*
X107697110Y-66750108D01*
X107697113Y-66750113D01*
X107860029Y-66967742D01*
X107860033Y-66967746D01*
X107860038Y-66967752D01*
X108052247Y-67159961D01*
X108052253Y-67159966D01*
X108052258Y-67159971D01*
X108269887Y-67322887D01*
X108269891Y-67322889D01*
X108269892Y-67322890D01*
X108508481Y-67453169D01*
X108508480Y-67453169D01*
X108508484Y-67453170D01*
X108508487Y-67453172D01*
X108763199Y-67548175D01*
X109028840Y-67605961D01*
X109280605Y-67623967D01*
X109299999Y-67625355D01*
X109300000Y-67625355D01*
X109300001Y-67625355D01*
X109318100Y-67624060D01*
X109571160Y-67605961D01*
X109836801Y-67548175D01*
X110091513Y-67453172D01*
X110091517Y-67453169D01*
X110091519Y-67453169D01*
X110210813Y-67388029D01*
X110330113Y-67322887D01*
X110547742Y-67159971D01*
X110739971Y-66967742D01*
X110902887Y-66750113D01*
X111033172Y-66511513D01*
X111128175Y-66256801D01*
X111185961Y-65991160D01*
X111205355Y-65720000D01*
X111185961Y-65448840D01*
X111128175Y-65183199D01*
X111033172Y-64928487D01*
X111033170Y-64928484D01*
X111033169Y-64928480D01*
X110902890Y-64689892D01*
X110902889Y-64689891D01*
X110902887Y-64689887D01*
X110775708Y-64519997D01*
X121741926Y-64519997D01*
X121741926Y-64520002D01*
X121762563Y-64703171D01*
X121823447Y-64877165D01*
X121855695Y-64928487D01*
X121921517Y-65033242D01*
X122051860Y-65163585D01*
X122207939Y-65261656D01*
X122340161Y-65307922D01*
X122381930Y-65322538D01*
X122565099Y-65343176D01*
X122565102Y-65343176D01*
X122565105Y-65343176D01*
X122748273Y-65322538D01*
X122748276Y-65322537D01*
X122922265Y-65261656D01*
X123078344Y-65163585D01*
X123208687Y-65033242D01*
X123306758Y-64877163D01*
X123367639Y-64703174D01*
X123367639Y-64703173D01*
X123367640Y-64703171D01*
X123388278Y-64520002D01*
X123388278Y-64519997D01*
X123367640Y-64336828D01*
X123347765Y-64280028D01*
X123306758Y-64162837D01*
X123208687Y-64006758D01*
X123078344Y-63876415D01*
X122962436Y-63803585D01*
X122922267Y-63778345D01*
X122922266Y-63778344D01*
X122922265Y-63778344D01*
X122880498Y-63763729D01*
X122748273Y-63717461D01*
X122565105Y-63696824D01*
X122565099Y-63696824D01*
X122381930Y-63717461D01*
X122207936Y-63778345D01*
X122051859Y-63876415D01*
X121921517Y-64006757D01*
X121823447Y-64162834D01*
X121762563Y-64336828D01*
X121741926Y-64519997D01*
X110775708Y-64519997D01*
X110739971Y-64472258D01*
X110739966Y-64472253D01*
X110739961Y-64472247D01*
X110547752Y-64280038D01*
X110547746Y-64280033D01*
X110547742Y-64280029D01*
X110330113Y-64117113D01*
X110330108Y-64117110D01*
X110330107Y-64117109D01*
X110091518Y-63986830D01*
X110091519Y-63986830D01*
X110026389Y-63962538D01*
X109836801Y-63891825D01*
X109836794Y-63891823D01*
X109836793Y-63891823D01*
X109571167Y-63834040D01*
X109571160Y-63834039D01*
X109300001Y-63814645D01*
X109299999Y-63814645D01*
X109028839Y-63834039D01*
X109028832Y-63834040D01*
X108763206Y-63891823D01*
X108763202Y-63891824D01*
X108763199Y-63891825D01*
X108635843Y-63939326D01*
X108508480Y-63986830D01*
X108269892Y-64117109D01*
X108269891Y-64117110D01*
X108052259Y-64280028D01*
X108052247Y-64280038D01*
X107860038Y-64472247D01*
X107860028Y-64472259D01*
X107697110Y-64689891D01*
X107697109Y-64689892D01*
X107566830Y-64928480D01*
X107527756Y-65033242D01*
X107471825Y-65183199D01*
X107471824Y-65183202D01*
X107471823Y-65183206D01*
X107414040Y-65448832D01*
X107414039Y-65448839D01*
X107394645Y-65719998D01*
X28665169Y-65719998D01*
X28700361Y-65698432D01*
X28700363Y-65698430D01*
X28701180Y-65697732D01*
X28081025Y-65077577D01*
X28112258Y-65064641D01*
X28235097Y-64982563D01*
X28339563Y-64878097D01*
X28421641Y-64755258D01*
X28434578Y-64724025D01*
X29054732Y-65344180D01*
X29055430Y-65343363D01*
X29055432Y-65343361D01*
X29187019Y-65128631D01*
X29283396Y-64895956D01*
X29342187Y-64651072D01*
X29361947Y-64400000D01*
X29342187Y-64148927D01*
X29283396Y-63904043D01*
X29187019Y-63671368D01*
X29055429Y-63456634D01*
X29054733Y-63455819D01*
X29054732Y-63455819D01*
X28434577Y-64075973D01*
X28421641Y-64044742D01*
X28339563Y-63921903D01*
X28235097Y-63817437D01*
X28112258Y-63735359D01*
X28081024Y-63722421D01*
X28701179Y-63102266D01*
X28700362Y-63101568D01*
X28485631Y-62969980D01*
X28252956Y-62873603D01*
X28008072Y-62814812D01*
X27757000Y-62795052D01*
X27505927Y-62814812D01*
X27261043Y-62873603D01*
X27028368Y-62969980D01*
X26813637Y-63101568D01*
X26813627Y-63101574D01*
X26813027Y-63102088D01*
X26812751Y-63102211D01*
X26809691Y-63104435D01*
X26809223Y-63103791D01*
X26749264Y-63130656D01*
X26680179Y-63120215D01*
X26627705Y-63074082D01*
X26608500Y-63007794D01*
X26608500Y-61799994D01*
X43494357Y-61799994D01*
X43494357Y-61800005D01*
X43514890Y-62047812D01*
X43514892Y-62047824D01*
X43575936Y-62288881D01*
X43675826Y-62516606D01*
X43811833Y-62724782D01*
X43811836Y-62724785D01*
X43980256Y-62907738D01*
X44176491Y-63060474D01*
X44395190Y-63178828D01*
X44630386Y-63259571D01*
X44875665Y-63300500D01*
X45124335Y-63300500D01*
X45369614Y-63259571D01*
X45604810Y-63178828D01*
X45823509Y-63060474D01*
X46019744Y-62907738D01*
X46188164Y-62724785D01*
X46237025Y-62649998D01*
X102244645Y-62649998D01*
X102244645Y-62650001D01*
X102264039Y-62921160D01*
X102264040Y-62921167D01*
X102320091Y-63178830D01*
X102321825Y-63186801D01*
X102397250Y-63389023D01*
X102416830Y-63441519D01*
X102547109Y-63680107D01*
X102547110Y-63680108D01*
X102547113Y-63680113D01*
X102710029Y-63897742D01*
X102710033Y-63897746D01*
X102710038Y-63897752D01*
X102902247Y-64089961D01*
X102902253Y-64089966D01*
X102902258Y-64089971D01*
X103119887Y-64252887D01*
X103119891Y-64252889D01*
X103119892Y-64252890D01*
X103358481Y-64383169D01*
X103358480Y-64383169D01*
X103358484Y-64383170D01*
X103358487Y-64383172D01*
X103613199Y-64478175D01*
X103878840Y-64535961D01*
X104130605Y-64553967D01*
X104149999Y-64555355D01*
X104150000Y-64555355D01*
X104150001Y-64555355D01*
X104168100Y-64554060D01*
X104421160Y-64535961D01*
X104686801Y-64478175D01*
X104941513Y-64383172D01*
X104941517Y-64383169D01*
X104941519Y-64383169D01*
X105130408Y-64280028D01*
X105180113Y-64252887D01*
X105397742Y-64089971D01*
X105589971Y-63897742D01*
X105752887Y-63680113D01*
X105883172Y-63441513D01*
X105896746Y-63405118D01*
X105938616Y-63349185D01*
X106004081Y-63324767D01*
X106072354Y-63339618D01*
X106121760Y-63389023D01*
X106129969Y-63407496D01*
X106168342Y-63517159D01*
X106168343Y-63517163D01*
X106251811Y-63650000D01*
X106266415Y-63673242D01*
X106396758Y-63803585D01*
X106552837Y-63901656D01*
X106685059Y-63947922D01*
X106726828Y-63962538D01*
X106909997Y-63983176D01*
X106910000Y-63983176D01*
X106910003Y-63983176D01*
X107093171Y-63962538D01*
X107093174Y-63962537D01*
X107267163Y-63901656D01*
X107423242Y-63803585D01*
X107553585Y-63673242D01*
X107651656Y-63517163D01*
X107712537Y-63343174D01*
X107712537Y-63343173D01*
X107712538Y-63343171D01*
X107733176Y-63160002D01*
X107733176Y-63159997D01*
X107712538Y-62976828D01*
X107688362Y-62907738D01*
X107651656Y-62802837D01*
X107553585Y-62646758D01*
X107423242Y-62516415D01*
X107267163Y-62418344D01*
X107225396Y-62403729D01*
X107093171Y-62357461D01*
X106910003Y-62336824D01*
X106909997Y-62336824D01*
X106726828Y-62357461D01*
X106552834Y-62418345D01*
X106396757Y-62516415D01*
X106261491Y-62651682D01*
X106259340Y-62649531D01*
X106213035Y-62681876D01*
X106143217Y-62684567D01*
X106083028Y-62649085D01*
X106051577Y-62586694D01*
X106049861Y-62573189D01*
X106035961Y-62378840D01*
X105978175Y-62113199D01*
X105883172Y-61858487D01*
X105883170Y-61858484D01*
X105883169Y-61858480D01*
X105752890Y-61619892D01*
X105752889Y-61619891D01*
X105752887Y-61619887D01*
X105589971Y-61402258D01*
X105589966Y-61402253D01*
X105589961Y-61402247D01*
X105397752Y-61210038D01*
X105397746Y-61210033D01*
X105397742Y-61210029D01*
X105180113Y-61047113D01*
X105180108Y-61047110D01*
X105180107Y-61047109D01*
X104941518Y-60916830D01*
X104941519Y-60916830D01*
X104891920Y-60898330D01*
X104686801Y-60821825D01*
X104686794Y-60821823D01*
X104686793Y-60821823D01*
X104421167Y-60764040D01*
X104421160Y-60764039D01*
X104150001Y-60744645D01*
X104149999Y-60744645D01*
X103878839Y-60764039D01*
X103878832Y-60764040D01*
X103613206Y-60821823D01*
X103613202Y-60821824D01*
X103613199Y-60821825D01*
X103485843Y-60869326D01*
X103358480Y-60916830D01*
X103119892Y-61047109D01*
X103119891Y-61047110D01*
X102902259Y-61210028D01*
X102902247Y-61210038D01*
X102710038Y-61402247D01*
X102710028Y-61402259D01*
X102547110Y-61619891D01*
X102547109Y-61619892D01*
X102416830Y-61858480D01*
X102369326Y-61985843D01*
X102321825Y-62113199D01*
X102321824Y-62113202D01*
X102321823Y-62113206D01*
X102264040Y-62378832D01*
X102264039Y-62378839D01*
X102244645Y-62649998D01*
X46237025Y-62649998D01*
X46324173Y-62516607D01*
X46424063Y-62288881D01*
X46485108Y-62047821D01*
X46500797Y-61858487D01*
X46505643Y-61800005D01*
X46505643Y-61799994D01*
X46485109Y-61552187D01*
X46485107Y-61552175D01*
X46424063Y-61311118D01*
X46324173Y-61083393D01*
X46188166Y-60875217D01*
X46085819Y-60764039D01*
X46019744Y-60692262D01*
X45823509Y-60539526D01*
X45823507Y-60539525D01*
X45823506Y-60539524D01*
X45604811Y-60421172D01*
X45604802Y-60421169D01*
X45369616Y-60340429D01*
X45124335Y-60299500D01*
X44875665Y-60299500D01*
X44630383Y-60340429D01*
X44395197Y-60421169D01*
X44395188Y-60421172D01*
X44176493Y-60539524D01*
X43980257Y-60692261D01*
X43811833Y-60875217D01*
X43675826Y-61083393D01*
X43575936Y-61311118D01*
X43514892Y-61552175D01*
X43514890Y-61552187D01*
X43494357Y-61799994D01*
X26608500Y-61799994D01*
X26608500Y-56759994D01*
X31519443Y-56759994D01*
X31519443Y-56760005D01*
X31539634Y-57003683D01*
X31539636Y-57003695D01*
X31599663Y-57240734D01*
X31697888Y-57464666D01*
X31831632Y-57669378D01*
X31997242Y-57849277D01*
X31997246Y-57849281D01*
X32190212Y-57999473D01*
X32405267Y-58115855D01*
X32405270Y-58115856D01*
X32636541Y-58195251D01*
X32636543Y-58195251D01*
X32636545Y-58195252D01*
X32877737Y-58235500D01*
X32877738Y-58235500D01*
X33122262Y-58235500D01*
X33122263Y-58235500D01*
X33363455Y-58195252D01*
X33594733Y-58115855D01*
X33809788Y-57999473D01*
X34002754Y-57849281D01*
X34168368Y-57669377D01*
X34302111Y-57464667D01*
X34400336Y-57240736D01*
X34460364Y-57003692D01*
X34480557Y-56760000D01*
X34460364Y-56516308D01*
X34400336Y-56279264D01*
X34302111Y-56055333D01*
X34233293Y-55949999D01*
X34168367Y-55850621D01*
X34002757Y-55670722D01*
X34002747Y-55670713D01*
X33809791Y-55520529D01*
X33809787Y-55520526D01*
X33594734Y-55404145D01*
X33594729Y-55404143D01*
X33363458Y-55324748D01*
X33182561Y-55294562D01*
X33122263Y-55284500D01*
X32877737Y-55284500D01*
X32829498Y-55292549D01*
X32636541Y-55324748D01*
X32405270Y-55404143D01*
X32405265Y-55404145D01*
X32190212Y-55520526D01*
X32190208Y-55520529D01*
X31997252Y-55670713D01*
X31997242Y-55670722D01*
X31831632Y-55850621D01*
X31697888Y-56055333D01*
X31599663Y-56279265D01*
X31539636Y-56516304D01*
X31539634Y-56516316D01*
X31519443Y-56759994D01*
X26608500Y-56759994D01*
X26608500Y-51679993D01*
X31519945Y-51679993D01*
X31519945Y-51680004D01*
X31540130Y-51923604D01*
X31600138Y-52160572D01*
X31698330Y-52384428D01*
X31794626Y-52531818D01*
X32398958Y-51927486D01*
X32423978Y-51987889D01*
X32495112Y-52094350D01*
X32585649Y-52184887D01*
X32692110Y-52256021D01*
X32752511Y-52281040D01*
X32147758Y-52885793D01*
X32147758Y-52885795D01*
X32190478Y-52919045D01*
X32190484Y-52919049D01*
X32405468Y-53035393D01*
X32405476Y-53035396D01*
X32636664Y-53114764D01*
X32877779Y-53154999D01*
X33122221Y-53154999D01*
X33331975Y-53119997D01*
X78396824Y-53119997D01*
X78396824Y-53120002D01*
X78417461Y-53303171D01*
X78478345Y-53477165D01*
X78566816Y-53617966D01*
X78576415Y-53633242D01*
X78706758Y-53763585D01*
X78862837Y-53861656D01*
X78981495Y-53903176D01*
X79036828Y-53922538D01*
X79219997Y-53943176D01*
X79220000Y-53943176D01*
X79220003Y-53943176D01*
X79403171Y-53922538D01*
X79420001Y-53916649D01*
X79577163Y-53861656D01*
X79733242Y-53763585D01*
X79863585Y-53633242D01*
X79961656Y-53477163D01*
X80022537Y-53303174D01*
X80022537Y-53303173D01*
X80022538Y-53303171D01*
X80043176Y-53120002D01*
X80043176Y-53119997D01*
X80026275Y-52969994D01*
X94244859Y-52969994D01*
X94244859Y-52970005D01*
X94265385Y-53217729D01*
X94265387Y-53217738D01*
X94326412Y-53458717D01*
X94426266Y-53686364D01*
X94526564Y-53839882D01*
X95267037Y-53099409D01*
X95284075Y-53162993D01*
X95349901Y-53277007D01*
X95442993Y-53370099D01*
X95557007Y-53435925D01*
X95620590Y-53452962D01*
X94879942Y-54193609D01*
X94926768Y-54230055D01*
X94926770Y-54230056D01*
X95145385Y-54348364D01*
X95145396Y-54348369D01*
X95380506Y-54429083D01*
X95625707Y-54470000D01*
X95874293Y-54470000D01*
X96119493Y-54429083D01*
X96354603Y-54348369D01*
X96354614Y-54348364D01*
X96573228Y-54230057D01*
X96573231Y-54230055D01*
X96620056Y-54193609D01*
X96576442Y-54149995D01*
X111634451Y-54149995D01*
X111634451Y-54150004D01*
X111654616Y-54419101D01*
X111673892Y-54503553D01*
X111714666Y-54682195D01*
X111813257Y-54933398D01*
X111948185Y-55167102D01*
X112001655Y-55234151D01*
X112116442Y-55378089D01*
X112269954Y-55520526D01*
X112314259Y-55561635D01*
X112537226Y-55713651D01*
X112780359Y-55830738D01*
X113038228Y-55910280D01*
X113038229Y-55910280D01*
X113038232Y-55910281D01*
X113305063Y-55950499D01*
X113305068Y-55950499D01*
X113305071Y-55950500D01*
X113305072Y-55950500D01*
X113574928Y-55950500D01*
X113574929Y-55950500D01*
X113574936Y-55950499D01*
X113841767Y-55910281D01*
X113841768Y-55910280D01*
X113841772Y-55910280D01*
X114099641Y-55830738D01*
X114342775Y-55713651D01*
X114565741Y-55561635D01*
X114763561Y-55378085D01*
X114931815Y-55167102D01*
X115066743Y-54933398D01*
X115165334Y-54682195D01*
X115225383Y-54419103D01*
X115239550Y-54230055D01*
X115245549Y-54150004D01*
X115245549Y-54149995D01*
X119254953Y-54149995D01*
X119254953Y-54150004D01*
X119275113Y-54419026D01*
X119275113Y-54419028D01*
X119335142Y-54682033D01*
X119335148Y-54682052D01*
X119433709Y-54933181D01*
X119433708Y-54933181D01*
X119568602Y-55166822D01*
X119622294Y-55234151D01*
X119622295Y-55234151D01*
X120344153Y-54512293D01*
X120351049Y-54528942D01*
X120438599Y-54659970D01*
X120550030Y-54771401D01*
X120681058Y-54858951D01*
X120697705Y-54865846D01*
X119974848Y-55588702D01*
X120157483Y-55713220D01*
X120157485Y-55713221D01*
X120400539Y-55830269D01*
X120400537Y-55830269D01*
X120658337Y-55909790D01*
X120658343Y-55909792D01*
X120925101Y-55949999D01*
X120925110Y-55950000D01*
X121194890Y-55950000D01*
X121194898Y-55949999D01*
X121461656Y-55909792D01*
X121461662Y-55909790D01*
X121719461Y-55830269D01*
X121962521Y-55713218D01*
X122145150Y-55588702D01*
X121422294Y-54865846D01*
X121438942Y-54858951D01*
X121569970Y-54771401D01*
X121681401Y-54659970D01*
X121768951Y-54528942D01*
X121775846Y-54512294D01*
X122497703Y-55234151D01*
X122497704Y-55234150D01*
X122551393Y-55166828D01*
X122551400Y-55166817D01*
X122686290Y-54933181D01*
X122784851Y-54682052D01*
X122784857Y-54682033D01*
X122844886Y-54419028D01*
X122844886Y-54419026D01*
X122865047Y-54150004D01*
X122865047Y-54149995D01*
X122844886Y-53880973D01*
X122844886Y-53880971D01*
X122784857Y-53617966D01*
X122784851Y-53617947D01*
X122686290Y-53366818D01*
X122686291Y-53366818D01*
X122551397Y-53133177D01*
X122497704Y-53065847D01*
X121775846Y-53787705D01*
X121768951Y-53771058D01*
X121681401Y-53640030D01*
X121569970Y-53528599D01*
X121438942Y-53441049D01*
X121422294Y-53434153D01*
X122145150Y-52711296D01*
X121962517Y-52586779D01*
X121962516Y-52586778D01*
X121719460Y-52469730D01*
X121719462Y-52469730D01*
X121461662Y-52390209D01*
X121461656Y-52390207D01*
X121194898Y-52350000D01*
X120925101Y-52350000D01*
X120658343Y-52390207D01*
X120658337Y-52390209D01*
X120400538Y-52469730D01*
X120157485Y-52586778D01*
X120157476Y-52586783D01*
X119974848Y-52711296D01*
X120697705Y-53434153D01*
X120681058Y-53441049D01*
X120550030Y-53528599D01*
X120438599Y-53640030D01*
X120351049Y-53771058D01*
X120344153Y-53787706D01*
X119622295Y-53065848D01*
X119568600Y-53133180D01*
X119433709Y-53366818D01*
X119335148Y-53617947D01*
X119335142Y-53617966D01*
X119275113Y-53880971D01*
X119275113Y-53880973D01*
X119254953Y-54149995D01*
X115245549Y-54149995D01*
X115225389Y-53880973D01*
X115225383Y-53880897D01*
X115165334Y-53617805D01*
X115066743Y-53366602D01*
X114931815Y-53132898D01*
X114763561Y-52921915D01*
X114763560Y-52921914D01*
X114763557Y-52921910D01*
X114565741Y-52738365D01*
X114526038Y-52711296D01*
X114342775Y-52586349D01*
X114342769Y-52586346D01*
X114342768Y-52586345D01*
X114342767Y-52586344D01*
X114099643Y-52469263D01*
X114099645Y-52469263D01*
X113841773Y-52389720D01*
X113841767Y-52389718D01*
X113574936Y-52349500D01*
X113574929Y-52349500D01*
X113305071Y-52349500D01*
X113305063Y-52349500D01*
X113038232Y-52389718D01*
X113038226Y-52389720D01*
X112780358Y-52469262D01*
X112537230Y-52586346D01*
X112314258Y-52738365D01*
X112116442Y-52921910D01*
X111948185Y-53132898D01*
X111813258Y-53366599D01*
X111813256Y-53366603D01*
X111714666Y-53617804D01*
X111714664Y-53617811D01*
X111654616Y-53880898D01*
X111634451Y-54149995D01*
X96576442Y-54149995D01*
X95879409Y-53452962D01*
X95942993Y-53435925D01*
X96057007Y-53370099D01*
X96150099Y-53277007D01*
X96215925Y-53162993D01*
X96232962Y-53099410D01*
X96973434Y-53839882D01*
X97073731Y-53686369D01*
X97173587Y-53458717D01*
X97234612Y-53217738D01*
X97234614Y-53217729D01*
X97246027Y-53079997D01*
X100916824Y-53079997D01*
X100916824Y-53080002D01*
X100937461Y-53263171D01*
X100998345Y-53437165D01*
X101023479Y-53477165D01*
X101096415Y-53593242D01*
X101226758Y-53723585D01*
X101382837Y-53821656D01*
X101515059Y-53867922D01*
X101556828Y-53882538D01*
X101739997Y-53903176D01*
X101740000Y-53903176D01*
X101740003Y-53903176D01*
X101923171Y-53882538D01*
X101923174Y-53882537D01*
X102097163Y-53821656D01*
X102253242Y-53723585D01*
X102383585Y-53593242D01*
X102481656Y-53437163D01*
X102542537Y-53263174D01*
X102542537Y-53263173D01*
X102542538Y-53263171D01*
X102563176Y-53080002D01*
X102563176Y-53079997D01*
X102542538Y-52896828D01*
X102501087Y-52778369D01*
X102481656Y-52722837D01*
X102383585Y-52566758D01*
X102253242Y-52436415D01*
X102179706Y-52390209D01*
X102097165Y-52338345D01*
X102097164Y-52338344D01*
X102097163Y-52338344D01*
X102055396Y-52323729D01*
X101923171Y-52277461D01*
X101740003Y-52256824D01*
X101739997Y-52256824D01*
X101556828Y-52277461D01*
X101382834Y-52338345D01*
X101226757Y-52436415D01*
X101096415Y-52566757D01*
X100998345Y-52722834D01*
X100937461Y-52896828D01*
X100916824Y-53079997D01*
X97246027Y-53079997D01*
X97255141Y-52970005D01*
X97255141Y-52969994D01*
X97234614Y-52722270D01*
X97234612Y-52722261D01*
X97173587Y-52481282D01*
X97073731Y-52253630D01*
X96973434Y-52100116D01*
X96232962Y-52840589D01*
X96215925Y-52777007D01*
X96150099Y-52662993D01*
X96057007Y-52569901D01*
X95942993Y-52504075D01*
X95879410Y-52487037D01*
X96620057Y-51746390D01*
X96620056Y-51746389D01*
X96573229Y-51709943D01*
X96354614Y-51591635D01*
X96354603Y-51591630D01*
X96119493Y-51510916D01*
X95874293Y-51470000D01*
X95625707Y-51470000D01*
X95380506Y-51510916D01*
X95145396Y-51591630D01*
X95145390Y-51591632D01*
X94926761Y-51709949D01*
X94879942Y-51746388D01*
X94879942Y-51746390D01*
X95620590Y-52487037D01*
X95557007Y-52504075D01*
X95442993Y-52569901D01*
X95349901Y-52662993D01*
X95284075Y-52777007D01*
X95267037Y-52840589D01*
X94526564Y-52100116D01*
X94426267Y-52253632D01*
X94326412Y-52481282D01*
X94265387Y-52722261D01*
X94265385Y-52722270D01*
X94244859Y-52969994D01*
X80026275Y-52969994D01*
X80022538Y-52936828D01*
X80004680Y-52885793D01*
X79961656Y-52762837D01*
X79863585Y-52606758D01*
X79733242Y-52476415D01*
X79721858Y-52469262D01*
X79577165Y-52378345D01*
X79577164Y-52378344D01*
X79577163Y-52378344D01*
X79535396Y-52363729D01*
X79403171Y-52317461D01*
X79220003Y-52296824D01*
X79219997Y-52296824D01*
X79036828Y-52317461D01*
X78862834Y-52378345D01*
X78706757Y-52476415D01*
X78576415Y-52606757D01*
X78478345Y-52762834D01*
X78417461Y-52936828D01*
X78396824Y-53119997D01*
X33331975Y-53119997D01*
X33363335Y-53114764D01*
X33594523Y-53035396D01*
X33594531Y-53035393D01*
X33809514Y-52919050D01*
X33809514Y-52919049D01*
X33852240Y-52885794D01*
X33852240Y-52885793D01*
X33247488Y-52281040D01*
X33307890Y-52256021D01*
X33414351Y-52184887D01*
X33504888Y-52094350D01*
X33576022Y-51987889D01*
X33601041Y-51927487D01*
X34205372Y-52531818D01*
X34301667Y-52384430D01*
X34301672Y-52384422D01*
X34399861Y-52160572D01*
X34459869Y-51923604D01*
X34480055Y-51680004D01*
X34480055Y-51679993D01*
X34459869Y-51436393D01*
X34450652Y-51399994D01*
X43494859Y-51399994D01*
X43494859Y-51400005D01*
X43515385Y-51647729D01*
X43515387Y-51647738D01*
X43576412Y-51888717D01*
X43676266Y-52116364D01*
X43776564Y-52269882D01*
X44517037Y-51529409D01*
X44534075Y-51592993D01*
X44599901Y-51707007D01*
X44692993Y-51800099D01*
X44807007Y-51865925D01*
X44870590Y-51882962D01*
X44129942Y-52623609D01*
X44176768Y-52660055D01*
X44176770Y-52660056D01*
X44395385Y-52778364D01*
X44395396Y-52778369D01*
X44630506Y-52859083D01*
X44875707Y-52900000D01*
X45124293Y-52900000D01*
X45369493Y-52859083D01*
X45604603Y-52778369D01*
X45604614Y-52778364D01*
X45823228Y-52660057D01*
X45823231Y-52660055D01*
X45870056Y-52623609D01*
X45129409Y-51882962D01*
X45192993Y-51865925D01*
X45307007Y-51800099D01*
X45400099Y-51707007D01*
X45465925Y-51592993D01*
X45482962Y-51529409D01*
X46223434Y-52269882D01*
X46323731Y-52116369D01*
X46423587Y-51888717D01*
X46484612Y-51647738D01*
X46484614Y-51647729D01*
X46505141Y-51400005D01*
X46505141Y-51399994D01*
X46484614Y-51152270D01*
X46484612Y-51152261D01*
X46423587Y-50911282D01*
X46323731Y-50683630D01*
X46223434Y-50530116D01*
X45482962Y-51270589D01*
X45465925Y-51207007D01*
X45400099Y-51092993D01*
X45307007Y-50999901D01*
X45192993Y-50934075D01*
X45129410Y-50917037D01*
X45726450Y-50319997D01*
X107526824Y-50319997D01*
X107526824Y-50320002D01*
X107547461Y-50503171D01*
X107608345Y-50677165D01*
X107623157Y-50700738D01*
X107706415Y-50833242D01*
X107836758Y-50963585D01*
X107992837Y-51061656D01*
X108082394Y-51092993D01*
X108166828Y-51122538D01*
X108349997Y-51143176D01*
X108350000Y-51143176D01*
X108350003Y-51143176D01*
X108533171Y-51122538D01*
X108559926Y-51113176D01*
X108707163Y-51061656D01*
X108863242Y-50963585D01*
X108863257Y-50963570D01*
X108863266Y-50963564D01*
X108868685Y-50959244D01*
X108869441Y-50960192D01*
X108924574Y-50930080D01*
X108994266Y-50935058D01*
X109016911Y-50946248D01*
X109152834Y-51031654D01*
X109152832Y-51031654D01*
X109152836Y-51031655D01*
X109152837Y-51031656D01*
X109195108Y-51046447D01*
X109326828Y-51092538D01*
X109509997Y-51113176D01*
X109510000Y-51113176D01*
X109510003Y-51113176D01*
X109693171Y-51092538D01*
X109693174Y-51092537D01*
X109867163Y-51031656D01*
X110023242Y-50933585D01*
X110153585Y-50803242D01*
X110251656Y-50647163D01*
X110312537Y-50473174D01*
X110312537Y-50473173D01*
X110312538Y-50473171D01*
X110333176Y-50290002D01*
X110333176Y-50289997D01*
X110312538Y-50106828D01*
X110297922Y-50065059D01*
X110251656Y-49932837D01*
X110153585Y-49776758D01*
X110023242Y-49646415D01*
X110015262Y-49641401D01*
X109867165Y-49548345D01*
X109867164Y-49548344D01*
X109867163Y-49548344D01*
X109814653Y-49529970D01*
X109693171Y-49487461D01*
X109510003Y-49466824D01*
X109509997Y-49466824D01*
X109326828Y-49487461D01*
X109152834Y-49548345D01*
X108996757Y-49646415D01*
X108996752Y-49646419D01*
X108996727Y-49646445D01*
X108996706Y-49646456D01*
X108991315Y-49650756D01*
X108990561Y-49649810D01*
X108935401Y-49679924D01*
X108865710Y-49674932D01*
X108843084Y-49663749D01*
X108707165Y-49578345D01*
X108707167Y-49578345D01*
X108533171Y-49517461D01*
X108350003Y-49496824D01*
X108349997Y-49496824D01*
X108166828Y-49517461D01*
X107992834Y-49578345D01*
X107836757Y-49676415D01*
X107706415Y-49806757D01*
X107608345Y-49962834D01*
X107547461Y-50136828D01*
X107526824Y-50319997D01*
X45726450Y-50319997D01*
X45870057Y-50176390D01*
X45870056Y-50176389D01*
X45823229Y-50139943D01*
X45604614Y-50021635D01*
X45604603Y-50021630D01*
X45369493Y-49940916D01*
X45124293Y-49900000D01*
X44875707Y-49900000D01*
X44630506Y-49940916D01*
X44395396Y-50021630D01*
X44395390Y-50021632D01*
X44176761Y-50139949D01*
X44129942Y-50176388D01*
X44129942Y-50176390D01*
X44870590Y-50917037D01*
X44807007Y-50934075D01*
X44692993Y-50999901D01*
X44599901Y-51092993D01*
X44534075Y-51207007D01*
X44517037Y-51270589D01*
X43776564Y-50530116D01*
X43676267Y-50683632D01*
X43576412Y-50911282D01*
X43515387Y-51152261D01*
X43515385Y-51152270D01*
X43494859Y-51399994D01*
X34450652Y-51399994D01*
X34399861Y-51199425D01*
X34301669Y-50975569D01*
X34205372Y-50828178D01*
X33601041Y-51432509D01*
X33576022Y-51372109D01*
X33504888Y-51265648D01*
X33414351Y-51175111D01*
X33307890Y-51103977D01*
X33247487Y-51078957D01*
X33852240Y-50474203D01*
X33852240Y-50474202D01*
X33809514Y-50440948D01*
X33594531Y-50324604D01*
X33594523Y-50324601D01*
X33363335Y-50245233D01*
X33122221Y-50204999D01*
X32877779Y-50204999D01*
X32636664Y-50245233D01*
X32405476Y-50324601D01*
X32405468Y-50324604D01*
X32190481Y-50440950D01*
X32147758Y-50474201D01*
X32147757Y-50474203D01*
X32752511Y-51078957D01*
X32692110Y-51103977D01*
X32585649Y-51175111D01*
X32495112Y-51265648D01*
X32423978Y-51372109D01*
X32398958Y-51432510D01*
X31794626Y-50828178D01*
X31698328Y-50975574D01*
X31600138Y-51199425D01*
X31540130Y-51436393D01*
X31519945Y-51679993D01*
X26608500Y-51679993D01*
X26608500Y-49019995D01*
X110924451Y-49019995D01*
X110924451Y-49020004D01*
X110944616Y-49289101D01*
X110999593Y-49529970D01*
X111004666Y-49552195D01*
X111103257Y-49803398D01*
X111238185Y-50037102D01*
X111320203Y-50139949D01*
X111406442Y-50248089D01*
X111593183Y-50421358D01*
X111604259Y-50431635D01*
X111827226Y-50583651D01*
X112070359Y-50700738D01*
X112328228Y-50780280D01*
X112328229Y-50780280D01*
X112328232Y-50780281D01*
X112595063Y-50820499D01*
X112595068Y-50820499D01*
X112595071Y-50820500D01*
X112595072Y-50820500D01*
X112864928Y-50820500D01*
X112864929Y-50820500D01*
X112864936Y-50820499D01*
X113131767Y-50780281D01*
X113131768Y-50780280D01*
X113131772Y-50780280D01*
X113389641Y-50700738D01*
X113632775Y-50583651D01*
X113855741Y-50431635D01*
X114053561Y-50248085D01*
X114221815Y-50037102D01*
X114356743Y-49803398D01*
X114455334Y-49552195D01*
X114515383Y-49289103D01*
X114522105Y-49199402D01*
X114535549Y-49020004D01*
X114535549Y-49019995D01*
X118544953Y-49019995D01*
X118544953Y-49020004D01*
X118565113Y-49289026D01*
X118565113Y-49289028D01*
X118625142Y-49552033D01*
X118625148Y-49552052D01*
X118723709Y-49803181D01*
X118723708Y-49803181D01*
X118858602Y-50036822D01*
X118912294Y-50104151D01*
X118912295Y-50104151D01*
X119634153Y-49382293D01*
X119641049Y-49398942D01*
X119728599Y-49529970D01*
X119840030Y-49641401D01*
X119971058Y-49728951D01*
X119987705Y-49735846D01*
X119264848Y-50458702D01*
X119447483Y-50583220D01*
X119447485Y-50583221D01*
X119690539Y-50700269D01*
X119690537Y-50700269D01*
X119948337Y-50779790D01*
X119948343Y-50779792D01*
X120215101Y-50819999D01*
X120215110Y-50820000D01*
X120484890Y-50820000D01*
X120484898Y-50819999D01*
X120751656Y-50779792D01*
X120751662Y-50779790D01*
X121009461Y-50700269D01*
X121252521Y-50583218D01*
X121435150Y-50458702D01*
X120712294Y-49735846D01*
X120728942Y-49728951D01*
X120859970Y-49641401D01*
X120971401Y-49529970D01*
X121058951Y-49398942D01*
X121065846Y-49382294D01*
X121787703Y-50104151D01*
X121787704Y-50104150D01*
X121841393Y-50036828D01*
X121841400Y-50036817D01*
X121976290Y-49803181D01*
X122074851Y-49552052D01*
X122074857Y-49552033D01*
X122134886Y-49289028D01*
X122134886Y-49289026D01*
X122155047Y-49020004D01*
X122155047Y-49019995D01*
X122134886Y-48750973D01*
X122134886Y-48750971D01*
X122074857Y-48487966D01*
X122074851Y-48487947D01*
X121976290Y-48236818D01*
X121976291Y-48236818D01*
X121841397Y-48003177D01*
X121787704Y-47935847D01*
X121065846Y-48657705D01*
X121058951Y-48641058D01*
X120971401Y-48510030D01*
X120859970Y-48398599D01*
X120728942Y-48311049D01*
X120712294Y-48304153D01*
X121435150Y-47581296D01*
X121252517Y-47456779D01*
X121252516Y-47456778D01*
X121009460Y-47339730D01*
X121009462Y-47339730D01*
X120751662Y-47260209D01*
X120751656Y-47260207D01*
X120484898Y-47220000D01*
X120215101Y-47220000D01*
X119948343Y-47260207D01*
X119948337Y-47260209D01*
X119690538Y-47339730D01*
X119447485Y-47456778D01*
X119447476Y-47456783D01*
X119264848Y-47581296D01*
X119987705Y-48304153D01*
X119971058Y-48311049D01*
X119840030Y-48398599D01*
X119728599Y-48510030D01*
X119641049Y-48641058D01*
X119634153Y-48657706D01*
X118912295Y-47935848D01*
X118858600Y-48003180D01*
X118723709Y-48236818D01*
X118625148Y-48487947D01*
X118625142Y-48487966D01*
X118565113Y-48750971D01*
X118565113Y-48750973D01*
X118544953Y-49019995D01*
X114535549Y-49019995D01*
X114515389Y-48750973D01*
X114515383Y-48750897D01*
X114455334Y-48487805D01*
X114356743Y-48236602D01*
X114221815Y-48002898D01*
X114053561Y-47791915D01*
X114053560Y-47791914D01*
X114053557Y-47791910D01*
X113855741Y-47608365D01*
X113816038Y-47581296D01*
X113632775Y-47456349D01*
X113632769Y-47456346D01*
X113632768Y-47456345D01*
X113632767Y-47456344D01*
X113389643Y-47339263D01*
X113389645Y-47339263D01*
X113131773Y-47259720D01*
X113131767Y-47259718D01*
X112864936Y-47219500D01*
X112864929Y-47219500D01*
X112595071Y-47219500D01*
X112595063Y-47219500D01*
X112328232Y-47259718D01*
X112328226Y-47259720D01*
X112070358Y-47339262D01*
X111827230Y-47456346D01*
X111604258Y-47608365D01*
X111406442Y-47791910D01*
X111238185Y-48002898D01*
X111103258Y-48236599D01*
X111103256Y-48236603D01*
X111004666Y-48487804D01*
X111004664Y-48487811D01*
X110944616Y-48750898D01*
X110924451Y-49019995D01*
X26608500Y-49019995D01*
X26608500Y-45577135D01*
X31524500Y-45577135D01*
X31524500Y-47622870D01*
X31524501Y-47622876D01*
X31530908Y-47682483D01*
X31581202Y-47817328D01*
X31581206Y-47817335D01*
X31667452Y-47932544D01*
X31667455Y-47932547D01*
X31782664Y-48018793D01*
X31782671Y-48018797D01*
X31917517Y-48069091D01*
X31917516Y-48069091D01*
X31924444Y-48069835D01*
X31977127Y-48075500D01*
X34022872Y-48075499D01*
X34082483Y-48069091D01*
X34217331Y-48018796D01*
X34332546Y-47932546D01*
X34418796Y-47817331D01*
X34469091Y-47682483D01*
X34475500Y-47622873D01*
X34475500Y-46689997D01*
X95466824Y-46689997D01*
X95466824Y-46690002D01*
X95487461Y-46873171D01*
X95548345Y-47047165D01*
X95646415Y-47203242D01*
X95776758Y-47333585D01*
X95932837Y-47431656D01*
X96065059Y-47477922D01*
X96106828Y-47492538D01*
X96289997Y-47513176D01*
X96290000Y-47513176D01*
X96290003Y-47513176D01*
X96473171Y-47492538D01*
X96473174Y-47492537D01*
X96647163Y-47431656D01*
X96803242Y-47333585D01*
X96933585Y-47203242D01*
X97031656Y-47047163D01*
X97092537Y-46873174D01*
X97092537Y-46873173D01*
X97092538Y-46873171D01*
X97113176Y-46690002D01*
X97113176Y-46689997D01*
X97092538Y-46506828D01*
X97077922Y-46465059D01*
X97031656Y-46332837D01*
X96933585Y-46176758D01*
X96803242Y-46046415D01*
X96647163Y-45948344D01*
X96605396Y-45933729D01*
X96473171Y-45887461D01*
X96290003Y-45866824D01*
X96289997Y-45866824D01*
X96106828Y-45887461D01*
X95932834Y-45948345D01*
X95776757Y-46046415D01*
X95646415Y-46176757D01*
X95548345Y-46332834D01*
X95487461Y-46506828D01*
X95466824Y-46689997D01*
X34475500Y-46689997D01*
X34475499Y-45577128D01*
X34469091Y-45517517D01*
X34418796Y-45382669D01*
X34418795Y-45382668D01*
X34418793Y-45382664D01*
X34332547Y-45267455D01*
X34332544Y-45267452D01*
X34217335Y-45181206D01*
X34217328Y-45181202D01*
X34082482Y-45130908D01*
X34082483Y-45130908D01*
X34022883Y-45124501D01*
X34022881Y-45124500D01*
X34022873Y-45124500D01*
X34022864Y-45124500D01*
X31977129Y-45124500D01*
X31977123Y-45124501D01*
X31917516Y-45130908D01*
X31782671Y-45181202D01*
X31782664Y-45181206D01*
X31667455Y-45267452D01*
X31667452Y-45267455D01*
X31581206Y-45382664D01*
X31581202Y-45382671D01*
X31530908Y-45517517D01*
X31528734Y-45537742D01*
X31524501Y-45577123D01*
X31524500Y-45577135D01*
X26608500Y-45577135D01*
X26608500Y-43234994D01*
X53865202Y-43234994D01*
X53865202Y-43235005D01*
X53884361Y-43466218D01*
X53941317Y-43691135D01*
X54034515Y-43903606D01*
X54118812Y-44032633D01*
X54746212Y-43405233D01*
X54757482Y-43447292D01*
X54829890Y-43572708D01*
X54932292Y-43675110D01*
X55057708Y-43747518D01*
X55099765Y-43758787D01*
X54471201Y-44387351D01*
X54501649Y-44411050D01*
X54705697Y-44521476D01*
X54705706Y-44521479D01*
X54925139Y-44596811D01*
X55153993Y-44635000D01*
X55386007Y-44635000D01*
X55614860Y-44596811D01*
X55834293Y-44521479D01*
X55834301Y-44521476D01*
X56038355Y-44411047D01*
X56068797Y-44387351D01*
X56068798Y-44387350D01*
X55440235Y-43758787D01*
X55482292Y-43747518D01*
X55607708Y-43675110D01*
X55710110Y-43572708D01*
X55782518Y-43447292D01*
X55793787Y-43405234D01*
X56421186Y-44032633D01*
X56505482Y-43903611D01*
X56572863Y-43749997D01*
X75366824Y-43749997D01*
X75366824Y-43750002D01*
X75387461Y-43933171D01*
X75422265Y-44032633D01*
X75448344Y-44107163D01*
X75546415Y-44263242D01*
X75676758Y-44393585D01*
X75832837Y-44491656D01*
X75949669Y-44532537D01*
X76006828Y-44552538D01*
X76189997Y-44573176D01*
X76190000Y-44573176D01*
X76190003Y-44573176D01*
X76373171Y-44552538D01*
X76373174Y-44552537D01*
X76547163Y-44491656D01*
X76703242Y-44393585D01*
X76833585Y-44263242D01*
X76931656Y-44107163D01*
X76992537Y-43933174D01*
X76992537Y-43933173D01*
X76992538Y-43933171D01*
X77013176Y-43750002D01*
X77013176Y-43749997D01*
X77010923Y-43729997D01*
X82106824Y-43729997D01*
X82106824Y-43730002D01*
X82127461Y-43913171D01*
X82164437Y-44018840D01*
X82188344Y-44087163D01*
X82286415Y-44243242D01*
X82416758Y-44373585D01*
X82572837Y-44471656D01*
X82705059Y-44517922D01*
X82746828Y-44532538D01*
X82929997Y-44553176D01*
X82930000Y-44553176D01*
X82930003Y-44553176D01*
X83113171Y-44532538D01*
X83113174Y-44532537D01*
X83287163Y-44471656D01*
X83443242Y-44373585D01*
X83573585Y-44243242D01*
X83671656Y-44087163D01*
X83732537Y-43913174D01*
X83732537Y-43913173D01*
X83732538Y-43913171D01*
X83753176Y-43730002D01*
X83753176Y-43729997D01*
X83746630Y-43671897D01*
X103566824Y-43671897D01*
X103566824Y-43671902D01*
X103587461Y-43855071D01*
X103614790Y-43933171D01*
X103644766Y-44018839D01*
X103648345Y-44029065D01*
X103697419Y-44107165D01*
X103746415Y-44185142D01*
X103876758Y-44315485D01*
X104032837Y-44413556D01*
X104206826Y-44474437D01*
X104209756Y-44474767D01*
X104211526Y-44475510D01*
X104213614Y-44475987D01*
X104213530Y-44476352D01*
X104274170Y-44501827D01*
X104313731Y-44559418D01*
X104315875Y-44629255D01*
X104304715Y-44657414D01*
X104276829Y-44708483D01*
X104276828Y-44708487D01*
X104181825Y-44963199D01*
X104181824Y-44963202D01*
X104181823Y-44963206D01*
X104124040Y-45228832D01*
X104124039Y-45228839D01*
X104104645Y-45499998D01*
X104104645Y-45500001D01*
X104124039Y-45771160D01*
X104124040Y-45771167D01*
X104178860Y-46023172D01*
X104181825Y-46036801D01*
X104240963Y-46195355D01*
X104276830Y-46291519D01*
X104407109Y-46530107D01*
X104407110Y-46530108D01*
X104407113Y-46530113D01*
X104570029Y-46747742D01*
X104570033Y-46747746D01*
X104570038Y-46747752D01*
X104762247Y-46939961D01*
X104762253Y-46939966D01*
X104762258Y-46939971D01*
X104979887Y-47102887D01*
X104979891Y-47102889D01*
X104979892Y-47102890D01*
X105218481Y-47233169D01*
X105218480Y-47233169D01*
X105218484Y-47233170D01*
X105218487Y-47233172D01*
X105473199Y-47328175D01*
X105738840Y-47385961D01*
X105990605Y-47403967D01*
X106009999Y-47405355D01*
X106010000Y-47405355D01*
X106010001Y-47405355D01*
X106028100Y-47404060D01*
X106281160Y-47385961D01*
X106546801Y-47328175D01*
X106801513Y-47233172D01*
X106801517Y-47233169D01*
X106801519Y-47233169D01*
X106920813Y-47168029D01*
X107040113Y-47102887D01*
X107257742Y-46939971D01*
X107449971Y-46747742D01*
X107612887Y-46530113D01*
X107634792Y-46489997D01*
X109556824Y-46489997D01*
X109556824Y-46490002D01*
X109577461Y-46673171D01*
X109623729Y-46805396D01*
X109638344Y-46847163D01*
X109736415Y-47003242D01*
X109866758Y-47133585D01*
X110022837Y-47231656D01*
X110155059Y-47277922D01*
X110196828Y-47292538D01*
X110379997Y-47313176D01*
X110380000Y-47313176D01*
X110380003Y-47313176D01*
X110563171Y-47292538D01*
X110563174Y-47292537D01*
X110737163Y-47231656D01*
X110893242Y-47133585D01*
X111023585Y-47003242D01*
X111121656Y-46847163D01*
X111182537Y-46673174D01*
X111182537Y-46673173D01*
X111182538Y-46673171D01*
X111203176Y-46490002D01*
X111203176Y-46489997D01*
X111182538Y-46306828D01*
X111167922Y-46265059D01*
X111121656Y-46132837D01*
X111023585Y-45976758D01*
X110893242Y-45846415D01*
X110773486Y-45771167D01*
X110737165Y-45748345D01*
X110737164Y-45748344D01*
X110737163Y-45748344D01*
X110684627Y-45729961D01*
X110563171Y-45687461D01*
X110380003Y-45666824D01*
X110379997Y-45666824D01*
X110196828Y-45687461D01*
X110022834Y-45748345D01*
X109866757Y-45846415D01*
X109736415Y-45976757D01*
X109638345Y-46132834D01*
X109577461Y-46306828D01*
X109556824Y-46489997D01*
X107634792Y-46489997D01*
X107678029Y-46410813D01*
X107743169Y-46291519D01*
X107743169Y-46291517D01*
X107743172Y-46291513D01*
X107838175Y-46036801D01*
X107895961Y-45771160D01*
X107915355Y-45500000D01*
X107895961Y-45228840D01*
X107838175Y-44963199D01*
X107743172Y-44708487D01*
X107743170Y-44708483D01*
X107743169Y-44708480D01*
X107612890Y-44469892D01*
X107612889Y-44469891D01*
X107612887Y-44469887D01*
X107478223Y-44289998D01*
X116344645Y-44289998D01*
X116344645Y-44290001D01*
X116364039Y-44561160D01*
X116364040Y-44561167D01*
X116421823Y-44826793D01*
X116421825Y-44826801D01*
X116472699Y-44963199D01*
X116516830Y-45081519D01*
X116647109Y-45320107D01*
X116647110Y-45320108D01*
X116647113Y-45320113D01*
X116810029Y-45537742D01*
X116810033Y-45537746D01*
X116810038Y-45537752D01*
X117002247Y-45729961D01*
X117002253Y-45729966D01*
X117002258Y-45729971D01*
X117219887Y-45892887D01*
X117219891Y-45892889D01*
X117219892Y-45892890D01*
X117458481Y-46023169D01*
X117458480Y-46023169D01*
X117458484Y-46023170D01*
X117458487Y-46023172D01*
X117713199Y-46118175D01*
X117978840Y-46175961D01*
X118230605Y-46193967D01*
X118249999Y-46195355D01*
X118250000Y-46195355D01*
X118250001Y-46195355D01*
X118268100Y-46194060D01*
X118521160Y-46175961D01*
X118786801Y-46118175D01*
X119041513Y-46023172D01*
X119041517Y-46023169D01*
X119041519Y-46023169D01*
X119178551Y-45948344D01*
X119280113Y-45892887D01*
X119497742Y-45729971D01*
X119689971Y-45537742D01*
X119852887Y-45320113D01*
X119956200Y-45130909D01*
X119983169Y-45081519D01*
X119983169Y-45081517D01*
X119983172Y-45081513D01*
X120078175Y-44826801D01*
X120135961Y-44561160D01*
X120155355Y-44290000D01*
X120135961Y-44018840D01*
X120078175Y-43753199D01*
X119983735Y-43499997D01*
X120616824Y-43499997D01*
X120616824Y-43500002D01*
X120637461Y-43683171D01*
X120666735Y-43766830D01*
X120698344Y-43857163D01*
X120796415Y-44013242D01*
X120926758Y-44143585D01*
X121082837Y-44241656D01*
X121215059Y-44287922D01*
X121256828Y-44302538D01*
X121439997Y-44323176D01*
X121440000Y-44323176D01*
X121440003Y-44323176D01*
X121623166Y-44302538D01*
X121623166Y-44302537D01*
X121623174Y-44302537D01*
X121625578Y-44301695D01*
X121627230Y-44301611D01*
X121629956Y-44300989D01*
X121630064Y-44301466D01*
X121695352Y-44298125D01*
X121754224Y-44331051D01*
X121816758Y-44393585D01*
X121972837Y-44491656D01*
X122089669Y-44532537D01*
X122146828Y-44552538D01*
X122329997Y-44573176D01*
X122330000Y-44573176D01*
X122330003Y-44573176D01*
X122513171Y-44552538D01*
X122513174Y-44552537D01*
X122687163Y-44491656D01*
X122843242Y-44393585D01*
X122973585Y-44263242D01*
X123071656Y-44107163D01*
X123132537Y-43933174D01*
X123132537Y-43933173D01*
X123132538Y-43933171D01*
X123153176Y-43750002D01*
X123153176Y-43749997D01*
X123132538Y-43566828D01*
X123109154Y-43500000D01*
X123071656Y-43392837D01*
X122973585Y-43236758D01*
X122843242Y-43106415D01*
X122811412Y-43086415D01*
X122687165Y-43008345D01*
X122687164Y-43008344D01*
X122687163Y-43008344D01*
X122630006Y-42988344D01*
X122513171Y-42947461D01*
X122330003Y-42926824D01*
X122329997Y-42926824D01*
X122146827Y-42947462D01*
X122144401Y-42948311D01*
X122142736Y-42948395D01*
X122140037Y-42949012D01*
X122139929Y-42948538D01*
X122074622Y-42951867D01*
X122015774Y-42918947D01*
X121953242Y-42856415D01*
X121797165Y-42758345D01*
X121797164Y-42758344D01*
X121797163Y-42758344D01*
X121755396Y-42743729D01*
X121623171Y-42697461D01*
X121440003Y-42676824D01*
X121439997Y-42676824D01*
X121256828Y-42697461D01*
X121082834Y-42758345D01*
X120926757Y-42856415D01*
X120796415Y-42986757D01*
X120698345Y-43142834D01*
X120637461Y-43316828D01*
X120616824Y-43499997D01*
X119983735Y-43499997D01*
X119983172Y-43498487D01*
X119983170Y-43498484D01*
X119983169Y-43498480D01*
X119852890Y-43259892D01*
X119852889Y-43259891D01*
X119852887Y-43259887D01*
X119689971Y-43042258D01*
X119689966Y-43042253D01*
X119689961Y-43042247D01*
X119497752Y-42850038D01*
X119497746Y-42850033D01*
X119497742Y-42850029D01*
X119280113Y-42687113D01*
X119280108Y-42687110D01*
X119280107Y-42687109D01*
X119041518Y-42556830D01*
X119041519Y-42556830D01*
X118991920Y-42538330D01*
X118786801Y-42461825D01*
X118786794Y-42461823D01*
X118786793Y-42461823D01*
X118521167Y-42404040D01*
X118521160Y-42404039D01*
X118250001Y-42384645D01*
X118249999Y-42384645D01*
X117978839Y-42404039D01*
X117978832Y-42404040D01*
X117713206Y-42461823D01*
X117713202Y-42461824D01*
X117713199Y-42461825D01*
X117585843Y-42509326D01*
X117458480Y-42556830D01*
X117219892Y-42687109D01*
X117219891Y-42687110D01*
X117002259Y-42850028D01*
X117002247Y-42850038D01*
X116810038Y-43042247D01*
X116810028Y-43042259D01*
X116647110Y-43259891D01*
X116647109Y-43259892D01*
X116516830Y-43498480D01*
X116491338Y-43566828D01*
X116421825Y-43753199D01*
X116421824Y-43753202D01*
X116421823Y-43753206D01*
X116364040Y-44018832D01*
X116364039Y-44018839D01*
X116344645Y-44289998D01*
X107478223Y-44289998D01*
X107449971Y-44252258D01*
X107449966Y-44252253D01*
X107449961Y-44252247D01*
X107257752Y-44060038D01*
X107257746Y-44060033D01*
X107257742Y-44060029D01*
X107040113Y-43897113D01*
X107040108Y-43897110D01*
X107040107Y-43897109D01*
X106801518Y-43766830D01*
X106801519Y-43766830D01*
X106749741Y-43747518D01*
X106546801Y-43671825D01*
X106546794Y-43671823D01*
X106546793Y-43671823D01*
X106281167Y-43614040D01*
X106281160Y-43614039D01*
X106010001Y-43594645D01*
X106009999Y-43594645D01*
X105738839Y-43614039D01*
X105738832Y-43614040D01*
X105473203Y-43671823D01*
X105372429Y-43709410D01*
X105302737Y-43714394D01*
X105241414Y-43680909D01*
X105207930Y-43619585D01*
X105205876Y-43607111D01*
X105192538Y-43488729D01*
X105184661Y-43466218D01*
X105131656Y-43314737D01*
X105033585Y-43158658D01*
X104903242Y-43028315D01*
X104839629Y-42988344D01*
X104747165Y-42930245D01*
X104747164Y-42930244D01*
X104747163Y-42930244D01*
X104705396Y-42915629D01*
X104573171Y-42869361D01*
X104390003Y-42848724D01*
X104389997Y-42848724D01*
X104206828Y-42869361D01*
X104032834Y-42930245D01*
X103876757Y-43028315D01*
X103746415Y-43158657D01*
X103648345Y-43314734D01*
X103587461Y-43488728D01*
X103566824Y-43671897D01*
X83746630Y-43671897D01*
X83732538Y-43546828D01*
X83704331Y-43466218D01*
X83671656Y-43372837D01*
X83573585Y-43216758D01*
X83443242Y-43086415D01*
X83372949Y-43042247D01*
X83287165Y-42988345D01*
X83287164Y-42988344D01*
X83287163Y-42988344D01*
X83245396Y-42973729D01*
X83113171Y-42927461D01*
X82930003Y-42906824D01*
X82929997Y-42906824D01*
X82746828Y-42927461D01*
X82572834Y-42988345D01*
X82416757Y-43086415D01*
X82286415Y-43216757D01*
X82188345Y-43372834D01*
X82127461Y-43546828D01*
X82106824Y-43729997D01*
X77010923Y-43729997D01*
X76992538Y-43566828D01*
X76969154Y-43500000D01*
X76931656Y-43392837D01*
X76833585Y-43236758D01*
X76703242Y-43106415D01*
X76671412Y-43086415D01*
X76547165Y-43008345D01*
X76547164Y-43008344D01*
X76547163Y-43008344D01*
X76490006Y-42988344D01*
X76373171Y-42947461D01*
X76190003Y-42926824D01*
X76189997Y-42926824D01*
X76006828Y-42947461D01*
X75832834Y-43008345D01*
X75676757Y-43106415D01*
X75546415Y-43236757D01*
X75448345Y-43392834D01*
X75387461Y-43566828D01*
X75366824Y-43749997D01*
X56572863Y-43749997D01*
X56598682Y-43691135D01*
X56655638Y-43466218D01*
X56674798Y-43235005D01*
X56674798Y-43234994D01*
X56655638Y-43003781D01*
X56598682Y-42778864D01*
X56505484Y-42566393D01*
X56421186Y-42437365D01*
X55793787Y-43064764D01*
X55782518Y-43022708D01*
X55710110Y-42897292D01*
X55607708Y-42794890D01*
X55482292Y-42722482D01*
X55440233Y-42711212D01*
X56068797Y-42082647D01*
X56068797Y-42082645D01*
X56038360Y-42058955D01*
X56038354Y-42058951D01*
X55834302Y-41948523D01*
X55834293Y-41948520D01*
X55614860Y-41873188D01*
X55386007Y-41835000D01*
X55153993Y-41835000D01*
X54925139Y-41873188D01*
X54705706Y-41948520D01*
X54705697Y-41948523D01*
X54501650Y-42058949D01*
X54471200Y-42082647D01*
X55099766Y-42711212D01*
X55057708Y-42722482D01*
X54932292Y-42794890D01*
X54829890Y-42897292D01*
X54757482Y-43022708D01*
X54746212Y-43064766D01*
X54118811Y-42437365D01*
X54034516Y-42566390D01*
X53941317Y-42778864D01*
X53884361Y-43003781D01*
X53865202Y-43234994D01*
X26608500Y-43234994D01*
X26608500Y-40699994D01*
X43494357Y-40699994D01*
X43494357Y-40700005D01*
X43514890Y-40947812D01*
X43514892Y-40947824D01*
X43575936Y-41188881D01*
X43675826Y-41416606D01*
X43811833Y-41624782D01*
X43811836Y-41624785D01*
X43980256Y-41807738D01*
X44176491Y-41960474D01*
X44176493Y-41960475D01*
X44358460Y-42058951D01*
X44395190Y-42078828D01*
X44630386Y-42159571D01*
X44875665Y-42200500D01*
X45124335Y-42200500D01*
X45369614Y-42159571D01*
X45604810Y-42078828D01*
X45823509Y-41960474D01*
X46019744Y-41807738D01*
X46026868Y-41799999D01*
X64525640Y-41799999D01*
X64525640Y-41800000D01*
X64545039Y-42009352D01*
X64545039Y-42009354D01*
X64545040Y-42009357D01*
X64602578Y-42211584D01*
X64602579Y-42211587D01*
X64696293Y-42399790D01*
X64696298Y-42399798D01*
X64823004Y-42567584D01*
X64978381Y-42709228D01*
X64978383Y-42709230D01*
X64999786Y-42722482D01*
X65157144Y-42819913D01*
X65353199Y-42895866D01*
X65559873Y-42934500D01*
X65559875Y-42934500D01*
X65770125Y-42934500D01*
X65770127Y-42934500D01*
X65976801Y-42895866D01*
X66172856Y-42819913D01*
X66351618Y-42709229D01*
X66506997Y-42567582D01*
X66633703Y-42399796D01*
X66727422Y-42211584D01*
X66784960Y-42009357D01*
X66804360Y-41800000D01*
X66784960Y-41590643D01*
X66727422Y-41388416D01*
X66725933Y-41385426D01*
X66633706Y-41200209D01*
X66633701Y-41200201D01*
X66506995Y-41032415D01*
X66351618Y-40890771D01*
X66351616Y-40890769D01*
X66172859Y-40780089D01*
X66172856Y-40780087D01*
X65976801Y-40704134D01*
X65770127Y-40665500D01*
X65559873Y-40665500D01*
X65353199Y-40704134D01*
X65353196Y-40704134D01*
X65353196Y-40704135D01*
X65157143Y-40780087D01*
X65157140Y-40780089D01*
X64978383Y-40890769D01*
X64978381Y-40890771D01*
X64823004Y-41032415D01*
X64696298Y-41200201D01*
X64696293Y-41200209D01*
X64602579Y-41388412D01*
X64602578Y-41388416D01*
X64553288Y-41561656D01*
X64545039Y-41590647D01*
X64525640Y-41799999D01*
X46026868Y-41799999D01*
X46188164Y-41624785D01*
X46324173Y-41416607D01*
X46424063Y-41188881D01*
X46485108Y-40947821D01*
X46485109Y-40947812D01*
X46505643Y-40700005D01*
X46505643Y-40699994D01*
X46485109Y-40452187D01*
X46485107Y-40452175D01*
X46424063Y-40211118D01*
X46324173Y-39983393D01*
X46188166Y-39775217D01*
X46166557Y-39751744D01*
X46019744Y-39592262D01*
X45823509Y-39439526D01*
X45823507Y-39439525D01*
X45823506Y-39439524D01*
X45604811Y-39321172D01*
X45604802Y-39321169D01*
X45369616Y-39240429D01*
X45124335Y-39199500D01*
X44875665Y-39199500D01*
X44630383Y-39240429D01*
X44395197Y-39321169D01*
X44395188Y-39321172D01*
X44176493Y-39439524D01*
X43980257Y-39592261D01*
X43811833Y-39775217D01*
X43675826Y-39983393D01*
X43575936Y-40211118D01*
X43514892Y-40452175D01*
X43514890Y-40452187D01*
X43494357Y-40699994D01*
X26608500Y-40699994D01*
X26608500Y-38234993D01*
X53864700Y-38234993D01*
X53864700Y-38235006D01*
X53883864Y-38466297D01*
X53883866Y-38466308D01*
X53940842Y-38691300D01*
X54034075Y-38903848D01*
X54161016Y-39098147D01*
X54161019Y-39098151D01*
X54161021Y-39098153D01*
X54318216Y-39268913D01*
X54318219Y-39268915D01*
X54318222Y-39268918D01*
X54501365Y-39411464D01*
X54501371Y-39411468D01*
X54501374Y-39411470D01*
X54705497Y-39521936D01*
X54819487Y-39561068D01*
X54925015Y-39597297D01*
X54925017Y-39597297D01*
X54925019Y-39597298D01*
X55153951Y-39635500D01*
X55153952Y-39635500D01*
X55386048Y-39635500D01*
X55386049Y-39635500D01*
X55614981Y-39597298D01*
X55834503Y-39521936D01*
X56038626Y-39411470D01*
X56221784Y-39268913D01*
X56229990Y-39259999D01*
X69605640Y-39259999D01*
X69605640Y-39260000D01*
X69625039Y-39469352D01*
X69625039Y-39469354D01*
X69625040Y-39469357D01*
X69682578Y-39671584D01*
X69682579Y-39671587D01*
X69776293Y-39859790D01*
X69776298Y-39859798D01*
X69903004Y-40027584D01*
X70058381Y-40169228D01*
X70058383Y-40169230D01*
X70126037Y-40211119D01*
X70237144Y-40279913D01*
X70433199Y-40355866D01*
X70639873Y-40394500D01*
X70639875Y-40394500D01*
X70850125Y-40394500D01*
X70850127Y-40394500D01*
X71056801Y-40355866D01*
X71252856Y-40279913D01*
X71431618Y-40169229D01*
X71573375Y-40040000D01*
X71573378Y-40039997D01*
X92996824Y-40039997D01*
X92996824Y-40040002D01*
X93017461Y-40223171D01*
X93078345Y-40397165D01*
X93126641Y-40474029D01*
X93145641Y-40541266D01*
X93126641Y-40605971D01*
X93078345Y-40682834D01*
X93017461Y-40856828D01*
X92996824Y-41039997D01*
X92996824Y-41040002D01*
X93017461Y-41223171D01*
X93055977Y-41333242D01*
X93078344Y-41397163D01*
X93176415Y-41553242D01*
X93306758Y-41683585D01*
X93462837Y-41781656D01*
X93595059Y-41827922D01*
X93636828Y-41842538D01*
X93819997Y-41863176D01*
X93820000Y-41863176D01*
X93820003Y-41863176D01*
X94003171Y-41842538D01*
X94003174Y-41842537D01*
X94177163Y-41781656D01*
X94333242Y-41683585D01*
X94463585Y-41553242D01*
X94561656Y-41397163D01*
X94622537Y-41223174D01*
X94622537Y-41223173D01*
X94622538Y-41223171D01*
X94643176Y-41040002D01*
X94643176Y-41039997D01*
X94622538Y-40856828D01*
X94609650Y-40819997D01*
X117846824Y-40819997D01*
X117846824Y-40820002D01*
X117867461Y-41003171D01*
X117928345Y-41177165D01*
X118026415Y-41333242D01*
X118156758Y-41463585D01*
X118312837Y-41561656D01*
X118445059Y-41607922D01*
X118486828Y-41622538D01*
X118669997Y-41643176D01*
X118670000Y-41643176D01*
X118670003Y-41643176D01*
X118853171Y-41622538D01*
X118853174Y-41622537D01*
X119027163Y-41561656D01*
X119183242Y-41463585D01*
X119313585Y-41333242D01*
X119411656Y-41177163D01*
X119472537Y-41003174D01*
X119472537Y-41003173D01*
X119472538Y-41003171D01*
X119493176Y-40820002D01*
X119493176Y-40819997D01*
X119472538Y-40636828D01*
X119438214Y-40538736D01*
X119411656Y-40462837D01*
X119313585Y-40306758D01*
X119183242Y-40176415D01*
X119027163Y-40078344D01*
X118985396Y-40063729D01*
X118853171Y-40017461D01*
X118670003Y-39996824D01*
X118669997Y-39996824D01*
X118486828Y-40017461D01*
X118312834Y-40078345D01*
X118156757Y-40176415D01*
X118026415Y-40306757D01*
X117928345Y-40462834D01*
X117867461Y-40636828D01*
X117846824Y-40819997D01*
X94609650Y-40819997D01*
X94567663Y-40700005D01*
X94561656Y-40682837D01*
X94561654Y-40682834D01*
X94561654Y-40682833D01*
X94513359Y-40605973D01*
X94494358Y-40538736D01*
X94513359Y-40474027D01*
X94561654Y-40397166D01*
X94561653Y-40397166D01*
X94561656Y-40397163D01*
X94622537Y-40223174D01*
X94622537Y-40223173D01*
X94622538Y-40223171D01*
X94643176Y-40040002D01*
X94643176Y-40039997D01*
X94622538Y-39856828D01*
X94593980Y-39775215D01*
X94561656Y-39682837D01*
X94463585Y-39526758D01*
X94333242Y-39396415D01*
X94177163Y-39298344D01*
X94133801Y-39283171D01*
X94003171Y-39237461D01*
X93820003Y-39216824D01*
X93819997Y-39216824D01*
X93636828Y-39237461D01*
X93462834Y-39298345D01*
X93306757Y-39396415D01*
X93176415Y-39526757D01*
X93078345Y-39682834D01*
X93017461Y-39856828D01*
X92996824Y-40039997D01*
X71573378Y-40039997D01*
X71586995Y-40027584D01*
X71594639Y-40017463D01*
X71713703Y-39859796D01*
X71807422Y-39671584D01*
X71864960Y-39469357D01*
X71884360Y-39260000D01*
X71882546Y-39240429D01*
X71869534Y-39100002D01*
X71869534Y-39099997D01*
X89756824Y-39099997D01*
X89756824Y-39100002D01*
X89777461Y-39283171D01*
X89838345Y-39457165D01*
X89879045Y-39521938D01*
X89936415Y-39613242D01*
X90066758Y-39743585D01*
X90222837Y-39841656D01*
X90355059Y-39887922D01*
X90396828Y-39902538D01*
X90579997Y-39923176D01*
X90580000Y-39923176D01*
X90580003Y-39923176D01*
X90763171Y-39902538D01*
X90763174Y-39902537D01*
X90937163Y-39841656D01*
X91093242Y-39743585D01*
X91223585Y-39613242D01*
X91321656Y-39457163D01*
X91382537Y-39283174D01*
X91382537Y-39283173D01*
X91382538Y-39283171D01*
X91403176Y-39100002D01*
X91403176Y-39099997D01*
X91382538Y-38916828D01*
X91358598Y-38848412D01*
X91321656Y-38742837D01*
X91223585Y-38586758D01*
X91093242Y-38456415D01*
X90937163Y-38358344D01*
X90895396Y-38343729D01*
X90763171Y-38297461D01*
X90580003Y-38276824D01*
X90579997Y-38276824D01*
X90396828Y-38297461D01*
X90222834Y-38358345D01*
X90066757Y-38456415D01*
X89936415Y-38586757D01*
X89838345Y-38742834D01*
X89777461Y-38916828D01*
X89756824Y-39099997D01*
X71869534Y-39099997D01*
X71864960Y-39050643D01*
X71807422Y-38848416D01*
X71729187Y-38691300D01*
X71713706Y-38660209D01*
X71713701Y-38660201D01*
X71586995Y-38492415D01*
X71431618Y-38350771D01*
X71431616Y-38350769D01*
X71252859Y-38240089D01*
X71252856Y-38240087D01*
X71239707Y-38234993D01*
X71056801Y-38164134D01*
X70850127Y-38125500D01*
X70639873Y-38125500D01*
X70433199Y-38164134D01*
X70433196Y-38164134D01*
X70433196Y-38164135D01*
X70237143Y-38240087D01*
X70237140Y-38240089D01*
X70058383Y-38350769D01*
X70058381Y-38350771D01*
X69903004Y-38492415D01*
X69776298Y-38660201D01*
X69776293Y-38660209D01*
X69682579Y-38848412D01*
X69625039Y-39050647D01*
X69605640Y-39259999D01*
X56229990Y-39259999D01*
X56378979Y-39098153D01*
X56505924Y-38903849D01*
X56599157Y-38691300D01*
X56656134Y-38466305D01*
X56656135Y-38466297D01*
X56675300Y-38235006D01*
X56675300Y-38234993D01*
X56656135Y-38003702D01*
X56656133Y-38003691D01*
X56599157Y-37778699D01*
X56505924Y-37566151D01*
X56378983Y-37371852D01*
X56378980Y-37371849D01*
X56378979Y-37371847D01*
X56221784Y-37201087D01*
X56221779Y-37201083D01*
X56221777Y-37201081D01*
X56038634Y-37058535D01*
X56038628Y-37058531D01*
X55834504Y-36948064D01*
X55834495Y-36948061D01*
X55614984Y-36872702D01*
X55443282Y-36844050D01*
X55386049Y-36834500D01*
X55153951Y-36834500D01*
X55108164Y-36842140D01*
X54925015Y-36872702D01*
X54705504Y-36948061D01*
X54705495Y-36948064D01*
X54501371Y-37058531D01*
X54501365Y-37058535D01*
X54318222Y-37201081D01*
X54318219Y-37201084D01*
X54318216Y-37201086D01*
X54318216Y-37201087D01*
X54259267Y-37265122D01*
X54161016Y-37371852D01*
X54034075Y-37566151D01*
X53940842Y-37778699D01*
X53883866Y-38003691D01*
X53883864Y-38003702D01*
X53864700Y-38234993D01*
X26608500Y-38234993D01*
X26608500Y-36038135D01*
X64530500Y-36038135D01*
X64530500Y-37401870D01*
X64530501Y-37401876D01*
X64536908Y-37461483D01*
X64587202Y-37596328D01*
X64587206Y-37596335D01*
X64673452Y-37711544D01*
X64673455Y-37711547D01*
X64788664Y-37797793D01*
X64788671Y-37797797D01*
X64923517Y-37848091D01*
X64923516Y-37848091D01*
X64930444Y-37848835D01*
X64983127Y-37854500D01*
X66346872Y-37854499D01*
X66406483Y-37848091D01*
X66541331Y-37797796D01*
X66656546Y-37711546D01*
X66742796Y-37596331D01*
X66793091Y-37461483D01*
X66799500Y-37401873D01*
X66799499Y-36434995D01*
X74139451Y-36434995D01*
X74139451Y-36435004D01*
X74159616Y-36704101D01*
X74219664Y-36967188D01*
X74219666Y-36967195D01*
X74311461Y-37201084D01*
X74318257Y-37218398D01*
X74453185Y-37452102D01*
X74589080Y-37622509D01*
X74621442Y-37663089D01*
X74746041Y-37778699D01*
X74819259Y-37846635D01*
X75042226Y-37998651D01*
X75285359Y-38115738D01*
X75543228Y-38195280D01*
X75543229Y-38195280D01*
X75543232Y-38195281D01*
X75810063Y-38235499D01*
X75810068Y-38235499D01*
X75810071Y-38235500D01*
X75810072Y-38235500D01*
X76079928Y-38235500D01*
X76079929Y-38235500D01*
X76079936Y-38235499D01*
X76346767Y-38195281D01*
X76346768Y-38195280D01*
X76346772Y-38195280D01*
X76604641Y-38115738D01*
X76796765Y-38023216D01*
X76847767Y-37998655D01*
X76847767Y-37998654D01*
X76847775Y-37998651D01*
X77070741Y-37846635D01*
X77268561Y-37663085D01*
X77436815Y-37452102D01*
X77571743Y-37218398D01*
X77670334Y-36967195D01*
X77730383Y-36704103D01*
X77750549Y-36435000D01*
X77730383Y-36165897D01*
X77670334Y-35902805D01*
X77571743Y-35651602D01*
X77436815Y-35417898D01*
X77268561Y-35206915D01*
X77268560Y-35206914D01*
X77268557Y-35206910D01*
X77070741Y-35023365D01*
X76847775Y-34871349D01*
X76847769Y-34871346D01*
X76847768Y-34871345D01*
X76847767Y-34871344D01*
X76604643Y-34754263D01*
X76604645Y-34754263D01*
X76396300Y-34689997D01*
X95456824Y-34689997D01*
X95456824Y-34690002D01*
X95477461Y-34873171D01*
X95523729Y-35005396D01*
X95538344Y-35047163D01*
X95636415Y-35203242D01*
X95766758Y-35333585D01*
X95922837Y-35431656D01*
X96055059Y-35477922D01*
X96096828Y-35492538D01*
X96279997Y-35513176D01*
X96280000Y-35513176D01*
X96280003Y-35513176D01*
X96463171Y-35492538D01*
X96463174Y-35492537D01*
X96637163Y-35431656D01*
X96793242Y-35333585D01*
X96923585Y-35203242D01*
X97021656Y-35047163D01*
X97082537Y-34873174D01*
X97082537Y-34873173D01*
X97082538Y-34873171D01*
X97103176Y-34690002D01*
X97103176Y-34689997D01*
X97082538Y-34506828D01*
X97042669Y-34392890D01*
X97021656Y-34332837D01*
X96923585Y-34176758D01*
X96793242Y-34046415D01*
X96709353Y-33993704D01*
X96637165Y-33948345D01*
X96637164Y-33948344D01*
X96637163Y-33948344D01*
X96591540Y-33932380D01*
X96463171Y-33887461D01*
X96280003Y-33866824D01*
X96279997Y-33866824D01*
X96096828Y-33887461D01*
X95922834Y-33948345D01*
X95766757Y-34046415D01*
X95636415Y-34176757D01*
X95538345Y-34332834D01*
X95477461Y-34506828D01*
X95456824Y-34689997D01*
X76396300Y-34689997D01*
X76346773Y-34674720D01*
X76346767Y-34674718D01*
X76079936Y-34634500D01*
X76079929Y-34634500D01*
X75810071Y-34634500D01*
X75810063Y-34634500D01*
X75543232Y-34674718D01*
X75543226Y-34674720D01*
X75285358Y-34754262D01*
X75042230Y-34871346D01*
X74819258Y-35023365D01*
X74621442Y-35206910D01*
X74453185Y-35417898D01*
X74318258Y-35651599D01*
X74318256Y-35651603D01*
X74219666Y-35902804D01*
X74219664Y-35902811D01*
X74159616Y-36165898D01*
X74139451Y-36434995D01*
X66799499Y-36434995D01*
X66799499Y-36038128D01*
X66793091Y-35978517D01*
X66764852Y-35902805D01*
X66742797Y-35843671D01*
X66742793Y-35843664D01*
X66656547Y-35728455D01*
X66656544Y-35728452D01*
X66541335Y-35642206D01*
X66541328Y-35642202D01*
X66406482Y-35591908D01*
X66406483Y-35591908D01*
X66346883Y-35585501D01*
X66346881Y-35585500D01*
X66346873Y-35585500D01*
X66346864Y-35585500D01*
X64983129Y-35585500D01*
X64983123Y-35585501D01*
X64923516Y-35591908D01*
X64788671Y-35642202D01*
X64788664Y-35642206D01*
X64673455Y-35728452D01*
X64673452Y-35728455D01*
X64587206Y-35843664D01*
X64587202Y-35843671D01*
X64536908Y-35978517D01*
X64530501Y-36038116D01*
X64530501Y-36038123D01*
X64530500Y-36038135D01*
X26608500Y-36038135D01*
X26608500Y-32409995D01*
X54814953Y-32409995D01*
X54814953Y-32410004D01*
X54835113Y-32679026D01*
X54835113Y-32679028D01*
X54895142Y-32942033D01*
X54895148Y-32942052D01*
X54993709Y-33193181D01*
X54993708Y-33193181D01*
X55128602Y-33426822D01*
X55182294Y-33494151D01*
X55182295Y-33494151D01*
X55904153Y-32772293D01*
X55911049Y-32788942D01*
X55998599Y-32919970D01*
X56110030Y-33031401D01*
X56241058Y-33118951D01*
X56257705Y-33125846D01*
X55534848Y-33848702D01*
X55717483Y-33973220D01*
X55717485Y-33973221D01*
X55960539Y-34090269D01*
X55960537Y-34090269D01*
X56218337Y-34169790D01*
X56218343Y-34169792D01*
X56485101Y-34209999D01*
X56485110Y-34210000D01*
X56754890Y-34210000D01*
X56754898Y-34209999D01*
X57021656Y-34169792D01*
X57021662Y-34169790D01*
X57279461Y-34090269D01*
X57522521Y-33973218D01*
X57705150Y-33848702D01*
X56982294Y-33125846D01*
X56998942Y-33118951D01*
X57129970Y-33031401D01*
X57241401Y-32919970D01*
X57328951Y-32788942D01*
X57335846Y-32772294D01*
X58057703Y-33494151D01*
X58057704Y-33494150D01*
X58111393Y-33426828D01*
X58111400Y-33426817D01*
X58246290Y-33193181D01*
X58344851Y-32942052D01*
X58344857Y-32942033D01*
X58404886Y-32679028D01*
X58404886Y-32679026D01*
X58425047Y-32410004D01*
X58425047Y-32409995D01*
X62434451Y-32409995D01*
X62434451Y-32410004D01*
X62454616Y-32679101D01*
X62514664Y-32942188D01*
X62514666Y-32942195D01*
X62594978Y-33146826D01*
X62613257Y-33193398D01*
X62748185Y-33427102D01*
X62871324Y-33581513D01*
X62916442Y-33638089D01*
X62979339Y-33696448D01*
X63114259Y-33821635D01*
X63337226Y-33973651D01*
X63580359Y-34090738D01*
X63838228Y-34170280D01*
X63838229Y-34170280D01*
X63838232Y-34170281D01*
X64105063Y-34210499D01*
X64105068Y-34210499D01*
X64105071Y-34210500D01*
X64105072Y-34210500D01*
X64374928Y-34210500D01*
X64374929Y-34210500D01*
X64374936Y-34210499D01*
X64641767Y-34170281D01*
X64641768Y-34170280D01*
X64641772Y-34170280D01*
X64899641Y-34090738D01*
X65091765Y-33998216D01*
X65142767Y-33973655D01*
X65142767Y-33973654D01*
X65142775Y-33973651D01*
X65365741Y-33821635D01*
X65563561Y-33638085D01*
X65731815Y-33427102D01*
X65866743Y-33193398D01*
X65965334Y-32942195D01*
X66025383Y-32679103D01*
X66038293Y-32506824D01*
X66045549Y-32410004D01*
X66045549Y-32409995D01*
X66025389Y-32140973D01*
X66025383Y-32140897D01*
X65965334Y-31877805D01*
X65945354Y-31826897D01*
X103626824Y-31826897D01*
X103626824Y-31826902D01*
X103647461Y-32010071D01*
X103693240Y-32140897D01*
X103708344Y-32184063D01*
X103806415Y-32340142D01*
X103936758Y-32470485D01*
X104092837Y-32568556D01*
X104266826Y-32629437D01*
X104282623Y-32631216D01*
X104347036Y-32658280D01*
X104386593Y-32715874D01*
X104388734Y-32785711D01*
X104377575Y-32813863D01*
X104336829Y-32888483D01*
X104325085Y-32919970D01*
X104241825Y-33143199D01*
X104241824Y-33143202D01*
X104241823Y-33143206D01*
X104184040Y-33408832D01*
X104184039Y-33408839D01*
X104164645Y-33679998D01*
X104164645Y-33680001D01*
X104184039Y-33951160D01*
X104184040Y-33951167D01*
X104240454Y-34210499D01*
X104241825Y-34216801D01*
X104307502Y-34392887D01*
X104336830Y-34471519D01*
X104467109Y-34710107D01*
X104467110Y-34710108D01*
X104467113Y-34710113D01*
X104630029Y-34927742D01*
X104630033Y-34927746D01*
X104630038Y-34927752D01*
X104822247Y-35119961D01*
X104822253Y-35119966D01*
X104822258Y-35119971D01*
X105039887Y-35282887D01*
X105039891Y-35282889D01*
X105039892Y-35282890D01*
X105278481Y-35413169D01*
X105278480Y-35413169D01*
X105278484Y-35413170D01*
X105278487Y-35413172D01*
X105533199Y-35508175D01*
X105798840Y-35565961D01*
X106050605Y-35583967D01*
X106069999Y-35585355D01*
X106070000Y-35585355D01*
X106070001Y-35585355D01*
X106088100Y-35584060D01*
X106341160Y-35565961D01*
X106606801Y-35508175D01*
X106861513Y-35413172D01*
X106861517Y-35413169D01*
X106861519Y-35413169D01*
X107007268Y-35333584D01*
X107100113Y-35282887D01*
X107317742Y-35119971D01*
X107509971Y-34927742D01*
X107672887Y-34710113D01*
X107803172Y-34471513D01*
X107898175Y-34216801D01*
X107946706Y-33993703D01*
X107980190Y-33932380D01*
X108041513Y-33898895D01*
X108111205Y-33903879D01*
X108155553Y-33932380D01*
X108196758Y-33973585D01*
X108352837Y-34071656D01*
X108485059Y-34117922D01*
X108526828Y-34132538D01*
X108709997Y-34153176D01*
X108710000Y-34153176D01*
X108710003Y-34153176D01*
X108893171Y-34132538D01*
X108893174Y-34132537D01*
X109067163Y-34071656D01*
X109223242Y-33973585D01*
X109353585Y-33843242D01*
X109451656Y-33687163D01*
X109512537Y-33513174D01*
X109512537Y-33513173D01*
X109512538Y-33513171D01*
X109533176Y-33330002D01*
X109533176Y-33329997D01*
X109512538Y-33146828D01*
X109497922Y-33105059D01*
X109451656Y-32972837D01*
X109353585Y-32816758D01*
X109223242Y-32686415D01*
X109211486Y-32679028D01*
X109067165Y-32588345D01*
X109067164Y-32588344D01*
X109067163Y-32588344D01*
X109010606Y-32568554D01*
X108893171Y-32527461D01*
X108710003Y-32506824D01*
X108709997Y-32506824D01*
X108526828Y-32527461D01*
X108352834Y-32588345D01*
X108196757Y-32686415D01*
X108066415Y-32816757D01*
X108066413Y-32816760D01*
X108017106Y-32895231D01*
X107964771Y-32941522D01*
X107895718Y-32952169D01*
X107831869Y-32923794D01*
X107803281Y-32888685D01*
X107672890Y-32649892D01*
X107672889Y-32649891D01*
X107672887Y-32649887D01*
X107509971Y-32432258D01*
X107509966Y-32432253D01*
X107509961Y-32432247D01*
X107317752Y-32240038D01*
X107317746Y-32240033D01*
X107317742Y-32240029D01*
X107100113Y-32077113D01*
X107100108Y-32077110D01*
X107100107Y-32077109D01*
X106861518Y-31946830D01*
X106861519Y-31946830D01*
X106811920Y-31928330D01*
X106606801Y-31851825D01*
X106606794Y-31851823D01*
X106606793Y-31851823D01*
X106341167Y-31794040D01*
X106341160Y-31794039D01*
X106070001Y-31774645D01*
X106069999Y-31774645D01*
X105798839Y-31794039D01*
X105798832Y-31794040D01*
X105533203Y-31851823D01*
X105435132Y-31888402D01*
X105365440Y-31893386D01*
X105304117Y-31859901D01*
X105270633Y-31798577D01*
X105268579Y-31786103D01*
X105252538Y-31643729D01*
X105217032Y-31542259D01*
X105191656Y-31469737D01*
X105093585Y-31313658D01*
X104963242Y-31183315D01*
X104807163Y-31085244D01*
X104765396Y-31070629D01*
X104633171Y-31024361D01*
X104450003Y-31003724D01*
X104449997Y-31003724D01*
X104266828Y-31024361D01*
X104092834Y-31085245D01*
X103936757Y-31183315D01*
X103806415Y-31313657D01*
X103708345Y-31469734D01*
X103647461Y-31643728D01*
X103626824Y-31826897D01*
X65945354Y-31826897D01*
X65866743Y-31626602D01*
X65731815Y-31392898D01*
X65563561Y-31181915D01*
X65563560Y-31181914D01*
X65563557Y-31181910D01*
X65365741Y-30998365D01*
X65261301Y-30927159D01*
X65142775Y-30846349D01*
X65142769Y-30846346D01*
X65142768Y-30846345D01*
X65142767Y-30846344D01*
X64899643Y-30729263D01*
X64899645Y-30729263D01*
X64641773Y-30649720D01*
X64641767Y-30649718D01*
X64374936Y-30609500D01*
X64374929Y-30609500D01*
X64105071Y-30609500D01*
X64105063Y-30609500D01*
X63838232Y-30649718D01*
X63838226Y-30649720D01*
X63580358Y-30729262D01*
X63337230Y-30846346D01*
X63114258Y-30998365D01*
X62916442Y-31181910D01*
X62748185Y-31392898D01*
X62613258Y-31626599D01*
X62613256Y-31626603D01*
X62514666Y-31877804D01*
X62514664Y-31877811D01*
X62454616Y-32140898D01*
X62434451Y-32409995D01*
X58425047Y-32409995D01*
X58404886Y-32140973D01*
X58404886Y-32140971D01*
X58344857Y-31877966D01*
X58344851Y-31877947D01*
X58246290Y-31626818D01*
X58246291Y-31626818D01*
X58111397Y-31393177D01*
X58057704Y-31325847D01*
X57335846Y-32047705D01*
X57328951Y-32031058D01*
X57241401Y-31900030D01*
X57129970Y-31788599D01*
X56998942Y-31701049D01*
X56982294Y-31694153D01*
X57705150Y-30971296D01*
X57522517Y-30846779D01*
X57522516Y-30846778D01*
X57279460Y-30729730D01*
X57279462Y-30729730D01*
X57021662Y-30650209D01*
X57021656Y-30650207D01*
X56754898Y-30610000D01*
X56485101Y-30610000D01*
X56218343Y-30650207D01*
X56218337Y-30650209D01*
X55960538Y-30729730D01*
X55717485Y-30846778D01*
X55717476Y-30846783D01*
X55534848Y-30971296D01*
X56257705Y-31694153D01*
X56241058Y-31701049D01*
X56110030Y-31788599D01*
X55998599Y-31900030D01*
X55911049Y-32031058D01*
X55904153Y-32047706D01*
X55182295Y-31325848D01*
X55128600Y-31393180D01*
X54993709Y-31626818D01*
X54895148Y-31877947D01*
X54895142Y-31877966D01*
X54835113Y-32140971D01*
X54835113Y-32140973D01*
X54814953Y-32409995D01*
X26608500Y-32409995D01*
X26608500Y-28299994D01*
X27644655Y-28299994D01*
X27644655Y-28300005D01*
X27664014Y-28607725D01*
X27664015Y-28607732D01*
X27688523Y-28736207D01*
X27703554Y-28815004D01*
X27721795Y-28910623D01*
X27817078Y-29203874D01*
X27817080Y-29203879D01*
X27948362Y-29482867D01*
X27948366Y-29482873D01*
X28113577Y-29743206D01*
X28113579Y-29743209D01*
X28113584Y-29743216D01*
X28310131Y-29980799D01*
X28522257Y-30180000D01*
X28534902Y-30191874D01*
X28534912Y-30191882D01*
X28784348Y-30373108D01*
X28784353Y-30373110D01*
X28784360Y-30373116D01*
X29054565Y-30521663D01*
X29054570Y-30521665D01*
X29054572Y-30521666D01*
X29054573Y-30521667D01*
X29341253Y-30635171D01*
X29341256Y-30635172D01*
X29567413Y-30693239D01*
X29639914Y-30711854D01*
X29704091Y-30719961D01*
X29945816Y-30750499D01*
X29945825Y-30750499D01*
X29945828Y-30750500D01*
X29945830Y-30750500D01*
X30254170Y-30750500D01*
X30254172Y-30750500D01*
X30254175Y-30750499D01*
X30254183Y-30750499D01*
X30436722Y-30727438D01*
X30560086Y-30711854D01*
X30858743Y-30635172D01*
X30909692Y-30615000D01*
X31145426Y-30521667D01*
X31145427Y-30521666D01*
X31145425Y-30521666D01*
X31145435Y-30521663D01*
X31415640Y-30373116D01*
X31665096Y-30191876D01*
X31889869Y-29980799D01*
X32086416Y-29743216D01*
X32251635Y-29482871D01*
X32382922Y-29203873D01*
X32478206Y-28910619D01*
X32496447Y-28814995D01*
X74139953Y-28814995D01*
X74139953Y-28815004D01*
X74160113Y-29084026D01*
X74160113Y-29084028D01*
X74220142Y-29347033D01*
X74220148Y-29347052D01*
X74318709Y-29598181D01*
X74318708Y-29598181D01*
X74453602Y-29831822D01*
X74507294Y-29899151D01*
X74507295Y-29899151D01*
X75229153Y-29177293D01*
X75236049Y-29193942D01*
X75323599Y-29324970D01*
X75435030Y-29436401D01*
X75566058Y-29523951D01*
X75582705Y-29530846D01*
X74859848Y-30253702D01*
X75042483Y-30378220D01*
X75042485Y-30378221D01*
X75285539Y-30495269D01*
X75285537Y-30495269D01*
X75543337Y-30574790D01*
X75543343Y-30574792D01*
X75810101Y-30614999D01*
X75810110Y-30615000D01*
X76079890Y-30615000D01*
X76079898Y-30614999D01*
X76346656Y-30574792D01*
X76346662Y-30574790D01*
X76604461Y-30495269D01*
X76847521Y-30378218D01*
X77030150Y-30253702D01*
X76956445Y-30179997D01*
X116286824Y-30179997D01*
X116286824Y-30180002D01*
X116307461Y-30363171D01*
X116353685Y-30495269D01*
X116362921Y-30521666D01*
X116368345Y-30537165D01*
X116466413Y-30693239D01*
X116466415Y-30693242D01*
X116596758Y-30823585D01*
X116752837Y-30921656D01*
X116894701Y-30971296D01*
X116926829Y-30982538D01*
X117027526Y-30993883D01*
X117082154Y-31000038D01*
X117146567Y-31027104D01*
X117186122Y-31084699D01*
X117188260Y-31154536D01*
X117152302Y-31214442D01*
X117142581Y-31222525D01*
X116972259Y-31350027D01*
X116972247Y-31350038D01*
X116780038Y-31542247D01*
X116780028Y-31542259D01*
X116617110Y-31759891D01*
X116617109Y-31759892D01*
X116486830Y-31998480D01*
X116465210Y-32056447D01*
X116391825Y-32253199D01*
X116391824Y-32253202D01*
X116391823Y-32253206D01*
X116334040Y-32518832D01*
X116334039Y-32518839D01*
X116314645Y-32789998D01*
X116314645Y-32790001D01*
X116334039Y-33061160D01*
X116334040Y-33061167D01*
X116391823Y-33326793D01*
X116391825Y-33326801D01*
X116454243Y-33494150D01*
X116486830Y-33581519D01*
X116617109Y-33820107D01*
X116617110Y-33820108D01*
X116617113Y-33820113D01*
X116780029Y-34037742D01*
X116780033Y-34037746D01*
X116780038Y-34037752D01*
X116972247Y-34229961D01*
X116972253Y-34229966D01*
X116972258Y-34229971D01*
X117189887Y-34392887D01*
X117189891Y-34392889D01*
X117189892Y-34392890D01*
X117428481Y-34523169D01*
X117428480Y-34523169D01*
X117428484Y-34523170D01*
X117428487Y-34523172D01*
X117683199Y-34618175D01*
X117948840Y-34675961D01*
X118200605Y-34693967D01*
X118219999Y-34695355D01*
X118220000Y-34695355D01*
X118220001Y-34695355D01*
X118238100Y-34694060D01*
X118491160Y-34675961D01*
X118756801Y-34618175D01*
X119011513Y-34523172D01*
X119011517Y-34523169D01*
X119011519Y-34523169D01*
X119130813Y-34458029D01*
X119250113Y-34392887D01*
X119467742Y-34229971D01*
X119659971Y-34037742D01*
X119822887Y-33820113D01*
X119922279Y-33638089D01*
X119953169Y-33581519D01*
X119953169Y-33581517D01*
X119953172Y-33581513D01*
X120048175Y-33326801D01*
X120105961Y-33061160D01*
X120125355Y-32790000D01*
X120105961Y-32518840D01*
X120048175Y-32253199D01*
X119953172Y-31998487D01*
X119953170Y-31998484D01*
X119953169Y-31998480D01*
X119822890Y-31759892D01*
X119822889Y-31759891D01*
X119822887Y-31759887D01*
X119659971Y-31542258D01*
X119659966Y-31542253D01*
X119659961Y-31542247D01*
X119467752Y-31350038D01*
X119467746Y-31350033D01*
X119467742Y-31350029D01*
X119250113Y-31187113D01*
X119250108Y-31187110D01*
X119250107Y-31187109D01*
X119011518Y-31056830D01*
X119011519Y-31056830D01*
X118924471Y-31024363D01*
X118756801Y-30961825D01*
X118756794Y-30961823D01*
X118756793Y-30961823D01*
X118491167Y-30904040D01*
X118491160Y-30904039D01*
X118220001Y-30884645D01*
X118219999Y-30884645D01*
X117948839Y-30904039D01*
X117948828Y-30904040D01*
X117842552Y-30927159D01*
X117772861Y-30922174D01*
X117716927Y-30880303D01*
X117692511Y-30814838D01*
X117707363Y-30746565D01*
X117728509Y-30718317D01*
X117753585Y-30693242D01*
X117851656Y-30537163D01*
X117912537Y-30363174D01*
X117912537Y-30363173D01*
X117912538Y-30363171D01*
X117933176Y-30180002D01*
X117933176Y-30179997D01*
X117912538Y-29996828D01*
X117878359Y-29899150D01*
X117851656Y-29822837D01*
X117753585Y-29666758D01*
X117623242Y-29536415D01*
X117603406Y-29523951D01*
X117467165Y-29438345D01*
X117467164Y-29438344D01*
X117467163Y-29438344D01*
X117425396Y-29423729D01*
X117293171Y-29377461D01*
X117110003Y-29356824D01*
X117109997Y-29356824D01*
X116926828Y-29377461D01*
X116752834Y-29438345D01*
X116596757Y-29536415D01*
X116466415Y-29666757D01*
X116368345Y-29822834D01*
X116307461Y-29996828D01*
X116286824Y-30179997D01*
X76956445Y-30179997D01*
X76307294Y-29530846D01*
X76323942Y-29523951D01*
X76454970Y-29436401D01*
X76566401Y-29324970D01*
X76653951Y-29193942D01*
X76660846Y-29177294D01*
X77382703Y-29899151D01*
X77382704Y-29899150D01*
X77436393Y-29831828D01*
X77436400Y-29831817D01*
X77571290Y-29598181D01*
X77669851Y-29347052D01*
X77669857Y-29347033D01*
X77729886Y-29084028D01*
X77729886Y-29084026D01*
X77749673Y-28819997D01*
X92876824Y-28819997D01*
X92876824Y-28820002D01*
X92897461Y-29003171D01*
X92958345Y-29177165D01*
X92975131Y-29203879D01*
X93056415Y-29333242D01*
X93186758Y-29463585D01*
X93342837Y-29561656D01*
X93475059Y-29607922D01*
X93516828Y-29622538D01*
X93699997Y-29643176D01*
X93700000Y-29643176D01*
X93700003Y-29643176D01*
X93883171Y-29622538D01*
X93883174Y-29622537D01*
X94057163Y-29561656D01*
X94213242Y-29463585D01*
X94343585Y-29333242D01*
X94441656Y-29177163D01*
X94502537Y-29003174D01*
X94502537Y-29003173D01*
X94502538Y-29003171D01*
X94523176Y-28820002D01*
X94523176Y-28819997D01*
X94510296Y-28705684D01*
X94522350Y-28636862D01*
X94569699Y-28585482D01*
X94592562Y-28574758D01*
X94687163Y-28541656D01*
X94843242Y-28443585D01*
X94973585Y-28313242D01*
X94981909Y-28299994D01*
X119644655Y-28299994D01*
X119644655Y-28300005D01*
X119664014Y-28607725D01*
X119664015Y-28607732D01*
X119688523Y-28736207D01*
X119703554Y-28815004D01*
X119721795Y-28910623D01*
X119817078Y-29203874D01*
X119817080Y-29203879D01*
X119948362Y-29482867D01*
X119948366Y-29482873D01*
X120113577Y-29743206D01*
X120113579Y-29743209D01*
X120113584Y-29743216D01*
X120310131Y-29980799D01*
X120522257Y-30180000D01*
X120534902Y-30191874D01*
X120534912Y-30191882D01*
X120784348Y-30373108D01*
X120784353Y-30373110D01*
X120784360Y-30373116D01*
X121054565Y-30521663D01*
X121054570Y-30521665D01*
X121054572Y-30521666D01*
X121054573Y-30521667D01*
X121341253Y-30635171D01*
X121341256Y-30635172D01*
X121567413Y-30693239D01*
X121639914Y-30711854D01*
X121704091Y-30719961D01*
X121945816Y-30750499D01*
X121945825Y-30750499D01*
X121945828Y-30750500D01*
X121945830Y-30750500D01*
X122254170Y-30750500D01*
X122254172Y-30750500D01*
X122254175Y-30750499D01*
X122254183Y-30750499D01*
X122436722Y-30727438D01*
X122560086Y-30711854D01*
X122858743Y-30635172D01*
X122909692Y-30615000D01*
X123145426Y-30521667D01*
X123145427Y-30521666D01*
X123145425Y-30521666D01*
X123145435Y-30521663D01*
X123415640Y-30373116D01*
X123665096Y-30191876D01*
X123889869Y-29980799D01*
X124086416Y-29743216D01*
X124251635Y-29482871D01*
X124382922Y-29203873D01*
X124478206Y-28910619D01*
X124535984Y-28607736D01*
X124537384Y-28585482D01*
X124555345Y-28300005D01*
X124555345Y-28299994D01*
X124535985Y-27992274D01*
X124535984Y-27992267D01*
X124535984Y-27992264D01*
X124478206Y-27689381D01*
X124382922Y-27396127D01*
X124382919Y-27396120D01*
X124251637Y-27117132D01*
X124251633Y-27117126D01*
X124086422Y-26856793D01*
X124086420Y-26856791D01*
X124086416Y-26856784D01*
X123889869Y-26619201D01*
X123665096Y-26408124D01*
X123665093Y-26408122D01*
X123665087Y-26408117D01*
X123415651Y-26226891D01*
X123415644Y-26226886D01*
X123415640Y-26226884D01*
X123145435Y-26078337D01*
X123145432Y-26078335D01*
X123145427Y-26078333D01*
X123145426Y-26078332D01*
X122858746Y-25964828D01*
X122858743Y-25964827D01*
X122560089Y-25888146D01*
X122560076Y-25888144D01*
X122254183Y-25849500D01*
X122254172Y-25849500D01*
X121945828Y-25849500D01*
X121945816Y-25849500D01*
X121639923Y-25888144D01*
X121639910Y-25888146D01*
X121341256Y-25964827D01*
X121341253Y-25964828D01*
X121054573Y-26078332D01*
X121054572Y-26078333D01*
X120784360Y-26226884D01*
X120784348Y-26226891D01*
X120534912Y-26408117D01*
X120534902Y-26408125D01*
X120310132Y-26619199D01*
X120113577Y-26856793D01*
X119948366Y-27117126D01*
X119948362Y-27117132D01*
X119817080Y-27396120D01*
X119817078Y-27396125D01*
X119721795Y-27689376D01*
X119664015Y-27992267D01*
X119664014Y-27992274D01*
X119644655Y-28299994D01*
X94981909Y-28299994D01*
X95071656Y-28157163D01*
X95132537Y-27983174D01*
X95132537Y-27983173D01*
X95132538Y-27983171D01*
X95153176Y-27800002D01*
X95153176Y-27799997D01*
X95132538Y-27616828D01*
X95117922Y-27575059D01*
X95071656Y-27442837D01*
X94973585Y-27286758D01*
X94843242Y-27156415D01*
X94687163Y-27058344D01*
X94645396Y-27043729D01*
X94513171Y-26997461D01*
X94330003Y-26976824D01*
X94329997Y-26976824D01*
X94146828Y-26997461D01*
X93972834Y-27058345D01*
X93816757Y-27156415D01*
X93686415Y-27286757D01*
X93588345Y-27442834D01*
X93527461Y-27616828D01*
X93506824Y-27799997D01*
X93506824Y-27800002D01*
X93519704Y-27914316D01*
X93507650Y-27983138D01*
X93460301Y-28034518D01*
X93437438Y-28045242D01*
X93342835Y-28078344D01*
X93186757Y-28176415D01*
X93056415Y-28306757D01*
X92958345Y-28462834D01*
X92897461Y-28636828D01*
X92876824Y-28819997D01*
X77749673Y-28819997D01*
X77750047Y-28815004D01*
X77750047Y-28814995D01*
X77729886Y-28545973D01*
X77729886Y-28545971D01*
X77669857Y-28282966D01*
X77669851Y-28282947D01*
X77571290Y-28031818D01*
X77571291Y-28031818D01*
X77436397Y-27798177D01*
X77382704Y-27730847D01*
X76660846Y-28452705D01*
X76653951Y-28436058D01*
X76566401Y-28305030D01*
X76454970Y-28193599D01*
X76323942Y-28106049D01*
X76307294Y-28099153D01*
X77030150Y-27376296D01*
X76847517Y-27251779D01*
X76847516Y-27251778D01*
X76604460Y-27134730D01*
X76604462Y-27134730D01*
X76346662Y-27055209D01*
X76346656Y-27055207D01*
X76079898Y-27015000D01*
X75810101Y-27015000D01*
X75543343Y-27055207D01*
X75543337Y-27055209D01*
X75285538Y-27134730D01*
X75042485Y-27251778D01*
X75042476Y-27251783D01*
X74859848Y-27376296D01*
X75582705Y-28099153D01*
X75566058Y-28106049D01*
X75435030Y-28193599D01*
X75323599Y-28305030D01*
X75236049Y-28436058D01*
X75229153Y-28452706D01*
X74507295Y-27730848D01*
X74453600Y-27798180D01*
X74318709Y-28031818D01*
X74220148Y-28282947D01*
X74220142Y-28282966D01*
X74160113Y-28545971D01*
X74160113Y-28545973D01*
X74139953Y-28814995D01*
X32496447Y-28814995D01*
X32535984Y-28607736D01*
X32537384Y-28585482D01*
X32555345Y-28300005D01*
X32555345Y-28299994D01*
X32535985Y-27992274D01*
X32535984Y-27992267D01*
X32535984Y-27992264D01*
X32478206Y-27689381D01*
X32382922Y-27396127D01*
X32382919Y-27396120D01*
X32251637Y-27117132D01*
X32251633Y-27117126D01*
X32086422Y-26856793D01*
X32086420Y-26856791D01*
X32086416Y-26856784D01*
X31889869Y-26619201D01*
X31665096Y-26408124D01*
X31665093Y-26408122D01*
X31665087Y-26408117D01*
X31415651Y-26226891D01*
X31415644Y-26226886D01*
X31415640Y-26226884D01*
X31145435Y-26078337D01*
X31145432Y-26078335D01*
X31145427Y-26078333D01*
X31145426Y-26078332D01*
X30858746Y-25964828D01*
X30858743Y-25964827D01*
X30560089Y-25888146D01*
X30560076Y-25888144D01*
X30254183Y-25849500D01*
X30254172Y-25849500D01*
X29945828Y-25849500D01*
X29945816Y-25849500D01*
X29639923Y-25888144D01*
X29639910Y-25888146D01*
X29341256Y-25964827D01*
X29341253Y-25964828D01*
X29054573Y-26078332D01*
X29054572Y-26078333D01*
X28784360Y-26226884D01*
X28784348Y-26226891D01*
X28534912Y-26408117D01*
X28534902Y-26408125D01*
X28310132Y-26619199D01*
X28113577Y-26856793D01*
X27948366Y-27117126D01*
X27948362Y-27117132D01*
X27817080Y-27396120D01*
X27817078Y-27396125D01*
X27721795Y-27689376D01*
X27664015Y-27992267D01*
X27664014Y-27992274D01*
X27644655Y-28299994D01*
X26608500Y-28299994D01*
X26608500Y-27303750D01*
X26608726Y-27296263D01*
X26618926Y-27127638D01*
X26626213Y-27007162D01*
X26628018Y-26992303D01*
X26666086Y-26784575D01*
X26679547Y-26711116D01*
X26683130Y-26696582D01*
X26707244Y-26619199D01*
X26768175Y-26423662D01*
X26773479Y-26409674D01*
X26890814Y-26148967D01*
X26897759Y-26135735D01*
X27045664Y-25891071D01*
X27054151Y-25878775D01*
X27230468Y-25653722D01*
X27240383Y-25642531D01*
X27442531Y-25440383D01*
X27453722Y-25430468D01*
X27678775Y-25254151D01*
X27691071Y-25245664D01*
X27935735Y-25097759D01*
X27948967Y-25090814D01*
X28209674Y-24973479D01*
X28223662Y-24968175D01*
X28496583Y-24883129D01*
X28511116Y-24879547D01*
X28792309Y-24828017D01*
X28807162Y-24826213D01*
X29096264Y-24808726D01*
X29103751Y-24808500D01*
X29166945Y-24808500D01*
X123033055Y-24808500D01*
X123096249Y-24808500D01*
X123103736Y-24808726D01*
G37*
%TD.AperFunction*%
%TD*%
M02*
