%TF.GenerationSoftware,KiCad,Pcbnew,8.0.2*%
%TF.CreationDate,2024-06-23T14:40:44+03:00*%
%TF.ProjectId,Chaos Circuits,4368616f-7320-4436-9972-63756974732e,1*%
%TF.SameCoordinates,Original*%
%TF.FileFunction,Copper,L1,Top*%
%TF.FilePolarity,Positive*%
%FSLAX46Y46*%
G04 Gerber Fmt 4.6, Leading zero omitted, Abs format (unit mm)*
G04 Created by KiCad (PCBNEW 8.0.2) date 2024-06-23 14:40:44*
%MOMM*%
%LPD*%
G01*
G04 APERTURE LIST*
G04 Aperture macros list*
%AMRoundRect*
0 Rectangle with rounded corners*
0 $1 Rounding radius*
0 $2 $3 $4 $5 $6 $7 $8 $9 X,Y pos of 4 corners*
0 Add a 4 corners polygon primitive as box body*
4,1,4,$2,$3,$4,$5,$6,$7,$8,$9,$2,$3,0*
0 Add four circle primitives for the rounded corners*
1,1,$1+$1,$2,$3*
1,1,$1+$1,$4,$5*
1,1,$1+$1,$6,$7*
1,1,$1+$1,$8,$9*
0 Add four rect primitives between the rounded corners*
20,1,$1+$1,$2,$3,$4,$5,0*
20,1,$1+$1,$4,$5,$6,$7,0*
20,1,$1+$1,$6,$7,$8,$9,0*
20,1,$1+$1,$8,$9,$2,$3,0*%
G04 Aperture macros list end*
%TA.AperFunction,ComponentPad*%
%ADD10R,1.268000X1.268000*%
%TD*%
%TA.AperFunction,ComponentPad*%
%ADD11C,1.268000*%
%TD*%
%TA.AperFunction,SMDPad,CuDef*%
%ADD12R,1.460500X0.558800*%
%TD*%
%TA.AperFunction,SMDPad,CuDef*%
%ADD13R,0.558800X1.460500*%
%TD*%
%TA.AperFunction,ComponentPad*%
%ADD14C,2.032000*%
%TD*%
%TA.AperFunction,ComponentPad*%
%ADD15C,2.200000*%
%TD*%
%TA.AperFunction,SMDPad,CuDef*%
%ADD16R,0.558800X1.981200*%
%TD*%
%TA.AperFunction,ComponentPad*%
%ADD17C,2.800000*%
%TD*%
%TA.AperFunction,ComponentPad*%
%ADD18C,2.600000*%
%TD*%
%TA.AperFunction,SMDPad,CuDef*%
%ADD19RoundRect,0.250000X-0.450000X0.262500X-0.450000X-0.262500X0.450000X-0.262500X0.450000X0.262500X0*%
%TD*%
%TA.AperFunction,SMDPad,CuDef*%
%ADD20RoundRect,0.250000X-0.262500X-0.450000X0.262500X-0.450000X0.262500X0.450000X-0.262500X0.450000X0*%
%TD*%
%TA.AperFunction,SMDPad,CuDef*%
%ADD21RoundRect,0.250000X0.450000X-0.262500X0.450000X0.262500X-0.450000X0.262500X-0.450000X-0.262500X0*%
%TD*%
%TA.AperFunction,SMDPad,CuDef*%
%ADD22RoundRect,0.250000X0.262500X0.450000X-0.262500X0.450000X-0.262500X-0.450000X0.262500X-0.450000X0*%
%TD*%
%TA.AperFunction,SMDPad,CuDef*%
%ADD23RoundRect,0.250000X-0.312500X-0.625000X0.312500X-0.625000X0.312500X0.625000X-0.312500X0.625000X0*%
%TD*%
%TA.AperFunction,ComponentPad*%
%ADD24R,1.050000X1.500000*%
%TD*%
%TA.AperFunction,ComponentPad*%
%ADD25O,1.050000X1.500000*%
%TD*%
%TA.AperFunction,ComponentPad*%
%ADD26R,1.500000X1.050000*%
%TD*%
%TA.AperFunction,ComponentPad*%
%ADD27O,1.500000X1.050000*%
%TD*%
%TA.AperFunction,SMDPad,CuDef*%
%ADD28RoundRect,0.250000X0.475000X-0.250000X0.475000X0.250000X-0.475000X0.250000X-0.475000X-0.250000X0*%
%TD*%
%TA.AperFunction,SMDPad,CuDef*%
%ADD29RoundRect,0.250000X-0.250000X-0.475000X0.250000X-0.475000X0.250000X0.475000X-0.250000X0.475000X0*%
%TD*%
%TA.AperFunction,SMDPad,CuDef*%
%ADD30RoundRect,0.250000X-0.475000X0.250000X-0.475000X-0.250000X0.475000X-0.250000X0.475000X0.250000X0*%
%TD*%
%TA.AperFunction,SMDPad,CuDef*%
%ADD31RoundRect,0.250000X0.250000X0.475000X-0.250000X0.475000X-0.250000X-0.475000X0.250000X-0.475000X0*%
%TD*%
%TA.AperFunction,SMDPad,CuDef*%
%ADD32RoundRect,0.200000X-0.200000X-0.275000X0.200000X-0.275000X0.200000X0.275000X-0.200000X0.275000X0*%
%TD*%
%TA.AperFunction,SMDPad,CuDef*%
%ADD33C,1.000000*%
%TD*%
%TA.AperFunction,SMDPad,CuDef*%
%ADD34RoundRect,0.200000X-0.275000X0.200000X-0.275000X-0.200000X0.275000X-0.200000X0.275000X0.200000X0*%
%TD*%
%TA.AperFunction,ComponentPad*%
%ADD35C,2.000000*%
%TD*%
%TA.AperFunction,SMDPad,CuDef*%
%ADD36RoundRect,0.250000X0.900000X-1.000000X0.900000X1.000000X-0.900000X1.000000X-0.900000X-1.000000X0*%
%TD*%
%TA.AperFunction,SMDPad,CuDef*%
%ADD37R,2.209800X1.701800*%
%TD*%
%TA.AperFunction,ComponentPad*%
%ADD38C,3.900000*%
%TD*%
%TA.AperFunction,ConnectorPad*%
%ADD39C,7.000000*%
%TD*%
%TA.AperFunction,SMDPad,CuDef*%
%ADD40R,1.981200X0.558800*%
%TD*%
%TA.AperFunction,SMDPad,CuDef*%
%ADD41RoundRect,0.250000X-0.650000X0.325000X-0.650000X-0.325000X0.650000X-0.325000X0.650000X0.325000X0*%
%TD*%
%TA.AperFunction,SMDPad,CuDef*%
%ADD42RoundRect,0.250000X0.650000X-0.325000X0.650000X0.325000X-0.650000X0.325000X-0.650000X-0.325000X0*%
%TD*%
%TA.AperFunction,SMDPad,CuDef*%
%ADD43RoundRect,0.200000X0.200000X0.275000X-0.200000X0.275000X-0.200000X-0.275000X0.200000X-0.275000X0*%
%TD*%
%TA.AperFunction,SMDPad,CuDef*%
%ADD44RoundRect,0.250001X0.462499X0.624999X-0.462499X0.624999X-0.462499X-0.624999X0.462499X-0.624999X0*%
%TD*%
%TA.AperFunction,ComponentPad*%
%ADD45C,1.800000*%
%TD*%
%TA.AperFunction,ComponentPad*%
%ADD46R,1.950000X1.950000*%
%TD*%
%TA.AperFunction,ComponentPad*%
%ADD47C,1.950000*%
%TD*%
%TA.AperFunction,SMDPad,CuDef*%
%ADD48RoundRect,0.250001X-0.462499X-0.624999X0.462499X-0.624999X0.462499X0.624999X-0.462499X0.624999X0*%
%TD*%
%TA.AperFunction,ViaPad*%
%ADD49C,0.635000*%
%TD*%
%TA.AperFunction,Conductor*%
%ADD50C,0.304800*%
%TD*%
%TA.AperFunction,Conductor*%
%ADD51C,0.508000*%
%TD*%
G04 APERTURE END LIST*
D10*
%TO.P,R4,1*%
%TO.N,Net-(C6-Pad1)*%
X65665000Y-36720000D03*
D11*
%TO.P,R4,2*%
%TO.N,Net-(R4-Pad2)*%
X70745000Y-39260000D03*
%TO.P,R4,3*%
%TO.N,unconnected-(R4-Pad3)*%
X65665000Y-41800000D03*
%TD*%
D12*
%TO.P,U16,1*%
%TO.N,N/C*%
X114295850Y-89155000D03*
%TO.P,U16,2,-*%
%TO.N,Net-(U16--)*%
X114295850Y-90425000D03*
%TO.P,U16,3,+*%
%TO.N,GND*%
X114295850Y-91695000D03*
%TO.P,U16,4,V-*%
%TO.N,VIN-*%
X114295850Y-92965000D03*
%TO.P,U16,5*%
%TO.N,N/C*%
X119744150Y-92965000D03*
%TO.P,U16,6*%
%TO.N,/V_Rossler*%
X119744150Y-91695000D03*
%TO.P,U16,7,V+*%
%TO.N,VIN+*%
X119744150Y-90425000D03*
%TO.P,U16,8,NC*%
%TO.N,unconnected-(U16-NC-Pad8)*%
X119744150Y-89155000D03*
%TD*%
%TO.P,U15,1*%
%TO.N,N/C*%
X103325850Y-86595000D03*
%TO.P,U15,2,-*%
%TO.N,Net-(U15--)*%
X103325850Y-87865000D03*
%TO.P,U15,3,+*%
%TO.N,GND*%
X103325850Y-89135000D03*
%TO.P,U15,4,V-*%
%TO.N,VIN-*%
X103325850Y-90405000D03*
%TO.P,U15,5*%
%TO.N,N/C*%
X108774150Y-90405000D03*
%TO.P,U15,6*%
%TO.N,Net-(R43-Pad1)*%
X108774150Y-89135000D03*
%TO.P,U15,7,V+*%
%TO.N,VIN+*%
X108774150Y-87865000D03*
%TO.P,U15,8,NC*%
%TO.N,unconnected-(U15-NC-Pad8)*%
X108774150Y-86595000D03*
%TD*%
%TO.P,U14,1*%
%TO.N,N/C*%
X115865850Y-64455000D03*
%TO.P,U14,2,-*%
%TO.N,Net-(U14--)*%
X115865850Y-65725000D03*
%TO.P,U14,3,+*%
%TO.N,GND*%
X115865850Y-66995000D03*
%TO.P,U14,4,V-*%
%TO.N,VIN-*%
X115865850Y-68265000D03*
%TO.P,U14,5*%
%TO.N,N/C*%
X121314150Y-68265000D03*
%TO.P,U14,6*%
%TO.N,/Z_Rossler*%
X121314150Y-66995000D03*
%TO.P,U14,7,V+*%
%TO.N,VIN+*%
X121314150Y-65725000D03*
%TO.P,U14,8,NC*%
%TO.N,unconnected-(U14-NC-Pad8)*%
X121314150Y-64455000D03*
%TD*%
D13*
%TO.P,U12,1*%
%TO.N,N/C*%
X107450000Y-54110000D03*
%TO.P,U12,2,-*%
%TO.N,Net-(U12--)*%
X106180001Y-54110000D03*
%TO.P,U12,3,+*%
%TO.N,GND*%
X104910001Y-54110000D03*
%TO.P,U12,4,V-*%
%TO.N,VIN-*%
X103640002Y-54110000D03*
%TO.P,U12,5*%
%TO.N,N/C*%
X103640002Y-59558300D03*
%TO.P,U12,6*%
%TO.N,Net-(U13-X1)*%
X104910001Y-59558300D03*
%TO.P,U12,7,V+*%
%TO.N,VIN+*%
X106180001Y-59558300D03*
%TO.P,U12,8,NC*%
%TO.N,unconnected-(U12-NC-Pad8)*%
X107450000Y-59558300D03*
%TD*%
D12*
%TO.P,U11,1*%
%TO.N,N/C*%
X109675850Y-39910000D03*
%TO.P,U11,2,-*%
%TO.N,Net-(U11--)*%
X109675850Y-41180000D03*
%TO.P,U11,3,+*%
%TO.N,GND*%
X109675850Y-42450000D03*
%TO.P,U11,4,V-*%
%TO.N,VIN-*%
X109675850Y-43720000D03*
%TO.P,U11,5*%
%TO.N,N/C*%
X115124150Y-43720000D03*
%TO.P,U11,6*%
%TO.N,/-Y_Rossler*%
X115124150Y-42450000D03*
%TO.P,U11,7,V+*%
%TO.N,VIN+*%
X115124150Y-41180000D03*
%TO.P,U11,8,NC*%
%TO.N,unconnected-(U11-NC-Pad8)*%
X115124150Y-39910000D03*
%TD*%
%TO.P,U10,1*%
%TO.N,N/C*%
X97475850Y-41805000D03*
%TO.P,U10,2,-*%
%TO.N,Net-(U10--)*%
X97475850Y-43075000D03*
%TO.P,U10,3,+*%
%TO.N,GND*%
X97475850Y-44345000D03*
%TO.P,U10,4,V-*%
%TO.N,VIN-*%
X97475850Y-45615000D03*
%TO.P,U10,5*%
%TO.N,N/C*%
X102924150Y-45615000D03*
%TO.P,U10,6*%
%TO.N,/Y_Rossler*%
X102924150Y-44345000D03*
%TO.P,U10,7,V+*%
%TO.N,VIN+*%
X102924150Y-43075000D03*
%TO.P,U10,8,NC*%
%TO.N,unconnected-(U10-NC-Pad8)*%
X102924150Y-41805000D03*
%TD*%
%TO.P,U9,1*%
%TO.N,N/C*%
X109675850Y-28145000D03*
%TO.P,U9,2,-*%
%TO.N,Net-(U9--)*%
X109675850Y-29415000D03*
%TO.P,U9,3,+*%
%TO.N,GND*%
X109675850Y-30685000D03*
%TO.P,U9,4,V-*%
%TO.N,VIN-*%
X109675850Y-31955000D03*
%TO.P,U9,5*%
%TO.N,N/C*%
X115124150Y-31955000D03*
%TO.P,U9,6*%
%TO.N,/-X_Rossler*%
X115124150Y-30685000D03*
%TO.P,U9,7,V+*%
%TO.N,VIN+*%
X115124150Y-29415000D03*
%TO.P,U9,8,NC*%
%TO.N,unconnected-(U9-NC-Pad8)*%
X115124150Y-28145000D03*
%TD*%
%TO.P,U8,1*%
%TO.N,N/C*%
X97531700Y-29960000D03*
%TO.P,U8,2,-*%
%TO.N,Net-(U8--)*%
X97531700Y-31230000D03*
%TO.P,U8,3,+*%
%TO.N,GND*%
X97531700Y-32500000D03*
%TO.P,U8,4,V-*%
%TO.N,VIN-*%
X97531700Y-33770000D03*
%TO.P,U8,5*%
%TO.N,N/C*%
X102980000Y-33770000D03*
%TO.P,U8,6*%
%TO.N,/X_Rossler*%
X102980000Y-32500000D03*
%TO.P,U8,7,V+*%
%TO.N,VIN+*%
X102980000Y-31230000D03*
%TO.P,U8,8,NC*%
%TO.N,unconnected-(U8-NC-Pad8)*%
X102980000Y-29960000D03*
%TD*%
D14*
%TO.P,J2,1,1*%
%TO.N,GND*%
X32969999Y-70936599D03*
%TO.P,J2,2,2*%
%TO.N,/5V*%
X32969999Y-75936599D03*
%TD*%
D12*
%TO.P,U5,1*%
%TO.N,N/C*%
X79396700Y-90895000D03*
%TO.P,U5,2,-*%
%TO.N,Net-(U5--)*%
X79396700Y-92165000D03*
%TO.P,U5,3,+*%
%TO.N,GND*%
X79396700Y-93435000D03*
%TO.P,U5,4,V-*%
%TO.N,VIN-*%
X79396700Y-94705000D03*
%TO.P,U5,5*%
%TO.N,N/C*%
X84845000Y-94705000D03*
%TO.P,U5,6*%
%TO.N,/Z*%
X84845000Y-93435000D03*
%TO.P,U5,7,V+*%
%TO.N,VIN+*%
X84845000Y-92165000D03*
%TO.P,U5,8,NC*%
%TO.N,unconnected-(U5-NC-Pad8)*%
X84845000Y-90895000D03*
%TD*%
%TO.P,U3,1*%
%TO.N,N/C*%
X79396700Y-78550000D03*
%TO.P,U3,2,-*%
%TO.N,Net-(U3--)*%
X79396700Y-79820000D03*
%TO.P,U3,3,+*%
%TO.N,GND*%
X79396700Y-81090000D03*
%TO.P,U3,4,V-*%
%TO.N,VIN-*%
X79396700Y-82360000D03*
%TO.P,U3,5*%
%TO.N,N/C*%
X84845000Y-82360000D03*
%TO.P,U3,6*%
%TO.N,/-Y*%
X84845000Y-81090000D03*
%TO.P,U3,7,V+*%
%TO.N,VIN+*%
X84845000Y-79820000D03*
%TO.P,U3,8,NC*%
%TO.N,unconnected-(U3-NC-Pad8)*%
X84845000Y-78550000D03*
%TD*%
%TO.P,U4,1*%
%TO.N,N/C*%
X79346700Y-67090000D03*
%TO.P,U4,2,-*%
%TO.N,Net-(U4--)*%
X79346700Y-68360000D03*
%TO.P,U4,3,+*%
%TO.N,GND*%
X79346700Y-69630000D03*
%TO.P,U4,4,V-*%
%TO.N,VIN-*%
X79346700Y-70900000D03*
%TO.P,U4,5*%
%TO.N,N/C*%
X84795000Y-70900000D03*
%TO.P,U4,6*%
%TO.N,/X*%
X84795000Y-69630000D03*
%TO.P,U4,7,V+*%
%TO.N,VIN+*%
X84795000Y-68360000D03*
%TO.P,U4,8,NC*%
%TO.N,unconnected-(U4-NC-Pad8)*%
X84795000Y-67090000D03*
%TD*%
D13*
%TO.P,U2,8,NC*%
%TO.N,unconnected-(U2-NC-Pad8)*%
X81274999Y-51059150D03*
%TO.P,U2,7,V+*%
%TO.N,VIN+*%
X80005000Y-51059150D03*
%TO.P,U2,6*%
%TO.N,Net-(R10-Pad2)*%
X78735000Y-51059150D03*
%TO.P,U2,5*%
%TO.N,N/C*%
X77465001Y-51059150D03*
%TO.P,U2,4,V-*%
%TO.N,VIN-*%
X77465001Y-45610850D03*
%TO.P,U2,3,+*%
%TO.N,Net-(U1-+)*%
X78735000Y-45610850D03*
%TO.P,U2,2,-*%
%TO.N,Net-(U2--)*%
X80005000Y-45610850D03*
%TO.P,U2,1*%
%TO.N,N/C*%
X81274999Y-45610850D03*
%TD*%
D12*
%TO.P,U1,1*%
%TO.N,N/C*%
X83071700Y-37125000D03*
%TO.P,U1,2,-*%
%TO.N,Net-(U1--)*%
X83071700Y-38395000D03*
%TO.P,U1,3,+*%
%TO.N,Net-(U1-+)*%
X83071700Y-39665000D03*
%TO.P,U1,4,V-*%
%TO.N,VIN-*%
X83071700Y-40935000D03*
%TO.P,U1,5*%
%TO.N,N/C*%
X88520000Y-40935000D03*
%TO.P,U1,6*%
%TO.N,Net-(R11-Pad2)*%
X88520000Y-39665000D03*
%TO.P,U1,7,V+*%
%TO.N,VIN+*%
X88520000Y-38395000D03*
%TO.P,U1,8,NC*%
%TO.N,unconnected-(U1-NC-Pad8)*%
X88520000Y-37125000D03*
%TD*%
D15*
%TO.P,TP1,1,1*%
%TO.N,GND*%
X27757000Y-64400000D03*
%TD*%
D16*
%TO.P,U13,1,Y1*%
%TO.N,/Z_Rossler*%
X102885000Y-70963800D03*
%TO.P,U13,2,Y2*%
%TO.N,GND*%
X104155000Y-70963800D03*
%TO.P,U13,3,-VS*%
%TO.N,VIN-*%
X105425000Y-70963800D03*
%TO.P,U13,4,Z*%
%TO.N,GND*%
X106695000Y-70963800D03*
%TO.P,U13,5,W*%
%TO.N,Net-(U13-W)*%
X106695000Y-66036200D03*
%TO.P,U13,6,+VS*%
%TO.N,VIN+*%
X105425000Y-66036200D03*
%TO.P,U13,7,X1*%
%TO.N,Net-(U13-X1)*%
X104155000Y-66036200D03*
%TO.P,U13,8,X2*%
%TO.N,GND*%
X102885000Y-66036200D03*
%TD*%
D17*
%TO.P,TP27,1,1*%
%TO.N,Net-(U13-W)*%
X109300000Y-65720000D03*
%TD*%
%TO.P,TP25,1,1*%
%TO.N,Net-(U13-X1)*%
X104150000Y-62650000D03*
%TD*%
%TO.P,TP23,1,1*%
%TO.N,/-Y_Rossler*%
X118250000Y-44290000D03*
%TD*%
%TO.P,TP22,1,1*%
%TO.N,/-X_Rossler*%
X118220000Y-32790000D03*
%TD*%
%TO.P,TP21,1,1*%
%TO.N,/Y_Rossler*%
X106010000Y-45500000D03*
%TD*%
%TO.P,TP20,1,1*%
%TO.N,/X_Rossler*%
X106070000Y-33680000D03*
%TD*%
D18*
%TO.P,TP19,1,1*%
%TO.N,GND*%
X108600000Y-99110000D03*
%TO.N,Net-(R50-Pad2)*%
X116220000Y-99110000D03*
%TD*%
%TO.P,TP18,1,1*%
%TO.N,GND*%
X123380000Y-79380000D03*
%TO.N,Net-(R49-Pad2)*%
X123380000Y-71760000D03*
%TD*%
%TO.P,TP17,1,1*%
%TO.N,Net-(R48-Pad2)*%
X112730000Y-49020000D03*
%TO.N,GND*%
X120350000Y-49020000D03*
%TD*%
%TO.P,TP16,1,1*%
%TO.N,Net-(R47-Pad2)*%
X113440000Y-54150000D03*
%TO.N,GND*%
X121060000Y-54150000D03*
%TD*%
%TO.P,TP15,1,1*%
%TO.N,Net-(Q2-C)*%
X49547500Y-80515000D03*
%TO.N,GND*%
X49547500Y-72895000D03*
%TD*%
%TO.P,TP14,1,1*%
%TO.N,Net-(C26-Pad1)*%
X44127500Y-80600000D03*
%TO.N,GND*%
X44127500Y-72980000D03*
%TD*%
%TO.P,TP13,1,1*%
%TO.N,Net-(C25-Pad1)*%
X48897500Y-90960000D03*
%TO.N,GND*%
X56517500Y-90960000D03*
%TD*%
%TO.P,TP12,1,1*%
%TO.N,Net-(Q1-C)*%
X36072500Y-90229999D03*
%TO.N,GND*%
X36072500Y-97849999D03*
%TD*%
D19*
%TO.P,R50,1*%
%TO.N,/V_Rossler*%
X117070000Y-94667500D03*
%TO.P,R50,2*%
%TO.N,Net-(R50-Pad2)*%
X117070000Y-96492500D03*
%TD*%
%TO.P,R49,1*%
%TO.N,/Z_Rossler*%
X123380000Y-67317500D03*
%TO.P,R49,2*%
%TO.N,Net-(R49-Pad2)*%
X123380000Y-69142500D03*
%TD*%
D20*
%TO.P,R48,1*%
%TO.N,/Y_Rossler*%
X108157500Y-47990000D03*
%TO.P,R48,2*%
%TO.N,Net-(R48-Pad2)*%
X109982500Y-47990000D03*
%TD*%
D19*
%TO.P,R47,1*%
%TO.N,/X_Rossler*%
X109900000Y-51417500D03*
%TO.P,R47,2*%
%TO.N,Net-(R47-Pad2)*%
X109900000Y-53242500D03*
%TD*%
D20*
%TO.P,R46,1*%
%TO.N,Net-(U16--)*%
X116117500Y-87250000D03*
%TO.P,R46,2*%
%TO.N,/V_Rossler*%
X117942500Y-87250000D03*
%TD*%
D19*
%TO.P,R45,1*%
%TO.N,/-X_Rossler*%
X112850000Y-85937500D03*
%TO.P,R45,2*%
%TO.N,Net-(U16--)*%
X112850000Y-87762500D03*
%TD*%
D20*
%TO.P,R44,1*%
%TO.N,Net-(U15--)*%
X105157500Y-84700000D03*
%TO.P,R44,2*%
%TO.N,Net-(R43-Pad1)*%
X106982500Y-84700000D03*
%TD*%
%TO.P,R43,1*%
%TO.N,Net-(R43-Pad1)*%
X110617500Y-89530000D03*
%TO.P,R43,2*%
%TO.N,Net-(U16--)*%
X112442500Y-89530000D03*
%TD*%
%TO.P,R42,1*%
%TO.N,/Z_Rossler*%
X99657500Y-87870000D03*
%TO.P,R42,2*%
%TO.N,Net-(U15--)*%
X101482500Y-87870000D03*
%TD*%
D10*
%TO.P,R41,1*%
%TO.N,VIN+*%
X111230000Y-80080000D03*
D11*
%TO.P,R41,2*%
%TO.N,Net-(R40-Pad1)*%
X113770000Y-75000000D03*
%TO.P,R41,3*%
%TO.N,VIN-*%
X116310000Y-80080000D03*
%TD*%
D21*
%TO.P,R40,1*%
%TO.N,Net-(R40-Pad1)*%
X113790000Y-69302500D03*
%TO.P,R40,2*%
%TO.N,Net-(U14--)*%
X113790000Y-67477500D03*
%TD*%
D20*
%TO.P,R39,1*%
%TO.N,Net-(U13-W)*%
X112167500Y-65720000D03*
%TO.P,R39,2*%
%TO.N,Net-(U14--)*%
X113992500Y-65720000D03*
%TD*%
D19*
%TO.P,R38,1*%
%TO.N,Net-(U12--)*%
X109310000Y-56077500D03*
%TO.P,R38,2*%
%TO.N,Net-(U13-X1)*%
X109310000Y-57902500D03*
%TD*%
D21*
%TO.P,R37,1*%
%TO.N,VIN-*%
X104800000Y-52252500D03*
%TO.P,R37,2*%
%TO.N,Net-(U12--)*%
X104800000Y-50427500D03*
%TD*%
D19*
%TO.P,R36,1*%
%TO.N,/X_Rossler*%
X106740000Y-50437500D03*
%TO.P,R36,2*%
%TO.N,Net-(U12--)*%
X106740000Y-52262500D03*
%TD*%
D20*
%TO.P,R35,1*%
%TO.N,Net-(U11--)*%
X111477500Y-38030000D03*
%TO.P,R35,2*%
%TO.N,/-Y_Rossler*%
X113302500Y-38030000D03*
%TD*%
D21*
%TO.P,R34,1*%
%TO.N,/Y_Rossler*%
X107490000Y-42735000D03*
%TO.P,R34,2*%
%TO.N,Net-(U11--)*%
X107490000Y-40910000D03*
%TD*%
D20*
%TO.P,R33,1*%
%TO.N,/-Y_Rossler*%
X93797500Y-44480000D03*
%TO.P,R33,2*%
%TO.N,Net-(U10--)*%
X95622500Y-44480000D03*
%TD*%
%TO.P,R32,1*%
%TO.N,/-X_Rossler*%
X93805000Y-42540000D03*
%TO.P,R32,2*%
%TO.N,Net-(U10--)*%
X95630000Y-42540000D03*
%TD*%
D21*
%TO.P,R31,1*%
%TO.N,/X_Rossler*%
X107470000Y-30922500D03*
%TO.P,R31,2*%
%TO.N,Net-(U9--)*%
X107470000Y-29097500D03*
%TD*%
D20*
%TO.P,R30,1*%
%TO.N,Net-(U9--)*%
X111627500Y-26230000D03*
%TO.P,R30,2*%
%TO.N,/-X_Rossler*%
X113452500Y-26230000D03*
%TD*%
%TO.P,R29,1*%
%TO.N,/Y_Rossler*%
X93857500Y-32410000D03*
%TO.P,R29,2*%
%TO.N,Net-(U8--)*%
X95682500Y-32410000D03*
%TD*%
%TO.P,R28,1*%
%TO.N,/Z_Rossler*%
X93867500Y-30480000D03*
%TO.P,R28,2*%
%TO.N,Net-(U8--)*%
X95692500Y-30480000D03*
%TD*%
D22*
%TO.P,R27,1*%
%TO.N,Net-(Q2-C)*%
X48622500Y-84740000D03*
%TO.P,R27,2*%
%TO.N,Net-(C26-Pad1)*%
X46797500Y-84740000D03*
%TD*%
D23*
%TO.P,R26,1*%
%TO.N,GND*%
X40335000Y-97315000D03*
%TO.P,R26,2*%
%TO.N,Net-(Q2-B)*%
X43260000Y-97315000D03*
%TD*%
D10*
%TO.P,R25,1*%
%TO.N,Net-(Q2-B)*%
X49932500Y-100360000D03*
D11*
%TO.P,R25,2*%
%TO.N,GND*%
X52472500Y-95280000D03*
%TO.P,R25,3*%
%TO.N,unconnected-(R25-Pad3)*%
X55012500Y-100360000D03*
%TD*%
D21*
%TO.P,R24,1*%
%TO.N,Net-(Q2-B)*%
X43060001Y-94052500D03*
%TO.P,R24,2*%
%TO.N,Net-(Q1-C)*%
X43060001Y-92227500D03*
%TD*%
D22*
%TO.P,R23,1*%
%TO.N,Net-(C26-Pad1)*%
X45197500Y-84790000D03*
%TO.P,R23,2*%
%TO.N,Net-(Q1-B)*%
X43372500Y-84790000D03*
%TD*%
D21*
%TO.P,R22,1*%
%TO.N,Net-(C25-Pad1)*%
X45060000Y-88340000D03*
%TO.P,R22,2*%
%TO.N,Net-(C26-Pad1)*%
X45060000Y-86515000D03*
%TD*%
D20*
%TO.P,R21,1*%
%TO.N,Net-(Q1-C)*%
X43422500Y-90090000D03*
%TO.P,R21,2*%
%TO.N,Net-(C25-Pad1)*%
X45247500Y-90090000D03*
%TD*%
D21*
%TO.P,R20,1*%
%TO.N,/5V*%
X40635000Y-94102500D03*
%TO.P,R20,2*%
%TO.N,Net-(Q1-C)*%
X40635000Y-92277500D03*
%TD*%
D24*
%TO.P,Q2,1,C*%
%TO.N,Net-(Q2-C)*%
X50872500Y-86515000D03*
D25*
%TO.P,Q2,2,B*%
%TO.N,Net-(Q2-B)*%
X52142501Y-86515000D03*
%TO.P,Q2,3,E*%
%TO.N,GND*%
X53412500Y-86515000D03*
%TD*%
D26*
%TO.P,Q1,1,C*%
%TO.N,Net-(Q1-C)*%
X40635000Y-89980000D03*
D27*
%TO.P,Q1,2,B*%
%TO.N,Net-(Q1-B)*%
X40635000Y-88709999D03*
%TO.P,Q1,3,E*%
%TO.N,GND*%
X40635000Y-87440000D03*
%TD*%
D28*
%TO.P,C49,1*%
%TO.N,VIN-*%
X112210000Y-94469999D03*
%TO.P,C49,2*%
%TO.N,GND*%
X112210000Y-92570001D03*
%TD*%
%TO.P,C48,1*%
%TO.N,VIN+*%
X121810000Y-90039999D03*
%TO.P,C48,2*%
%TO.N,GND*%
X121810000Y-88140001D03*
%TD*%
D29*
%TO.P,C47,1*%
%TO.N,VIN-*%
X103410000Y-92320000D03*
%TO.P,C47,2*%
%TO.N,GND*%
X105310000Y-92320000D03*
%TD*%
D28*
%TO.P,C46,1*%
%TO.N,VIN+*%
X110830000Y-87279999D03*
%TO.P,C46,2*%
%TO.N,GND*%
X110830000Y-85380001D03*
%TD*%
D29*
%TO.P,C45,1*%
%TO.N,VIN-*%
X116130000Y-70180000D03*
%TO.P,C45,2*%
%TO.N,GND*%
X118030000Y-70180000D03*
%TD*%
D28*
%TO.P,C44,1*%
%TO.N,VIN+*%
X123370000Y-65429998D03*
%TO.P,C44,2*%
%TO.N,GND*%
X123370000Y-63530000D03*
%TD*%
D29*
%TO.P,C43,1*%
%TO.N,Net-(U14--)*%
X117640000Y-62530000D03*
%TO.P,C43,2*%
%TO.N,/Z_Rossler*%
X119540000Y-62530000D03*
%TD*%
%TO.P,C42,1*%
%TO.N,VIN-*%
X105820000Y-73130000D03*
%TO.P,C42,2*%
%TO.N,GND*%
X107720000Y-73130000D03*
%TD*%
D30*
%TO.P,C41,1*%
%TO.N,VIN-*%
X101730000Y-54230001D03*
%TO.P,C41,2*%
%TO.N,GND*%
X101730000Y-56129999D03*
%TD*%
D29*
%TO.P,C40,1*%
%TO.N,VIN+*%
X106950000Y-61610000D03*
%TO.P,C40,2*%
%TO.N,GND*%
X108850000Y-61610000D03*
%TD*%
D30*
%TO.P,C39,1*%
%TO.N,VIN+*%
X108350000Y-68770001D03*
%TO.P,C39,2*%
%TO.N,GND*%
X108350000Y-70669999D03*
%TD*%
D29*
%TO.P,C38,1*%
%TO.N,VIN-*%
X109460000Y-45630000D03*
%TO.P,C38,2*%
%TO.N,GND*%
X111360000Y-45630000D03*
%TD*%
D28*
%TO.P,C37,1*%
%TO.N,VIN+*%
X117200000Y-40809999D03*
%TO.P,C37,2*%
%TO.N,GND*%
X117200000Y-38910001D03*
%TD*%
D29*
%TO.P,C36,1*%
%TO.N,VIN-*%
X97240001Y-47540000D03*
%TO.P,C36,2*%
%TO.N,GND*%
X99139999Y-47540000D03*
%TD*%
D28*
%TO.P,C35,1*%
%TO.N,VIN+*%
X105000000Y-42729999D03*
%TO.P,C35,2*%
%TO.N,GND*%
X105000000Y-40830001D03*
%TD*%
D29*
%TO.P,C34,1*%
%TO.N,VIN-*%
X109790000Y-33890000D03*
%TO.P,C34,2*%
%TO.N,GND*%
X111690000Y-33890000D03*
%TD*%
D28*
%TO.P,C33,1*%
%TO.N,VIN+*%
X117180000Y-29049999D03*
%TO.P,C33,2*%
%TO.N,GND*%
X117180000Y-27150001D03*
%TD*%
D29*
%TO.P,C32,1*%
%TO.N,Net-(U10--)*%
X99180000Y-39890000D03*
%TO.P,C32,2*%
%TO.N,/Y_Rossler*%
X101080000Y-39890000D03*
%TD*%
%TO.P,C31,1*%
%TO.N,VIN-*%
X97380000Y-35700000D03*
%TO.P,C31,2*%
%TO.N,GND*%
X99280000Y-35700000D03*
%TD*%
D28*
%TO.P,C30,1*%
%TO.N,VIN+*%
X105050000Y-30889999D03*
%TO.P,C30,2*%
%TO.N,GND*%
X105050000Y-28990001D03*
%TD*%
D29*
%TO.P,C29,1*%
%TO.N,Net-(U8--)*%
X99370000Y-28030000D03*
%TO.P,C29,2*%
%TO.N,/X_Rossler*%
X101270000Y-28030000D03*
%TD*%
%TO.P,C28,1*%
%TO.N,Net-(Q2-B)*%
X52247501Y-89540000D03*
%TO.P,C28,2*%
%TO.N,GND*%
X54147499Y-89540000D03*
%TD*%
D31*
%TO.P,C27,1*%
%TO.N,Net-(Q1-B)*%
X41834999Y-84740000D03*
%TO.P,C27,2*%
%TO.N,GND*%
X39935001Y-84740000D03*
%TD*%
D30*
%TO.P,C26,1*%
%TO.N,Net-(C26-Pad1)*%
X47010000Y-86490001D03*
%TO.P,C26,2*%
%TO.N,GND*%
X47010000Y-88389999D03*
%TD*%
%TO.P,C25,1*%
%TO.N,Net-(C25-Pad1)*%
X45035000Y-91815002D03*
%TO.P,C25,2*%
%TO.N,GND*%
X45035000Y-93715000D03*
%TD*%
D28*
%TO.P,C8,1*%
%TO.N,VIN+*%
X90595000Y-37959998D03*
%TO.P,C8,2*%
%TO.N,GND*%
X90595000Y-36060000D03*
%TD*%
D32*
%TO.P,R1,1*%
%TO.N,Net-(D5-K)*%
X38750000Y-64600000D03*
%TO.P,R1,2*%
%TO.N,VIN-*%
X40400000Y-64600000D03*
%TD*%
D33*
%TO.P,FID1,*%
%TO.N,*%
X28040000Y-40280000D03*
%TD*%
D29*
%TO.P,C15,2*%
%TO.N,GND*%
X81170000Y-84250000D03*
%TO.P,C15,1*%
%TO.N,VIN-*%
X79270000Y-84250000D03*
%TD*%
D34*
%TO.P,R3,1*%
%TO.N,/5V*%
X39270000Y-76795000D03*
%TO.P,R3,2*%
%TO.N,Net-(D8-A)*%
X39270000Y-78445000D03*
%TD*%
D29*
%TO.P,C10,1*%
%TO.N,VIN+*%
X80370000Y-53110000D03*
%TO.P,C10,2*%
%TO.N,GND*%
X82270000Y-53110000D03*
%TD*%
D35*
%TO.P,TP3,1,1*%
%TO.N,GND*%
X95750000Y-52970000D03*
%TD*%
D23*
%TO.P,R6,1*%
%TO.N,Net-(C6-Pad1)*%
X66915000Y-33000000D03*
%TO.P,R6,2*%
%TO.N,Net-(R4-Pad2)*%
X69840000Y-33000000D03*
%TD*%
D28*
%TO.P,C23,1*%
%TO.N,VIN+*%
X73120000Y-90524999D03*
%TO.P,C23,2*%
%TO.N,GND*%
X73120000Y-88625001D03*
%TD*%
D20*
%TO.P,R7,1*%
%TO.N,Net-(U1-+)*%
X84970000Y-42835000D03*
%TO.P,R7,2*%
%TO.N,Net-(R11-Pad2)*%
X86795000Y-42835000D03*
%TD*%
D29*
%TO.P,C17,1*%
%TO.N,VIN-*%
X79370000Y-72800000D03*
%TO.P,C17,2*%
%TO.N,GND*%
X81270000Y-72800000D03*
%TD*%
D36*
%TO.P,D2,1,A1*%
%TO.N,GND*%
X40400000Y-48200002D03*
%TO.P,D2,2,A2*%
%TO.N,VIN+*%
X40400000Y-43900000D03*
%TD*%
D22*
%TO.P,R9,1*%
%TO.N,GND*%
X84820000Y-45985000D03*
%TO.P,R9,2*%
%TO.N,Net-(U2--)*%
X82995000Y-45985000D03*
%TD*%
D35*
%TO.P,TP5,1,1*%
%TO.N,VIN-*%
X45000000Y-61800000D03*
%TD*%
D28*
%TO.P,C19,1*%
%TO.N,VIN+*%
X86895000Y-91775000D03*
%TO.P,C19,2*%
%TO.N,GND*%
X86895000Y-89875002D03*
%TD*%
D37*
%TO.P,D3,1,K*%
%TO.N,GND*%
X36539200Y-62100000D03*
%TO.P,D3,2,A*%
%TO.N,VIN-*%
X40400000Y-62100000D03*
%TD*%
D35*
%TO.P,TP4,1,1*%
%TO.N,GND*%
X66470000Y-68380000D03*
%TD*%
D38*
%TO.P,H4,1*%
%TO.N,N/C*%
X30100000Y-100300000D03*
D39*
X30100000Y-100300000D03*
%TD*%
D23*
%TO.P,R5,1*%
%TO.N,Net-(R4-Pad2)*%
X74102500Y-39550000D03*
%TO.P,R5,2*%
%TO.N,Net-(U1-+)*%
X77027500Y-39550000D03*
%TD*%
D18*
%TO.P,TP8,1,1*%
%TO.N,Net-(U1-+)*%
X75945000Y-36435000D03*
%TO.N,GND*%
X75945000Y-28815000D03*
%TD*%
D40*
%TO.P,U6,1,Y1*%
%TO.N,GND*%
X65142400Y-76615000D03*
%TO.P,U6,2,Y2*%
%TO.N,/Z*%
X65142400Y-77885000D03*
%TO.P,U6,3,-VS*%
%TO.N,VIN-*%
X65142400Y-79155000D03*
%TO.P,U6,4,Z*%
%TO.N,GND*%
X65142400Y-80425000D03*
%TO.P,U6,5,W*%
%TO.N,Net-(U6-W)*%
X70070000Y-80425000D03*
%TO.P,U6,6,+VS*%
%TO.N,VIN+*%
X70070000Y-79155000D03*
%TO.P,U6,7,X1*%
%TO.N,/X*%
X70070000Y-77885000D03*
%TO.P,U6,8,X2*%
%TO.N,GND*%
X70070000Y-76615000D03*
%TD*%
D30*
%TO.P,C6,1*%
%TO.N,Net-(C6-Pad1)*%
X61920000Y-36760000D03*
%TO.P,C6,2*%
%TO.N,GND*%
X61920000Y-38659998D03*
%TD*%
D33*
%TO.P,FID2,*%
%TO.N,*%
X102380000Y-100320000D03*
%TD*%
D20*
%TO.P,R14,1*%
%TO.N,/X*%
X75732500Y-78450000D03*
%TO.P,R14,2*%
%TO.N,Net-(U3--)*%
X77557500Y-78450000D03*
%TD*%
D38*
%TO.P,H2,1*%
%TO.N,N/C*%
X122100000Y-28300000D03*
D39*
X122100000Y-28300000D03*
%TD*%
D18*
%TO.P,TP7,1,1*%
%TO.N,Net-(C6-Pad1)*%
X64240000Y-32410000D03*
%TO.N,GND*%
X56620000Y-32410000D03*
%TD*%
D41*
%TO.P,C2,1*%
%TO.N,VIN+*%
X43800000Y-44424999D03*
%TO.P,C2,2*%
%TO.N,GND*%
X43800000Y-47375001D03*
%TD*%
%TO.P,C3,1*%
%TO.N,GND*%
X46100000Y-55149998D03*
%TO.P,C3,2*%
%TO.N,VIN-*%
X46100000Y-58100000D03*
%TD*%
D28*
%TO.P,C14,1*%
%TO.N,VIN+*%
X86895000Y-79425000D03*
%TO.P,C14,2*%
%TO.N,GND*%
X86895000Y-77525002D03*
%TD*%
D42*
%TO.P,C5,1*%
%TO.N,/5V*%
X39270000Y-75245001D03*
%TO.P,C5,2*%
%TO.N,GND*%
X39270000Y-72294999D03*
%TD*%
D36*
%TO.P,D1,1,A1*%
%TO.N,VIN-*%
X40400000Y-58700002D03*
%TO.P,D1,2,A2*%
%TO.N,GND*%
X40400000Y-54400000D03*
%TD*%
D35*
%TO.P,TP6,1,1*%
%TO.N,VIN+*%
X45000000Y-40700000D03*
%TD*%
D30*
%TO.P,C22,1*%
%TO.N,VIN-*%
X62970000Y-79475001D03*
%TO.P,C22,2*%
%TO.N,GND*%
X62970000Y-81374999D03*
%TD*%
D20*
%TO.P,R19,1*%
%TO.N,/-Y*%
X75657500Y-67575000D03*
%TO.P,R19,2*%
%TO.N,Net-(U4--)*%
X77482500Y-67575000D03*
%TD*%
D43*
%TO.P,R2,1*%
%TO.N,VIN+*%
X40400000Y-38000000D03*
%TO.P,R2,2*%
%TO.N,Net-(D6-A)*%
X38750000Y-38000000D03*
%TD*%
D31*
%TO.P,C11,1*%
%TO.N,VIN-*%
X76045000Y-44985000D03*
%TO.P,C11,2*%
%TO.N,GND*%
X74145002Y-44985000D03*
%TD*%
D28*
%TO.P,C7,1*%
%TO.N,Net-(U1-+)*%
X78840000Y-39925000D03*
%TO.P,C7,2*%
%TO.N,GND*%
X78840000Y-38025002D03*
%TD*%
%TO.P,C21,1*%
%TO.N,VIN+*%
X72170000Y-78825000D03*
%TO.P,C21,2*%
%TO.N,GND*%
X72170000Y-76925002D03*
%TD*%
D44*
%TO.P,D5,1,K*%
%TO.N,Net-(D5-K)*%
X37075000Y-65000000D03*
%TO.P,D5,2,A*%
%TO.N,GND*%
X34100000Y-65000000D03*
%TD*%
D20*
%TO.P,R11,1*%
%TO.N,Net-(U1--)*%
X84970000Y-35235000D03*
%TO.P,R11,2*%
%TO.N,Net-(R11-Pad2)*%
X86795000Y-35235000D03*
%TD*%
D19*
%TO.P,R8,1*%
%TO.N,GND*%
X83245000Y-32960000D03*
%TO.P,R8,2*%
%TO.N,Net-(U1--)*%
X83245000Y-34785000D03*
%TD*%
D29*
%TO.P,C18,1*%
%TO.N,Net-(U5--)*%
X81195000Y-89000000D03*
%TO.P,C18,2*%
%TO.N,/Z*%
X83095000Y-89000000D03*
%TD*%
D45*
%TO.P,L1,1,1*%
%TO.N,Net-(C6-Pad1)*%
X55270000Y-38235000D03*
%TO.P,L1,2,2*%
%TO.N,GND*%
X55270000Y-43235000D03*
%TD*%
D20*
%TO.P,R17,1*%
%TO.N,Net-(U7-W)*%
X75732500Y-92150000D03*
%TO.P,R17,2*%
%TO.N,Net-(U5--)*%
X77557500Y-92150000D03*
%TD*%
D29*
%TO.P,C20,2*%
%TO.N,GND*%
X81195000Y-96600000D03*
%TO.P,C20,1*%
%TO.N,VIN-*%
X79295000Y-96600000D03*
%TD*%
D19*
%TO.P,R13,1*%
%TO.N,Net-(U2--)*%
X83170000Y-47735000D03*
%TO.P,R13,2*%
%TO.N,Net-(R10-Pad2)*%
X83170000Y-49560000D03*
%TD*%
D41*
%TO.P,C1,1*%
%TO.N,GND*%
X43800000Y-55124999D03*
%TO.P,C1,2*%
%TO.N,VIN-*%
X43800000Y-58075001D03*
%TD*%
D33*
%TO.P,FID3,*%
%TO.N,*%
X40630000Y-102490000D03*
%TD*%
D20*
%TO.P,R18,1*%
%TO.N,/Z*%
X75732500Y-94075000D03*
%TO.P,R18,2*%
%TO.N,Net-(U5--)*%
X77557500Y-94075000D03*
%TD*%
D40*
%TO.P,U7,1,Y1*%
%TO.N,/X*%
X66006200Y-88345000D03*
%TO.P,U7,2,Y2*%
%TO.N,GND*%
X66006200Y-89615000D03*
%TO.P,U7,3,-VS*%
%TO.N,VIN-*%
X66006200Y-90885000D03*
%TO.P,U7,4,Z*%
%TO.N,GND*%
X66006200Y-92155000D03*
%TO.P,U7,5,W*%
%TO.N,Net-(U7-W)*%
X70933800Y-92155000D03*
%TO.P,U7,6,+VS*%
%TO.N,VIN+*%
X70933800Y-90885000D03*
%TO.P,U7,7,X1*%
%TO.N,/-Y*%
X70933800Y-89615000D03*
%TO.P,U7,8,X2*%
%TO.N,GND*%
X70933800Y-88345000D03*
%TD*%
D18*
%TO.P,TP11,1,1*%
%TO.N,/-Y*%
X87710000Y-82000000D03*
%TO.N,GND*%
X95330000Y-82000000D03*
%TD*%
D29*
%TO.P,C13,1*%
%TO.N,Net-(U3--)*%
X81145000Y-76625000D03*
%TO.P,C13,2*%
%TO.N,/-Y*%
X83045000Y-76625000D03*
%TD*%
D18*
%TO.P,TP9,1,1*%
%TO.N,/Z*%
X87710000Y-94350000D03*
%TO.N,GND*%
X95330000Y-94350000D03*
%TD*%
D46*
%TO.P,J1,1,1*%
%TO.N,VIN+*%
X33000000Y-46600000D03*
D47*
%TO.P,J1,2,2*%
%TO.N,GND*%
X33000000Y-51679999D03*
%TO.P,J1,3,3*%
%TO.N,VIN-*%
X33000000Y-56760000D03*
%TD*%
D48*
%TO.P,D6,1,K*%
%TO.N,GND*%
X34125000Y-37600000D03*
%TO.P,D6,2,A*%
%TO.N,Net-(D6-A)*%
X37100000Y-37600000D03*
%TD*%
D35*
%TO.P,TP2,1,1*%
%TO.N,GND*%
X45000000Y-51400000D03*
%TD*%
D18*
%TO.P,TP10,1,1*%
%TO.N,/X*%
X87660000Y-70300000D03*
%TO.N,GND*%
X95280000Y-70300000D03*
%TD*%
D48*
%TO.P,D8,1,K*%
%TO.N,GND*%
X36307500Y-80770000D03*
%TO.P,D8,2,A*%
%TO.N,Net-(D8-A)*%
X39282500Y-80770000D03*
%TD*%
D29*
%TO.P,C12,1*%
%TO.N,Net-(U4--)*%
X81345000Y-65150000D03*
%TO.P,C12,2*%
%TO.N,/X*%
X83245000Y-65150000D03*
%TD*%
D41*
%TO.P,C4,1*%
%TO.N,VIN+*%
X46100000Y-44449998D03*
%TO.P,C4,2*%
%TO.N,GND*%
X46100000Y-47400000D03*
%TD*%
D20*
%TO.P,R15,1*%
%TO.N,Net-(U6-W)*%
X75732500Y-80400000D03*
%TO.P,R15,2*%
%TO.N,Net-(U3--)*%
X77557500Y-80400000D03*
%TD*%
D30*
%TO.P,C24,1*%
%TO.N,VIN-*%
X63820000Y-91175000D03*
%TO.P,C24,2*%
%TO.N,GND*%
X63820000Y-93074998D03*
%TD*%
D21*
%TO.P,R12,1*%
%TO.N,/X*%
X76920000Y-71162500D03*
%TO.P,R12,2*%
%TO.N,Net-(U4--)*%
X76920000Y-69337500D03*
%TD*%
D31*
%TO.P,C9,1*%
%TO.N,VIN-*%
X82719998Y-42535000D03*
%TO.P,C9,2*%
%TO.N,GND*%
X80820000Y-42535000D03*
%TD*%
D28*
%TO.P,C16,1*%
%TO.N,VIN+*%
X86845000Y-67625000D03*
%TO.P,C16,2*%
%TO.N,GND*%
X86845000Y-65725002D03*
%TD*%
D19*
%TO.P,R10,1*%
%TO.N,Net-(U1-+)*%
X75545000Y-47385000D03*
%TO.P,R10,2*%
%TO.N,Net-(R10-Pad2)*%
X75545000Y-49210000D03*
%TD*%
D38*
%TO.P,H3,1*%
%TO.N,N/C*%
X122100000Y-100300000D03*
D39*
X122100000Y-100300000D03*
%TD*%
D20*
%TO.P,R16,1*%
%TO.N,/-Y*%
X75732500Y-82300000D03*
%TO.P,R16,2*%
%TO.N,Net-(U3--)*%
X77557500Y-82300000D03*
%TD*%
D37*
%TO.P,D4,1,K*%
%TO.N,VIN+*%
X40430400Y-40500000D03*
%TO.P,D4,2,A*%
%TO.N,GND*%
X36569600Y-40500000D03*
%TD*%
D39*
%TO.P,H1,1*%
%TO.N,N/C*%
X30100000Y-28300000D03*
D38*
X30100000Y-28300000D03*
%TD*%
D49*
%TO.N,GND*%
X64730000Y-89110000D03*
X121820000Y-87110000D03*
X115690000Y-91870000D03*
X111060000Y-92530000D03*
X110800000Y-84270000D03*
X104600000Y-89180000D03*
X106420000Y-92310000D03*
X102900000Y-67690000D03*
X108690000Y-72230000D03*
X104230000Y-69330000D03*
X109790000Y-70660000D03*
X117640000Y-71530000D03*
X117040000Y-67200000D03*
X123010000Y-62470000D03*
X109790000Y-61590000D03*
X104930000Y-55260000D03*
X101730000Y-57280000D03*
X104390000Y-39490000D03*
X117250000Y-26100000D03*
X100470000Y-35690000D03*
X98810000Y-32470000D03*
X103770000Y-28610000D03*
X108704196Y-31214238D03*
X112800000Y-34020000D03*
X117200000Y-37820000D03*
X112550000Y-45640000D03*
X110970000Y-42440000D03*
X98760000Y-44340000D03*
X100180000Y-47540000D03*
X80230000Y-38000000D03*
X83250000Y-31670000D03*
X90590000Y-34840000D03*
X74130000Y-43680000D03*
X80840000Y-41240000D03*
X85990000Y-46000000D03*
X83440000Y-53080000D03*
X86880000Y-64660000D03*
X82540000Y-72790000D03*
X80600000Y-69630000D03*
X62970000Y-82470000D03*
X65480000Y-81510000D03*
X65130000Y-75650000D03*
X73480000Y-76830000D03*
X86670000Y-76360000D03*
X80280000Y-81550000D03*
X82390000Y-84230000D03*
X72220000Y-87850000D03*
X74560000Y-88550000D03*
X86910000Y-88940000D03*
X80580000Y-93420000D03*
X82390000Y-96610000D03*
X63840000Y-94190000D03*
X65990000Y-93260000D03*
X54140000Y-90660000D03*
X48090000Y-88370000D03*
X45020000Y-94660000D03*
X40260000Y-98880000D03*
X39940000Y-83370000D03*
X35340000Y-81960000D03*
X39320000Y-70960000D03*
X38390000Y-48400000D03*
X61920000Y-39820000D03*
X38650000Y-54360000D03*
X33120000Y-63860000D03*
X34650000Y-62440000D03*
X34790000Y-40480000D03*
X32660000Y-37580000D03*
%TO.N,VIN+*%
X121550000Y-91420000D03*
X111220000Y-88230000D03*
X122565102Y-64520000D03*
X109800000Y-68750000D03*
X106910000Y-63160000D03*
X104390000Y-43671900D03*
X118670000Y-40820000D03*
X117110000Y-30180000D03*
X104450000Y-31826900D03*
X73460000Y-78820000D03*
X74600000Y-90140000D03*
X88270000Y-91720000D03*
X88160000Y-79430000D03*
X88200000Y-67580000D03*
X79220000Y-53120000D03*
X90580000Y-39100000D03*
%TO.N,VIN-*%
X96280000Y-34690000D03*
X108710000Y-33330000D03*
X96290000Y-46690000D03*
X110380000Y-46490000D03*
X101740000Y-53080000D03*
X116110000Y-71570000D03*
X104670000Y-73210000D03*
X103400000Y-93840000D03*
X112180000Y-95600000D03*
X78110000Y-96590000D03*
X63780000Y-90020000D03*
X62940000Y-78370000D03*
X78270000Y-84310000D03*
X78280000Y-72790000D03*
X82930000Y-43730000D03*
X76190000Y-43750000D03*
%TO.N,/-X_Rossler*%
X121440000Y-43500000D03*
X122330000Y-43750000D03*
X113880000Y-85040000D03*
X113010000Y-84650000D03*
X93820000Y-40040000D03*
X93820000Y-41040000D03*
%TO.N,/Z_Rossler*%
X93700000Y-28820000D03*
X124860000Y-68250000D03*
%TO.N,/X_Rossler*%
X109510000Y-50290000D03*
X108350000Y-50320000D03*
%TO.N,/Z_Rossler*%
X94330000Y-27800000D03*
X124880000Y-67320000D03*
%TO.N,/X*%
X65880000Y-86940000D03*
%TO.N,/-Y*%
X73520000Y-67500000D03*
%TD*%
D50*
%TO.N,GND*%
X65235000Y-89615000D02*
X64730000Y-89110000D01*
X66006200Y-89615000D02*
X65235000Y-89615000D01*
X121810000Y-87120000D02*
X121820000Y-87110000D01*
X121810000Y-88140001D02*
X121810000Y-87120000D01*
X115515000Y-91695000D02*
X115690000Y-91870000D01*
X114295850Y-91695000D02*
X115515000Y-91695000D01*
X111100001Y-92570001D02*
X111060000Y-92530000D01*
X112210000Y-92570001D02*
X111100001Y-92570001D01*
X110830000Y-84300000D02*
X110800000Y-84270000D01*
X110830000Y-85380001D02*
X110830000Y-84300000D01*
X104555000Y-89135000D02*
X104600000Y-89180000D01*
X103325850Y-89135000D02*
X104555000Y-89135000D01*
X106410000Y-92320000D02*
X106420000Y-92310000D01*
X105310000Y-92320000D02*
X106410000Y-92320000D01*
X102885000Y-67675000D02*
X102900000Y-67690000D01*
X102885000Y-66036200D02*
X102885000Y-67675000D01*
X106695000Y-70963800D02*
X106695000Y-72105000D01*
X106695000Y-72105000D02*
X107720000Y-73130000D01*
X107790000Y-73130000D02*
X108690000Y-72230000D01*
X107720000Y-73130000D02*
X107790000Y-73130000D01*
X108056199Y-70963800D02*
X108350000Y-70669999D01*
X106695000Y-70963800D02*
X108056199Y-70963800D01*
X104155000Y-69405000D02*
X104230000Y-69330000D01*
X104155000Y-70963800D02*
X104155000Y-69405000D01*
X109780001Y-70669999D02*
X109790000Y-70660000D01*
X108350000Y-70669999D02*
X109780001Y-70669999D01*
X118030000Y-71140000D02*
X117640000Y-71530000D01*
X118030000Y-70180000D02*
X118030000Y-71140000D01*
X116835000Y-66995000D02*
X117040000Y-67200000D01*
X115865850Y-66995000D02*
X116835000Y-66995000D01*
X123370000Y-62830000D02*
X123010000Y-62470000D01*
X123370000Y-63530000D02*
X123370000Y-62830000D01*
X109770000Y-61610000D02*
X109790000Y-61590000D01*
X108850000Y-61610000D02*
X109770000Y-61610000D01*
X104910001Y-55240001D02*
X104930000Y-55260000D01*
X104910001Y-54110000D02*
X104910001Y-55240001D01*
X101730000Y-56129999D02*
X101730000Y-57280000D01*
X105000000Y-40100000D02*
X104390000Y-39490000D01*
X105000000Y-40830001D02*
X105000000Y-40100000D01*
X117180000Y-26170000D02*
X117250000Y-26100000D01*
X117180000Y-27150001D02*
X117180000Y-26170000D01*
X100460000Y-35700000D02*
X100470000Y-35690000D01*
X99280000Y-35700000D02*
X100460000Y-35700000D01*
X98780000Y-32500000D02*
X98810000Y-32470000D01*
X97531700Y-32500000D02*
X98780000Y-32500000D01*
X104150001Y-28990001D02*
X103770000Y-28610000D01*
X105050000Y-28990001D02*
X104150001Y-28990001D01*
X109233434Y-30685000D02*
X108704196Y-31214238D01*
X109675850Y-30685000D02*
X109233434Y-30685000D01*
X112670000Y-33890000D02*
X112800000Y-34020000D01*
X111690000Y-33890000D02*
X112670000Y-33890000D01*
X117200000Y-38910001D02*
X117200000Y-37820000D01*
X112540000Y-45630000D02*
X112550000Y-45640000D01*
X111360000Y-45630000D02*
X112540000Y-45630000D01*
X110960000Y-42450000D02*
X110970000Y-42440000D01*
X109675850Y-42450000D02*
X110960000Y-42450000D01*
X98755000Y-44345000D02*
X98760000Y-44340000D01*
X97475850Y-44345000D02*
X98755000Y-44345000D01*
X99139999Y-47540000D02*
X100180000Y-47540000D01*
X80204998Y-38025002D02*
X80230000Y-38000000D01*
X78840000Y-38025002D02*
X80204998Y-38025002D01*
X83245000Y-31675000D02*
X83250000Y-31670000D01*
X83245000Y-32960000D02*
X83245000Y-31675000D01*
X90595000Y-34845000D02*
X90590000Y-34840000D01*
X90595000Y-36060000D02*
X90595000Y-34845000D01*
X74145002Y-43695002D02*
X74130000Y-43680000D01*
X74145002Y-44985000D02*
X74145002Y-43695002D01*
X80820000Y-41260000D02*
X80840000Y-41240000D01*
X80820000Y-42535000D02*
X80820000Y-41260000D01*
X85975000Y-45985000D02*
X85990000Y-46000000D01*
X84820000Y-45985000D02*
X85975000Y-45985000D01*
X83410000Y-53110000D02*
X83440000Y-53080000D01*
X82270000Y-53110000D02*
X83410000Y-53110000D01*
%TO.N,/-Y*%
X70080000Y-85340000D02*
X78348092Y-85340000D01*
X69220000Y-86200000D02*
X70080000Y-85340000D01*
X84370000Y-85340000D02*
X87710000Y-82000000D01*
X78348092Y-85340000D02*
X84370000Y-85340000D01*
X75732500Y-82300000D02*
X75732500Y-82724408D01*
X75732500Y-82724408D02*
X78348092Y-85340000D01*
D51*
%TO.N,GND*%
X86845000Y-64695000D02*
X86880000Y-64660000D01*
X86845000Y-65725002D02*
X86845000Y-64695000D01*
X82530000Y-72800000D02*
X82540000Y-72790000D01*
X81270000Y-72800000D02*
X82530000Y-72800000D01*
X79346700Y-69630000D02*
X80600000Y-69630000D01*
X62970000Y-81374999D02*
X62970000Y-82470000D01*
X65142400Y-81172400D02*
X65480000Y-81510000D01*
X65142400Y-80425000D02*
X65142400Y-81172400D01*
X64192401Y-81374999D02*
X65142400Y-80425000D01*
X62970000Y-81374999D02*
X64192401Y-81374999D01*
X65142400Y-75662400D02*
X65130000Y-75650000D01*
X65142400Y-76615000D02*
X65142400Y-75662400D01*
X73384998Y-76925002D02*
X73480000Y-76830000D01*
X72170000Y-76925002D02*
X73384998Y-76925002D01*
X71859998Y-76615000D02*
X72170000Y-76925002D01*
X70070000Y-76615000D02*
X71859998Y-76615000D01*
X86895000Y-76585000D02*
X86670000Y-76360000D01*
X86895000Y-77525002D02*
X86895000Y-76585000D01*
X79820000Y-81090000D02*
X80280000Y-81550000D01*
X79396700Y-81090000D02*
X79820000Y-81090000D01*
X82370000Y-84250000D02*
X82390000Y-84230000D01*
X81170000Y-84250000D02*
X82370000Y-84250000D01*
X71725000Y-88345000D02*
X72220000Y-87850000D01*
X70933800Y-88345000D02*
X71725000Y-88345000D01*
X74484999Y-88625001D02*
X74560000Y-88550000D01*
X73120000Y-88625001D02*
X74484999Y-88625001D01*
X72839999Y-88345000D02*
X73120000Y-88625001D01*
X70933800Y-88345000D02*
X72839999Y-88345000D01*
X86895000Y-88955000D02*
X86910000Y-88940000D01*
X86895000Y-89875002D02*
X86895000Y-88955000D01*
X80565000Y-93435000D02*
X80580000Y-93420000D01*
X79396700Y-93435000D02*
X80565000Y-93435000D01*
X82380000Y-96600000D02*
X82390000Y-96610000D01*
X81195000Y-96600000D02*
X82380000Y-96600000D01*
X63820000Y-94170000D02*
X63840000Y-94190000D01*
X63820000Y-93074998D02*
X63820000Y-94170000D01*
X66006200Y-93243800D02*
X65990000Y-93260000D01*
X66006200Y-92155000D02*
X66006200Y-93243800D01*
X63820000Y-93074998D02*
X65086202Y-93074998D01*
X65086202Y-93074998D02*
X66006200Y-92155000D01*
%TO.N,Net-(Q2-B)*%
X52247501Y-91682499D02*
X52247501Y-89540000D01*
X49932500Y-100360000D02*
X49932500Y-93997500D01*
X49932500Y-93997500D02*
X52247501Y-91682499D01*
%TO.N,GND*%
X54147499Y-90652501D02*
X54140000Y-90660000D01*
X54147499Y-89540000D02*
X54147499Y-90652501D01*
X48070001Y-88389999D02*
X48090000Y-88370000D01*
X47010000Y-88389999D02*
X48070001Y-88389999D01*
X45035000Y-94645000D02*
X45020000Y-94660000D01*
X45035000Y-93715000D02*
X45035000Y-94645000D01*
X40335000Y-98805000D02*
X40260000Y-98880000D01*
X40335000Y-97315000D02*
X40335000Y-98805000D01*
X39935001Y-83374999D02*
X39940000Y-83370000D01*
X39935001Y-84740000D02*
X39935001Y-83374999D01*
X36307500Y-80992500D02*
X35340000Y-81960000D01*
X36307500Y-80770000D02*
X36307500Y-80992500D01*
X39270000Y-71010000D02*
X39320000Y-70960000D01*
X39270000Y-72294999D02*
X39270000Y-71010000D01*
X38589998Y-48200002D02*
X38390000Y-48400000D01*
X40400000Y-48200002D02*
X38589998Y-48200002D01*
X61920000Y-38659998D02*
X61920000Y-39820000D01*
X38690000Y-54400000D02*
X38650000Y-54360000D01*
X40400000Y-54400000D02*
X38690000Y-54400000D01*
X40400000Y-48200002D02*
X40400000Y-54400000D01*
X34100000Y-64840000D02*
X33120000Y-63860000D01*
X34100000Y-65000000D02*
X34100000Y-64840000D01*
X34990000Y-62100000D02*
X34650000Y-62440000D01*
X36539200Y-62100000D02*
X34990000Y-62100000D01*
X45000000Y-55129998D02*
X44980000Y-55149998D01*
X45000000Y-51400000D02*
X45000000Y-55129998D01*
X44980000Y-55149998D02*
X43824999Y-55149998D01*
X46100000Y-55149998D02*
X44980000Y-55149998D01*
X41124999Y-55124999D02*
X40400000Y-54400000D01*
X43800000Y-55124999D02*
X41124999Y-55124999D01*
X43824999Y-55149998D02*
X43800000Y-55124999D01*
X45000000Y-51400000D02*
X45000000Y-47590000D01*
X44810000Y-47400000D02*
X43824999Y-47400000D01*
X45000000Y-47590000D02*
X44810000Y-47400000D01*
X46100000Y-47400000D02*
X44810000Y-47400000D01*
X43824999Y-47400000D02*
X43800000Y-47375001D01*
X41225001Y-47375001D02*
X40400000Y-48200002D01*
X43800000Y-47375001D02*
X41225001Y-47375001D01*
D50*
X34810000Y-40500000D02*
X34790000Y-40480000D01*
X36569600Y-40500000D02*
X34810000Y-40500000D01*
X32680000Y-37600000D02*
X32660000Y-37580000D01*
X34125000Y-37600000D02*
X32680000Y-37600000D01*
%TO.N,VIN+*%
X121810000Y-91160000D02*
X121550000Y-91420000D01*
X121810000Y-90039999D02*
X121810000Y-91160000D01*
X110830000Y-87840000D02*
X111220000Y-88230000D01*
X110830000Y-87279999D02*
X110830000Y-87840000D01*
X123370000Y-65324898D02*
X122565102Y-64520000D01*
X123370000Y-65429998D02*
X123370000Y-65324898D01*
X109779999Y-68770001D02*
X109800000Y-68750000D01*
X108350000Y-68770001D02*
X109779999Y-68770001D01*
X106950000Y-63120000D02*
X106910000Y-63160000D01*
X106950000Y-61610000D02*
X106950000Y-63120000D01*
X105000000Y-43061900D02*
X104390000Y-43671900D01*
X105000000Y-42729999D02*
X105000000Y-43061900D01*
X118659999Y-40809999D02*
X118670000Y-40820000D01*
X117200000Y-40809999D02*
X118659999Y-40809999D01*
X117180000Y-30110000D02*
X117110000Y-30180000D01*
X117180000Y-29049999D02*
X117180000Y-30110000D01*
X105050000Y-31226900D02*
X104450000Y-31826900D01*
X105050000Y-30889999D02*
X105050000Y-31226900D01*
X73455000Y-78825000D02*
X73460000Y-78820000D01*
X72170000Y-78825000D02*
X73455000Y-78825000D01*
X74215001Y-90524999D02*
X74600000Y-90140000D01*
X73120000Y-90524999D02*
X74215001Y-90524999D01*
X88215000Y-91775000D02*
X88270000Y-91720000D01*
X86895000Y-91775000D02*
X88215000Y-91775000D01*
X88155000Y-79425000D02*
X88160000Y-79430000D01*
X86895000Y-79425000D02*
X88155000Y-79425000D01*
X88155000Y-67625000D02*
X88200000Y-67580000D01*
X86845000Y-67625000D02*
X88155000Y-67625000D01*
X79230000Y-53110000D02*
X79220000Y-53120000D01*
X80370000Y-53110000D02*
X79230000Y-53110000D01*
X90595000Y-39085000D02*
X90580000Y-39100000D01*
X90595000Y-37959998D02*
X90595000Y-39085000D01*
%TO.N,VIN-*%
X97290000Y-35700000D02*
X96280000Y-34690000D01*
X97380000Y-35700000D02*
X97290000Y-35700000D01*
X109270000Y-33890000D02*
X108710000Y-33330000D01*
X109790000Y-33890000D02*
X109270000Y-33890000D01*
%TO.N,/Z*%
X70872600Y-94075000D02*
X75732500Y-94075000D01*
X67920000Y-91122400D02*
X70872600Y-94075000D01*
X67920000Y-80030000D02*
X67920000Y-91122400D01*
X65775000Y-77885000D02*
X67920000Y-80030000D01*
X65142400Y-77885000D02*
X65775000Y-77885000D01*
%TO.N,VIN-*%
X97140000Y-47540000D02*
X96290000Y-46690000D01*
X97240001Y-47540000D02*
X97140000Y-47540000D01*
X109520000Y-45630000D02*
X110380000Y-46490000D01*
X109460000Y-45630000D02*
X109520000Y-45630000D01*
X101730000Y-53090000D02*
X101740000Y-53080000D01*
X101730000Y-54230001D02*
X101730000Y-53090000D01*
X116130000Y-71550000D02*
X116110000Y-71570000D01*
X116130000Y-70180000D02*
X116130000Y-71550000D01*
X104750000Y-73130000D02*
X104670000Y-73210000D01*
X105820000Y-73130000D02*
X104750000Y-73130000D01*
X103410000Y-93830000D02*
X103400000Y-93840000D01*
X103410000Y-92320000D02*
X103410000Y-93830000D01*
X112210000Y-95570000D02*
X112180000Y-95600000D01*
X112210000Y-94469999D02*
X112210000Y-95570000D01*
X78120000Y-96600000D02*
X78110000Y-96590000D01*
X79295000Y-96600000D02*
X78120000Y-96600000D01*
X63820000Y-90060000D02*
X63780000Y-90020000D01*
X63820000Y-91175000D02*
X63820000Y-90060000D01*
X62970000Y-78400000D02*
X62940000Y-78370000D01*
X62970000Y-79475001D02*
X62970000Y-78400000D01*
X78330000Y-84250000D02*
X78270000Y-84310000D01*
X79270000Y-84250000D02*
X78330000Y-84250000D01*
X78290000Y-72800000D02*
X78280000Y-72790000D01*
X79370000Y-72800000D02*
X78290000Y-72800000D01*
X82719998Y-43519998D02*
X82930000Y-43730000D01*
X82719998Y-42535000D02*
X82719998Y-43519998D01*
X76045000Y-43895000D02*
X76190000Y-43750000D01*
X76045000Y-44985000D02*
X76045000Y-43895000D01*
%TO.N,/-X_Rossler*%
X112982500Y-85937500D02*
X113880000Y-85040000D01*
X112850000Y-85937500D02*
X112982500Y-85937500D01*
X112850000Y-84810000D02*
X113010000Y-84650000D01*
X112850000Y-85937500D02*
X112850000Y-84810000D01*
X93805000Y-40055000D02*
X93820000Y-40040000D01*
X93805000Y-42540000D02*
X93805000Y-40055000D01*
X93805000Y-41055000D02*
X93820000Y-41040000D01*
X93805000Y-42540000D02*
X93805000Y-41055000D01*
%TO.N,/-Y_Rossler*%
X118250000Y-46340000D02*
X118250000Y-44290000D01*
X111095600Y-50675600D02*
X113914400Y-50675600D01*
X109770000Y-49350000D02*
X111095600Y-50675600D01*
X97461625Y-49350000D02*
X109770000Y-49350000D01*
X93797500Y-44480000D02*
X93797500Y-45685875D01*
X93797500Y-45685875D02*
X97461625Y-49350000D01*
X113914400Y-50675600D02*
X118250000Y-46340000D01*
%TO.N,/Z_Rossler*%
X93700000Y-28820000D02*
X93700000Y-29100000D01*
X93700000Y-28390000D02*
X93700000Y-28820000D01*
X123927500Y-67317500D02*
X124860000Y-68250000D01*
X123380000Y-67317500D02*
X123927500Y-67317500D01*
%TO.N,/X_Rossler*%
X109510000Y-50290000D02*
X109196250Y-50603750D01*
X109086250Y-50603750D02*
X109900000Y-51417500D01*
X109196250Y-50603750D02*
X109086250Y-50603750D01*
X108802500Y-50320000D02*
X109086250Y-50603750D01*
X108350000Y-50320000D02*
X108802500Y-50320000D01*
X106857500Y-50320000D02*
X106740000Y-50437500D01*
X108350000Y-50320000D02*
X106857500Y-50320000D01*
%TO.N,/Y_Rossler*%
X99290000Y-38100000D02*
X101080000Y-39890000D01*
X98191624Y-38100000D02*
X99290000Y-38100000D01*
X93857500Y-33765876D02*
X98191624Y-38100000D01*
X93857500Y-32410000D02*
X93857500Y-33765876D01*
%TO.N,/Z_Rossler*%
X93867500Y-29267500D02*
X93867500Y-30480000D01*
X93700000Y-29100000D02*
X93867500Y-29267500D01*
X94330000Y-27800000D02*
X94290000Y-27800000D01*
X94290000Y-27800000D02*
X93700000Y-28390000D01*
X124877500Y-67317500D02*
X124880000Y-67320000D01*
X123380000Y-67317500D02*
X124877500Y-67317500D01*
X102885000Y-76435000D02*
X102885000Y-70963800D01*
X102880000Y-76580000D02*
X102880000Y-76440000D01*
X103710000Y-77410000D02*
X102880000Y-76580000D01*
X102880000Y-76440000D02*
X102885000Y-76435000D01*
X99657500Y-81462500D02*
X103710000Y-77410000D01*
X99657500Y-87870000D02*
X99657500Y-81462500D01*
X119920000Y-77410000D02*
X103710000Y-77410000D01*
X119920000Y-67938300D02*
X119920000Y-77410000D01*
X120863300Y-66995000D02*
X119920000Y-67938300D01*
X121314150Y-66995000D02*
X120863300Y-66995000D01*
%TO.N,/V_Rossler*%
X119293300Y-91695000D02*
X119744150Y-91695000D01*
X117070000Y-93918300D02*
X119293300Y-91695000D01*
X117070000Y-94667500D02*
X117070000Y-93918300D01*
%TO.N,Net-(R50-Pad2)*%
X117070000Y-97310000D02*
X117070000Y-96492500D01*
X116220000Y-98160000D02*
X117070000Y-97310000D01*
X116220000Y-99110000D02*
X116220000Y-98160000D01*
%TO.N,VIN+*%
X120880001Y-90039999D02*
X121810000Y-90039999D01*
X120495000Y-90425000D02*
X120880001Y-90039999D01*
X119744150Y-90425000D02*
X120495000Y-90425000D01*
%TO.N,/V_Rossler*%
X118575000Y-91695000D02*
X119744150Y-91695000D01*
X117942500Y-91062500D02*
X118575000Y-91695000D01*
X117942500Y-87250000D02*
X117942500Y-91062500D01*
%TO.N,Net-(U16--)*%
X115575000Y-90425000D02*
X114295850Y-90425000D01*
X116117500Y-89882500D02*
X115575000Y-90425000D01*
X116117500Y-87250000D02*
X116117500Y-89882500D01*
X112850000Y-88300000D02*
X112850000Y-87762500D01*
X112442500Y-88707500D02*
X112850000Y-88300000D01*
X112442500Y-89530000D02*
X112442500Y-88707500D01*
X112920000Y-89530000D02*
X112442500Y-89530000D01*
X113815000Y-90425000D02*
X112920000Y-89530000D01*
X114295850Y-90425000D02*
X113815000Y-90425000D01*
%TO.N,VIN-*%
X114295850Y-93904150D02*
X114295850Y-92965000D01*
X112210000Y-94469999D02*
X113730001Y-94469999D01*
X113730001Y-94469999D02*
X114295850Y-93904150D01*
%TO.N,Net-(R43-Pad1)*%
X110222500Y-89135000D02*
X110617500Y-89530000D01*
X108774150Y-89135000D02*
X110222500Y-89135000D01*
%TO.N,VIN+*%
X110219999Y-87890000D02*
X108799150Y-87890000D01*
X108799150Y-87890000D02*
X108774150Y-87865000D01*
X110830000Y-87279999D02*
X110219999Y-87890000D01*
%TO.N,VIN-*%
X103325850Y-92235850D02*
X103410000Y-92320000D01*
X103325850Y-90405000D02*
X103325850Y-92235850D01*
%TO.N,Net-(U15--)*%
X105157500Y-87412500D02*
X104705000Y-87865000D01*
X105157500Y-84700000D02*
X105157500Y-87412500D01*
X104705000Y-87865000D02*
X103325850Y-87865000D01*
%TO.N,Net-(R43-Pad1)*%
X107475000Y-89135000D02*
X108774150Y-89135000D01*
X106982500Y-88642500D02*
X107475000Y-89135000D01*
X106982500Y-84700000D02*
X106982500Y-88642500D01*
%TO.N,Net-(U15--)*%
X103320850Y-87870000D02*
X103325850Y-87865000D01*
X101482500Y-87870000D02*
X103320850Y-87870000D01*
%TO.N,Net-(R49-Pad2)*%
X123380000Y-69142500D02*
X123380000Y-71760000D01*
%TO.N,Net-(R40-Pad1)*%
X113790000Y-74980000D02*
X113770000Y-75000000D01*
X113790000Y-69302500D02*
X113790000Y-74980000D01*
%TO.N,VIN-*%
X116130000Y-69250000D02*
X116130000Y-70180000D01*
X115865850Y-68265000D02*
X115865850Y-68985850D01*
X115865850Y-68985850D02*
X116130000Y-69250000D01*
%TO.N,VIN+*%
X122370002Y-65429998D02*
X123370000Y-65429998D01*
X122075000Y-65725000D02*
X122370002Y-65429998D01*
X121314150Y-65725000D02*
X122075000Y-65725000D01*
%TO.N,/Z_Rossler*%
X123057500Y-66995000D02*
X123380000Y-67317500D01*
X121314150Y-66995000D02*
X123057500Y-66995000D01*
%TO.N,Net-(U14--)*%
X117155000Y-65725000D02*
X115865850Y-65725000D01*
X117640000Y-65240000D02*
X117155000Y-65725000D01*
X117640000Y-62530000D02*
X117640000Y-65240000D01*
%TO.N,/Z_Rossler*%
X119540000Y-66380000D02*
X120155000Y-66995000D01*
X119540000Y-62530000D02*
X119540000Y-66380000D01*
X120155000Y-66995000D02*
X121314150Y-66995000D01*
%TO.N,Net-(U14--)*%
X113992500Y-67275000D02*
X113790000Y-67477500D01*
X113992500Y-65720000D02*
X113992500Y-67275000D01*
X113997500Y-65725000D02*
X113992500Y-65720000D01*
X115865850Y-65725000D02*
X113997500Y-65725000D01*
%TO.N,Net-(U13-W)*%
X109300000Y-65720000D02*
X112167500Y-65720000D01*
X108983800Y-66036200D02*
X109300000Y-65720000D01*
X106695000Y-66036200D02*
X108983800Y-66036200D01*
%TO.N,VIN-*%
X105820000Y-72220000D02*
X105820000Y-73130000D01*
X105425000Y-71825000D02*
X105820000Y-72220000D01*
X105425000Y-70963800D02*
X105425000Y-71825000D01*
%TO.N,VIN+*%
X107447601Y-68770001D02*
X108350000Y-68770001D01*
X105425000Y-66747400D02*
X107447601Y-68770001D01*
X105425000Y-66036200D02*
X105425000Y-66747400D01*
%TO.N,Net-(U13-X1)*%
X104150000Y-66031200D02*
X104155000Y-66036200D01*
X104150000Y-62650000D02*
X104150000Y-66031200D01*
X104910001Y-61889999D02*
X104910001Y-59558300D01*
X104150000Y-62650000D02*
X104910001Y-61889999D01*
%TO.N,Net-(R47-Pad2)*%
X111000000Y-53240000D02*
X110997500Y-53242500D01*
X112530000Y-53240000D02*
X111000000Y-53240000D01*
X110997500Y-53242500D02*
X109900000Y-53242500D01*
X113440000Y-54150000D02*
X112530000Y-53240000D01*
%TO.N,VIN+*%
X106180001Y-60840001D02*
X106180001Y-59558300D01*
X106950000Y-61610000D02*
X106180001Y-60840001D01*
%TO.N,Net-(U13-X1)*%
X104910001Y-58419999D02*
X104910001Y-59558300D01*
X105427500Y-57902500D02*
X104910001Y-58419999D01*
X109310000Y-57902500D02*
X105427500Y-57902500D01*
%TO.N,Net-(U12--)*%
X106180001Y-55145050D02*
X106180001Y-54110000D01*
X107112451Y-56077500D02*
X106180001Y-55145050D01*
X109310000Y-56077500D02*
X107112451Y-56077500D01*
X106180001Y-52822499D02*
X106740000Y-52262500D01*
X106180001Y-54110000D02*
X106180001Y-52822499D01*
X104905000Y-50427500D02*
X106740000Y-52262500D01*
X104800000Y-50427500D02*
X104905000Y-50427500D01*
%TO.N,VIN-*%
X103520001Y-54230001D02*
X103640002Y-54110000D01*
X101730000Y-54230001D02*
X103520001Y-54230001D01*
X103640002Y-53412498D02*
X103640002Y-54110000D01*
X104800000Y-52252500D02*
X103640002Y-53412498D01*
%TO.N,Net-(R48-Pad2)*%
X111700000Y-47990000D02*
X112730000Y-49020000D01*
X109982500Y-47990000D02*
X111700000Y-47990000D01*
%TO.N,/Y_Rossler*%
X108157500Y-47647500D02*
X108157500Y-47990000D01*
X106010000Y-45500000D02*
X108157500Y-47647500D01*
%TO.N,VIN-*%
X109460000Y-43935850D02*
X109675850Y-43720000D01*
X109460000Y-45630000D02*
X109460000Y-43935850D01*
%TO.N,Net-(U11--)*%
X108500000Y-40910000D02*
X107490000Y-40910000D01*
X108770000Y-41180000D02*
X108500000Y-40910000D01*
X109675850Y-41180000D02*
X108770000Y-41180000D01*
%TO.N,/Y_Rossler*%
X107490000Y-44020000D02*
X106010000Y-45500000D01*
X107490000Y-42735000D02*
X107490000Y-44020000D01*
X104855000Y-44345000D02*
X106010000Y-45500000D01*
X102924150Y-44345000D02*
X104855000Y-44345000D01*
%TO.N,VIN+*%
X104110001Y-42729999D02*
X105000000Y-42729999D01*
X103765000Y-43075000D02*
X104110001Y-42729999D01*
X102924150Y-43075000D02*
X103765000Y-43075000D01*
%TO.N,VIN-*%
X97240001Y-45850849D02*
X97475850Y-45615000D01*
X97240001Y-47540000D02*
X97240001Y-45850849D01*
%TO.N,Net-(U10--)*%
X95622500Y-44480000D02*
X97027500Y-43075000D01*
X97027500Y-43075000D02*
X97475850Y-43075000D01*
X96340000Y-42540000D02*
X95630000Y-42540000D01*
X96875000Y-43075000D02*
X96340000Y-42540000D01*
X97475850Y-43075000D02*
X96875000Y-43075000D01*
%TO.N,/Y_Rossler*%
X101925000Y-44345000D02*
X102924150Y-44345000D01*
X101080000Y-43500000D02*
X101925000Y-44345000D01*
X101080000Y-39890000D02*
X101080000Y-43500000D01*
%TO.N,Net-(U10--)*%
X98555000Y-43075000D02*
X97475850Y-43075000D01*
X99180000Y-42450000D02*
X98555000Y-43075000D01*
X99180000Y-39890000D02*
X99180000Y-42450000D01*
%TO.N,/-Y_Rossler*%
X116410000Y-42450000D02*
X115124150Y-42450000D01*
X118250000Y-44290000D02*
X116410000Y-42450000D01*
%TO.N,VIN+*%
X116829999Y-41180000D02*
X117200000Y-40809999D01*
X115124150Y-41180000D02*
X116829999Y-41180000D01*
%TO.N,Net-(U11--)*%
X111477500Y-40462500D02*
X111477500Y-38030000D01*
X110760000Y-41180000D02*
X111477500Y-40462500D01*
X109675850Y-41180000D02*
X110760000Y-41180000D01*
%TO.N,/-Y_Rossler*%
X114040000Y-42450000D02*
X115124150Y-42450000D01*
X113302500Y-41712500D02*
X114040000Y-42450000D01*
X113302500Y-38030000D02*
X113302500Y-41712500D01*
%TO.N,/-X_Rossler*%
X116115000Y-30685000D02*
X118220000Y-32790000D01*
X115124150Y-30685000D02*
X116115000Y-30685000D01*
%TO.N,VIN+*%
X116814999Y-29415000D02*
X117180000Y-29049999D01*
X115124150Y-29415000D02*
X116814999Y-29415000D01*
%TO.N,VIN-*%
X109790000Y-33890000D02*
X109790000Y-32069150D01*
X109790000Y-32069150D02*
X109675850Y-31955000D01*
%TO.N,/-X_Rossler*%
X113452500Y-30172500D02*
X113452500Y-26230000D01*
X115124150Y-30685000D02*
X113965000Y-30685000D01*
X113965000Y-30685000D02*
X113452500Y-30172500D01*
%TO.N,Net-(U9--)*%
X111405000Y-29415000D02*
X109675850Y-29415000D01*
X111627500Y-29192500D02*
X111405000Y-29415000D01*
X111627500Y-26230000D02*
X111627500Y-29192500D01*
X108547500Y-29097500D02*
X107470000Y-29097500D01*
X108865000Y-29415000D02*
X108547500Y-29097500D01*
X109675850Y-29415000D02*
X108865000Y-29415000D01*
%TO.N,/X_Rossler*%
X107470000Y-32280000D02*
X106070000Y-33680000D01*
X107470000Y-30922500D02*
X107470000Y-32280000D01*
X104890000Y-32500000D02*
X102980000Y-32500000D01*
X106070000Y-33680000D02*
X104890000Y-32500000D01*
%TO.N,Net-(U8--)*%
X96862500Y-31230000D02*
X97531700Y-31230000D01*
X95682500Y-32410000D02*
X96862500Y-31230000D01*
X96442500Y-31230000D02*
X97531700Y-31230000D01*
X95692500Y-30480000D02*
X96442500Y-31230000D01*
%TO.N,VIN+*%
X104709999Y-31230000D02*
X105050000Y-30889999D01*
X102980000Y-31230000D02*
X104709999Y-31230000D01*
%TO.N,VIN-*%
X97380000Y-33921700D02*
X97531700Y-33770000D01*
X97380000Y-35700000D02*
X97380000Y-33921700D01*
%TO.N,/X_Rossler*%
X102529150Y-32500000D02*
X102980000Y-32500000D01*
X101270000Y-28030000D02*
X101270000Y-31240850D01*
X101270000Y-31240850D02*
X102529150Y-32500000D01*
%TO.N,Net-(U8--)*%
X99370000Y-29842550D02*
X99370000Y-28030000D01*
X97982550Y-31230000D02*
X99370000Y-29842550D01*
X97531700Y-31230000D02*
X97982550Y-31230000D01*
%TO.N,/X*%
X65880000Y-88218800D02*
X66006200Y-88345000D01*
X65880000Y-86940000D02*
X65880000Y-88218800D01*
%TO.N,/-Y*%
X69220000Y-86200000D02*
X69220000Y-88612400D01*
X69220000Y-88612400D02*
X70222600Y-89615000D01*
X70222600Y-89615000D02*
X70933800Y-89615000D01*
%TO.N,VIN-*%
X64685000Y-90885000D02*
X66006200Y-90885000D01*
X64395000Y-91175000D02*
X64685000Y-90885000D01*
X63820000Y-91175000D02*
X64395000Y-91175000D01*
%TO.N,VIN+*%
X72295001Y-90524999D02*
X73120000Y-90524999D01*
X71935000Y-90885000D02*
X72295001Y-90524999D01*
X70933800Y-90885000D02*
X71935000Y-90885000D01*
%TO.N,Net-(U7-W)*%
X75727500Y-92155000D02*
X75732500Y-92150000D01*
X70933800Y-92155000D02*
X75727500Y-92155000D01*
%TO.N,/Z*%
X83260000Y-98800000D02*
X87710000Y-94350000D01*
X75820000Y-98800000D02*
X83260000Y-98800000D01*
X75732500Y-98712500D02*
X75820000Y-98800000D01*
X75732500Y-94075000D02*
X75732500Y-98712500D01*
X86795000Y-93435000D02*
X87710000Y-94350000D01*
X84845000Y-93435000D02*
X86795000Y-93435000D01*
%TO.N,Net-(U5--)*%
X77557500Y-94075000D02*
X77557500Y-92150000D01*
X79381700Y-92150000D02*
X79396700Y-92165000D01*
X77557500Y-92150000D02*
X79381700Y-92150000D01*
%TO.N,VIN-*%
X79396700Y-94705000D02*
X79396700Y-96498300D01*
X79396700Y-96498300D02*
X79295000Y-96600000D01*
%TO.N,VIN+*%
X85895000Y-91775000D02*
X86895000Y-91775000D01*
X85505000Y-92165000D02*
X85895000Y-91775000D01*
X84845000Y-92165000D02*
X85505000Y-92165000D01*
%TO.N,/Z*%
X83095000Y-92135850D02*
X84394150Y-93435000D01*
X83095000Y-89000000D02*
X83095000Y-92135850D01*
X84394150Y-93435000D02*
X84845000Y-93435000D01*
%TO.N,Net-(U5--)*%
X79847550Y-92165000D02*
X79396700Y-92165000D01*
X81195000Y-90817550D02*
X79847550Y-92165000D01*
X81195000Y-89000000D02*
X81195000Y-90817550D01*
%TO.N,/-Y*%
X75582500Y-67500000D02*
X75657500Y-67575000D01*
X73520000Y-67500000D02*
X75582500Y-67500000D01*
X84394150Y-81090000D02*
X84845000Y-81090000D01*
X83045000Y-79740850D02*
X84394150Y-81090000D01*
X83045000Y-76625000D02*
X83045000Y-79740850D01*
%TO.N,Net-(U3--)*%
X79847550Y-79820000D02*
X79396700Y-79820000D01*
X81145000Y-78522550D02*
X79847550Y-79820000D01*
X81145000Y-76625000D02*
X81145000Y-78522550D01*
%TO.N,VIN+*%
X71840000Y-79155000D02*
X72170000Y-78825000D01*
X70070000Y-79155000D02*
X71840000Y-79155000D01*
%TO.N,VIN-*%
X63290001Y-79155000D02*
X62970000Y-79475001D01*
X65142400Y-79155000D02*
X63290001Y-79155000D01*
%TO.N,Net-(U6-W)*%
X75732500Y-80400000D02*
X70095000Y-80400000D01*
X70095000Y-80400000D02*
X70070000Y-80425000D01*
%TO.N,/X*%
X76920000Y-71162500D02*
X76920000Y-73830600D01*
X76920000Y-73830600D02*
X76970000Y-73880600D01*
X76970000Y-73880600D02*
X69719400Y-73880600D01*
X80301900Y-73880600D02*
X76970000Y-73880600D01*
X68170000Y-75430000D02*
X68170000Y-77290000D01*
X69719400Y-73880600D02*
X68170000Y-75430000D01*
X68170000Y-77290000D02*
X68765000Y-77885000D01*
X68765000Y-77885000D02*
X70070000Y-77885000D01*
X84079400Y-73880600D02*
X87660000Y-70300000D01*
X80301900Y-73880600D02*
X84079400Y-73880600D01*
X75732500Y-78450000D02*
X80301900Y-73880600D01*
%TO.N,Net-(U3--)*%
X77557500Y-82300000D02*
X77557500Y-80400000D01*
X78137500Y-79820000D02*
X77557500Y-80400000D01*
X79396700Y-79820000D02*
X78137500Y-79820000D01*
X78927500Y-79820000D02*
X77557500Y-78450000D01*
X79396700Y-79820000D02*
X78927500Y-79820000D01*
%TO.N,VIN-*%
X79270000Y-82486700D02*
X79396700Y-82360000D01*
X79270000Y-84250000D02*
X79270000Y-82486700D01*
%TO.N,/-Y*%
X84845000Y-81090000D02*
X86800000Y-81090000D01*
X86800000Y-81090000D02*
X87710000Y-82000000D01*
%TO.N,VIN+*%
X85480000Y-79820000D02*
X85875000Y-79425000D01*
X85875000Y-79425000D02*
X86895000Y-79425000D01*
X84845000Y-79820000D02*
X85480000Y-79820000D01*
%TO.N,/X*%
X86990000Y-69630000D02*
X84795000Y-69630000D01*
X87660000Y-70300000D02*
X86990000Y-69630000D01*
%TO.N,VIN-*%
X79370000Y-70923300D02*
X79346700Y-70900000D01*
X79370000Y-72800000D02*
X79370000Y-70923300D01*
%TO.N,VIN+*%
X86110000Y-68360000D02*
X86845000Y-67625000D01*
X84795000Y-68360000D02*
X86110000Y-68360000D01*
%TO.N,Net-(U4--)*%
X77897500Y-68360000D02*
X79346700Y-68360000D01*
X76920000Y-69337500D02*
X77897500Y-68360000D01*
X78267500Y-68360000D02*
X79346700Y-68360000D01*
X77482500Y-67575000D02*
X78267500Y-68360000D01*
%TO.N,/X*%
X84344150Y-69630000D02*
X84795000Y-69630000D01*
X83245000Y-68530850D02*
X84344150Y-69630000D01*
X83245000Y-65150000D02*
X83245000Y-68530850D01*
%TO.N,Net-(U4--)*%
X79797550Y-68360000D02*
X79346700Y-68360000D01*
X81345000Y-66812550D02*
X79797550Y-68360000D01*
X81345000Y-65150000D02*
X81345000Y-66812550D01*
%TO.N,Net-(C26-Pad1)*%
X44127500Y-83720000D02*
X45197500Y-84790000D01*
X44127500Y-80600000D02*
X44127500Y-83720000D01*
%TO.N,Net-(Q2-C)*%
X48622500Y-81440000D02*
X49547500Y-80515000D01*
X48622500Y-84740000D02*
X48622500Y-81440000D01*
X50397500Y-86515000D02*
X48622500Y-84740000D01*
X50872500Y-86515000D02*
X50397500Y-86515000D01*
%TO.N,Net-(Q2-B)*%
X52247501Y-86620000D02*
X52142501Y-86515000D01*
X52247501Y-89540000D02*
X52247501Y-86620000D01*
X46410000Y-100360000D02*
X49932500Y-100360000D01*
X43365000Y-97315000D02*
X46410000Y-100360000D01*
X43260000Y-97315000D02*
X43365000Y-97315000D01*
X43060001Y-97115001D02*
X43260000Y-97315000D01*
X43060001Y-94052500D02*
X43060001Y-97115001D01*
%TO.N,Net-(Q1-C)*%
X43060001Y-90452499D02*
X43422500Y-90090000D01*
X43060001Y-92227500D02*
X43060001Y-90452499D01*
X40635000Y-89980000D02*
X42882500Y-92227500D01*
X42882500Y-92227500D02*
X43060001Y-92227500D01*
X40635000Y-89980000D02*
X36322499Y-89980000D01*
X36322499Y-89980000D02*
X36072500Y-90229999D01*
X40635000Y-92277500D02*
X40635000Y-89980000D01*
%TO.N,Net-(C25-Pad1)*%
X45035000Y-91815002D02*
X45890002Y-90960000D01*
X45890002Y-90960000D02*
X46117500Y-90960000D01*
X46117500Y-90960000D02*
X45247500Y-90090000D01*
X48897500Y-90960000D02*
X46117500Y-90960000D01*
X45060000Y-89902500D02*
X45247500Y-90090000D01*
X45060000Y-88340000D02*
X45060000Y-89902500D01*
%TO.N,Net-(C26-Pad1)*%
X46797500Y-86277501D02*
X47010000Y-86490001D01*
X46797500Y-84740000D02*
X46797500Y-86277501D01*
X46747500Y-84790000D02*
X46797500Y-84740000D01*
X45197500Y-84790000D02*
X46747500Y-84790000D01*
X45197500Y-86377500D02*
X45060000Y-86515000D01*
X45197500Y-84790000D02*
X45197500Y-86377500D01*
%TO.N,Net-(Q1-B)*%
X43322500Y-84740000D02*
X43372500Y-84790000D01*
X41834999Y-84740000D02*
X43322500Y-84740000D01*
X40860000Y-88709999D02*
X41834999Y-87735000D01*
X40635000Y-88709999D02*
X40860000Y-88709999D01*
X41834999Y-87735000D02*
X41834999Y-84740000D01*
D51*
%TO.N,/5V*%
X33912500Y-94102500D02*
X40635000Y-94102500D01*
X32969999Y-93159999D02*
X33912500Y-94102500D01*
X32969999Y-75936599D02*
X32969999Y-93159999D01*
%TO.N,Net-(D8-A)*%
X39270000Y-78445000D02*
X39270000Y-80757500D01*
X39270000Y-80757500D02*
X39282500Y-80770000D01*
%TO.N,/5V*%
X39270000Y-76795000D02*
X39270000Y-75245001D01*
X33661597Y-75245001D02*
X32969999Y-75936599D01*
X39270000Y-75245001D02*
X33661597Y-75245001D01*
D50*
%TO.N,VIN+*%
X80370000Y-52220000D02*
X80370000Y-53110000D01*
X80005000Y-51059150D02*
X80005000Y-51855000D01*
X80005000Y-51855000D02*
X80370000Y-52220000D01*
%TO.N,Net-(R10-Pad2)*%
X78735000Y-50024100D02*
X78735000Y-51059150D01*
X75545000Y-49210000D02*
X77920900Y-49210000D01*
X77920900Y-49210000D02*
X78735000Y-50024100D01*
%TO.N,Net-(U1-+)*%
X77995900Y-47385000D02*
X78735000Y-46645900D01*
X75545000Y-47385000D02*
X77995900Y-47385000D01*
X78735000Y-46645900D02*
X78735000Y-45610850D01*
%TO.N,Net-(R10-Pad2)*%
X79783300Y-49560000D02*
X78735000Y-50608300D01*
X78735000Y-50608300D02*
X78735000Y-51059150D01*
X83170000Y-49560000D02*
X79783300Y-49560000D01*
%TO.N,Net-(U2--)*%
X80005000Y-46645900D02*
X80005000Y-45610850D01*
X83170000Y-47735000D02*
X81094100Y-47735000D01*
X81094100Y-47735000D02*
X80005000Y-46645900D01*
X82995000Y-47560000D02*
X83170000Y-47735000D01*
X82995000Y-45985000D02*
X82995000Y-47560000D01*
%TO.N,VIN-*%
X76839151Y-44985000D02*
X77465001Y-45610850D01*
X76045000Y-44985000D02*
X76839151Y-44985000D01*
%TO.N,Net-(U1-+)*%
X78735000Y-40295000D02*
X78735000Y-45610850D01*
X78840000Y-40190000D02*
X78735000Y-40295000D01*
X78840000Y-39925000D02*
X78840000Y-40190000D01*
X79100000Y-39665000D02*
X78840000Y-39925000D01*
X83071700Y-39665000D02*
X79100000Y-39665000D01*
%TO.N,VIN-*%
X82719998Y-41286702D02*
X83071700Y-40935000D01*
X82719998Y-42535000D02*
X82719998Y-41286702D01*
%TO.N,VIN+*%
X89605000Y-38395000D02*
X88520000Y-38395000D01*
X90040002Y-37959998D02*
X89605000Y-38395000D01*
X90595000Y-37959998D02*
X90040002Y-37959998D01*
%TO.N,Net-(R11-Pad2)*%
X88069150Y-39665000D02*
X88520000Y-39665000D01*
X86795000Y-42835000D02*
X86795000Y-40939150D01*
X86795000Y-40939150D02*
X88069150Y-39665000D01*
%TO.N,Net-(U1-+)*%
X84970000Y-41112450D02*
X84970000Y-42835000D01*
X83522550Y-39665000D02*
X84970000Y-41112450D01*
X83071700Y-39665000D02*
X83522550Y-39665000D01*
%TO.N,Net-(U1--)*%
X83522550Y-38395000D02*
X83071700Y-38395000D01*
X84970000Y-36947550D02*
X83522550Y-38395000D01*
X84970000Y-35235000D02*
X84970000Y-36947550D01*
%TO.N,Net-(R11-Pad2)*%
X86795000Y-38390850D02*
X88069150Y-39665000D01*
X86795000Y-35235000D02*
X86795000Y-38390850D01*
%TO.N,Net-(U1--)*%
X84520000Y-34785000D02*
X84970000Y-35235000D01*
X83245000Y-34785000D02*
X84520000Y-34785000D01*
%TO.N,Net-(U1-+)*%
X77027500Y-37517500D02*
X75945000Y-36435000D01*
X77027500Y-39550000D02*
X77027500Y-37517500D01*
X77402500Y-39925000D02*
X77027500Y-39550000D01*
X78840000Y-39925000D02*
X77402500Y-39925000D01*
%TO.N,Net-(R4-Pad2)*%
X71035000Y-39550000D02*
X70745000Y-39260000D01*
X74102500Y-39550000D02*
X71035000Y-39550000D01*
X69840000Y-38355000D02*
X70745000Y-39260000D01*
X69840000Y-33000000D02*
X69840000Y-38355000D01*
%TO.N,Net-(C6-Pad1)*%
X66325000Y-32410000D02*
X66915000Y-33000000D01*
X64240000Y-32410000D02*
X66325000Y-32410000D01*
X66915000Y-35470000D02*
X65665000Y-36720000D01*
X66915000Y-33000000D02*
X66915000Y-35470000D01*
X61960000Y-36720000D02*
X61920000Y-36760000D01*
X65665000Y-36720000D02*
X61960000Y-36720000D01*
X56745000Y-36760000D02*
X61920000Y-36760000D01*
X55270000Y-38235000D02*
X56745000Y-36760000D01*
D51*
%TO.N,Net-(D5-K)*%
X37475000Y-64600000D02*
X37075000Y-65000000D01*
X38750000Y-64600000D02*
X37475000Y-64600000D01*
%TO.N,VIN-*%
X40400000Y-64600000D02*
X40400000Y-62100000D01*
X40400000Y-62100000D02*
X40400000Y-58700002D01*
X46100000Y-60700000D02*
X45000000Y-61800000D01*
X46100000Y-58100000D02*
X46100000Y-60700000D01*
X43800000Y-60600000D02*
X45000000Y-61800000D01*
X43800000Y-58075001D02*
X43800000Y-60600000D01*
X43824999Y-58100000D02*
X43800000Y-58075001D01*
X46100000Y-58100000D02*
X43824999Y-58100000D01*
X41025001Y-58075001D02*
X40400000Y-58700002D01*
X43800000Y-58075001D02*
X41025001Y-58075001D01*
X34940002Y-58700002D02*
X33000000Y-56760000D01*
X40400000Y-58700002D02*
X34940002Y-58700002D01*
%TO.N,Net-(D6-A)*%
X37500000Y-38000000D02*
X37100000Y-37600000D01*
X38750000Y-38000000D02*
X37500000Y-38000000D01*
%TO.N,VIN+*%
X45000000Y-43349998D02*
X46100000Y-44449998D01*
X45000000Y-40700000D02*
X45000000Y-43349998D01*
X45000000Y-43224999D02*
X43800000Y-44424999D01*
X45000000Y-40700000D02*
X45000000Y-43224999D01*
X40924999Y-44424999D02*
X40400000Y-43900000D01*
X43800000Y-44424999D02*
X40924999Y-44424999D01*
X43800000Y-44424999D02*
X46075001Y-44424999D01*
X46075001Y-44424999D02*
X46100000Y-44449998D01*
X40400000Y-40469600D02*
X40430400Y-40500000D01*
X40400000Y-38000000D02*
X40400000Y-40469600D01*
X40400000Y-40530400D02*
X40430400Y-40500000D01*
X40400000Y-43900000D02*
X40400000Y-40530400D01*
X35700000Y-43900000D02*
X33000000Y-46600000D01*
X40400000Y-43900000D02*
X35700000Y-43900000D01*
%TD*%
M02*
