%TF.GenerationSoftware,KiCad,Pcbnew,8.0.2*%
%TF.CreationDate,2024-06-23T14:40:44+03:00*%
%TF.ProjectId,Chaos Circuits,4368616f-7320-4436-9972-63756974732e,1*%
%TF.SameCoordinates,Original*%
%TF.FileFunction,Copper,L4,Bot*%
%TF.FilePolarity,Positive*%
%FSLAX46Y46*%
G04 Gerber Fmt 4.6, Leading zero omitted, Abs format (unit mm)*
G04 Created by KiCad (PCBNEW 8.0.2) date 2024-06-23 14:40:44*
%MOMM*%
%LPD*%
G01*
G04 APERTURE LIST*
%TA.AperFunction,ComponentPad*%
%ADD10R,1.268000X1.268000*%
%TD*%
%TA.AperFunction,ComponentPad*%
%ADD11C,1.268000*%
%TD*%
%TA.AperFunction,ComponentPad*%
%ADD12C,2.032000*%
%TD*%
%TA.AperFunction,ComponentPad*%
%ADD13C,2.200000*%
%TD*%
%TA.AperFunction,ComponentPad*%
%ADD14C,2.800000*%
%TD*%
%TA.AperFunction,ComponentPad*%
%ADD15C,2.600000*%
%TD*%
%TA.AperFunction,ComponentPad*%
%ADD16R,1.050000X1.500000*%
%TD*%
%TA.AperFunction,ComponentPad*%
%ADD17O,1.050000X1.500000*%
%TD*%
%TA.AperFunction,ComponentPad*%
%ADD18R,1.500000X1.050000*%
%TD*%
%TA.AperFunction,ComponentPad*%
%ADD19O,1.500000X1.050000*%
%TD*%
%TA.AperFunction,ComponentPad*%
%ADD20C,2.000000*%
%TD*%
%TA.AperFunction,SMDPad,CuDef*%
%ADD21C,1.000000*%
%TD*%
%TA.AperFunction,ComponentPad*%
%ADD22C,3.900000*%
%TD*%
%TA.AperFunction,ConnectorPad*%
%ADD23C,7.000000*%
%TD*%
%TA.AperFunction,ComponentPad*%
%ADD24C,1.800000*%
%TD*%
%TA.AperFunction,ComponentPad*%
%ADD25R,1.950000X1.950000*%
%TD*%
%TA.AperFunction,ComponentPad*%
%ADD26C,1.950000*%
%TD*%
%TA.AperFunction,ViaPad*%
%ADD27C,0.635000*%
%TD*%
%TA.AperFunction,Conductor*%
%ADD28C,0.304800*%
%TD*%
G04 APERTURE END LIST*
D10*
%TO.P,R4,1*%
%TO.N,Net-(C6-Pad1)*%
X65665000Y-36720000D03*
D11*
%TO.P,R4,2*%
%TO.N,Net-(R4-Pad2)*%
X70745000Y-39260000D03*
%TO.P,R4,3*%
%TO.N,unconnected-(R4-Pad3)*%
X65665000Y-41800000D03*
%TD*%
D12*
%TO.P,J2,1,1*%
%TO.N,GND*%
X32969999Y-70936599D03*
%TO.P,J2,2,2*%
%TO.N,/5V*%
X32969999Y-75936599D03*
%TD*%
D13*
%TO.P,TP1,1,1*%
%TO.N,GND*%
X27757000Y-64400000D03*
%TD*%
D14*
%TO.P,TP27,1,1*%
%TO.N,Net-(U13-W)*%
X109300000Y-65720000D03*
%TD*%
%TO.P,TP25,1,1*%
%TO.N,Net-(U13-X1)*%
X104150000Y-62650000D03*
%TD*%
%TO.P,TP23,1,1*%
%TO.N,/-Y_Rossler*%
X118250000Y-44290000D03*
%TD*%
%TO.P,TP22,1,1*%
%TO.N,/-X_Rossler*%
X118220000Y-32790000D03*
%TD*%
%TO.P,TP21,1,1*%
%TO.N,/Y_Rossler*%
X106010000Y-45500000D03*
%TD*%
%TO.P,TP20,1,1*%
%TO.N,/X_Rossler*%
X106070000Y-33680000D03*
%TD*%
D15*
%TO.P,TP19,1,1*%
%TO.N,GND*%
X108600000Y-99110000D03*
%TO.N,Net-(R50-Pad2)*%
X116220000Y-99110000D03*
%TD*%
%TO.P,TP18,1,1*%
%TO.N,GND*%
X123380000Y-79380000D03*
%TO.N,Net-(R49-Pad2)*%
X123380000Y-71760000D03*
%TD*%
%TO.P,TP17,1,1*%
%TO.N,Net-(R48-Pad2)*%
X112730000Y-49020000D03*
%TO.N,GND*%
X120350000Y-49020000D03*
%TD*%
%TO.P,TP16,1,1*%
%TO.N,Net-(R47-Pad2)*%
X113440000Y-54150000D03*
%TO.N,GND*%
X121060000Y-54150000D03*
%TD*%
%TO.P,TP15,1,1*%
%TO.N,Net-(Q2-C)*%
X49547500Y-80515000D03*
%TO.N,GND*%
X49547500Y-72895000D03*
%TD*%
%TO.P,TP14,1,1*%
%TO.N,Net-(C26-Pad1)*%
X44127500Y-80600000D03*
%TO.N,GND*%
X44127500Y-72980000D03*
%TD*%
%TO.P,TP13,1,1*%
%TO.N,Net-(C25-Pad1)*%
X48897500Y-90960000D03*
%TO.N,GND*%
X56517500Y-90960000D03*
%TD*%
%TO.P,TP12,1,1*%
%TO.N,Net-(Q1-C)*%
X36072500Y-90229999D03*
%TO.N,GND*%
X36072500Y-97849999D03*
%TD*%
D10*
%TO.P,R41,1*%
%TO.N,VIN+*%
X111230000Y-80080000D03*
D11*
%TO.P,R41,2*%
%TO.N,Net-(R40-Pad1)*%
X113770000Y-75000000D03*
%TO.P,R41,3*%
%TO.N,VIN-*%
X116310000Y-80080000D03*
%TD*%
D10*
%TO.P,R25,1*%
%TO.N,Net-(Q2-B)*%
X49932500Y-100360000D03*
D11*
%TO.P,R25,2*%
%TO.N,GND*%
X52472500Y-95280000D03*
%TO.P,R25,3*%
%TO.N,unconnected-(R25-Pad3)*%
X55012500Y-100360000D03*
%TD*%
D16*
%TO.P,Q2,1,C*%
%TO.N,Net-(Q2-C)*%
X50872500Y-86515000D03*
D17*
%TO.P,Q2,2,B*%
%TO.N,Net-(Q2-B)*%
X52142501Y-86515000D03*
%TO.P,Q2,3,E*%
%TO.N,GND*%
X53412500Y-86515000D03*
%TD*%
D18*
%TO.P,Q1,1,C*%
%TO.N,Net-(Q1-C)*%
X40635000Y-89980000D03*
D19*
%TO.P,Q1,2,B*%
%TO.N,Net-(Q1-B)*%
X40635000Y-88709999D03*
%TO.P,Q1,3,E*%
%TO.N,GND*%
X40635000Y-87440000D03*
%TD*%
D20*
%TO.P,TP3,1,1*%
%TO.N,GND*%
X95750000Y-52970000D03*
%TD*%
D21*
%TO.P,FID6,*%
%TO.N,*%
X40630000Y-102490000D03*
%TD*%
D20*
%TO.P,TP5,1,1*%
%TO.N,VIN-*%
X45000000Y-61800000D03*
%TD*%
%TO.P,TP4,1,1*%
%TO.N,GND*%
X66470000Y-68380000D03*
%TD*%
D22*
%TO.P,H4,1*%
%TO.N,N/C*%
X30100000Y-100300000D03*
D23*
X30100000Y-100300000D03*
%TD*%
D15*
%TO.P,TP8,1,1*%
%TO.N,Net-(U1-+)*%
X75945000Y-36435000D03*
%TO.N,GND*%
X75945000Y-28815000D03*
%TD*%
D21*
%TO.P,FID4,*%
%TO.N,*%
X28030000Y-40290000D03*
%TD*%
D22*
%TO.P,H2,1*%
%TO.N,N/C*%
X122100000Y-28300000D03*
D23*
X122100000Y-28300000D03*
%TD*%
D15*
%TO.P,TP7,1,1*%
%TO.N,Net-(C6-Pad1)*%
X64240000Y-32410000D03*
%TO.N,GND*%
X56620000Y-32410000D03*
%TD*%
D20*
%TO.P,TP6,1,1*%
%TO.N,VIN+*%
X45000000Y-40700000D03*
%TD*%
D24*
%TO.P,L1,1,1*%
%TO.N,Net-(C6-Pad1)*%
X55270000Y-38235000D03*
%TO.P,L1,2,2*%
%TO.N,GND*%
X55270000Y-43235000D03*
%TD*%
D15*
%TO.P,TP11,1,1*%
%TO.N,/-Y*%
X87710000Y-82000000D03*
%TO.N,GND*%
X95330000Y-82000000D03*
%TD*%
%TO.P,TP9,1,1*%
%TO.N,/Z*%
X87710000Y-94350000D03*
%TO.N,GND*%
X95330000Y-94350000D03*
%TD*%
D25*
%TO.P,J1,1,1*%
%TO.N,VIN+*%
X33000000Y-46600000D03*
D26*
%TO.P,J1,2,2*%
%TO.N,GND*%
X33000000Y-51679999D03*
%TO.P,J1,3,3*%
%TO.N,VIN-*%
X33000000Y-56760000D03*
%TD*%
D20*
%TO.P,TP2,1,1*%
%TO.N,GND*%
X45000000Y-51400000D03*
%TD*%
D15*
%TO.P,TP10,1,1*%
%TO.N,/X*%
X87660000Y-70300000D03*
%TO.N,GND*%
X95280000Y-70300000D03*
%TD*%
D22*
%TO.P,H3,1*%
%TO.N,N/C*%
X122100000Y-100300000D03*
D23*
X122100000Y-100300000D03*
%TD*%
D21*
%TO.P,FID5,*%
%TO.N,*%
X102370000Y-100330000D03*
%TD*%
D23*
%TO.P,H1,1*%
%TO.N,N/C*%
X30100000Y-28300000D03*
D22*
X30100000Y-28300000D03*
%TD*%
D27*
%TO.N,GND*%
X64730000Y-89110000D03*
X121820000Y-87110000D03*
X115690000Y-91870000D03*
X111060000Y-92530000D03*
X110800000Y-84270000D03*
X104600000Y-89180000D03*
X106420000Y-92310000D03*
X102900000Y-67690000D03*
X108690000Y-72230000D03*
X104230000Y-69330000D03*
X109790000Y-70660000D03*
X117640000Y-71530000D03*
X117040000Y-67200000D03*
X123010000Y-62470000D03*
X109790000Y-61590000D03*
X104930000Y-55260000D03*
X101730000Y-57280000D03*
X104390000Y-39490000D03*
X117250000Y-26100000D03*
X100470000Y-35690000D03*
X98810000Y-32470000D03*
X103770000Y-28610000D03*
X108704196Y-31214238D03*
X112800000Y-34020000D03*
X117200000Y-37820000D03*
X112550000Y-45640000D03*
X110970000Y-42440000D03*
X98760000Y-44340000D03*
X100180000Y-47540000D03*
X80230000Y-38000000D03*
X83250000Y-31670000D03*
X90590000Y-34840000D03*
X74130000Y-43680000D03*
X80840000Y-41240000D03*
X85990000Y-46000000D03*
X83440000Y-53080000D03*
X86880000Y-64660000D03*
X82540000Y-72790000D03*
X80600000Y-69630000D03*
X62970000Y-82470000D03*
X65480000Y-81510000D03*
X65130000Y-75650000D03*
X73480000Y-76830000D03*
X86670000Y-76360000D03*
X80280000Y-81550000D03*
X82390000Y-84230000D03*
X72220000Y-87850000D03*
X74560000Y-88550000D03*
X86910000Y-88940000D03*
X80580000Y-93420000D03*
X82390000Y-96610000D03*
X63840000Y-94190000D03*
X65990000Y-93260000D03*
X54140000Y-90660000D03*
X48090000Y-88370000D03*
X45020000Y-94660000D03*
X40260000Y-98880000D03*
X39940000Y-83370000D03*
X35340000Y-81960000D03*
X39320000Y-70960000D03*
X38390000Y-48400000D03*
X61920000Y-39820000D03*
X38650000Y-54360000D03*
X33120000Y-63860000D03*
X34650000Y-62440000D03*
X34790000Y-40480000D03*
X32660000Y-37580000D03*
%TO.N,VIN+*%
X121550000Y-91420000D03*
X111220000Y-88230000D03*
X122565102Y-64520000D03*
X109800000Y-68750000D03*
X106910000Y-63160000D03*
X104390000Y-43671900D03*
X118670000Y-40820000D03*
X117110000Y-30180000D03*
X104450000Y-31826900D03*
X73460000Y-78820000D03*
X74600000Y-90140000D03*
X88270000Y-91720000D03*
X88160000Y-79430000D03*
X88200000Y-67580000D03*
X79220000Y-53120000D03*
X90580000Y-39100000D03*
%TO.N,VIN-*%
X96280000Y-34690000D03*
X108710000Y-33330000D03*
X96290000Y-46690000D03*
X110380000Y-46490000D03*
X101740000Y-53080000D03*
X116110000Y-71570000D03*
X104670000Y-73210000D03*
X103400000Y-93840000D03*
X112180000Y-95600000D03*
X78110000Y-96590000D03*
X63780000Y-90020000D03*
X62940000Y-78370000D03*
X78270000Y-84310000D03*
X78280000Y-72790000D03*
X82930000Y-43730000D03*
X76190000Y-43750000D03*
%TO.N,/-X_Rossler*%
X121440000Y-43500000D03*
X122330000Y-43750000D03*
X113880000Y-85040000D03*
X113010000Y-84650000D03*
X93820000Y-40040000D03*
X93820000Y-41040000D03*
%TO.N,/Z_Rossler*%
X93700000Y-28820000D03*
X124860000Y-68250000D03*
%TO.N,/X_Rossler*%
X109510000Y-50290000D03*
X108350000Y-50320000D03*
%TO.N,/Z_Rossler*%
X94330000Y-27800000D03*
X124880000Y-67320000D03*
%TO.N,/X*%
X65880000Y-86940000D03*
%TO.N,/-Y*%
X73520000Y-67500000D03*
%TD*%
D28*
%TO.N,/-X_Rossler*%
X121000000Y-45080000D02*
X121440000Y-44640000D01*
X121000000Y-45080000D02*
X122330000Y-43750000D01*
X121440000Y-44640000D02*
X121440000Y-43500000D01*
X118420000Y-47660000D02*
X121000000Y-45080000D01*
X118420000Y-66850000D02*
X118420000Y-47660000D01*
X118980000Y-67410000D02*
X118420000Y-66850000D01*
X118980000Y-81620000D02*
X118980000Y-67410000D01*
X115560000Y-85040000D02*
X118980000Y-81620000D01*
X113880000Y-85040000D02*
X115560000Y-85040000D01*
X113490000Y-84650000D02*
X113880000Y-85040000D01*
X113010000Y-84650000D02*
X113490000Y-84650000D01*
%TO.N,/Z_Rossler*%
X94680000Y-28150000D02*
X94010000Y-28820000D01*
X94010000Y-28820000D02*
X93700000Y-28820000D01*
X124860000Y-68250000D02*
X124860000Y-67340000D01*
X124860000Y-67340000D02*
X124880000Y-67320000D01*
X94680000Y-28150000D02*
X94330000Y-27800000D01*
X94680000Y-38080000D02*
X94680000Y-28150000D01*
X100260000Y-38080000D02*
X94680000Y-38080000D01*
X102330000Y-36010000D02*
X100580000Y-37760000D01*
X123060000Y-36010000D02*
X105360000Y-36010000D01*
X123070000Y-36020000D02*
X123060000Y-36010000D01*
X105360000Y-36010000D02*
X102330000Y-36010000D01*
X123270000Y-36020000D02*
X123070000Y-36020000D01*
X100580000Y-37760000D02*
X100260000Y-38080000D01*
X124880000Y-37630000D02*
X123270000Y-36020000D01*
X124880000Y-67320000D02*
X124880000Y-37630000D01*
%TO.N,/X*%
X66030000Y-86790000D02*
X65880000Y-86940000D01*
X87660000Y-74920000D02*
X91060000Y-78320000D01*
X91060000Y-78320000D02*
X91060000Y-86790000D01*
X91060000Y-86790000D02*
X66030000Y-86790000D01*
X87660000Y-70300000D02*
X87660000Y-74920000D01*
%TO.N,/-Y*%
X81470000Y-80840000D02*
X73520000Y-72890000D01*
X73520000Y-72890000D02*
X73520000Y-67500000D01*
X82630000Y-82000000D02*
X81470000Y-80840000D01*
X87710000Y-82000000D02*
X82630000Y-82000000D01*
%TD*%
%TA.AperFunction,Conductor*%
%TO.N,VIN-*%
G36*
X116295677Y-25929685D02*
G01*
X116316319Y-25946319D01*
X116390660Y-26020660D01*
X116424145Y-26081983D01*
X116426199Y-26094457D01*
X116447461Y-26283171D01*
X116492507Y-26411903D01*
X116508344Y-26457163D01*
X116606415Y-26613242D01*
X116736758Y-26743585D01*
X116892837Y-26841656D01*
X117066826Y-26902537D01*
X117066829Y-26902538D01*
X117192987Y-26916752D01*
X117250000Y-26923176D01*
X117250001Y-26923175D01*
X117255541Y-26923800D01*
X117319955Y-26950866D01*
X117329339Y-26959339D01*
X118090939Y-27720939D01*
X118124424Y-27782262D01*
X118125916Y-27826813D01*
X118113963Y-27907397D01*
X118113962Y-27907404D01*
X118113962Y-27907409D01*
X118094675Y-28300000D01*
X118113962Y-28692591D01*
X118113962Y-28692597D01*
X118113963Y-28692599D01*
X118171637Y-29081406D01*
X118267143Y-29462684D01*
X118399561Y-29832770D01*
X118399562Y-29832772D01*
X118567620Y-30188100D01*
X118752011Y-30495737D01*
X118769694Y-30525239D01*
X118894291Y-30693239D01*
X118972732Y-30799004D01*
X118996856Y-30864577D01*
X118981700Y-30932783D01*
X118932075Y-30981967D01*
X118863736Y-30996514D01*
X118829803Y-30989053D01*
X118756801Y-30961825D01*
X118756796Y-30961823D01*
X118491167Y-30904040D01*
X118491160Y-30904039D01*
X118220001Y-30884645D01*
X118219999Y-30884645D01*
X117948839Y-30904039D01*
X117948828Y-30904040D01*
X117842552Y-30927159D01*
X117772861Y-30922174D01*
X117716927Y-30880303D01*
X117692511Y-30814838D01*
X117707363Y-30746565D01*
X117728509Y-30718317D01*
X117753585Y-30693242D01*
X117851656Y-30537163D01*
X117912537Y-30363174D01*
X117912537Y-30363173D01*
X117912538Y-30363171D01*
X117933176Y-30180002D01*
X117933176Y-30179997D01*
X117912538Y-29996828D01*
X117855132Y-29832772D01*
X117851656Y-29822837D01*
X117753585Y-29666758D01*
X117623242Y-29536415D01*
X117507334Y-29463585D01*
X117467165Y-29438345D01*
X117467164Y-29438344D01*
X117467163Y-29438344D01*
X117425396Y-29423729D01*
X117293171Y-29377461D01*
X117110003Y-29356824D01*
X117109997Y-29356824D01*
X116926828Y-29377461D01*
X116752834Y-29438345D01*
X116596757Y-29536415D01*
X116466415Y-29666757D01*
X116368345Y-29822834D01*
X116307461Y-29996828D01*
X116286824Y-30179997D01*
X116286824Y-30180002D01*
X116307461Y-30363171D01*
X116368345Y-30537165D01*
X116392295Y-30575281D01*
X116466415Y-30693242D01*
X116596758Y-30823585D01*
X116752837Y-30921656D01*
X116925197Y-30981967D01*
X116926829Y-30982538D01*
X117027526Y-30993883D01*
X117082154Y-31000038D01*
X117146567Y-31027104D01*
X117186122Y-31084699D01*
X117188260Y-31154536D01*
X117152302Y-31214442D01*
X117142581Y-31222525D01*
X116972259Y-31350027D01*
X116972247Y-31350038D01*
X116780038Y-31542247D01*
X116780028Y-31542259D01*
X116617110Y-31759891D01*
X116617109Y-31759892D01*
X116486830Y-31998480D01*
X116439326Y-32125843D01*
X116391825Y-32253199D01*
X116391824Y-32253202D01*
X116391823Y-32253206D01*
X116334040Y-32518832D01*
X116334039Y-32518839D01*
X116314645Y-32789998D01*
X116314645Y-32790001D01*
X116334039Y-33061160D01*
X116334040Y-33061167D01*
X116380021Y-33272538D01*
X116391825Y-33326801D01*
X116458945Y-33506757D01*
X116486830Y-33581519D01*
X116617109Y-33820107D01*
X116617110Y-33820108D01*
X116617113Y-33820113D01*
X116780029Y-34037742D01*
X116780033Y-34037746D01*
X116780038Y-34037752D01*
X116972247Y-34229961D01*
X116972253Y-34229966D01*
X116972258Y-34229971D01*
X117189887Y-34392887D01*
X117189891Y-34392889D01*
X117189892Y-34392890D01*
X117428481Y-34523169D01*
X117428480Y-34523169D01*
X117428484Y-34523170D01*
X117428487Y-34523172D01*
X117683199Y-34618175D01*
X117948840Y-34675961D01*
X118200605Y-34693967D01*
X118219999Y-34695355D01*
X118220000Y-34695355D01*
X118220001Y-34695355D01*
X118238100Y-34694060D01*
X118491160Y-34675961D01*
X118756801Y-34618175D01*
X119011513Y-34523172D01*
X119011517Y-34523169D01*
X119011519Y-34523169D01*
X119130813Y-34458029D01*
X119250113Y-34392887D01*
X119467742Y-34229971D01*
X119659971Y-34037742D01*
X119822887Y-33820113D01*
X119922279Y-33638089D01*
X119953169Y-33581519D01*
X119953169Y-33581517D01*
X119953172Y-33581513D01*
X120048175Y-33326801D01*
X120105961Y-33061160D01*
X120125355Y-32790000D01*
X120105961Y-32518840D01*
X120048175Y-32253199D01*
X119953172Y-31998487D01*
X119953170Y-31998484D01*
X119953169Y-31998480D01*
X119910999Y-31921252D01*
X119896147Y-31852979D01*
X119920564Y-31787515D01*
X119976497Y-31745643D01*
X120046189Y-31740659D01*
X120083578Y-31755466D01*
X120115576Y-31774645D01*
X120211899Y-31832379D01*
X120211902Y-31832380D01*
X120211903Y-31832381D01*
X120567228Y-32000438D01*
X120937316Y-32132857D01*
X121318600Y-32228364D01*
X121707409Y-32286038D01*
X122100000Y-32305325D01*
X122492591Y-32286038D01*
X122573187Y-32274082D01*
X122642385Y-32283716D01*
X122679059Y-32309059D01*
X124093681Y-33723681D01*
X124127166Y-33785004D01*
X124130000Y-33811362D01*
X124130000Y-35657296D01*
X124110315Y-35724335D01*
X124057511Y-35770090D01*
X123988353Y-35780034D01*
X123924797Y-35751009D01*
X123918319Y-35744977D01*
X123686204Y-35512862D01*
X123677173Y-35506828D01*
X123642386Y-35483584D01*
X123579262Y-35441406D01*
X123460447Y-35392192D01*
X123460448Y-35392192D01*
X123460444Y-35392191D01*
X123458488Y-35391802D01*
X123458483Y-35391801D01*
X123334307Y-35367100D01*
X123334305Y-35367100D01*
X123186790Y-35367100D01*
X123162598Y-35364717D01*
X123144002Y-35361018D01*
X123124306Y-35357100D01*
X123124305Y-35357100D01*
X107373535Y-35357100D01*
X107306496Y-35337415D01*
X107260741Y-35284611D01*
X107250797Y-35215453D01*
X107279822Y-35151897D01*
X107299225Y-35133833D01*
X107317734Y-35119977D01*
X107317734Y-35119976D01*
X107317742Y-35119971D01*
X107509971Y-34927742D01*
X107672887Y-34710113D01*
X107796989Y-34482837D01*
X107803169Y-34471519D01*
X107803169Y-34471517D01*
X107803172Y-34471513D01*
X107898175Y-34216801D01*
X107940987Y-34019997D01*
X111976824Y-34019997D01*
X111976824Y-34020002D01*
X111997461Y-34203171D01*
X112058345Y-34377165D01*
X112124743Y-34482837D01*
X112156415Y-34533242D01*
X112286758Y-34663585D01*
X112442837Y-34761656D01*
X112575059Y-34807922D01*
X112616828Y-34822538D01*
X112799997Y-34843176D01*
X112800000Y-34843176D01*
X112800003Y-34843176D01*
X112983171Y-34822538D01*
X112983174Y-34822537D01*
X113157163Y-34761656D01*
X113313242Y-34663585D01*
X113443585Y-34533242D01*
X113541656Y-34377163D01*
X113602537Y-34203174D01*
X113602537Y-34203173D01*
X113602538Y-34203171D01*
X113623176Y-34020002D01*
X113623176Y-34019997D01*
X113602538Y-33836828D01*
X113562946Y-33723681D01*
X113541656Y-33662837D01*
X113443585Y-33506758D01*
X113313242Y-33376415D01*
X113157163Y-33278344D01*
X113115396Y-33263729D01*
X112983171Y-33217461D01*
X112800003Y-33196824D01*
X112799997Y-33196824D01*
X112616828Y-33217461D01*
X112442834Y-33278345D01*
X112286757Y-33376415D01*
X112156415Y-33506757D01*
X112058345Y-33662834D01*
X111997461Y-33836828D01*
X111976824Y-34019997D01*
X107940987Y-34019997D01*
X107955961Y-33951160D01*
X107975355Y-33680000D01*
X107974127Y-33662837D01*
X107962964Y-33506757D01*
X107955961Y-33408840D01*
X107898175Y-33143199D01*
X107803172Y-32888487D01*
X107803170Y-32888483D01*
X107803169Y-32888480D01*
X107672890Y-32649892D01*
X107672889Y-32649891D01*
X107672887Y-32649887D01*
X107509971Y-32432258D01*
X107509966Y-32432253D01*
X107509961Y-32432247D01*
X107317752Y-32240038D01*
X107317746Y-32240033D01*
X107317742Y-32240029D01*
X107100113Y-32077113D01*
X107100108Y-32077110D01*
X107100107Y-32077109D01*
X106861518Y-31946830D01*
X106861519Y-31946830D01*
X106792941Y-31921252D01*
X106606801Y-31851825D01*
X106606794Y-31851823D01*
X106606793Y-31851823D01*
X106341167Y-31794040D01*
X106341160Y-31794039D01*
X106070001Y-31774645D01*
X106069999Y-31774645D01*
X105798839Y-31794039D01*
X105798832Y-31794040D01*
X105533203Y-31851823D01*
X105435132Y-31888402D01*
X105365440Y-31893386D01*
X105304117Y-31859901D01*
X105270633Y-31798577D01*
X105268579Y-31786103D01*
X105252538Y-31643729D01*
X105227230Y-31571403D01*
X105191656Y-31469737D01*
X105093585Y-31313658D01*
X104994162Y-31214235D01*
X107881020Y-31214235D01*
X107881020Y-31214240D01*
X107901657Y-31397409D01*
X107926965Y-31469734D01*
X107952342Y-31542258D01*
X107962541Y-31571403D01*
X108022900Y-31667463D01*
X108060611Y-31727480D01*
X108190954Y-31857823D01*
X108347033Y-31955894D01*
X108468738Y-31998480D01*
X108521024Y-32016776D01*
X108704193Y-32037414D01*
X108704196Y-32037414D01*
X108704199Y-32037414D01*
X108887367Y-32016776D01*
X108906529Y-32010071D01*
X109061359Y-31955894D01*
X109217438Y-31857823D01*
X109347781Y-31727480D01*
X109445852Y-31571401D01*
X109506733Y-31397412D01*
X109506733Y-31397411D01*
X109506734Y-31397409D01*
X109527372Y-31214240D01*
X109527372Y-31214235D01*
X109506734Y-31031066D01*
X109482505Y-30961825D01*
X109445852Y-30857075D01*
X109347781Y-30700996D01*
X109217438Y-30570653D01*
X109098210Y-30495737D01*
X109061361Y-30472583D01*
X109061360Y-30472582D01*
X109061359Y-30472582D01*
X109019592Y-30457967D01*
X108887367Y-30411699D01*
X108704199Y-30391062D01*
X108704193Y-30391062D01*
X108521024Y-30411699D01*
X108347030Y-30472583D01*
X108190953Y-30570653D01*
X108060611Y-30700995D01*
X107962541Y-30857072D01*
X107901657Y-31031066D01*
X107881020Y-31214235D01*
X104994162Y-31214235D01*
X104963242Y-31183315D01*
X104807163Y-31085244D01*
X104765396Y-31070629D01*
X104633171Y-31024361D01*
X104450003Y-31003724D01*
X104449997Y-31003724D01*
X104266828Y-31024361D01*
X104092834Y-31085245D01*
X103936757Y-31183315D01*
X103806415Y-31313657D01*
X103708345Y-31469734D01*
X103647461Y-31643728D01*
X103626824Y-31826897D01*
X103626824Y-31826902D01*
X103647461Y-32010071D01*
X103708345Y-32184065D01*
X103784537Y-32305324D01*
X103806415Y-32340142D01*
X103936758Y-32470485D01*
X104092837Y-32568556D01*
X104266826Y-32629437D01*
X104282623Y-32631216D01*
X104347036Y-32658280D01*
X104386593Y-32715874D01*
X104388734Y-32785711D01*
X104377575Y-32813863D01*
X104336829Y-32888483D01*
X104336828Y-32888487D01*
X104241825Y-33143199D01*
X104241824Y-33143202D01*
X104241823Y-33143206D01*
X104184040Y-33408832D01*
X104184039Y-33408839D01*
X104164645Y-33679998D01*
X104164645Y-33680001D01*
X104184039Y-33951160D01*
X104184040Y-33951167D01*
X104240454Y-34210499D01*
X104241825Y-34216801D01*
X104282837Y-34326757D01*
X104336830Y-34471519D01*
X104467109Y-34710107D01*
X104467110Y-34710108D01*
X104467113Y-34710113D01*
X104630029Y-34927742D01*
X104630033Y-34927746D01*
X104630038Y-34927752D01*
X104822247Y-35119961D01*
X104822265Y-35119977D01*
X104840775Y-35133833D01*
X104882647Y-35189766D01*
X104887631Y-35259458D01*
X104854147Y-35320781D01*
X104792824Y-35354266D01*
X104766465Y-35357100D01*
X102265693Y-35357100D01*
X102139561Y-35382189D01*
X102139555Y-35382191D01*
X102053352Y-35417898D01*
X102053351Y-35417898D01*
X102020738Y-35431406D01*
X101913798Y-35502860D01*
X101488710Y-35927948D01*
X101427387Y-35961433D01*
X101357695Y-35956449D01*
X101301762Y-35914577D01*
X101277345Y-35849113D01*
X101277809Y-35826383D01*
X101293176Y-35690002D01*
X101293176Y-35689997D01*
X101272538Y-35506828D01*
X101246147Y-35431408D01*
X101211656Y-35332837D01*
X101113585Y-35176758D01*
X100983242Y-35046415D01*
X100946254Y-35023174D01*
X100827165Y-34948345D01*
X100827164Y-34948344D01*
X100827163Y-34948344D01*
X100768314Y-34927752D01*
X100653171Y-34887461D01*
X100470003Y-34866824D01*
X100469997Y-34866824D01*
X100286828Y-34887461D01*
X100112834Y-34948345D01*
X99956757Y-35046415D01*
X99826415Y-35176757D01*
X99728345Y-35332834D01*
X99667461Y-35506828D01*
X99646824Y-35689997D01*
X99646824Y-35690002D01*
X99667461Y-35873171D01*
X99704324Y-35978517D01*
X99728344Y-36047163D01*
X99826415Y-36203242D01*
X99956758Y-36333585D01*
X100112837Y-36431656D01*
X100245059Y-36477922D01*
X100286828Y-36492538D01*
X100469997Y-36513176D01*
X100470000Y-36513176D01*
X100470002Y-36513176D01*
X100553527Y-36503764D01*
X100606383Y-36497809D01*
X100675205Y-36509863D01*
X100726584Y-36557212D01*
X100744209Y-36624822D01*
X100722483Y-36691228D01*
X100707948Y-36708710D01*
X100072859Y-37343800D01*
X100072853Y-37343804D01*
X100025879Y-37390780D01*
X99964556Y-37424266D01*
X99938197Y-37427100D01*
X95456900Y-37427100D01*
X95389861Y-37407415D01*
X95344106Y-37354611D01*
X95332900Y-37303100D01*
X95332900Y-32469997D01*
X97986824Y-32469997D01*
X97986824Y-32470002D01*
X98007461Y-32653171D01*
X98053729Y-32785396D01*
X98068344Y-32827163D01*
X98166415Y-32983242D01*
X98296758Y-33113585D01*
X98452837Y-33211656D01*
X98585059Y-33257922D01*
X98626828Y-33272538D01*
X98809997Y-33293176D01*
X98810000Y-33293176D01*
X98810003Y-33293176D01*
X98993171Y-33272538D01*
X98993174Y-33272537D01*
X99167163Y-33211656D01*
X99323242Y-33113585D01*
X99453585Y-32983242D01*
X99551656Y-32827163D01*
X99612537Y-32653174D01*
X99612537Y-32653173D01*
X99612538Y-32653171D01*
X99633176Y-32470002D01*
X99633176Y-32469997D01*
X99612538Y-32286828D01*
X99592080Y-32228362D01*
X99551656Y-32112837D01*
X99453585Y-31956758D01*
X99323242Y-31826415D01*
X99240851Y-31774645D01*
X99167165Y-31728345D01*
X99167164Y-31728344D01*
X99167163Y-31728344D01*
X99125396Y-31713729D01*
X98993171Y-31667461D01*
X98810003Y-31646824D01*
X98809997Y-31646824D01*
X98626828Y-31667461D01*
X98452834Y-31728345D01*
X98296757Y-31826415D01*
X98166415Y-31956757D01*
X98068345Y-32112834D01*
X98007461Y-32286828D01*
X97986824Y-32469997D01*
X95332900Y-32469997D01*
X95332900Y-28609997D01*
X102946824Y-28609997D01*
X102946824Y-28610002D01*
X102967461Y-28793171D01*
X102976850Y-28820002D01*
X103028344Y-28967163D01*
X103126415Y-29123242D01*
X103256758Y-29253585D01*
X103412837Y-29351656D01*
X103545059Y-29397922D01*
X103586828Y-29412538D01*
X103769997Y-29433176D01*
X103770000Y-29433176D01*
X103770003Y-29433176D01*
X103953171Y-29412538D01*
X103953174Y-29412537D01*
X104127163Y-29351656D01*
X104283242Y-29253585D01*
X104413585Y-29123242D01*
X104511656Y-28967163D01*
X104572537Y-28793174D01*
X104572537Y-28793173D01*
X104572538Y-28793171D01*
X104593176Y-28610002D01*
X104593176Y-28609997D01*
X104572538Y-28426828D01*
X104557922Y-28385059D01*
X104511656Y-28252837D01*
X104413585Y-28096758D01*
X104283242Y-27966415D01*
X104189335Y-27907409D01*
X104127165Y-27868345D01*
X104127164Y-27868344D01*
X104127163Y-27868344D01*
X104085396Y-27853729D01*
X103953171Y-27807461D01*
X103770003Y-27786824D01*
X103769997Y-27786824D01*
X103586828Y-27807461D01*
X103412834Y-27868345D01*
X103256757Y-27966415D01*
X103126415Y-28096757D01*
X103028345Y-28252834D01*
X102967461Y-28426828D01*
X102946824Y-28609997D01*
X95332900Y-28609997D01*
X95332900Y-28085692D01*
X95307810Y-27959561D01*
X95307809Y-27959560D01*
X95307809Y-27959556D01*
X95258592Y-27840736D01*
X95246764Y-27823034D01*
X95187141Y-27733801D01*
X95187139Y-27733798D01*
X95171137Y-27717796D01*
X95137652Y-27656473D01*
X95135599Y-27644012D01*
X95132537Y-27616826D01*
X95071656Y-27442837D01*
X94973585Y-27286758D01*
X94843242Y-27156415D01*
X94687163Y-27058344D01*
X94645396Y-27043729D01*
X94513171Y-26997461D01*
X94330003Y-26976824D01*
X94329997Y-26976824D01*
X94146828Y-26997461D01*
X93972834Y-27058345D01*
X93816757Y-27156415D01*
X93686415Y-27286757D01*
X93588345Y-27442834D01*
X93527461Y-27616828D01*
X93506824Y-27799997D01*
X93506824Y-27800002D01*
X93519704Y-27914316D01*
X93507650Y-27983138D01*
X93460301Y-28034518D01*
X93437438Y-28045242D01*
X93342835Y-28078344D01*
X93186757Y-28176415D01*
X93056415Y-28306757D01*
X92958345Y-28462834D01*
X92897461Y-28636828D01*
X92876824Y-28819997D01*
X92876824Y-28820002D01*
X92897461Y-29003171D01*
X92958345Y-29177165D01*
X93006363Y-29253585D01*
X93056415Y-29333242D01*
X93186758Y-29463585D01*
X93342837Y-29561656D01*
X93475059Y-29607922D01*
X93516828Y-29622538D01*
X93699997Y-29643176D01*
X93700000Y-29643176D01*
X93700002Y-29643176D01*
X93795327Y-29632435D01*
X93883174Y-29622537D01*
X93883174Y-29622536D01*
X93889216Y-29621856D01*
X93958038Y-29633910D01*
X94009417Y-29681259D01*
X94027100Y-29745076D01*
X94027100Y-38015695D01*
X94027100Y-38144305D01*
X94027100Y-38144307D01*
X94027099Y-38144307D01*
X94052189Y-38270438D01*
X94052191Y-38270444D01*
X94101406Y-38389261D01*
X94101411Y-38389270D01*
X94172859Y-38496198D01*
X94172862Y-38496202D01*
X94263797Y-38587137D01*
X94263801Y-38587140D01*
X94370729Y-38658588D01*
X94370738Y-38658593D01*
X94390610Y-38666824D01*
X94489556Y-38707809D01*
X94489560Y-38707809D01*
X94489561Y-38707810D01*
X94615692Y-38732900D01*
X94615695Y-38732900D01*
X100324307Y-38732900D01*
X100409165Y-38716019D01*
X100450444Y-38707809D01*
X100569264Y-38658592D01*
X100574056Y-38655389D01*
X100574066Y-38655386D01*
X100574065Y-38655384D01*
X100676200Y-38587141D01*
X100985990Y-38277348D01*
X100985994Y-38277346D01*
X100996198Y-38267141D01*
X100996200Y-38267141D01*
X101443343Y-37819997D01*
X116376824Y-37819997D01*
X116376824Y-37820002D01*
X116397461Y-38003171D01*
X116440266Y-38125500D01*
X116453785Y-38164135D01*
X116458345Y-38177165D01*
X116556415Y-38333242D01*
X116686758Y-38463585D01*
X116842837Y-38561656D01*
X116975059Y-38607922D01*
X117016828Y-38622538D01*
X117199997Y-38643176D01*
X117200000Y-38643176D01*
X117200003Y-38643176D01*
X117383171Y-38622538D01*
X117383174Y-38622537D01*
X117557163Y-38561656D01*
X117713242Y-38463585D01*
X117843585Y-38333242D01*
X117941656Y-38177163D01*
X118002537Y-38003174D01*
X118002537Y-38003173D01*
X118002538Y-38003171D01*
X118023176Y-37820002D01*
X118023176Y-37819997D01*
X118002538Y-37636828D01*
X117977647Y-37565695D01*
X117941656Y-37462837D01*
X117843585Y-37306758D01*
X117713242Y-37176415D01*
X117557163Y-37078344D01*
X117500552Y-37058535D01*
X117383171Y-37017461D01*
X117200003Y-36996824D01*
X117199997Y-36996824D01*
X117016828Y-37017461D01*
X116842834Y-37078345D01*
X116686757Y-37176415D01*
X116556415Y-37306757D01*
X116458345Y-37462834D01*
X116397461Y-37636828D01*
X116376824Y-37819997D01*
X101443343Y-37819997D01*
X102564121Y-36699218D01*
X102625444Y-36665734D01*
X102651802Y-36662900D01*
X105295695Y-36662900D01*
X122938197Y-36662900D01*
X123005236Y-36682585D01*
X123025878Y-36699219D01*
X123608878Y-37282219D01*
X124093681Y-37767021D01*
X124127166Y-37828344D01*
X124130000Y-37854702D01*
X124130000Y-66965613D01*
X124123042Y-67006567D01*
X124077462Y-67136826D01*
X124077461Y-67136830D01*
X124056824Y-67319997D01*
X124056824Y-67320002D01*
X124077461Y-67503171D01*
X124096355Y-67557165D01*
X124113429Y-67605961D01*
X124123042Y-67633431D01*
X124130000Y-67674386D01*
X124130000Y-67840331D01*
X124119598Y-67885899D01*
X124120644Y-67886265D01*
X124057461Y-68066828D01*
X124036824Y-68249997D01*
X124036824Y-68250002D01*
X124057462Y-68433172D01*
X124120644Y-68613737D01*
X124119597Y-68614103D01*
X124130000Y-68659669D01*
X124130000Y-69570000D01*
X125426000Y-69570000D01*
X125493039Y-69589685D01*
X125538794Y-69642489D01*
X125550000Y-69694000D01*
X125550000Y-91478637D01*
X125530315Y-91545676D01*
X125513681Y-91566318D01*
X120417764Y-96662234D01*
X120383100Y-96686647D01*
X120211910Y-96767614D01*
X120211904Y-96767618D01*
X119874763Y-96969692D01*
X119559043Y-97203846D01*
X119267807Y-97467807D01*
X119003846Y-97759043D01*
X118769692Y-98074763D01*
X118567618Y-98411904D01*
X118567614Y-98411910D01*
X118486647Y-98583100D01*
X118462234Y-98617764D01*
X118207461Y-98872538D01*
X118146138Y-98906023D01*
X118076447Y-98901039D01*
X118020513Y-98859168D01*
X117998890Y-98812452D01*
X117945334Y-98577805D01*
X117846743Y-98326602D01*
X117711815Y-98092898D01*
X117543561Y-97881915D01*
X117543560Y-97881914D01*
X117543557Y-97881910D01*
X117345741Y-97698365D01*
X117122775Y-97546349D01*
X117122769Y-97546346D01*
X117122768Y-97546345D01*
X117122767Y-97546344D01*
X116879643Y-97429263D01*
X116879645Y-97429263D01*
X116621773Y-97349720D01*
X116621767Y-97349718D01*
X116354936Y-97309500D01*
X116354929Y-97309500D01*
X116085071Y-97309500D01*
X116085063Y-97309500D01*
X115818232Y-97349718D01*
X115818226Y-97349720D01*
X115560358Y-97429262D01*
X115317230Y-97546346D01*
X115094258Y-97698365D01*
X114896442Y-97881910D01*
X114728185Y-98092898D01*
X114593258Y-98326599D01*
X114593256Y-98326603D01*
X114494666Y-98577804D01*
X114494663Y-98577813D01*
X114434002Y-98843592D01*
X114399894Y-98904571D01*
X114338232Y-98937429D01*
X114313111Y-98940000D01*
X110506889Y-98940000D01*
X110439850Y-98920315D01*
X110394095Y-98867511D01*
X110385998Y-98843592D01*
X110325336Y-98577813D01*
X110325335Y-98577811D01*
X110325334Y-98577805D01*
X110226743Y-98326602D01*
X110091815Y-98092898D01*
X109923561Y-97881915D01*
X109923560Y-97881914D01*
X109923557Y-97881910D01*
X109725741Y-97698365D01*
X109502775Y-97546349D01*
X109502769Y-97546346D01*
X109502768Y-97546345D01*
X109502767Y-97546344D01*
X109259643Y-97429263D01*
X109259645Y-97429263D01*
X109001773Y-97349720D01*
X109001767Y-97349718D01*
X108734936Y-97309500D01*
X108734929Y-97309500D01*
X108465071Y-97309500D01*
X108465063Y-97309500D01*
X108198232Y-97349718D01*
X108198226Y-97349720D01*
X107940358Y-97429262D01*
X107697230Y-97546346D01*
X107474258Y-97698365D01*
X107276442Y-97881910D01*
X107108185Y-98092898D01*
X106973258Y-98326599D01*
X106973256Y-98326603D01*
X106874666Y-98577804D01*
X106874663Y-98577813D01*
X106814002Y-98843592D01*
X106779894Y-98904571D01*
X106718232Y-98937429D01*
X106693111Y-98940000D01*
X61871362Y-98940000D01*
X61804323Y-98920315D01*
X61783681Y-98903681D01*
X59746319Y-96866319D01*
X59712834Y-96804996D01*
X59710000Y-96778638D01*
X59710000Y-96609997D01*
X81566824Y-96609997D01*
X81566824Y-96610002D01*
X81587461Y-96793171D01*
X81613057Y-96866319D01*
X81648344Y-96967163D01*
X81746415Y-97123242D01*
X81876758Y-97253585D01*
X82032837Y-97351656D01*
X82165059Y-97397922D01*
X82206828Y-97412538D01*
X82389997Y-97433176D01*
X82390000Y-97433176D01*
X82390003Y-97433176D01*
X82573171Y-97412538D01*
X82573174Y-97412537D01*
X82747163Y-97351656D01*
X82903242Y-97253585D01*
X83033585Y-97123242D01*
X83131656Y-96967163D01*
X83192537Y-96793174D01*
X83192537Y-96793173D01*
X83192538Y-96793171D01*
X83213176Y-96610002D01*
X83213176Y-96609997D01*
X83192538Y-96426828D01*
X83153044Y-96313962D01*
X83131656Y-96252837D01*
X83033585Y-96096758D01*
X82903242Y-95966415D01*
X82819275Y-95913655D01*
X82747165Y-95868345D01*
X82747164Y-95868344D01*
X82747163Y-95868344D01*
X82705396Y-95853729D01*
X82573171Y-95807461D01*
X82390003Y-95786824D01*
X82389997Y-95786824D01*
X82206828Y-95807461D01*
X82032834Y-95868345D01*
X81876757Y-95966415D01*
X81746415Y-96096757D01*
X81648345Y-96252834D01*
X81587461Y-96426828D01*
X81566824Y-96609997D01*
X59710000Y-96609997D01*
X59710000Y-94189997D01*
X63016824Y-94189997D01*
X63016824Y-94190002D01*
X63037461Y-94373171D01*
X63073732Y-94476826D01*
X63098344Y-94547163D01*
X63196415Y-94703242D01*
X63326758Y-94833585D01*
X63482837Y-94931656D01*
X63615059Y-94977922D01*
X63656828Y-94992538D01*
X63839997Y-95013176D01*
X63840000Y-95013176D01*
X63840003Y-95013176D01*
X64023171Y-94992538D01*
X64023174Y-94992537D01*
X64197163Y-94931656D01*
X64353242Y-94833585D01*
X64483585Y-94703242D01*
X64581656Y-94547163D01*
X64642537Y-94373174D01*
X64642537Y-94373173D01*
X64642538Y-94373171D01*
X64645149Y-94349995D01*
X85904451Y-94349995D01*
X85904451Y-94350004D01*
X85924616Y-94619101D01*
X85984664Y-94882188D01*
X85984666Y-94882195D01*
X86027972Y-94992537D01*
X86083257Y-95133398D01*
X86218185Y-95367102D01*
X86354080Y-95537509D01*
X86386442Y-95578089D01*
X86573183Y-95751358D01*
X86584259Y-95761635D01*
X86807226Y-95913651D01*
X87050359Y-96030738D01*
X87308228Y-96110280D01*
X87308229Y-96110280D01*
X87308232Y-96110281D01*
X87575063Y-96150499D01*
X87575068Y-96150499D01*
X87575071Y-96150500D01*
X87575072Y-96150500D01*
X87844928Y-96150500D01*
X87844929Y-96150500D01*
X87844936Y-96150499D01*
X88111767Y-96110281D01*
X88111768Y-96110280D01*
X88111772Y-96110280D01*
X88369641Y-96030738D01*
X88612775Y-95913651D01*
X88835741Y-95761635D01*
X89033561Y-95578085D01*
X89201815Y-95367102D01*
X89336743Y-95133398D01*
X89435334Y-94882195D01*
X89495383Y-94619103D01*
X89506045Y-94476826D01*
X89515549Y-94350004D01*
X89515549Y-94349995D01*
X93524451Y-94349995D01*
X93524451Y-94350004D01*
X93544616Y-94619101D01*
X93604664Y-94882188D01*
X93604666Y-94882195D01*
X93647972Y-94992537D01*
X93703257Y-95133398D01*
X93838185Y-95367102D01*
X93974080Y-95537509D01*
X94006442Y-95578089D01*
X94193183Y-95751358D01*
X94204259Y-95761635D01*
X94427226Y-95913651D01*
X94670359Y-96030738D01*
X94928228Y-96110280D01*
X94928229Y-96110280D01*
X94928232Y-96110281D01*
X95195063Y-96150499D01*
X95195068Y-96150499D01*
X95195071Y-96150500D01*
X95195072Y-96150500D01*
X95464928Y-96150500D01*
X95464929Y-96150500D01*
X95464936Y-96150499D01*
X95731767Y-96110281D01*
X95731768Y-96110280D01*
X95731772Y-96110280D01*
X95989641Y-96030738D01*
X96232775Y-95913651D01*
X96455741Y-95761635D01*
X96653561Y-95578085D01*
X96821815Y-95367102D01*
X96956743Y-95133398D01*
X97055334Y-94882195D01*
X97115383Y-94619103D01*
X97126045Y-94476826D01*
X97135549Y-94350004D01*
X97135549Y-94349995D01*
X97115383Y-94080898D01*
X97115383Y-94080897D01*
X97055334Y-93817805D01*
X96956743Y-93566602D01*
X96821815Y-93332898D01*
X96653561Y-93121915D01*
X96653560Y-93121914D01*
X96653557Y-93121910D01*
X96455741Y-92938365D01*
X96409382Y-92906758D01*
X96232775Y-92786349D01*
X96232769Y-92786346D01*
X96232768Y-92786345D01*
X96232767Y-92786344D01*
X95989643Y-92669263D01*
X95989645Y-92669263D01*
X95731773Y-92589720D01*
X95731767Y-92589718D01*
X95464936Y-92549500D01*
X95464929Y-92549500D01*
X95195071Y-92549500D01*
X95195063Y-92549500D01*
X94928232Y-92589718D01*
X94928226Y-92589720D01*
X94670358Y-92669262D01*
X94427230Y-92786346D01*
X94204258Y-92938365D01*
X94006442Y-93121910D01*
X93838185Y-93332898D01*
X93703258Y-93566599D01*
X93703256Y-93566603D01*
X93604666Y-93817804D01*
X93604664Y-93817811D01*
X93544616Y-94080898D01*
X93524451Y-94349995D01*
X89515549Y-94349995D01*
X89495383Y-94080898D01*
X89495383Y-94080897D01*
X89435334Y-93817805D01*
X89336743Y-93566602D01*
X89201815Y-93332898D01*
X89033561Y-93121915D01*
X89033560Y-93121914D01*
X89033557Y-93121910D01*
X88835741Y-92938365D01*
X88783627Y-92902834D01*
X88612775Y-92786349D01*
X88612772Y-92786348D01*
X88612770Y-92786346D01*
X88498050Y-92731100D01*
X88446191Y-92684277D01*
X88427878Y-92616850D01*
X88448926Y-92550226D01*
X88502652Y-92505558D01*
X88510882Y-92502344D01*
X88627163Y-92461656D01*
X88783242Y-92363585D01*
X88836830Y-92309997D01*
X105596824Y-92309997D01*
X105596824Y-92310002D01*
X105617461Y-92493171D01*
X105678345Y-92667165D01*
X105746992Y-92776415D01*
X105776415Y-92823242D01*
X105906758Y-92953585D01*
X106062837Y-93051656D01*
X106195059Y-93097922D01*
X106236828Y-93112538D01*
X106419997Y-93133176D01*
X106420000Y-93133176D01*
X106420003Y-93133176D01*
X106603171Y-93112538D01*
X106603174Y-93112537D01*
X106777163Y-93051656D01*
X106933242Y-92953585D01*
X107063585Y-92823242D01*
X107161656Y-92667163D01*
X107209652Y-92529997D01*
X110236824Y-92529997D01*
X110236824Y-92530002D01*
X110257461Y-92713171D01*
X110318345Y-92887165D01*
X110330656Y-92906757D01*
X110416415Y-93043242D01*
X110546758Y-93173585D01*
X110702837Y-93271656D01*
X110835059Y-93317922D01*
X110876828Y-93332538D01*
X111059997Y-93353176D01*
X111060000Y-93353176D01*
X111060003Y-93353176D01*
X111243171Y-93332538D01*
X111243174Y-93332537D01*
X111417163Y-93271656D01*
X111573242Y-93173585D01*
X111703585Y-93043242D01*
X111801656Y-92887163D01*
X111862537Y-92713174D01*
X111862537Y-92713173D01*
X111862538Y-92713171D01*
X111883176Y-92530002D01*
X111883176Y-92529997D01*
X111862538Y-92346828D01*
X111847922Y-92305059D01*
X111801656Y-92172837D01*
X111703585Y-92016758D01*
X111573242Y-91886415D01*
X111547113Y-91869997D01*
X114866824Y-91869997D01*
X114866824Y-91870002D01*
X114887461Y-92053171D01*
X114929335Y-92172837D01*
X114946725Y-92222537D01*
X114948345Y-92227165D01*
X115034063Y-92363584D01*
X115046415Y-92383242D01*
X115176758Y-92513585D01*
X115332837Y-92611656D01*
X115465059Y-92657922D01*
X115506828Y-92672538D01*
X115689997Y-92693176D01*
X115690000Y-92693176D01*
X115690003Y-92693176D01*
X115873171Y-92672538D01*
X115873174Y-92672537D01*
X116047163Y-92611656D01*
X116203242Y-92513585D01*
X116333585Y-92383242D01*
X116431656Y-92227163D01*
X116492537Y-92053174D01*
X116492537Y-92053173D01*
X116492538Y-92053171D01*
X116513176Y-91870002D01*
X116513176Y-91869997D01*
X116492538Y-91686828D01*
X116463265Y-91603171D01*
X116431656Y-91512837D01*
X116373321Y-91419997D01*
X120726824Y-91419997D01*
X120726824Y-91420002D01*
X120747461Y-91603171D01*
X120808345Y-91777165D01*
X120866677Y-91870000D01*
X120906415Y-91933242D01*
X121036758Y-92063585D01*
X121192837Y-92161656D01*
X121325059Y-92207922D01*
X121366828Y-92222538D01*
X121549997Y-92243176D01*
X121550000Y-92243176D01*
X121550003Y-92243176D01*
X121733171Y-92222538D01*
X121733174Y-92222537D01*
X121907163Y-92161656D01*
X122063242Y-92063585D01*
X122193585Y-91933242D01*
X122291656Y-91777163D01*
X122352537Y-91603174D01*
X122352537Y-91603173D01*
X122352538Y-91603171D01*
X122373176Y-91420002D01*
X122373176Y-91419997D01*
X122352538Y-91236828D01*
X122314578Y-91128345D01*
X122291656Y-91062837D01*
X122193585Y-90906758D01*
X122063242Y-90776415D01*
X121907163Y-90678344D01*
X121854739Y-90660000D01*
X121733171Y-90617461D01*
X121550003Y-90596824D01*
X121549997Y-90596824D01*
X121366828Y-90617461D01*
X121192834Y-90678345D01*
X121036757Y-90776415D01*
X120906415Y-90906757D01*
X120808345Y-91062834D01*
X120747461Y-91236828D01*
X120726824Y-91419997D01*
X116373321Y-91419997D01*
X116333585Y-91356758D01*
X116203242Y-91226415D01*
X116171958Y-91206758D01*
X116047165Y-91128345D01*
X116047164Y-91128344D01*
X116047163Y-91128344D01*
X116005396Y-91113729D01*
X115873171Y-91067461D01*
X115690003Y-91046824D01*
X115689997Y-91046824D01*
X115506828Y-91067461D01*
X115332834Y-91128345D01*
X115176757Y-91226415D01*
X115046415Y-91356757D01*
X114948345Y-91512834D01*
X114887461Y-91686828D01*
X114866824Y-91869997D01*
X111547113Y-91869997D01*
X111430554Y-91796758D01*
X111417165Y-91788345D01*
X111417164Y-91788344D01*
X111417163Y-91788344D01*
X111375396Y-91773729D01*
X111243171Y-91727461D01*
X111060003Y-91706824D01*
X111059997Y-91706824D01*
X110876828Y-91727461D01*
X110702834Y-91788345D01*
X110546757Y-91886415D01*
X110416415Y-92016757D01*
X110318345Y-92172834D01*
X110257461Y-92346828D01*
X110236824Y-92529997D01*
X107209652Y-92529997D01*
X107222537Y-92493174D01*
X107222537Y-92493173D01*
X107222538Y-92493171D01*
X107243176Y-92310002D01*
X107243176Y-92309997D01*
X107222538Y-92126828D01*
X107196764Y-92053171D01*
X107161656Y-91952837D01*
X107063585Y-91796758D01*
X106933242Y-91666415D01*
X106777163Y-91568344D01*
X106735396Y-91553729D01*
X106603171Y-91507461D01*
X106420003Y-91486824D01*
X106419997Y-91486824D01*
X106236828Y-91507461D01*
X106062834Y-91568345D01*
X105906757Y-91666415D01*
X105776415Y-91796757D01*
X105678345Y-91952834D01*
X105617461Y-92126828D01*
X105596824Y-92309997D01*
X88836830Y-92309997D01*
X88913585Y-92233242D01*
X89011656Y-92077163D01*
X89072537Y-91903174D01*
X89072537Y-91903173D01*
X89072538Y-91903171D01*
X89093176Y-91720002D01*
X89093176Y-91719997D01*
X89072538Y-91536828D01*
X89046542Y-91462537D01*
X89011656Y-91362837D01*
X88913585Y-91206758D01*
X88783242Y-91076415D01*
X88627163Y-90978344D01*
X88574739Y-90960000D01*
X88453171Y-90917461D01*
X88270003Y-90896824D01*
X88269997Y-90896824D01*
X88086828Y-90917461D01*
X87912834Y-90978345D01*
X87756757Y-91076415D01*
X87626415Y-91206757D01*
X87528345Y-91362834D01*
X87467461Y-91536828D01*
X87446824Y-91719997D01*
X87446824Y-91720002D01*
X87467461Y-91903171D01*
X87528345Y-92077165D01*
X87626415Y-92233242D01*
X87730992Y-92337819D01*
X87764477Y-92399142D01*
X87759493Y-92468834D01*
X87717621Y-92524767D01*
X87652157Y-92549184D01*
X87643311Y-92549500D01*
X87575063Y-92549500D01*
X87308232Y-92589718D01*
X87308226Y-92589720D01*
X87050358Y-92669262D01*
X86807230Y-92786346D01*
X86584258Y-92938365D01*
X86386442Y-93121910D01*
X86218185Y-93332898D01*
X86083258Y-93566599D01*
X86083256Y-93566603D01*
X85984666Y-93817804D01*
X85984664Y-93817811D01*
X85924616Y-94080898D01*
X85904451Y-94349995D01*
X64645149Y-94349995D01*
X64663176Y-94190002D01*
X64663176Y-94189997D01*
X64642538Y-94006828D01*
X64611576Y-93918344D01*
X64581656Y-93832837D01*
X64483585Y-93676758D01*
X64353242Y-93546415D01*
X64197163Y-93448344D01*
X64155396Y-93433729D01*
X64023171Y-93387461D01*
X63840003Y-93366824D01*
X63839997Y-93366824D01*
X63656828Y-93387461D01*
X63482834Y-93448345D01*
X63326757Y-93546415D01*
X63196415Y-93676757D01*
X63098345Y-93832834D01*
X63037461Y-94006828D01*
X63016824Y-94189997D01*
X59710000Y-94189997D01*
X59710000Y-93259997D01*
X65166824Y-93259997D01*
X65166824Y-93260002D01*
X65187461Y-93443171D01*
X65223588Y-93546415D01*
X65248344Y-93617163D01*
X65346415Y-93773242D01*
X65476758Y-93903585D01*
X65632837Y-94001656D01*
X65765059Y-94047922D01*
X65806828Y-94062538D01*
X65989997Y-94083176D01*
X65990000Y-94083176D01*
X65990003Y-94083176D01*
X66173171Y-94062538D01*
X66173174Y-94062537D01*
X66347163Y-94001656D01*
X66503242Y-93903585D01*
X66633585Y-93773242D01*
X66731656Y-93617163D01*
X66792537Y-93443174D01*
X66792537Y-93443173D01*
X66792538Y-93443171D01*
X66795149Y-93419997D01*
X79756824Y-93419997D01*
X79756824Y-93420002D01*
X79777461Y-93603171D01*
X79838345Y-93777165D01*
X79888800Y-93857463D01*
X79936415Y-93933242D01*
X80066758Y-94063585D01*
X80222837Y-94161656D01*
X80355059Y-94207922D01*
X80396828Y-94222538D01*
X80579997Y-94243176D01*
X80580000Y-94243176D01*
X80580003Y-94243176D01*
X80763171Y-94222538D01*
X80763174Y-94222537D01*
X80937163Y-94161656D01*
X81093242Y-94063585D01*
X81223585Y-93933242D01*
X81321656Y-93777163D01*
X81382537Y-93603174D01*
X81382537Y-93603173D01*
X81382538Y-93603171D01*
X81403176Y-93420002D01*
X81403176Y-93419997D01*
X81382538Y-93236828D01*
X81360408Y-93173584D01*
X81321656Y-93062837D01*
X81223585Y-92906758D01*
X81093242Y-92776415D01*
X80937165Y-92678345D01*
X80937164Y-92678344D01*
X80937163Y-92678344D01*
X80895396Y-92663729D01*
X80763171Y-92617461D01*
X80580003Y-92596824D01*
X80579997Y-92596824D01*
X80396828Y-92617461D01*
X80222834Y-92678345D01*
X80066757Y-92776415D01*
X79936415Y-92906757D01*
X79838345Y-93062834D01*
X79777461Y-93236828D01*
X79756824Y-93419997D01*
X66795149Y-93419997D01*
X66813176Y-93260002D01*
X66813176Y-93259997D01*
X66792538Y-93076828D01*
X66749413Y-92953585D01*
X66731656Y-92902837D01*
X66633585Y-92746758D01*
X66503242Y-92616415D01*
X66397903Y-92550226D01*
X66347165Y-92518345D01*
X66347164Y-92518344D01*
X66347163Y-92518344D01*
X66275231Y-92493174D01*
X66173171Y-92457461D01*
X65990003Y-92436824D01*
X65989997Y-92436824D01*
X65806828Y-92457461D01*
X65632834Y-92518345D01*
X65476757Y-92616415D01*
X65346415Y-92746757D01*
X65248345Y-92902834D01*
X65187461Y-93076828D01*
X65166824Y-93259997D01*
X59710000Y-93259997D01*
X59710000Y-89109997D01*
X63906824Y-89109997D01*
X63906824Y-89110002D01*
X63927461Y-89293171D01*
X63963565Y-89396349D01*
X63988344Y-89467163D01*
X64086415Y-89623242D01*
X64216758Y-89753585D01*
X64372837Y-89851656D01*
X64505059Y-89897922D01*
X64546828Y-89912538D01*
X64729997Y-89933176D01*
X64730000Y-89933176D01*
X64730003Y-89933176D01*
X64913171Y-89912538D01*
X64913174Y-89912537D01*
X65087163Y-89851656D01*
X65243242Y-89753585D01*
X65373585Y-89623242D01*
X65471656Y-89467163D01*
X65532537Y-89293174D01*
X65532537Y-89293173D01*
X65532538Y-89293171D01*
X65553176Y-89110002D01*
X65553176Y-89109997D01*
X65532538Y-88926828D01*
X65513907Y-88873584D01*
X65471656Y-88752837D01*
X65373585Y-88596758D01*
X65243242Y-88466415D01*
X65180127Y-88426757D01*
X65087165Y-88368345D01*
X65087164Y-88368344D01*
X65087163Y-88368344D01*
X65045396Y-88353729D01*
X64913171Y-88307461D01*
X64730003Y-88286824D01*
X64729997Y-88286824D01*
X64546828Y-88307461D01*
X64372834Y-88368345D01*
X64216757Y-88466415D01*
X64086415Y-88596757D01*
X63988345Y-88752834D01*
X63927461Y-88926828D01*
X63906824Y-89109997D01*
X59710000Y-89109997D01*
X59710000Y-86939997D01*
X65056824Y-86939997D01*
X65056824Y-86940002D01*
X65077461Y-87123171D01*
X65138345Y-87297165D01*
X65207249Y-87406824D01*
X65236415Y-87453242D01*
X65366758Y-87583585D01*
X65522837Y-87681656D01*
X65649826Y-87726091D01*
X65696828Y-87742538D01*
X65879997Y-87763176D01*
X65880000Y-87763176D01*
X65880003Y-87763176D01*
X66063171Y-87742538D01*
X66063174Y-87742537D01*
X66237163Y-87681656D01*
X66393242Y-87583585D01*
X66497609Y-87479218D01*
X66558932Y-87445734D01*
X66585290Y-87442900D01*
X71321056Y-87442900D01*
X71388095Y-87462585D01*
X71433850Y-87515389D01*
X71443794Y-87584547D01*
X71438097Y-87607855D01*
X71417462Y-87666823D01*
X71417462Y-87666825D01*
X71396824Y-87849997D01*
X71396824Y-87850002D01*
X71417461Y-88033171D01*
X71446733Y-88116824D01*
X71475258Y-88198345D01*
X71478345Y-88207165D01*
X71528398Y-88286824D01*
X71576415Y-88363242D01*
X71706758Y-88493585D01*
X71862837Y-88591656D01*
X71995059Y-88637922D01*
X72036828Y-88652538D01*
X72219997Y-88673176D01*
X72220000Y-88673176D01*
X72220003Y-88673176D01*
X72403171Y-88652538D01*
X72403174Y-88652537D01*
X72577163Y-88591656D01*
X72643463Y-88549997D01*
X73736824Y-88549997D01*
X73736824Y-88550002D01*
X73757461Y-88733171D01*
X73788836Y-88822834D01*
X73818344Y-88907163D01*
X73916415Y-89063242D01*
X74046758Y-89193585D01*
X74140636Y-89252573D01*
X74186927Y-89304907D01*
X74197575Y-89373960D01*
X74169200Y-89437809D01*
X74140638Y-89462559D01*
X74086756Y-89496416D01*
X73956415Y-89626757D01*
X73858345Y-89782834D01*
X73797461Y-89956828D01*
X73776824Y-90139997D01*
X73776824Y-90140002D01*
X73797461Y-90323171D01*
X73858345Y-90497165D01*
X73956415Y-90653242D01*
X74086758Y-90783585D01*
X74242837Y-90881656D01*
X74375059Y-90927922D01*
X74416828Y-90942538D01*
X74599997Y-90963176D01*
X74600000Y-90963176D01*
X74600003Y-90963176D01*
X74783171Y-90942538D01*
X74783174Y-90942537D01*
X74957163Y-90881656D01*
X75113242Y-90783585D01*
X75243585Y-90653242D01*
X75341656Y-90497163D01*
X75402537Y-90323174D01*
X75402537Y-90323173D01*
X75402538Y-90323171D01*
X75423176Y-90140002D01*
X75423176Y-90139997D01*
X75402538Y-89956828D01*
X75387040Y-89912537D01*
X75341656Y-89782837D01*
X75243585Y-89626758D01*
X75113242Y-89496415D01*
X75113239Y-89496413D01*
X75019362Y-89437425D01*
X74973071Y-89385090D01*
X74962424Y-89316037D01*
X74990799Y-89252189D01*
X75019356Y-89227443D01*
X75073242Y-89193585D01*
X75203585Y-89063242D01*
X75281025Y-88939997D01*
X86086824Y-88939997D01*
X86086824Y-88940002D01*
X86107461Y-89123171D01*
X86168345Y-89297165D01*
X86256718Y-89437809D01*
X86266415Y-89453242D01*
X86396758Y-89583585D01*
X86552837Y-89681656D01*
X86685059Y-89727922D01*
X86726828Y-89742538D01*
X86909997Y-89763176D01*
X86910000Y-89763176D01*
X86910003Y-89763176D01*
X87093171Y-89742538D01*
X87093174Y-89742537D01*
X87267163Y-89681656D01*
X87423242Y-89583585D01*
X87553585Y-89453242D01*
X87651656Y-89297163D01*
X87692654Y-89179997D01*
X103776824Y-89179997D01*
X103776824Y-89180002D01*
X103797461Y-89363171D01*
X103858345Y-89537165D01*
X103887512Y-89583584D01*
X103956415Y-89693242D01*
X104086758Y-89823585D01*
X104242837Y-89921656D01*
X104375059Y-89967922D01*
X104416828Y-89982538D01*
X104599997Y-90003176D01*
X104600000Y-90003176D01*
X104600003Y-90003176D01*
X104783171Y-89982538D01*
X104783174Y-89982537D01*
X104957163Y-89921656D01*
X105113242Y-89823585D01*
X105243585Y-89693242D01*
X105341656Y-89537163D01*
X105402537Y-89363174D01*
X105402537Y-89363173D01*
X105402538Y-89363171D01*
X105423176Y-89180002D01*
X105423176Y-89179997D01*
X105402538Y-88996828D01*
X105387922Y-88955059D01*
X105341656Y-88822837D01*
X105243585Y-88666758D01*
X105113242Y-88536415D01*
X104957165Y-88438345D01*
X104957164Y-88438344D01*
X104957163Y-88438344D01*
X104885231Y-88413174D01*
X104783171Y-88377461D01*
X104600003Y-88356824D01*
X104599997Y-88356824D01*
X104416828Y-88377461D01*
X104242834Y-88438345D01*
X104086757Y-88536415D01*
X103956415Y-88666757D01*
X103858345Y-88822834D01*
X103797461Y-88996828D01*
X103776824Y-89179997D01*
X87692654Y-89179997D01*
X87712537Y-89123174D01*
X87712537Y-89123173D01*
X87712538Y-89123171D01*
X87733176Y-88940002D01*
X87733176Y-88939997D01*
X87712538Y-88756828D01*
X87697922Y-88715059D01*
X87651656Y-88582837D01*
X87553585Y-88426758D01*
X87423242Y-88296415D01*
X87407978Y-88286824D01*
X87317539Y-88229997D01*
X110396824Y-88229997D01*
X110396824Y-88230002D01*
X110417461Y-88413171D01*
X110460587Y-88536415D01*
X110476830Y-88582837D01*
X110478345Y-88587165D01*
X110566312Y-88727163D01*
X110576415Y-88743242D01*
X110706758Y-88873585D01*
X110862837Y-88971656D01*
X110982664Y-89013585D01*
X111036828Y-89032538D01*
X111219997Y-89053176D01*
X111220000Y-89053176D01*
X111220003Y-89053176D01*
X111403171Y-89032538D01*
X111403174Y-89032537D01*
X111577163Y-88971656D01*
X111733242Y-88873585D01*
X111863585Y-88743242D01*
X111961656Y-88587163D01*
X112022537Y-88413174D01*
X112022537Y-88413173D01*
X112022538Y-88413171D01*
X112043176Y-88230002D01*
X112043176Y-88229997D01*
X112022538Y-88046828D01*
X111982769Y-87933176D01*
X111961656Y-87872837D01*
X111863585Y-87716758D01*
X111733242Y-87586415D01*
X111728738Y-87583585D01*
X111577165Y-87488345D01*
X111577164Y-87488344D01*
X111577163Y-87488344D01*
X111503548Y-87462585D01*
X111403171Y-87427461D01*
X111220003Y-87406824D01*
X111219997Y-87406824D01*
X111036828Y-87427461D01*
X110862834Y-87488345D01*
X110706757Y-87586415D01*
X110576415Y-87716757D01*
X110478345Y-87872834D01*
X110417461Y-88046828D01*
X110396824Y-88229997D01*
X87317539Y-88229997D01*
X87267165Y-88198345D01*
X87267164Y-88198344D01*
X87267163Y-88198344D01*
X87225396Y-88183729D01*
X87093171Y-88137461D01*
X86910003Y-88116824D01*
X86909997Y-88116824D01*
X86726828Y-88137461D01*
X86552834Y-88198345D01*
X86396757Y-88296415D01*
X86266415Y-88426757D01*
X86168345Y-88582834D01*
X86107461Y-88756828D01*
X86086824Y-88939997D01*
X75281025Y-88939997D01*
X75301656Y-88907163D01*
X75362537Y-88733174D01*
X75362537Y-88733173D01*
X75362538Y-88733171D01*
X75383176Y-88550002D01*
X75383176Y-88549997D01*
X75362538Y-88366828D01*
X75334543Y-88286824D01*
X75301656Y-88192837D01*
X75203585Y-88036758D01*
X75073242Y-87906415D01*
X75019798Y-87872834D01*
X74917165Y-87808345D01*
X74917164Y-87808344D01*
X74917163Y-87808344D01*
X74875396Y-87793729D01*
X74743171Y-87747461D01*
X74560003Y-87726824D01*
X74559997Y-87726824D01*
X74376828Y-87747461D01*
X74202834Y-87808345D01*
X74046757Y-87906415D01*
X73916415Y-88036757D01*
X73818345Y-88192834D01*
X73757461Y-88366828D01*
X73736824Y-88549997D01*
X72643463Y-88549997D01*
X72733242Y-88493585D01*
X72863585Y-88363242D01*
X72961656Y-88207163D01*
X73022537Y-88033174D01*
X73022537Y-88033173D01*
X73022538Y-88033171D01*
X73043176Y-87850002D01*
X73043176Y-87849997D01*
X73022537Y-87666825D01*
X73022537Y-87666823D01*
X73001903Y-87607855D01*
X72998341Y-87538076D01*
X73033069Y-87477449D01*
X73095063Y-87445221D01*
X73118944Y-87442900D01*
X91124307Y-87442900D01*
X91209165Y-87426019D01*
X91250444Y-87417809D01*
X91369264Y-87368592D01*
X91476199Y-87297140D01*
X91567140Y-87206199D01*
X91631420Y-87109997D01*
X120996824Y-87109997D01*
X120996824Y-87110002D01*
X121017461Y-87293171D01*
X121078345Y-87467165D01*
X121128398Y-87546824D01*
X121176415Y-87623242D01*
X121306758Y-87753585D01*
X121462837Y-87851656D01*
X121595059Y-87897922D01*
X121636828Y-87912538D01*
X121819997Y-87933176D01*
X121820000Y-87933176D01*
X121820003Y-87933176D01*
X122003171Y-87912538D01*
X122003174Y-87912537D01*
X122177163Y-87851656D01*
X122333242Y-87753585D01*
X122463585Y-87623242D01*
X122561656Y-87467163D01*
X122622537Y-87293174D01*
X122622537Y-87293173D01*
X122622538Y-87293171D01*
X122643176Y-87110002D01*
X122643176Y-87109997D01*
X122622538Y-86926828D01*
X122607922Y-86885059D01*
X122561656Y-86752837D01*
X122463585Y-86596758D01*
X122333242Y-86466415D01*
X122177163Y-86368344D01*
X122135396Y-86353729D01*
X122003171Y-86307461D01*
X121820003Y-86286824D01*
X121819997Y-86286824D01*
X121636828Y-86307461D01*
X121462834Y-86368345D01*
X121306757Y-86466415D01*
X121176415Y-86596757D01*
X121078345Y-86752834D01*
X121017461Y-86926828D01*
X120996824Y-87109997D01*
X91631420Y-87109997D01*
X91638592Y-87099264D01*
X91687809Y-86980444D01*
X91698474Y-86926828D01*
X91712900Y-86854307D01*
X91712900Y-84269997D01*
X109976824Y-84269997D01*
X109976824Y-84270002D01*
X109997461Y-84453171D01*
X110058345Y-84627165D01*
X110131281Y-84743242D01*
X110156415Y-84783242D01*
X110286758Y-84913585D01*
X110442837Y-85011656D01*
X110561495Y-85053176D01*
X110616828Y-85072538D01*
X110799997Y-85093176D01*
X110800000Y-85093176D01*
X110800003Y-85093176D01*
X110983171Y-85072538D01*
X110983174Y-85072537D01*
X111157163Y-85011656D01*
X111313242Y-84913585D01*
X111443585Y-84783242D01*
X111527308Y-84649997D01*
X112186824Y-84649997D01*
X112186824Y-84650002D01*
X112207461Y-84833171D01*
X112268345Y-85007165D01*
X112366415Y-85163242D01*
X112496758Y-85293585D01*
X112652837Y-85391656D01*
X112785059Y-85437922D01*
X112826828Y-85452538D01*
X113009997Y-85473176D01*
X113010000Y-85473176D01*
X113010002Y-85473176D01*
X113097037Y-85463369D01*
X113165859Y-85475423D01*
X113215915Y-85520617D01*
X113217204Y-85522669D01*
X113236415Y-85553242D01*
X113366758Y-85683585D01*
X113522837Y-85781656D01*
X113655059Y-85827922D01*
X113696828Y-85842538D01*
X113879997Y-85863176D01*
X113880000Y-85863176D01*
X113880003Y-85863176D01*
X114063171Y-85842538D01*
X114063174Y-85842537D01*
X114237163Y-85781656D01*
X114348169Y-85711905D01*
X114414141Y-85692900D01*
X115624307Y-85692900D01*
X115709165Y-85676019D01*
X115750444Y-85667809D01*
X115869264Y-85618592D01*
X115976200Y-85547141D01*
X119487140Y-82036200D01*
X119558592Y-81929264D01*
X119607809Y-81810444D01*
X119613173Y-81783477D01*
X119631136Y-81693174D01*
X119632900Y-81684307D01*
X119632900Y-79379995D01*
X121574451Y-79379995D01*
X121574451Y-79380004D01*
X121594616Y-79649101D01*
X121654664Y-79912188D01*
X121654666Y-79912195D01*
X121753256Y-80163396D01*
X121753258Y-80163400D01*
X121766813Y-80186878D01*
X121888185Y-80397102D01*
X121963400Y-80491418D01*
X122056442Y-80608089D01*
X122163543Y-80707463D01*
X122254259Y-80791635D01*
X122477226Y-80943651D01*
X122720359Y-81060738D01*
X122978228Y-81140280D01*
X122978229Y-81140280D01*
X122978232Y-81140281D01*
X123245063Y-81180499D01*
X123245068Y-81180499D01*
X123245071Y-81180500D01*
X123245072Y-81180500D01*
X123514928Y-81180500D01*
X123514929Y-81180500D01*
X123514936Y-81180499D01*
X123781767Y-81140281D01*
X123781768Y-81140280D01*
X123781772Y-81140280D01*
X124039641Y-81060738D01*
X124231765Y-80968216D01*
X124282767Y-80943655D01*
X124282767Y-80943654D01*
X124282775Y-80943651D01*
X124505741Y-80791635D01*
X124703561Y-80608085D01*
X124871815Y-80397102D01*
X125006743Y-80163398D01*
X125105334Y-79912195D01*
X125165383Y-79649103D01*
X125179285Y-79463585D01*
X125185549Y-79380004D01*
X125185549Y-79379995D01*
X125165383Y-79110898D01*
X125160261Y-79088455D01*
X125105334Y-78847805D01*
X125006743Y-78596602D01*
X124871815Y-78362898D01*
X124703561Y-78151915D01*
X124703560Y-78151914D01*
X124703557Y-78151910D01*
X124505741Y-77968365D01*
X124282775Y-77816349D01*
X124282769Y-77816346D01*
X124282768Y-77816345D01*
X124282767Y-77816344D01*
X124039643Y-77699263D01*
X124039645Y-77699263D01*
X123781773Y-77619720D01*
X123781767Y-77619718D01*
X123514936Y-77579500D01*
X123514929Y-77579500D01*
X123245071Y-77579500D01*
X123245063Y-77579500D01*
X122978232Y-77619718D01*
X122978226Y-77619720D01*
X122720358Y-77699262D01*
X122477230Y-77816346D01*
X122254258Y-77968365D01*
X122056442Y-78151910D01*
X121888185Y-78362898D01*
X121753258Y-78596599D01*
X121753256Y-78596603D01*
X121654666Y-78847804D01*
X121654664Y-78847811D01*
X121594616Y-79110898D01*
X121574451Y-79379995D01*
X119632900Y-79379995D01*
X119632900Y-71759995D01*
X121574451Y-71759995D01*
X121574451Y-71760004D01*
X121594616Y-72029101D01*
X121654664Y-72292188D01*
X121654666Y-72292195D01*
X121709864Y-72432837D01*
X121753257Y-72543398D01*
X121888185Y-72777102D01*
X121965127Y-72873584D01*
X122056442Y-72988089D01*
X122243183Y-73161358D01*
X122254259Y-73171635D01*
X122477226Y-73323651D01*
X122720359Y-73440738D01*
X122978228Y-73520280D01*
X122978229Y-73520280D01*
X122978232Y-73520281D01*
X123245063Y-73560499D01*
X123245068Y-73560499D01*
X123245071Y-73560500D01*
X123245072Y-73560500D01*
X123514928Y-73560500D01*
X123514929Y-73560500D01*
X123514936Y-73560499D01*
X123781767Y-73520281D01*
X123781768Y-73520280D01*
X123781772Y-73520280D01*
X124039641Y-73440738D01*
X124282775Y-73323651D01*
X124505741Y-73171635D01*
X124659259Y-73029190D01*
X124703557Y-72988089D01*
X124703557Y-72988087D01*
X124703561Y-72988085D01*
X124871815Y-72777102D01*
X125006743Y-72543398D01*
X125105334Y-72292195D01*
X125165383Y-72029103D01*
X125177093Y-71872837D01*
X125185549Y-71760004D01*
X125185549Y-71759995D01*
X125165383Y-71490898D01*
X125165383Y-71490897D01*
X125105334Y-71227805D01*
X125006743Y-70976602D01*
X124871815Y-70742898D01*
X124703561Y-70531915D01*
X124703560Y-70531914D01*
X124703557Y-70531910D01*
X124505741Y-70348365D01*
X124438959Y-70302834D01*
X124282775Y-70196349D01*
X124282769Y-70196346D01*
X124282768Y-70196345D01*
X124282767Y-70196344D01*
X124039643Y-70079263D01*
X124039645Y-70079263D01*
X123781773Y-69999720D01*
X123781767Y-69999718D01*
X123514936Y-69959500D01*
X123514929Y-69959500D01*
X123245071Y-69959500D01*
X123245063Y-69959500D01*
X122978232Y-69999718D01*
X122978226Y-69999720D01*
X122720358Y-70079262D01*
X122477230Y-70196346D01*
X122254258Y-70348365D01*
X122056442Y-70531910D01*
X121888185Y-70742898D01*
X121753258Y-70976599D01*
X121753256Y-70976603D01*
X121654666Y-71227804D01*
X121654664Y-71227811D01*
X121594616Y-71490898D01*
X121574451Y-71759995D01*
X119632900Y-71759995D01*
X119632900Y-67345692D01*
X119607810Y-67219561D01*
X119607809Y-67219560D01*
X119607809Y-67219556D01*
X119607807Y-67219551D01*
X119576031Y-67142836D01*
X119558596Y-67100744D01*
X119558595Y-67100743D01*
X119558593Y-67100737D01*
X119487141Y-66993801D01*
X119487139Y-66993798D01*
X119109219Y-66615878D01*
X119075734Y-66554555D01*
X119072900Y-66528197D01*
X119072900Y-64519997D01*
X121741926Y-64519997D01*
X121741926Y-64520002D01*
X121762563Y-64703171D01*
X121823447Y-64877165D01*
X121855695Y-64928487D01*
X121921517Y-65033242D01*
X122051860Y-65163585D01*
X122207939Y-65261656D01*
X122327763Y-65303584D01*
X122381930Y-65322538D01*
X122565099Y-65343176D01*
X122565102Y-65343176D01*
X122565105Y-65343176D01*
X122748273Y-65322538D01*
X122748276Y-65322537D01*
X122922265Y-65261656D01*
X123078344Y-65163585D01*
X123208687Y-65033242D01*
X123306758Y-64877163D01*
X123367639Y-64703174D01*
X123367639Y-64703173D01*
X123367640Y-64703171D01*
X123388278Y-64520002D01*
X123388278Y-64519997D01*
X123367640Y-64336828D01*
X123347765Y-64280028D01*
X123306758Y-64162837D01*
X123208687Y-64006758D01*
X123078344Y-63876415D01*
X122962436Y-63803585D01*
X122922267Y-63778345D01*
X122922266Y-63778344D01*
X122922265Y-63778344D01*
X122880498Y-63763729D01*
X122748273Y-63717461D01*
X122565105Y-63696824D01*
X122565099Y-63696824D01*
X122381930Y-63717461D01*
X122207936Y-63778345D01*
X122051859Y-63876415D01*
X121921517Y-64006757D01*
X121823447Y-64162834D01*
X121762563Y-64336828D01*
X121741926Y-64519997D01*
X119072900Y-64519997D01*
X119072900Y-62469997D01*
X122186824Y-62469997D01*
X122186824Y-62470002D01*
X122207461Y-62653171D01*
X122253729Y-62785396D01*
X122268344Y-62827163D01*
X122366415Y-62983242D01*
X122496758Y-63113585D01*
X122652837Y-63211656D01*
X122785059Y-63257922D01*
X122826828Y-63272538D01*
X123009997Y-63293176D01*
X123010000Y-63293176D01*
X123010003Y-63293176D01*
X123193171Y-63272538D01*
X123193174Y-63272537D01*
X123367163Y-63211656D01*
X123523242Y-63113585D01*
X123653585Y-62983242D01*
X123751656Y-62827163D01*
X123812537Y-62653174D01*
X123812537Y-62653173D01*
X123812538Y-62653171D01*
X123833176Y-62470002D01*
X123833176Y-62469997D01*
X123812538Y-62286828D01*
X123782190Y-62200099D01*
X123751656Y-62112837D01*
X123653585Y-61956758D01*
X123523242Y-61826415D01*
X123367165Y-61728345D01*
X123367164Y-61728344D01*
X123367163Y-61728344D01*
X123325396Y-61713729D01*
X123193171Y-61667461D01*
X123010003Y-61646824D01*
X123009997Y-61646824D01*
X122826828Y-61667461D01*
X122652834Y-61728345D01*
X122496757Y-61826415D01*
X122366415Y-61956757D01*
X122268345Y-62112834D01*
X122207461Y-62286828D01*
X122186824Y-62469997D01*
X119072900Y-62469997D01*
X119072900Y-54635855D01*
X119092585Y-54568816D01*
X119145389Y-54523061D01*
X119214547Y-54513117D01*
X119278103Y-54542142D01*
X119315877Y-54600920D01*
X119317791Y-54608263D01*
X119334663Y-54682185D01*
X119334666Y-54682195D01*
X119421262Y-54902837D01*
X119433257Y-54933398D01*
X119568185Y-55167102D01*
X119642267Y-55259997D01*
X119736442Y-55378089D01*
X119923183Y-55551358D01*
X119934259Y-55561635D01*
X120157226Y-55713651D01*
X120400359Y-55830738D01*
X120658228Y-55910280D01*
X120658229Y-55910280D01*
X120658232Y-55910281D01*
X120925063Y-55950499D01*
X120925068Y-55950499D01*
X120925071Y-55950500D01*
X120925072Y-55950500D01*
X121194928Y-55950500D01*
X121194929Y-55950500D01*
X121194936Y-55950499D01*
X121461767Y-55910281D01*
X121461768Y-55910280D01*
X121461772Y-55910280D01*
X121719641Y-55830738D01*
X121962775Y-55713651D01*
X122185741Y-55561635D01*
X122383561Y-55378085D01*
X122551815Y-55167102D01*
X122686743Y-54933398D01*
X122785334Y-54682195D01*
X122845383Y-54419103D01*
X122852105Y-54329402D01*
X122865549Y-54150004D01*
X122865549Y-54149995D01*
X122846424Y-53894785D01*
X122845383Y-53880897D01*
X122785334Y-53617805D01*
X122686743Y-53366602D01*
X122551815Y-53132898D01*
X122383561Y-52921915D01*
X122383560Y-52921914D01*
X122383557Y-52921910D01*
X122185741Y-52738365D01*
X122162012Y-52722187D01*
X121962775Y-52586349D01*
X121962769Y-52586346D01*
X121962768Y-52586345D01*
X121962767Y-52586344D01*
X121719643Y-52469263D01*
X121719645Y-52469263D01*
X121461773Y-52389720D01*
X121461767Y-52389718D01*
X121194936Y-52349500D01*
X121194929Y-52349500D01*
X120925071Y-52349500D01*
X120925063Y-52349500D01*
X120658232Y-52389718D01*
X120658226Y-52389720D01*
X120400358Y-52469262D01*
X120157230Y-52586346D01*
X119934258Y-52738365D01*
X119736442Y-52921910D01*
X119568185Y-53132898D01*
X119433258Y-53366599D01*
X119433256Y-53366603D01*
X119334666Y-53617804D01*
X119334664Y-53617811D01*
X119317791Y-53691737D01*
X119283682Y-53752715D01*
X119222021Y-53785573D01*
X119152383Y-53779878D01*
X119096880Y-53737438D01*
X119073132Y-53671728D01*
X119072900Y-53664144D01*
X119072900Y-50563059D01*
X119092585Y-50496020D01*
X119145389Y-50450265D01*
X119214547Y-50440321D01*
X119266747Y-50460603D01*
X119447226Y-50583651D01*
X119690359Y-50700738D01*
X119948228Y-50780280D01*
X119948229Y-50780280D01*
X119948232Y-50780281D01*
X120215063Y-50820499D01*
X120215068Y-50820499D01*
X120215071Y-50820500D01*
X120215072Y-50820500D01*
X120484928Y-50820500D01*
X120484929Y-50820500D01*
X120484936Y-50820499D01*
X120751767Y-50780281D01*
X120751768Y-50780280D01*
X120751772Y-50780280D01*
X121009641Y-50700738D01*
X121252775Y-50583651D01*
X121475741Y-50431635D01*
X121673561Y-50248085D01*
X121841815Y-50037102D01*
X121976743Y-49803398D01*
X122075334Y-49552195D01*
X122135383Y-49289103D01*
X122155549Y-49020000D01*
X122135383Y-48750897D01*
X122075334Y-48487805D01*
X121976743Y-48236602D01*
X121841815Y-48002898D01*
X121673561Y-47791915D01*
X121673560Y-47791914D01*
X121673557Y-47791910D01*
X121475741Y-47608365D01*
X121252775Y-47456349D01*
X121252769Y-47456346D01*
X121252768Y-47456345D01*
X121252767Y-47456344D01*
X121009643Y-47339263D01*
X121009645Y-47339263D01*
X120751773Y-47259720D01*
X120751767Y-47259718D01*
X120484936Y-47219500D01*
X120484929Y-47219500D01*
X120215071Y-47219500D01*
X120215061Y-47219500D01*
X120079928Y-47239868D01*
X120010704Y-47230395D01*
X119957590Y-47185000D01*
X119937451Y-47118095D01*
X119956680Y-47050924D01*
X119973762Y-47029577D01*
X121507141Y-45496200D01*
X121507141Y-45496199D01*
X122412203Y-44591135D01*
X122473524Y-44557652D01*
X122485985Y-44555600D01*
X122513174Y-44552537D01*
X122687163Y-44491656D01*
X122843242Y-44393585D01*
X122973585Y-44263242D01*
X123071656Y-44107163D01*
X123132537Y-43933174D01*
X123132537Y-43933173D01*
X123132538Y-43933171D01*
X123153176Y-43750002D01*
X123153176Y-43749997D01*
X123132538Y-43566828D01*
X123109154Y-43500000D01*
X123071656Y-43392837D01*
X122973585Y-43236758D01*
X122843242Y-43106415D01*
X122806907Y-43083584D01*
X122687165Y-43008345D01*
X122687164Y-43008344D01*
X122687163Y-43008344D01*
X122645396Y-42993729D01*
X122513171Y-42947461D01*
X122330003Y-42926824D01*
X122329997Y-42926824D01*
X122146827Y-42947462D01*
X122144401Y-42948311D01*
X122142736Y-42948395D01*
X122140037Y-42949012D01*
X122139929Y-42948538D01*
X122074622Y-42951867D01*
X122015774Y-42918947D01*
X121953242Y-42856415D01*
X121797165Y-42758345D01*
X121797164Y-42758344D01*
X121797163Y-42758344D01*
X121755396Y-42743729D01*
X121623171Y-42697461D01*
X121440003Y-42676824D01*
X121439997Y-42676824D01*
X121256828Y-42697461D01*
X121082834Y-42758345D01*
X120926757Y-42856415D01*
X120796415Y-42986757D01*
X120698345Y-43142834D01*
X120637461Y-43316828D01*
X120616824Y-43499997D01*
X120616824Y-43500002D01*
X120637461Y-43683171D01*
X120698345Y-43857165D01*
X120768094Y-43968169D01*
X120787100Y-44034141D01*
X120787100Y-44318196D01*
X120767415Y-44385235D01*
X120750781Y-44405877D01*
X120566359Y-44590298D01*
X120566357Y-44590301D01*
X120306817Y-44849840D01*
X120245494Y-44883325D01*
X120175802Y-44878341D01*
X120119869Y-44836469D01*
X120095452Y-44771005D01*
X120097969Y-44735805D01*
X120135961Y-44561160D01*
X120155355Y-44290000D01*
X120135961Y-44018840D01*
X120078175Y-43753199D01*
X119983172Y-43498487D01*
X119983170Y-43498484D01*
X119983169Y-43498480D01*
X119852890Y-43259892D01*
X119852889Y-43259891D01*
X119852887Y-43259887D01*
X119689971Y-43042258D01*
X119689966Y-43042253D01*
X119689961Y-43042247D01*
X119497752Y-42850038D01*
X119497746Y-42850033D01*
X119497742Y-42850029D01*
X119280113Y-42687113D01*
X119280108Y-42687110D01*
X119280107Y-42687109D01*
X119041518Y-42556830D01*
X119041519Y-42556830D01*
X118991920Y-42538330D01*
X118786801Y-42461825D01*
X118786794Y-42461823D01*
X118786793Y-42461823D01*
X118521167Y-42404040D01*
X118521160Y-42404039D01*
X118250001Y-42384645D01*
X118249999Y-42384645D01*
X117978839Y-42404039D01*
X117978832Y-42404040D01*
X117713206Y-42461823D01*
X117713202Y-42461824D01*
X117713199Y-42461825D01*
X117585843Y-42509326D01*
X117458480Y-42556830D01*
X117219892Y-42687109D01*
X117219891Y-42687110D01*
X117002259Y-42850028D01*
X117002247Y-42850038D01*
X116810038Y-43042247D01*
X116810028Y-43042259D01*
X116647110Y-43259891D01*
X116647109Y-43259892D01*
X116516830Y-43498480D01*
X116491338Y-43566828D01*
X116421825Y-43753199D01*
X116421824Y-43753202D01*
X116421823Y-43753206D01*
X116364040Y-44018832D01*
X116364039Y-44018839D01*
X116344645Y-44289998D01*
X116344645Y-44290001D01*
X116364039Y-44561160D01*
X116364040Y-44561167D01*
X116421823Y-44826793D01*
X116421825Y-44826801D01*
X116448510Y-44898345D01*
X116516830Y-45081519D01*
X116647109Y-45320107D01*
X116647110Y-45320108D01*
X116647113Y-45320113D01*
X116810029Y-45537742D01*
X116810033Y-45537746D01*
X116810038Y-45537752D01*
X117002247Y-45729961D01*
X117002253Y-45729966D01*
X117002258Y-45729971D01*
X117219887Y-45892887D01*
X117219891Y-45892889D01*
X117219892Y-45892890D01*
X117458481Y-46023169D01*
X117458480Y-46023169D01*
X117458484Y-46023170D01*
X117458487Y-46023172D01*
X117713199Y-46118175D01*
X117978840Y-46175961D01*
X118230605Y-46193967D01*
X118249999Y-46195355D01*
X118250000Y-46195355D01*
X118250001Y-46195355D01*
X118268100Y-46194060D01*
X118521160Y-46175961D01*
X118695802Y-46137970D01*
X118765492Y-46142954D01*
X118821426Y-46184825D01*
X118845843Y-46250289D01*
X118830991Y-46318562D01*
X118809840Y-46346817D01*
X117912858Y-47243800D01*
X117912854Y-47243805D01*
X117849077Y-47339258D01*
X117849075Y-47339261D01*
X117841410Y-47350731D01*
X117841407Y-47350737D01*
X117792191Y-47469555D01*
X117792189Y-47469561D01*
X117767100Y-47595692D01*
X117767100Y-66470911D01*
X117747415Y-66537950D01*
X117694611Y-66583705D01*
X117625453Y-66593649D01*
X117561897Y-66564624D01*
X117555419Y-66558592D01*
X117553242Y-66556415D01*
X117397165Y-66458345D01*
X117397164Y-66458344D01*
X117397163Y-66458344D01*
X117355396Y-66443729D01*
X117223171Y-66397461D01*
X117040003Y-66376824D01*
X117039997Y-66376824D01*
X116856828Y-66397461D01*
X116682834Y-66458345D01*
X116526757Y-66556415D01*
X116396415Y-66686757D01*
X116298345Y-66842834D01*
X116237461Y-67016828D01*
X116216824Y-67199997D01*
X116216824Y-67200002D01*
X116237461Y-67383171D01*
X116280730Y-67506826D01*
X116295199Y-67548176D01*
X116298345Y-67557165D01*
X116329005Y-67605960D01*
X116396415Y-67713242D01*
X116526758Y-67843585D01*
X116682837Y-67941656D01*
X116815059Y-67987922D01*
X116856828Y-68002538D01*
X117039997Y-68023176D01*
X117040000Y-68023176D01*
X117040003Y-68023176D01*
X117223171Y-68002538D01*
X117234948Y-67998417D01*
X117397163Y-67941656D01*
X117553242Y-67843585D01*
X117683585Y-67713242D01*
X117781656Y-67557163D01*
X117825907Y-67430697D01*
X117866629Y-67373923D01*
X117931581Y-67348175D01*
X118000143Y-67361631D01*
X118030631Y-67383971D01*
X118290782Y-67644122D01*
X118324266Y-67705443D01*
X118327100Y-67731802D01*
X118327100Y-70771296D01*
X118307415Y-70838335D01*
X118254611Y-70884090D01*
X118185453Y-70894034D01*
X118137128Y-70876290D01*
X117997165Y-70788345D01*
X117997164Y-70788344D01*
X117997163Y-70788344D01*
X117948442Y-70771296D01*
X117823171Y-70727461D01*
X117640003Y-70706824D01*
X117639997Y-70706824D01*
X117456828Y-70727461D01*
X117282834Y-70788345D01*
X117126757Y-70886415D01*
X116996415Y-71016757D01*
X116898345Y-71172834D01*
X116837461Y-71346828D01*
X116816824Y-71529997D01*
X116816824Y-71530002D01*
X116837461Y-71713171D01*
X116853849Y-71760004D01*
X116898344Y-71887163D01*
X116996415Y-72043242D01*
X117126758Y-72173585D01*
X117282837Y-72271656D01*
X117415059Y-72317922D01*
X117456828Y-72332538D01*
X117639997Y-72353176D01*
X117640000Y-72353176D01*
X117640003Y-72353176D01*
X117823171Y-72332538D01*
X117823174Y-72332537D01*
X117997163Y-72271656D01*
X118137129Y-72183709D01*
X118204364Y-72164709D01*
X118271199Y-72185076D01*
X118316414Y-72238344D01*
X118327100Y-72288703D01*
X118327100Y-81298197D01*
X118307415Y-81365236D01*
X118290781Y-81385878D01*
X115325878Y-84350781D01*
X115264555Y-84384266D01*
X115238197Y-84387100D01*
X114414141Y-84387100D01*
X114348169Y-84368094D01*
X114237165Y-84298345D01*
X114237164Y-84298344D01*
X114237163Y-84298344D01*
X114195396Y-84283729D01*
X114063171Y-84237461D01*
X114035999Y-84234400D01*
X113971585Y-84207332D01*
X113962203Y-84198861D01*
X113906204Y-84142862D01*
X113897069Y-84136758D01*
X113799264Y-84071408D01*
X113680444Y-84022191D01*
X113680438Y-84022189D01*
X113554307Y-83997100D01*
X113554305Y-83997100D01*
X113544141Y-83997100D01*
X113478169Y-83978094D01*
X113367165Y-83908345D01*
X113367164Y-83908344D01*
X113367163Y-83908344D01*
X113325396Y-83893729D01*
X113193171Y-83847461D01*
X113010003Y-83826824D01*
X113009997Y-83826824D01*
X112826828Y-83847461D01*
X112652834Y-83908345D01*
X112496757Y-84006415D01*
X112366415Y-84136757D01*
X112268345Y-84292834D01*
X112207461Y-84466828D01*
X112186824Y-84649997D01*
X111527308Y-84649997D01*
X111541656Y-84627163D01*
X111602537Y-84453174D01*
X111602537Y-84453173D01*
X111602538Y-84453171D01*
X111623176Y-84270002D01*
X111623176Y-84269997D01*
X111602538Y-84086828D01*
X111574400Y-84006415D01*
X111541656Y-83912837D01*
X111443585Y-83756758D01*
X111313242Y-83626415D01*
X111157165Y-83528345D01*
X111157164Y-83528344D01*
X111157163Y-83528344D01*
X111115396Y-83513729D01*
X110983171Y-83467461D01*
X110800003Y-83446824D01*
X110799997Y-83446824D01*
X110616828Y-83467461D01*
X110442834Y-83528345D01*
X110286757Y-83626415D01*
X110156415Y-83756757D01*
X110058345Y-83912834D01*
X109997461Y-84086828D01*
X109976824Y-84269997D01*
X91712900Y-84269997D01*
X91712900Y-81999995D01*
X93524451Y-81999995D01*
X93524451Y-82000004D01*
X93544616Y-82269101D01*
X93604664Y-82532188D01*
X93604666Y-82532195D01*
X93642192Y-82627810D01*
X93703257Y-82783398D01*
X93838185Y-83017102D01*
X93915127Y-83113584D01*
X94006442Y-83228089D01*
X94076590Y-83293176D01*
X94204259Y-83411635D01*
X94427226Y-83563651D01*
X94670359Y-83680738D01*
X94928228Y-83760280D01*
X94928229Y-83760280D01*
X94928232Y-83760281D01*
X95195063Y-83800499D01*
X95195068Y-83800499D01*
X95195071Y-83800500D01*
X95195072Y-83800500D01*
X95464928Y-83800500D01*
X95464929Y-83800500D01*
X95464936Y-83800499D01*
X95731767Y-83760281D01*
X95731768Y-83760280D01*
X95731772Y-83760280D01*
X95989641Y-83680738D01*
X96232775Y-83563651D01*
X96455741Y-83411635D01*
X96653561Y-83228085D01*
X96821815Y-83017102D01*
X96956743Y-82783398D01*
X97055334Y-82532195D01*
X97115383Y-82269103D01*
X97127093Y-82112837D01*
X97135549Y-82000004D01*
X97135549Y-81999995D01*
X97115383Y-81730898D01*
X97115383Y-81730897D01*
X97055334Y-81467805D01*
X96956743Y-81216602D01*
X96821815Y-80982898D01*
X96653561Y-80771915D01*
X96653560Y-80771914D01*
X96653557Y-80771910D01*
X96455741Y-80588365D01*
X96368975Y-80529209D01*
X96232775Y-80436349D01*
X96232769Y-80436346D01*
X96232768Y-80436345D01*
X96232767Y-80436344D01*
X95989643Y-80319263D01*
X95989645Y-80319263D01*
X95731773Y-80239720D01*
X95731767Y-80239718D01*
X95464936Y-80199500D01*
X95464929Y-80199500D01*
X95195071Y-80199500D01*
X95195063Y-80199500D01*
X94928232Y-80239718D01*
X94928226Y-80239720D01*
X94670358Y-80319262D01*
X94427230Y-80436346D01*
X94204258Y-80588365D01*
X94006442Y-80771910D01*
X93838185Y-80982898D01*
X93703258Y-81216599D01*
X93703256Y-81216603D01*
X93604666Y-81467804D01*
X93604664Y-81467811D01*
X93544616Y-81730898D01*
X93524451Y-81999995D01*
X91712900Y-81999995D01*
X91712900Y-79398135D01*
X110095500Y-79398135D01*
X110095500Y-80761870D01*
X110095501Y-80761876D01*
X110101908Y-80821483D01*
X110152202Y-80956328D01*
X110152206Y-80956335D01*
X110238452Y-81071544D01*
X110238455Y-81071547D01*
X110353664Y-81157793D01*
X110353671Y-81157797D01*
X110488517Y-81208091D01*
X110488516Y-81208091D01*
X110495444Y-81208835D01*
X110548127Y-81214500D01*
X111911872Y-81214499D01*
X111971483Y-81208091D01*
X112106331Y-81157796D01*
X112221546Y-81071546D01*
X112307796Y-80956331D01*
X112358091Y-80821483D01*
X112364500Y-80761873D01*
X112364499Y-80079999D01*
X115171142Y-80079999D01*
X115171142Y-80080000D01*
X115190532Y-80289264D01*
X115248046Y-80491400D01*
X115248053Y-80491418D01*
X115341720Y-80679528D01*
X115341721Y-80679529D01*
X115348258Y-80688186D01*
X115348259Y-80688186D01*
X115930000Y-80106446D01*
X115930000Y-80130028D01*
X115955896Y-80226675D01*
X116005924Y-80313325D01*
X116076675Y-80384076D01*
X116163325Y-80434104D01*
X116259972Y-80460000D01*
X116283553Y-80460000D01*
X115704613Y-81038937D01*
X115802368Y-81099464D01*
X115802369Y-81099465D01*
X115998334Y-81175381D01*
X116204921Y-81214000D01*
X116415079Y-81214000D01*
X116621665Y-81175381D01*
X116817632Y-81099464D01*
X116817633Y-81099463D01*
X116915385Y-81038937D01*
X116336448Y-80460000D01*
X116360028Y-80460000D01*
X116456675Y-80434104D01*
X116543325Y-80384076D01*
X116614076Y-80313325D01*
X116664104Y-80226675D01*
X116690000Y-80130028D01*
X116690000Y-80106447D01*
X117271739Y-80688186D01*
X117278278Y-80679527D01*
X117278282Y-80679521D01*
X117371946Y-80491418D01*
X117371953Y-80491400D01*
X117429467Y-80289264D01*
X117448858Y-80080000D01*
X117448858Y-80079999D01*
X117429467Y-79870735D01*
X117371953Y-79668599D01*
X117371948Y-79668586D01*
X117278275Y-79480466D01*
X117271739Y-79471811D01*
X116690000Y-80053551D01*
X116690000Y-80029972D01*
X116664104Y-79933325D01*
X116614076Y-79846675D01*
X116543325Y-79775924D01*
X116456675Y-79725896D01*
X116360028Y-79700000D01*
X116336448Y-79700000D01*
X116915385Y-79121061D01*
X116915384Y-79121060D01*
X116817636Y-79060537D01*
X116817630Y-79060534D01*
X116621665Y-78984618D01*
X116415079Y-78946000D01*
X116204921Y-78946000D01*
X115998334Y-78984618D01*
X115802368Y-79060535D01*
X115704613Y-79121061D01*
X116283553Y-79700000D01*
X116259972Y-79700000D01*
X116163325Y-79725896D01*
X116076675Y-79775924D01*
X116005924Y-79846675D01*
X115955896Y-79933325D01*
X115930000Y-80029972D01*
X115930000Y-80053552D01*
X115348259Y-79471812D01*
X115348258Y-79471812D01*
X115341724Y-79480466D01*
X115341718Y-79480476D01*
X115248053Y-79668581D01*
X115248046Y-79668599D01*
X115190532Y-79870735D01*
X115171142Y-80079999D01*
X112364499Y-80079999D01*
X112364499Y-79398128D01*
X112358091Y-79338517D01*
X112323893Y-79246828D01*
X112307797Y-79203671D01*
X112307793Y-79203664D01*
X112221547Y-79088455D01*
X112221544Y-79088452D01*
X112106335Y-79002206D01*
X112106328Y-79002202D01*
X111971482Y-78951908D01*
X111971483Y-78951908D01*
X111911883Y-78945501D01*
X111911881Y-78945500D01*
X111911873Y-78945500D01*
X111911864Y-78945500D01*
X110548129Y-78945500D01*
X110548123Y-78945501D01*
X110488516Y-78951908D01*
X110353671Y-79002202D01*
X110353664Y-79002206D01*
X110238455Y-79088452D01*
X110238452Y-79088455D01*
X110152206Y-79203664D01*
X110152202Y-79203671D01*
X110101908Y-79338517D01*
X110095501Y-79398116D01*
X110095501Y-79398123D01*
X110095500Y-79398135D01*
X91712900Y-79398135D01*
X91712900Y-78255692D01*
X91687810Y-78129561D01*
X91687809Y-78129560D01*
X91687809Y-78129556D01*
X91649742Y-78037654D01*
X91638593Y-78010738D01*
X91638592Y-78010736D01*
X91629296Y-77996824D01*
X91567140Y-77903800D01*
X91567138Y-77903797D01*
X88663340Y-74999999D01*
X112630640Y-74999999D01*
X112630640Y-75000000D01*
X112650039Y-75209352D01*
X112650039Y-75209354D01*
X112650040Y-75209357D01*
X112655704Y-75229264D01*
X112707579Y-75411587D01*
X112801293Y-75599790D01*
X112801298Y-75599798D01*
X112928004Y-75767584D01*
X113083381Y-75909228D01*
X113083383Y-75909230D01*
X113158675Y-75955848D01*
X113262144Y-76019913D01*
X113458199Y-76095866D01*
X113664873Y-76134500D01*
X113664875Y-76134500D01*
X113875125Y-76134500D01*
X113875127Y-76134500D01*
X114081801Y-76095866D01*
X114277856Y-76019913D01*
X114456618Y-75909229D01*
X114611997Y-75767582D01*
X114738703Y-75599796D01*
X114832422Y-75411584D01*
X114889960Y-75209357D01*
X114909360Y-75000000D01*
X114889960Y-74790643D01*
X114832422Y-74588416D01*
X114810132Y-74543651D01*
X114738706Y-74400209D01*
X114738701Y-74400201D01*
X114611995Y-74232415D01*
X114456618Y-74090771D01*
X114456616Y-74090769D01*
X114277859Y-73980089D01*
X114277856Y-73980087D01*
X114081801Y-73904134D01*
X113875127Y-73865500D01*
X113664873Y-73865500D01*
X113458199Y-73904134D01*
X113458196Y-73904134D01*
X113458196Y-73904135D01*
X113262143Y-73980087D01*
X113262140Y-73980089D01*
X113083383Y-74090769D01*
X113083381Y-74090771D01*
X112928004Y-74232415D01*
X112801298Y-74400201D01*
X112801293Y-74400209D01*
X112707579Y-74588412D01*
X112650039Y-74790647D01*
X112630640Y-74999999D01*
X88663340Y-74999999D01*
X88349219Y-74685878D01*
X88315734Y-74624555D01*
X88312900Y-74598197D01*
X88312900Y-72229997D01*
X107866824Y-72229997D01*
X107866824Y-72230002D01*
X107887461Y-72413171D01*
X107948345Y-72587165D01*
X108026091Y-72710897D01*
X108046415Y-72743242D01*
X108176758Y-72873585D01*
X108332837Y-72971656D01*
X108465059Y-73017922D01*
X108506828Y-73032538D01*
X108689997Y-73053176D01*
X108690000Y-73053176D01*
X108690003Y-73053176D01*
X108873171Y-73032538D01*
X108873174Y-73032537D01*
X109047163Y-72971656D01*
X109203242Y-72873585D01*
X109333585Y-72743242D01*
X109431656Y-72587163D01*
X109492537Y-72413174D01*
X109492537Y-72413173D01*
X109492538Y-72413171D01*
X109513176Y-72230002D01*
X109513176Y-72229997D01*
X109492538Y-72046828D01*
X109469412Y-71980738D01*
X109431656Y-71872837D01*
X109333585Y-71716758D01*
X109203242Y-71586415D01*
X109174516Y-71568365D01*
X109047165Y-71488345D01*
X109047164Y-71488344D01*
X109047163Y-71488344D01*
X109005396Y-71473729D01*
X108873171Y-71427461D01*
X108690003Y-71406824D01*
X108689997Y-71406824D01*
X108506828Y-71427461D01*
X108332834Y-71488345D01*
X108176757Y-71586415D01*
X108046415Y-71716757D01*
X107948345Y-71872834D01*
X107887461Y-72046828D01*
X107866824Y-72229997D01*
X88312900Y-72229997D01*
X88312900Y-72061898D01*
X88332585Y-71994859D01*
X88383098Y-71950178D01*
X88562775Y-71863651D01*
X88785741Y-71711635D01*
X88981497Y-71530000D01*
X88983557Y-71528089D01*
X88983557Y-71528087D01*
X88983561Y-71528085D01*
X89151815Y-71317102D01*
X89286743Y-71083398D01*
X89385334Y-70832195D01*
X89445383Y-70569103D01*
X89460179Y-70371656D01*
X89465549Y-70300004D01*
X89465549Y-70299995D01*
X93474451Y-70299995D01*
X93474451Y-70300004D01*
X93494616Y-70569101D01*
X93554664Y-70832188D01*
X93554666Y-70832195D01*
X93653256Y-71083396D01*
X93653258Y-71083400D01*
X93659667Y-71094500D01*
X93788185Y-71317102D01*
X93904166Y-71462537D01*
X93956442Y-71528089D01*
X94106062Y-71666915D01*
X94154259Y-71711635D01*
X94377226Y-71863651D01*
X94620359Y-71980738D01*
X94878228Y-72060280D01*
X94878229Y-72060280D01*
X94878232Y-72060281D01*
X95145063Y-72100499D01*
X95145068Y-72100499D01*
X95145071Y-72100500D01*
X95145072Y-72100500D01*
X95414928Y-72100500D01*
X95414929Y-72100500D01*
X95414936Y-72100499D01*
X95681767Y-72060281D01*
X95681768Y-72060280D01*
X95681772Y-72060280D01*
X95939641Y-71980738D01*
X96182775Y-71863651D01*
X96405741Y-71711635D01*
X96601497Y-71530000D01*
X96603557Y-71528089D01*
X96603557Y-71528087D01*
X96603561Y-71528085D01*
X96771815Y-71317102D01*
X96906743Y-71083398D01*
X97005334Y-70832195D01*
X97044637Y-70659997D01*
X108966824Y-70659997D01*
X108966824Y-70660002D01*
X108987461Y-70843171D01*
X109033729Y-70975396D01*
X109048344Y-71017163D01*
X109146415Y-71173242D01*
X109276758Y-71303585D01*
X109432837Y-71401656D01*
X109565059Y-71447922D01*
X109606828Y-71462538D01*
X109789997Y-71483176D01*
X109790000Y-71483176D01*
X109790003Y-71483176D01*
X109973171Y-71462538D01*
X109973174Y-71462537D01*
X110147163Y-71401656D01*
X110303242Y-71303585D01*
X110433585Y-71173242D01*
X110531656Y-71017163D01*
X110592537Y-70843174D01*
X110592537Y-70843173D01*
X110592538Y-70843171D01*
X110613176Y-70660002D01*
X110613176Y-70659997D01*
X110592538Y-70476828D01*
X110577040Y-70432537D01*
X110531656Y-70302837D01*
X110433585Y-70146758D01*
X110303242Y-70016415D01*
X110256688Y-69987163D01*
X110147165Y-69918345D01*
X110147164Y-69918344D01*
X110147163Y-69918344D01*
X110105396Y-69903729D01*
X109973171Y-69857461D01*
X109790003Y-69836824D01*
X109789997Y-69836824D01*
X109606828Y-69857461D01*
X109432834Y-69918345D01*
X109276757Y-70016415D01*
X109146415Y-70146757D01*
X109048345Y-70302834D01*
X108987461Y-70476828D01*
X108966824Y-70659997D01*
X97044637Y-70659997D01*
X97065383Y-70569103D01*
X97080179Y-70371656D01*
X97085549Y-70300004D01*
X97085549Y-70299995D01*
X97065383Y-70030898D01*
X97065383Y-70030897D01*
X97005334Y-69767805D01*
X96906743Y-69516602D01*
X96799007Y-69329997D01*
X103406824Y-69329997D01*
X103406824Y-69330002D01*
X103427461Y-69513171D01*
X103488345Y-69687165D01*
X103567520Y-69813171D01*
X103586415Y-69843242D01*
X103716758Y-69973585D01*
X103872837Y-70071656D01*
X104005059Y-70117922D01*
X104046828Y-70132538D01*
X104229997Y-70153176D01*
X104230000Y-70153176D01*
X104230003Y-70153176D01*
X104413171Y-70132538D01*
X104413174Y-70132537D01*
X104587163Y-70071656D01*
X104743242Y-69973585D01*
X104873585Y-69843242D01*
X104971656Y-69687163D01*
X105032537Y-69513174D01*
X105032537Y-69513173D01*
X105032538Y-69513171D01*
X105053176Y-69330002D01*
X105053176Y-69329997D01*
X105032538Y-69146828D01*
X105006766Y-69073176D01*
X104971656Y-68972837D01*
X104873585Y-68816758D01*
X104806824Y-68749997D01*
X108976824Y-68749997D01*
X108976824Y-68750002D01*
X108997461Y-68933171D01*
X109039230Y-69052537D01*
X109058344Y-69107163D01*
X109156415Y-69263242D01*
X109286758Y-69393585D01*
X109442837Y-69491656D01*
X109575059Y-69537922D01*
X109616828Y-69552538D01*
X109799997Y-69573176D01*
X109800000Y-69573176D01*
X109800003Y-69573176D01*
X109983171Y-69552538D01*
X109983174Y-69552537D01*
X110157163Y-69491656D01*
X110313242Y-69393585D01*
X110443585Y-69263242D01*
X110541656Y-69107163D01*
X110602537Y-68933174D01*
X110602537Y-68933173D01*
X110602538Y-68933171D01*
X110623176Y-68750002D01*
X110623176Y-68749997D01*
X110602538Y-68566828D01*
X110583764Y-68513176D01*
X110541656Y-68392837D01*
X110443585Y-68236758D01*
X110313242Y-68106415D01*
X110157163Y-68008344D01*
X110115396Y-67993729D01*
X109983171Y-67947461D01*
X109800003Y-67926824D01*
X109799997Y-67926824D01*
X109616828Y-67947461D01*
X109442834Y-68008345D01*
X109286757Y-68106415D01*
X109156415Y-68236757D01*
X109058345Y-68392834D01*
X108997461Y-68566828D01*
X108976824Y-68749997D01*
X104806824Y-68749997D01*
X104743242Y-68686415D01*
X104637499Y-68619972D01*
X104587165Y-68588345D01*
X104587164Y-68588344D01*
X104587163Y-68588344D01*
X104543741Y-68573150D01*
X104413171Y-68527461D01*
X104230003Y-68506824D01*
X104229997Y-68506824D01*
X104046828Y-68527461D01*
X103872834Y-68588345D01*
X103716757Y-68686415D01*
X103586415Y-68816757D01*
X103488345Y-68972834D01*
X103427461Y-69146828D01*
X103406824Y-69329997D01*
X96799007Y-69329997D01*
X96771815Y-69282898D01*
X96603561Y-69071915D01*
X96603560Y-69071914D01*
X96603557Y-69071910D01*
X96405741Y-68888365D01*
X96300713Y-68816758D01*
X96182775Y-68736349D01*
X96182769Y-68736346D01*
X96182768Y-68736345D01*
X96182767Y-68736344D01*
X95939643Y-68619263D01*
X95939645Y-68619263D01*
X95681773Y-68539720D01*
X95681767Y-68539718D01*
X95414936Y-68499500D01*
X95414929Y-68499500D01*
X95145071Y-68499500D01*
X95145063Y-68499500D01*
X94878232Y-68539718D01*
X94878226Y-68539720D01*
X94620358Y-68619262D01*
X94377230Y-68736346D01*
X94154258Y-68888365D01*
X93956442Y-69071910D01*
X93788185Y-69282898D01*
X93653258Y-69516599D01*
X93653256Y-69516603D01*
X93554666Y-69767804D01*
X93554664Y-69767811D01*
X93494616Y-70030898D01*
X93474451Y-70299995D01*
X89465549Y-70299995D01*
X89445383Y-70030898D01*
X89445383Y-70030897D01*
X89385334Y-69767805D01*
X89286743Y-69516602D01*
X89151815Y-69282898D01*
X88983561Y-69071915D01*
X88983560Y-69071914D01*
X88983557Y-69071910D01*
X88785741Y-68888365D01*
X88680713Y-68816758D01*
X88562775Y-68736349D01*
X88562769Y-68736346D01*
X88562768Y-68736345D01*
X88562766Y-68736344D01*
X88321116Y-68619972D01*
X88269256Y-68573150D01*
X88250943Y-68505723D01*
X88271991Y-68439099D01*
X88325717Y-68394430D01*
X88361035Y-68385032D01*
X88383170Y-68382538D01*
X88383172Y-68382537D01*
X88383174Y-68382537D01*
X88557163Y-68321656D01*
X88713242Y-68223585D01*
X88843585Y-68093242D01*
X88941656Y-67937163D01*
X89002537Y-67763174D01*
X89002537Y-67763173D01*
X89002538Y-67763171D01*
X89010783Y-67689997D01*
X102076824Y-67689997D01*
X102076824Y-67690002D01*
X102097461Y-67873171D01*
X102130703Y-67968169D01*
X102153787Y-68034141D01*
X102158345Y-68047165D01*
X102211763Y-68132179D01*
X102256415Y-68203242D01*
X102386758Y-68333585D01*
X102542837Y-68431656D01*
X102675059Y-68477922D01*
X102716828Y-68492538D01*
X102899997Y-68513176D01*
X102900000Y-68513176D01*
X102900003Y-68513176D01*
X103083171Y-68492538D01*
X103083174Y-68492537D01*
X103257163Y-68431656D01*
X103413242Y-68333585D01*
X103543585Y-68203242D01*
X103641656Y-68047163D01*
X103702537Y-67873174D01*
X103702537Y-67873173D01*
X103702538Y-67873171D01*
X103723176Y-67690002D01*
X103723176Y-67689997D01*
X103702538Y-67506828D01*
X103664047Y-67396828D01*
X103641656Y-67332837D01*
X103543585Y-67176758D01*
X103413242Y-67046415D01*
X103366155Y-67016828D01*
X103257165Y-66948345D01*
X103257164Y-66948344D01*
X103257163Y-66948344D01*
X103215396Y-66933729D01*
X103083171Y-66887461D01*
X102900003Y-66866824D01*
X102899997Y-66866824D01*
X102716828Y-66887461D01*
X102542834Y-66948345D01*
X102386757Y-67046415D01*
X102256415Y-67176757D01*
X102158345Y-67332834D01*
X102097461Y-67506828D01*
X102076824Y-67689997D01*
X89010783Y-67689997D01*
X89023176Y-67580002D01*
X89023176Y-67579997D01*
X89002538Y-67396828D01*
X88984646Y-67345695D01*
X88941656Y-67222837D01*
X88843585Y-67066758D01*
X88713242Y-66936415D01*
X88557165Y-66838345D01*
X88557164Y-66838344D01*
X88557163Y-66838344D01*
X88509260Y-66821582D01*
X88383171Y-66777461D01*
X88200003Y-66756824D01*
X88199997Y-66756824D01*
X88016828Y-66777461D01*
X87842834Y-66838345D01*
X87686757Y-66936415D01*
X87556415Y-67066757D01*
X87458345Y-67222834D01*
X87397461Y-67396828D01*
X87376824Y-67579997D01*
X87376824Y-67580002D01*
X87397461Y-67763171D01*
X87458345Y-67937165D01*
X87556415Y-68093242D01*
X87686757Y-68223584D01*
X87686763Y-68223589D01*
X87761432Y-68270507D01*
X87807723Y-68322841D01*
X87818371Y-68391895D01*
X87789996Y-68455743D01*
X87731606Y-68494115D01*
X87695460Y-68499500D01*
X87525063Y-68499500D01*
X87258232Y-68539718D01*
X87258226Y-68539720D01*
X87000358Y-68619262D01*
X86757230Y-68736346D01*
X86534258Y-68888365D01*
X86336442Y-69071910D01*
X86168185Y-69282898D01*
X86033258Y-69516599D01*
X86033256Y-69516603D01*
X85934666Y-69767804D01*
X85934664Y-69767811D01*
X85874616Y-70030898D01*
X85854451Y-70299995D01*
X85854451Y-70300004D01*
X85874616Y-70569101D01*
X85934664Y-70832188D01*
X85934666Y-70832195D01*
X86033256Y-71083396D01*
X86033258Y-71083400D01*
X86039667Y-71094500D01*
X86168185Y-71317102D01*
X86284166Y-71462537D01*
X86336442Y-71528089D01*
X86486062Y-71666915D01*
X86534259Y-71711635D01*
X86757226Y-71863651D01*
X86757231Y-71863653D01*
X86757232Y-71863654D01*
X86757233Y-71863655D01*
X86936901Y-71950178D01*
X86988761Y-71997000D01*
X87007100Y-72061898D01*
X87007100Y-74984305D01*
X87007100Y-74984307D01*
X87007099Y-74984307D01*
X87029755Y-75098198D01*
X87029756Y-75098201D01*
X87032190Y-75110443D01*
X87073160Y-75209352D01*
X87081408Y-75229264D01*
X87152859Y-75336200D01*
X87152862Y-75336204D01*
X87349270Y-75532612D01*
X87382755Y-75593935D01*
X87378489Y-75653573D01*
X87414769Y-75644512D01*
X87480949Y-75666918D01*
X87497387Y-75680728D01*
X90370781Y-78554121D01*
X90404266Y-78615444D01*
X90407100Y-78641802D01*
X90407100Y-86013100D01*
X90387415Y-86080139D01*
X90334611Y-86125894D01*
X90283100Y-86137100D01*
X66066914Y-86137100D01*
X66053030Y-86136320D01*
X65880003Y-86116824D01*
X65879997Y-86116824D01*
X65696828Y-86137461D01*
X65522834Y-86198345D01*
X65366757Y-86296415D01*
X65236415Y-86426757D01*
X65138345Y-86582834D01*
X65077461Y-86756828D01*
X65056824Y-86939997D01*
X59710000Y-86939997D01*
X59710000Y-84229997D01*
X81566824Y-84229997D01*
X81566824Y-84230002D01*
X81587461Y-84413171D01*
X81648345Y-84587165D01*
X81673479Y-84627165D01*
X81746415Y-84743242D01*
X81876758Y-84873585D01*
X82032837Y-84971656D01*
X82165059Y-85017922D01*
X82206828Y-85032538D01*
X82389997Y-85053176D01*
X82390000Y-85053176D01*
X82390003Y-85053176D01*
X82573171Y-85032538D01*
X82573174Y-85032537D01*
X82747163Y-84971656D01*
X82903242Y-84873585D01*
X83033585Y-84743242D01*
X83131656Y-84587163D01*
X83192537Y-84413174D01*
X83192537Y-84413173D01*
X83192538Y-84413171D01*
X83213176Y-84230002D01*
X83213176Y-84229997D01*
X83192538Y-84046828D01*
X83168487Y-83978094D01*
X83131656Y-83872837D01*
X83033585Y-83716758D01*
X82903242Y-83586415D01*
X82747163Y-83488344D01*
X82705396Y-83473729D01*
X82573171Y-83427461D01*
X82390003Y-83406824D01*
X82389997Y-83406824D01*
X82206828Y-83427461D01*
X82032834Y-83488345D01*
X81876757Y-83586415D01*
X81746415Y-83716757D01*
X81648345Y-83872834D01*
X81587461Y-84046828D01*
X81566824Y-84229997D01*
X59710000Y-84229997D01*
X59710000Y-82469997D01*
X62146824Y-82469997D01*
X62146824Y-82470002D01*
X62167461Y-82653171D01*
X62213029Y-82783396D01*
X62228344Y-82827163D01*
X62326415Y-82983242D01*
X62456758Y-83113585D01*
X62612837Y-83211656D01*
X62745059Y-83257922D01*
X62786828Y-83272538D01*
X62969997Y-83293176D01*
X62970000Y-83293176D01*
X62970003Y-83293176D01*
X63153171Y-83272538D01*
X63153174Y-83272537D01*
X63327163Y-83211656D01*
X63483242Y-83113585D01*
X63613585Y-82983242D01*
X63711656Y-82827163D01*
X63772537Y-82653174D01*
X63772537Y-82653173D01*
X63772538Y-82653171D01*
X63793176Y-82470002D01*
X63793176Y-82469997D01*
X63772538Y-82286828D01*
X63740664Y-82195738D01*
X63711656Y-82112837D01*
X63613585Y-81956758D01*
X63483242Y-81826415D01*
X63334850Y-81733174D01*
X63327165Y-81728345D01*
X63327164Y-81728344D01*
X63327163Y-81728344D01*
X63285396Y-81713729D01*
X63153171Y-81667461D01*
X62970003Y-81646824D01*
X62969997Y-81646824D01*
X62786828Y-81667461D01*
X62612834Y-81728345D01*
X62456757Y-81826415D01*
X62326415Y-81956757D01*
X62228345Y-82112834D01*
X62167461Y-82286828D01*
X62146824Y-82469997D01*
X59710000Y-82469997D01*
X59710000Y-81509997D01*
X64656824Y-81509997D01*
X64656824Y-81510002D01*
X64677461Y-81693171D01*
X64738345Y-81867165D01*
X64763479Y-81907165D01*
X64836415Y-82023242D01*
X64966758Y-82153585D01*
X65122837Y-82251656D01*
X65255059Y-82297922D01*
X65296828Y-82312538D01*
X65479997Y-82333176D01*
X65480000Y-82333176D01*
X65480003Y-82333176D01*
X65663171Y-82312538D01*
X65663174Y-82312537D01*
X65837163Y-82251656D01*
X65993242Y-82153585D01*
X66123585Y-82023242D01*
X66221656Y-81867163D01*
X66282537Y-81693174D01*
X66282537Y-81693173D01*
X66282538Y-81693171D01*
X66303176Y-81510002D01*
X66303176Y-81509997D01*
X66282538Y-81326828D01*
X66262094Y-81268402D01*
X66221656Y-81152837D01*
X66123585Y-80996758D01*
X65993242Y-80866415D01*
X65900823Y-80808344D01*
X65837165Y-80768345D01*
X65837164Y-80768344D01*
X65837163Y-80768344D01*
X65795396Y-80753729D01*
X65663171Y-80707461D01*
X65480003Y-80686824D01*
X65479997Y-80686824D01*
X65296828Y-80707461D01*
X65122834Y-80768345D01*
X64966757Y-80866415D01*
X64836415Y-80996757D01*
X64738345Y-81152834D01*
X64677461Y-81326828D01*
X64656824Y-81509997D01*
X59710000Y-81509997D01*
X59710000Y-78819997D01*
X72636824Y-78819997D01*
X72636824Y-78820002D01*
X72657461Y-79003171D01*
X72718345Y-79177165D01*
X72734999Y-79203669D01*
X72816415Y-79333242D01*
X72946758Y-79463585D01*
X73102837Y-79561656D01*
X73235059Y-79607922D01*
X73276828Y-79622538D01*
X73459997Y-79643176D01*
X73460000Y-79643176D01*
X73460003Y-79643176D01*
X73643171Y-79622538D01*
X73643174Y-79622537D01*
X73817163Y-79561656D01*
X73973242Y-79463585D01*
X74103585Y-79333242D01*
X74201656Y-79177163D01*
X74262537Y-79003174D01*
X74262537Y-79003173D01*
X74262538Y-79003171D01*
X74283176Y-78820002D01*
X74283176Y-78819997D01*
X74262538Y-78636828D01*
X74233597Y-78554121D01*
X74201656Y-78462837D01*
X74103585Y-78306758D01*
X73973242Y-78176415D01*
X73817165Y-78078345D01*
X73817164Y-78078344D01*
X73817163Y-78078344D01*
X73775396Y-78063729D01*
X73643171Y-78017461D01*
X73460003Y-77996824D01*
X73459997Y-77996824D01*
X73276828Y-78017461D01*
X73102834Y-78078345D01*
X72946757Y-78176415D01*
X72816415Y-78306757D01*
X72718345Y-78462834D01*
X72657461Y-78636828D01*
X72636824Y-78819997D01*
X59710000Y-78819997D01*
X59710000Y-76829997D01*
X72656824Y-76829997D01*
X72656824Y-76830002D01*
X72677461Y-77013171D01*
X72708423Y-77101654D01*
X72738344Y-77187163D01*
X72836415Y-77343242D01*
X72966758Y-77473585D01*
X73122837Y-77571656D01*
X73255059Y-77617922D01*
X73296828Y-77632538D01*
X73479997Y-77653176D01*
X73480000Y-77653176D01*
X73480003Y-77653176D01*
X73663171Y-77632538D01*
X73663174Y-77632537D01*
X73837163Y-77571656D01*
X73993242Y-77473585D01*
X74123585Y-77343242D01*
X74221656Y-77187163D01*
X74282537Y-77013174D01*
X74282537Y-77013173D01*
X74282538Y-77013171D01*
X74303176Y-76830002D01*
X74303176Y-76829997D01*
X74282538Y-76646828D01*
X74267922Y-76605059D01*
X74221656Y-76472837D01*
X74123585Y-76316758D01*
X73993242Y-76186415D01*
X73977981Y-76176826D01*
X73837165Y-76088345D01*
X73837164Y-76088344D01*
X73837163Y-76088344D01*
X73795396Y-76073729D01*
X73663171Y-76027461D01*
X73480003Y-76006824D01*
X73479997Y-76006824D01*
X73296828Y-76027461D01*
X73122834Y-76088345D01*
X72966757Y-76186415D01*
X72836415Y-76316757D01*
X72738345Y-76472834D01*
X72677461Y-76646828D01*
X72656824Y-76829997D01*
X59710000Y-76829997D01*
X59710000Y-75649997D01*
X64306824Y-75649997D01*
X64306824Y-75650002D01*
X64327461Y-75833171D01*
X64354076Y-75909230D01*
X64388225Y-76006824D01*
X64388345Y-76007165D01*
X64444080Y-76095866D01*
X64486415Y-76163242D01*
X64616758Y-76293585D01*
X64772837Y-76391656D01*
X64905059Y-76437922D01*
X64946828Y-76452538D01*
X65129997Y-76473176D01*
X65130000Y-76473176D01*
X65130003Y-76473176D01*
X65313171Y-76452538D01*
X65313174Y-76452537D01*
X65487163Y-76391656D01*
X65643242Y-76293585D01*
X65773585Y-76163242D01*
X65871656Y-76007163D01*
X65932537Y-75833174D01*
X65932537Y-75833173D01*
X65932538Y-75833171D01*
X65953176Y-75650002D01*
X65953176Y-75649997D01*
X65932538Y-75466828D01*
X65913207Y-75411584D01*
X65871656Y-75292837D01*
X65773585Y-75136758D01*
X65643242Y-75006415D01*
X65487163Y-74908344D01*
X65445396Y-74893729D01*
X65313171Y-74847461D01*
X65130003Y-74826824D01*
X65129997Y-74826824D01*
X64946828Y-74847461D01*
X64772834Y-74908345D01*
X64616757Y-75006415D01*
X64486415Y-75136757D01*
X64388345Y-75292834D01*
X64327461Y-75466828D01*
X64306824Y-75649997D01*
X59710000Y-75649997D01*
X59710000Y-69850000D01*
X59709999Y-69849999D01*
X58239994Y-68379994D01*
X64964357Y-68379994D01*
X64964357Y-68380005D01*
X64984890Y-68627812D01*
X64984892Y-68627824D01*
X65045936Y-68868881D01*
X65145826Y-69096606D01*
X65281833Y-69304782D01*
X65281836Y-69304785D01*
X65450256Y-69487738D01*
X65646491Y-69640474D01*
X65865190Y-69758828D01*
X66100386Y-69839571D01*
X66345665Y-69880500D01*
X66594335Y-69880500D01*
X66839614Y-69839571D01*
X67074810Y-69758828D01*
X67293509Y-69640474D01*
X67489744Y-69487738D01*
X67658164Y-69304785D01*
X67794173Y-69096607D01*
X67894063Y-68868881D01*
X67955108Y-68627821D01*
X67955109Y-68627812D01*
X67975643Y-68380005D01*
X67975643Y-68379994D01*
X67955109Y-68132187D01*
X67955107Y-68132175D01*
X67894063Y-67891118D01*
X67794173Y-67663393D01*
X67687422Y-67499997D01*
X72696824Y-67499997D01*
X72696824Y-67500002D01*
X72717461Y-67683171D01*
X72778345Y-67857165D01*
X72848094Y-67968169D01*
X72867100Y-68034141D01*
X72867100Y-72954305D01*
X72873820Y-72988089D01*
X72875663Y-72997351D01*
X72875663Y-72997353D01*
X72892189Y-73080436D01*
X72892191Y-73080444D01*
X72941407Y-73199262D01*
X73012862Y-73306204D01*
X73012863Y-73306205D01*
X80235869Y-80529209D01*
X80269354Y-80590532D01*
X80264370Y-80660224D01*
X80222498Y-80716157D01*
X80162073Y-80740110D01*
X80096828Y-80747462D01*
X79922834Y-80808345D01*
X79766757Y-80906415D01*
X79636415Y-81036757D01*
X79538345Y-81192834D01*
X79477461Y-81366828D01*
X79456824Y-81549997D01*
X79456824Y-81550002D01*
X79477461Y-81733171D01*
X79538345Y-81907165D01*
X79596674Y-81999995D01*
X79636415Y-82063242D01*
X79766758Y-82193585D01*
X79922837Y-82291656D01*
X80041495Y-82333176D01*
X80096828Y-82352538D01*
X80279997Y-82373176D01*
X80280000Y-82373176D01*
X80280003Y-82373176D01*
X80463171Y-82352538D01*
X80463174Y-82352537D01*
X80637163Y-82291656D01*
X80793242Y-82193585D01*
X80923585Y-82063242D01*
X81021656Y-81907163D01*
X81082537Y-81733174D01*
X81082537Y-81733172D01*
X81082538Y-81733170D01*
X81089889Y-81667929D01*
X81116955Y-81603515D01*
X81174550Y-81563959D01*
X81244387Y-81561822D01*
X81300790Y-81594131D01*
X82213798Y-82507139D01*
X82213801Y-82507141D01*
X82320736Y-82578592D01*
X82439556Y-82627809D01*
X82439560Y-82627809D01*
X82439561Y-82627810D01*
X82565692Y-82652900D01*
X82565695Y-82652900D01*
X85947499Y-82652900D01*
X86014538Y-82672585D01*
X86060293Y-82725389D01*
X86062925Y-82731594D01*
X86083257Y-82783398D01*
X86218185Y-83017102D01*
X86295127Y-83113584D01*
X86386442Y-83228089D01*
X86456590Y-83293176D01*
X86584259Y-83411635D01*
X86807226Y-83563651D01*
X87050359Y-83680738D01*
X87308228Y-83760280D01*
X87308229Y-83760280D01*
X87308232Y-83760281D01*
X87575063Y-83800499D01*
X87575068Y-83800499D01*
X87575071Y-83800500D01*
X87575072Y-83800500D01*
X87844928Y-83800500D01*
X87844929Y-83800500D01*
X87844936Y-83800499D01*
X88111767Y-83760281D01*
X88111768Y-83760280D01*
X88111772Y-83760280D01*
X88369641Y-83680738D01*
X88612775Y-83563651D01*
X88835741Y-83411635D01*
X89033561Y-83228085D01*
X89201815Y-83017102D01*
X89336743Y-82783398D01*
X89435334Y-82532195D01*
X89495383Y-82269103D01*
X89507093Y-82112837D01*
X89515549Y-82000004D01*
X89515549Y-81999995D01*
X89495383Y-81730898D01*
X89495383Y-81730897D01*
X89435334Y-81467805D01*
X89336743Y-81216602D01*
X89201815Y-80982898D01*
X89033561Y-80771915D01*
X89033560Y-80771914D01*
X89033557Y-80771910D01*
X88835741Y-80588365D01*
X88748975Y-80529209D01*
X88612775Y-80436349D01*
X88612772Y-80436348D01*
X88612770Y-80436346D01*
X88522137Y-80392700D01*
X88470278Y-80345878D01*
X88451965Y-80278451D01*
X88473013Y-80211827D01*
X88512626Y-80177524D01*
X88511267Y-80175361D01*
X88581954Y-80130945D01*
X88673242Y-80073585D01*
X88803585Y-79943242D01*
X88901656Y-79787163D01*
X88962537Y-79613174D01*
X88962537Y-79613173D01*
X88962538Y-79613171D01*
X88983176Y-79430002D01*
X88983176Y-79429997D01*
X88962538Y-79246828D01*
X88947922Y-79205059D01*
X88901656Y-79072837D01*
X88803585Y-78916758D01*
X88673242Y-78786415D01*
X88517163Y-78688344D01*
X88475396Y-78673729D01*
X88343171Y-78627461D01*
X88160003Y-78606824D01*
X88159997Y-78606824D01*
X87976828Y-78627461D01*
X87802834Y-78688345D01*
X87646757Y-78786415D01*
X87516415Y-78916757D01*
X87418345Y-79072834D01*
X87357461Y-79246828D01*
X87336824Y-79429997D01*
X87336824Y-79430002D01*
X87357461Y-79613171D01*
X87396906Y-79725896D01*
X87414411Y-79775924D01*
X87418345Y-79787165D01*
X87516415Y-79943242D01*
X87573103Y-79999930D01*
X87606588Y-80061253D01*
X87601604Y-80130945D01*
X87559732Y-80186878D01*
X87503903Y-80210226D01*
X87308232Y-80239718D01*
X87308226Y-80239720D01*
X87050358Y-80319262D01*
X86807230Y-80436346D01*
X86584258Y-80588365D01*
X86386442Y-80771910D01*
X86218185Y-80982898D01*
X86083257Y-81216601D01*
X86062927Y-81268402D01*
X86020111Y-81323616D01*
X85954241Y-81346917D01*
X85947499Y-81347100D01*
X82951802Y-81347100D01*
X82884763Y-81327415D01*
X82864121Y-81310781D01*
X81881881Y-80328539D01*
X81881858Y-80328518D01*
X77913338Y-76359997D01*
X85846824Y-76359997D01*
X85846824Y-76360002D01*
X85867461Y-76543171D01*
X85903732Y-76646826D01*
X85928344Y-76717163D01*
X86026415Y-76873242D01*
X86156758Y-77003585D01*
X86312837Y-77101656D01*
X86445059Y-77147922D01*
X86486828Y-77162538D01*
X86669997Y-77183176D01*
X86670000Y-77183176D01*
X86670003Y-77183176D01*
X86853171Y-77162538D01*
X86853174Y-77162537D01*
X87027163Y-77101656D01*
X87183242Y-77003585D01*
X87313585Y-76873242D01*
X87411656Y-76717163D01*
X87472537Y-76543174D01*
X87472537Y-76543173D01*
X87472538Y-76543171D01*
X87493176Y-76360002D01*
X87493176Y-76359997D01*
X87472538Y-76176828D01*
X87441576Y-76088344D01*
X87411656Y-76002837D01*
X87313585Y-75846758D01*
X87313583Y-75846756D01*
X87313582Y-75846754D01*
X87312756Y-75845718D01*
X87312431Y-75844921D01*
X87309880Y-75840862D01*
X87310591Y-75840415D01*
X87286350Y-75781030D01*
X87294928Y-75734841D01*
X87270435Y-75743977D01*
X87202162Y-75729125D01*
X87184275Y-75717239D01*
X87183242Y-75716415D01*
X87027165Y-75618345D01*
X87027164Y-75618344D01*
X87027163Y-75618344D01*
X86974156Y-75599796D01*
X86853171Y-75557461D01*
X86670003Y-75536824D01*
X86669997Y-75536824D01*
X86486828Y-75557461D01*
X86312834Y-75618345D01*
X86156757Y-75716415D01*
X86026415Y-75846757D01*
X85928345Y-76002834D01*
X85867461Y-76176828D01*
X85846824Y-76359997D01*
X77913338Y-76359997D01*
X74343338Y-72789997D01*
X81716824Y-72789997D01*
X81716824Y-72790002D01*
X81737461Y-72973171D01*
X81774995Y-73080436D01*
X81798344Y-73147163D01*
X81896415Y-73303242D01*
X82026758Y-73433585D01*
X82182837Y-73531656D01*
X82315059Y-73577922D01*
X82356828Y-73592538D01*
X82539997Y-73613176D01*
X82540000Y-73613176D01*
X82540003Y-73613176D01*
X82723171Y-73592538D01*
X82723174Y-73592537D01*
X82897163Y-73531656D01*
X83053242Y-73433585D01*
X83183585Y-73303242D01*
X83281656Y-73147163D01*
X83342537Y-72973174D01*
X83342537Y-72973173D01*
X83342538Y-72973171D01*
X83363176Y-72790002D01*
X83363176Y-72789997D01*
X83342538Y-72606828D01*
X83286893Y-72447805D01*
X83281656Y-72432837D01*
X83183585Y-72276758D01*
X83053242Y-72146415D01*
X82897165Y-72048345D01*
X82897164Y-72048344D01*
X82897163Y-72048344D01*
X82842175Y-72029103D01*
X82723171Y-71987461D01*
X82540003Y-71966824D01*
X82539997Y-71966824D01*
X82356828Y-71987461D01*
X82182834Y-72048345D01*
X82026757Y-72146415D01*
X81896415Y-72276757D01*
X81798345Y-72432834D01*
X81737461Y-72606828D01*
X81716824Y-72789997D01*
X74343338Y-72789997D01*
X74209219Y-72655878D01*
X74175734Y-72594555D01*
X74172900Y-72568197D01*
X74172900Y-69629997D01*
X79776824Y-69629997D01*
X79776824Y-69630002D01*
X79797461Y-69813171D01*
X79858345Y-69987165D01*
X79916214Y-70079262D01*
X79956415Y-70143242D01*
X80086758Y-70273585D01*
X80242837Y-70371656D01*
X80375059Y-70417922D01*
X80416828Y-70432538D01*
X80599997Y-70453176D01*
X80600000Y-70453176D01*
X80600003Y-70453176D01*
X80783171Y-70432538D01*
X80783174Y-70432537D01*
X80957163Y-70371656D01*
X81113242Y-70273585D01*
X81243585Y-70143242D01*
X81341656Y-69987163D01*
X81402537Y-69813174D01*
X81402537Y-69813173D01*
X81402538Y-69813171D01*
X81423176Y-69630002D01*
X81423176Y-69629997D01*
X81402538Y-69446828D01*
X81383907Y-69393584D01*
X81341656Y-69272837D01*
X81243585Y-69116758D01*
X81113242Y-68986415D01*
X81091628Y-68972834D01*
X80957165Y-68888345D01*
X80957164Y-68888344D01*
X80957163Y-68888344D01*
X80901541Y-68868881D01*
X80783171Y-68827461D01*
X80600003Y-68806824D01*
X80599997Y-68806824D01*
X80416828Y-68827461D01*
X80242834Y-68888345D01*
X80086757Y-68986415D01*
X79956415Y-69116757D01*
X79858345Y-69272834D01*
X79797461Y-69446828D01*
X79776824Y-69629997D01*
X74172900Y-69629997D01*
X74172900Y-68034141D01*
X74191906Y-67968169D01*
X74261656Y-67857163D01*
X74322537Y-67683174D01*
X74322537Y-67683173D01*
X74322538Y-67683171D01*
X74343176Y-67500002D01*
X74343176Y-67499997D01*
X74322538Y-67316828D01*
X74289648Y-67222834D01*
X74261656Y-67142837D01*
X74163585Y-66986758D01*
X74033242Y-66856415D01*
X73877163Y-66758344D01*
X73835396Y-66743729D01*
X73703171Y-66697461D01*
X73520003Y-66676824D01*
X73519997Y-66676824D01*
X73336828Y-66697461D01*
X73162834Y-66758345D01*
X73006757Y-66856415D01*
X72876415Y-66986757D01*
X72778345Y-67142834D01*
X72717461Y-67316828D01*
X72696824Y-67499997D01*
X67687422Y-67499997D01*
X67658166Y-67455217D01*
X67592579Y-67383971D01*
X67489744Y-67272262D01*
X67293509Y-67119526D01*
X67293507Y-67119525D01*
X67293506Y-67119524D01*
X67074811Y-67001172D01*
X67074802Y-67001169D01*
X66839616Y-66920429D01*
X66594335Y-66879500D01*
X66345665Y-66879500D01*
X66100383Y-66920429D01*
X65865197Y-67001169D01*
X65865188Y-67001172D01*
X65646493Y-67119524D01*
X65450257Y-67272261D01*
X65281833Y-67455217D01*
X65145826Y-67663393D01*
X65045936Y-67891118D01*
X64984892Y-68132175D01*
X64984890Y-68132187D01*
X64964357Y-68379994D01*
X58239994Y-68379994D01*
X55579999Y-65719998D01*
X107394645Y-65719998D01*
X107394645Y-65720001D01*
X107414039Y-65991160D01*
X107414040Y-65991167D01*
X107471823Y-66256793D01*
X107471825Y-66256801D01*
X107546997Y-66458344D01*
X107566830Y-66511519D01*
X107697109Y-66750107D01*
X107697110Y-66750108D01*
X107697113Y-66750113D01*
X107860029Y-66967742D01*
X107860033Y-66967746D01*
X107860038Y-66967752D01*
X108052247Y-67159961D01*
X108052253Y-67159966D01*
X108052258Y-67159971D01*
X108269887Y-67322887D01*
X108269891Y-67322889D01*
X108269892Y-67322890D01*
X108508481Y-67453169D01*
X108508480Y-67453169D01*
X108508484Y-67453170D01*
X108508487Y-67453172D01*
X108763199Y-67548175D01*
X109028840Y-67605961D01*
X109280605Y-67623967D01*
X109299999Y-67625355D01*
X109300000Y-67625355D01*
X109300001Y-67625355D01*
X109318100Y-67624060D01*
X109571160Y-67605961D01*
X109836801Y-67548175D01*
X110091513Y-67453172D01*
X110091517Y-67453169D01*
X110091519Y-67453169D01*
X110288343Y-67345695D01*
X110330113Y-67322887D01*
X110547742Y-67159971D01*
X110739971Y-66967742D01*
X110902887Y-66750113D01*
X111008654Y-66556415D01*
X111033169Y-66511519D01*
X111033169Y-66511517D01*
X111033172Y-66511513D01*
X111128175Y-66256801D01*
X111185961Y-65991160D01*
X111205355Y-65720000D01*
X111185961Y-65448840D01*
X111128175Y-65183199D01*
X111033172Y-64928487D01*
X111033170Y-64928484D01*
X111033169Y-64928480D01*
X110902890Y-64689892D01*
X110902889Y-64689891D01*
X110902887Y-64689887D01*
X110739971Y-64472258D01*
X110739966Y-64472253D01*
X110739961Y-64472247D01*
X110547752Y-64280038D01*
X110547746Y-64280033D01*
X110547742Y-64280029D01*
X110330113Y-64117113D01*
X110330108Y-64117110D01*
X110330107Y-64117109D01*
X110091518Y-63986830D01*
X110091519Y-63986830D01*
X110026389Y-63962538D01*
X109836801Y-63891825D01*
X109836794Y-63891823D01*
X109836793Y-63891823D01*
X109571167Y-63834040D01*
X109571160Y-63834039D01*
X109300001Y-63814645D01*
X109299999Y-63814645D01*
X109028839Y-63834039D01*
X109028832Y-63834040D01*
X108763206Y-63891823D01*
X108763202Y-63891824D01*
X108763199Y-63891825D01*
X108635843Y-63939326D01*
X108508480Y-63986830D01*
X108269892Y-64117109D01*
X108269891Y-64117110D01*
X108052259Y-64280028D01*
X108052247Y-64280038D01*
X107860038Y-64472247D01*
X107860028Y-64472259D01*
X107697110Y-64689891D01*
X107697109Y-64689892D01*
X107566830Y-64928480D01*
X107533753Y-65017163D01*
X107471825Y-65183199D01*
X107471824Y-65183202D01*
X107471823Y-65183206D01*
X107414040Y-65448832D01*
X107414039Y-65448839D01*
X107394645Y-65719998D01*
X55579999Y-65719998D01*
X54519998Y-64659997D01*
X86056824Y-64659997D01*
X86056824Y-64660002D01*
X86077461Y-64843171D01*
X86107315Y-64928487D01*
X86138344Y-65017163D01*
X86236415Y-65173242D01*
X86366758Y-65303585D01*
X86522837Y-65401656D01*
X86655059Y-65447922D01*
X86696828Y-65462538D01*
X86879997Y-65483176D01*
X86880000Y-65483176D01*
X86880003Y-65483176D01*
X87063171Y-65462538D01*
X87063174Y-65462537D01*
X87237163Y-65401656D01*
X87393242Y-65303585D01*
X87523585Y-65173242D01*
X87621656Y-65017163D01*
X87682537Y-64843174D01*
X87682537Y-64843173D01*
X87682538Y-64843171D01*
X87703176Y-64660002D01*
X87703176Y-64659997D01*
X87682538Y-64476828D01*
X87649765Y-64383169D01*
X87621656Y-64302837D01*
X87523585Y-64146758D01*
X87393242Y-64016415D01*
X87346155Y-63986828D01*
X87237165Y-63918345D01*
X87237164Y-63918344D01*
X87237163Y-63918344D01*
X87189471Y-63901656D01*
X87063171Y-63857461D01*
X86880003Y-63836824D01*
X86879997Y-63836824D01*
X86696828Y-63857461D01*
X86522834Y-63918345D01*
X86366757Y-64016415D01*
X86236415Y-64146757D01*
X86138345Y-64302834D01*
X86077461Y-64476828D01*
X86056824Y-64659997D01*
X54519998Y-64659997D01*
X52509999Y-62649998D01*
X102244645Y-62649998D01*
X102244645Y-62650001D01*
X102264039Y-62921160D01*
X102264040Y-62921167D01*
X102305898Y-63113585D01*
X102321825Y-63186801D01*
X102397250Y-63389023D01*
X102416830Y-63441519D01*
X102547109Y-63680107D01*
X102547110Y-63680108D01*
X102547113Y-63680113D01*
X102710029Y-63897742D01*
X102710033Y-63897746D01*
X102710038Y-63897752D01*
X102902247Y-64089961D01*
X102902253Y-64089966D01*
X102902258Y-64089971D01*
X103119887Y-64252887D01*
X103119891Y-64252889D01*
X103119892Y-64252890D01*
X103358481Y-64383169D01*
X103358480Y-64383169D01*
X103358484Y-64383170D01*
X103358487Y-64383172D01*
X103613199Y-64478175D01*
X103878840Y-64535961D01*
X104130605Y-64553967D01*
X104149999Y-64555355D01*
X104150000Y-64555355D01*
X104150001Y-64555355D01*
X104168100Y-64554060D01*
X104421160Y-64535961D01*
X104686801Y-64478175D01*
X104941513Y-64383172D01*
X104941517Y-64383169D01*
X104941519Y-64383169D01*
X105088636Y-64302837D01*
X105180113Y-64252887D01*
X105397742Y-64089971D01*
X105589971Y-63897742D01*
X105752887Y-63680113D01*
X105883172Y-63441513D01*
X105896746Y-63405118D01*
X105938616Y-63349185D01*
X106004081Y-63324767D01*
X106072354Y-63339618D01*
X106121760Y-63389023D01*
X106129969Y-63407496D01*
X106168342Y-63517159D01*
X106168343Y-63517163D01*
X106266415Y-63673242D01*
X106396758Y-63803585D01*
X106552837Y-63901656D01*
X106685059Y-63947922D01*
X106726828Y-63962538D01*
X106909997Y-63983176D01*
X106910000Y-63983176D01*
X106910003Y-63983176D01*
X107093171Y-63962538D01*
X107093174Y-63962537D01*
X107267163Y-63901656D01*
X107423242Y-63803585D01*
X107553585Y-63673242D01*
X107651656Y-63517163D01*
X107712537Y-63343174D01*
X107712537Y-63343173D01*
X107712538Y-63343171D01*
X107733176Y-63160002D01*
X107733176Y-63159997D01*
X107712538Y-62976828D01*
X107693059Y-62921160D01*
X107651656Y-62802837D01*
X107553585Y-62646758D01*
X107423242Y-62516415D01*
X107267163Y-62418344D01*
X107225396Y-62403729D01*
X107093171Y-62357461D01*
X106910003Y-62336824D01*
X106909997Y-62336824D01*
X106726828Y-62357461D01*
X106552834Y-62418345D01*
X106396757Y-62516415D01*
X106261491Y-62651682D01*
X106259340Y-62649531D01*
X106213035Y-62681876D01*
X106143217Y-62684567D01*
X106083028Y-62649085D01*
X106051577Y-62586694D01*
X106049861Y-62573189D01*
X106035961Y-62378840D01*
X105978175Y-62113199D01*
X105883172Y-61858487D01*
X105883170Y-61858484D01*
X105883169Y-61858480D01*
X105752890Y-61619892D01*
X105752889Y-61619891D01*
X105752887Y-61619887D01*
X105730511Y-61589997D01*
X108966824Y-61589997D01*
X108966824Y-61590002D01*
X108987461Y-61773171D01*
X109017315Y-61858487D01*
X109048344Y-61947163D01*
X109146415Y-62103242D01*
X109276758Y-62233585D01*
X109432837Y-62331656D01*
X109565059Y-62377922D01*
X109606828Y-62392538D01*
X109789997Y-62413176D01*
X109790000Y-62413176D01*
X109790003Y-62413176D01*
X109973171Y-62392538D01*
X109973174Y-62392537D01*
X110147163Y-62331656D01*
X110303242Y-62233585D01*
X110433585Y-62103242D01*
X110531656Y-61947163D01*
X110592537Y-61773174D01*
X110592537Y-61773173D01*
X110592538Y-61773171D01*
X110613176Y-61590002D01*
X110613176Y-61589997D01*
X110592538Y-61406828D01*
X110555157Y-61300000D01*
X110531656Y-61232837D01*
X110433585Y-61076758D01*
X110303242Y-60946415D01*
X110147163Y-60848344D01*
X110071376Y-60821825D01*
X109973171Y-60787461D01*
X109790003Y-60766824D01*
X109789997Y-60766824D01*
X109606828Y-60787461D01*
X109432834Y-60848345D01*
X109276757Y-60946415D01*
X109146415Y-61076757D01*
X109048345Y-61232834D01*
X108987461Y-61406828D01*
X108966824Y-61589997D01*
X105730511Y-61589997D01*
X105589971Y-61402258D01*
X105589966Y-61402253D01*
X105589961Y-61402247D01*
X105397752Y-61210038D01*
X105397746Y-61210033D01*
X105397742Y-61210029D01*
X105180113Y-61047113D01*
X105180108Y-61047110D01*
X105180107Y-61047109D01*
X104941518Y-60916830D01*
X104941519Y-60916830D01*
X104891920Y-60898330D01*
X104686801Y-60821825D01*
X104686794Y-60821823D01*
X104686793Y-60821823D01*
X104421167Y-60764040D01*
X104421160Y-60764039D01*
X104150001Y-60744645D01*
X104149999Y-60744645D01*
X103878839Y-60764039D01*
X103878832Y-60764040D01*
X103613206Y-60821823D01*
X103613202Y-60821824D01*
X103613199Y-60821825D01*
X103485843Y-60869326D01*
X103358480Y-60916830D01*
X103119892Y-61047109D01*
X103119891Y-61047110D01*
X102902259Y-61210028D01*
X102902247Y-61210038D01*
X102710038Y-61402247D01*
X102710028Y-61402259D01*
X102547110Y-61619891D01*
X102547109Y-61619892D01*
X102416830Y-61858480D01*
X102383753Y-61947163D01*
X102321825Y-62113199D01*
X102321824Y-62113202D01*
X102321823Y-62113206D01*
X102264040Y-62378832D01*
X102264039Y-62378839D01*
X102244645Y-62649998D01*
X52509999Y-62649998D01*
X52280000Y-62419999D01*
X52280000Y-57279997D01*
X100906824Y-57279997D01*
X100906824Y-57280002D01*
X100927461Y-57463171D01*
X100973729Y-57595396D01*
X100988344Y-57637163D01*
X101086415Y-57793242D01*
X101216758Y-57923585D01*
X101372837Y-58021656D01*
X101505059Y-58067922D01*
X101546828Y-58082538D01*
X101729997Y-58103176D01*
X101730000Y-58103176D01*
X101730003Y-58103176D01*
X101913171Y-58082538D01*
X101913174Y-58082537D01*
X102087163Y-58021656D01*
X102243242Y-57923585D01*
X102373585Y-57793242D01*
X102471656Y-57637163D01*
X102532537Y-57463174D01*
X102532537Y-57463173D01*
X102532538Y-57463171D01*
X102553176Y-57280002D01*
X102553176Y-57279997D01*
X102532538Y-57096828D01*
X102517922Y-57055059D01*
X102471656Y-56922837D01*
X102373585Y-56766758D01*
X102243242Y-56636415D01*
X102087163Y-56538344D01*
X102045396Y-56523729D01*
X101913171Y-56477461D01*
X101730003Y-56456824D01*
X101729997Y-56456824D01*
X101546828Y-56477461D01*
X101372834Y-56538345D01*
X101216757Y-56636415D01*
X101086415Y-56766757D01*
X100988345Y-56922834D01*
X100927461Y-57096828D01*
X100906824Y-57279997D01*
X52280000Y-57279997D01*
X52280000Y-56880000D01*
X47710000Y-56880000D01*
X47710000Y-55259997D01*
X104106824Y-55259997D01*
X104106824Y-55260002D01*
X104127461Y-55443171D01*
X104168914Y-55561634D01*
X104188344Y-55617163D01*
X104286415Y-55773242D01*
X104416758Y-55903585D01*
X104572837Y-56001656D01*
X104705059Y-56047922D01*
X104746828Y-56062538D01*
X104929997Y-56083176D01*
X104930000Y-56083176D01*
X104930003Y-56083176D01*
X105113171Y-56062538D01*
X105113174Y-56062537D01*
X105287163Y-56001656D01*
X105443242Y-55903585D01*
X105573585Y-55773242D01*
X105671656Y-55617163D01*
X105732537Y-55443174D01*
X105732537Y-55443173D01*
X105732538Y-55443171D01*
X105753176Y-55260002D01*
X105753176Y-55259997D01*
X105732538Y-55076828D01*
X105682350Y-54933400D01*
X105671656Y-54902837D01*
X105573585Y-54746758D01*
X105443242Y-54616415D01*
X105367489Y-54568816D01*
X105287165Y-54518345D01*
X105287164Y-54518344D01*
X105287163Y-54518344D01*
X105245396Y-54503729D01*
X105113171Y-54457461D01*
X104930003Y-54436824D01*
X104929997Y-54436824D01*
X104746828Y-54457461D01*
X104572834Y-54518345D01*
X104416757Y-54616415D01*
X104286415Y-54746757D01*
X104188345Y-54902834D01*
X104127461Y-55076828D01*
X104106824Y-55259997D01*
X47710000Y-55259997D01*
X47710000Y-53119997D01*
X78396824Y-53119997D01*
X78396824Y-53120002D01*
X78417461Y-53303171D01*
X78463729Y-53435396D01*
X78478344Y-53477163D01*
X78576415Y-53633242D01*
X78706758Y-53763585D01*
X78862837Y-53861656D01*
X78981495Y-53903176D01*
X79036828Y-53922538D01*
X79219997Y-53943176D01*
X79220000Y-53943176D01*
X79220003Y-53943176D01*
X79403171Y-53922538D01*
X79403174Y-53922537D01*
X79577163Y-53861656D01*
X79733242Y-53763585D01*
X79863585Y-53633242D01*
X79961656Y-53477163D01*
X80022537Y-53303174D01*
X80022537Y-53303173D01*
X80022538Y-53303171D01*
X80043176Y-53120002D01*
X80043176Y-53119997D01*
X80038669Y-53079997D01*
X82616824Y-53079997D01*
X82616824Y-53080002D01*
X82637461Y-53263171D01*
X82698345Y-53437165D01*
X82723479Y-53477165D01*
X82796415Y-53593242D01*
X82926758Y-53723585D01*
X83082837Y-53821656D01*
X83215059Y-53867922D01*
X83256828Y-53882538D01*
X83439997Y-53903176D01*
X83440000Y-53903176D01*
X83440003Y-53903176D01*
X83623171Y-53882538D01*
X83627861Y-53880897D01*
X83797163Y-53821656D01*
X83953242Y-53723585D01*
X84083585Y-53593242D01*
X84181656Y-53437163D01*
X84242537Y-53263174D01*
X84242537Y-53263173D01*
X84242538Y-53263171D01*
X84263176Y-53080002D01*
X84263176Y-53079997D01*
X84250782Y-52969994D01*
X94244357Y-52969994D01*
X94244357Y-52970005D01*
X94264890Y-53217812D01*
X94264892Y-53217824D01*
X94325936Y-53458881D01*
X94425826Y-53686606D01*
X94561833Y-53894782D01*
X94587384Y-53922538D01*
X94730256Y-54077738D01*
X94926491Y-54230474D01*
X95145190Y-54348828D01*
X95380386Y-54429571D01*
X95625665Y-54470500D01*
X95874335Y-54470500D01*
X96119614Y-54429571D01*
X96354810Y-54348828D01*
X96573509Y-54230474D01*
X96676908Y-54149995D01*
X111634451Y-54149995D01*
X111634451Y-54150004D01*
X111654616Y-54419101D01*
X111714664Y-54682188D01*
X111714666Y-54682195D01*
X111801262Y-54902837D01*
X111813257Y-54933398D01*
X111948185Y-55167102D01*
X112022267Y-55259997D01*
X112116442Y-55378089D01*
X112303183Y-55551358D01*
X112314259Y-55561635D01*
X112537226Y-55713651D01*
X112780359Y-55830738D01*
X113038228Y-55910280D01*
X113038229Y-55910280D01*
X113038232Y-55910281D01*
X113305063Y-55950499D01*
X113305068Y-55950499D01*
X113305071Y-55950500D01*
X113305072Y-55950500D01*
X113574928Y-55950500D01*
X113574929Y-55950500D01*
X113574936Y-55950499D01*
X113841767Y-55910281D01*
X113841768Y-55910280D01*
X113841772Y-55910280D01*
X114099641Y-55830738D01*
X114342775Y-55713651D01*
X114565741Y-55561635D01*
X114763561Y-55378085D01*
X114931815Y-55167102D01*
X115066743Y-54933398D01*
X115165334Y-54682195D01*
X115225383Y-54419103D01*
X115232105Y-54329402D01*
X115245549Y-54150004D01*
X115245549Y-54149995D01*
X115226424Y-53894785D01*
X115225383Y-53880897D01*
X115165334Y-53617805D01*
X115066743Y-53366602D01*
X114931815Y-53132898D01*
X114763561Y-52921915D01*
X114763560Y-52921914D01*
X114763557Y-52921910D01*
X114565741Y-52738365D01*
X114542012Y-52722187D01*
X114342775Y-52586349D01*
X114342769Y-52586346D01*
X114342768Y-52586345D01*
X114342767Y-52586344D01*
X114099643Y-52469263D01*
X114099645Y-52469263D01*
X113841773Y-52389720D01*
X113841767Y-52389718D01*
X113574936Y-52349500D01*
X113574929Y-52349500D01*
X113305071Y-52349500D01*
X113305063Y-52349500D01*
X113038232Y-52389718D01*
X113038226Y-52389720D01*
X112780358Y-52469262D01*
X112537230Y-52586346D01*
X112314258Y-52738365D01*
X112116442Y-52921910D01*
X111948185Y-53132898D01*
X111813258Y-53366599D01*
X111813256Y-53366603D01*
X111714666Y-53617804D01*
X111714664Y-53617811D01*
X111654616Y-53880898D01*
X111634451Y-54149995D01*
X96676908Y-54149995D01*
X96769744Y-54077738D01*
X96938164Y-53894785D01*
X97074173Y-53686607D01*
X97174063Y-53458881D01*
X97235108Y-53217821D01*
X97246528Y-53080000D01*
X97255643Y-52970005D01*
X97255643Y-52969994D01*
X97235109Y-52722187D01*
X97235107Y-52722175D01*
X97174063Y-52481118D01*
X97074173Y-52253393D01*
X96938166Y-52045217D01*
X96916557Y-52021744D01*
X96769744Y-51862262D01*
X96573509Y-51709526D01*
X96573507Y-51709525D01*
X96573506Y-51709524D01*
X96354811Y-51591172D01*
X96354802Y-51591169D01*
X96119616Y-51510429D01*
X95874335Y-51469500D01*
X95625665Y-51469500D01*
X95380383Y-51510429D01*
X95145197Y-51591169D01*
X95145188Y-51591172D01*
X94926493Y-51709524D01*
X94730257Y-51862261D01*
X94561833Y-52045217D01*
X94425826Y-52253393D01*
X94325936Y-52481118D01*
X94264892Y-52722175D01*
X94264890Y-52722187D01*
X94244357Y-52969994D01*
X84250782Y-52969994D01*
X84242538Y-52896828D01*
X84227922Y-52855059D01*
X84181656Y-52722837D01*
X84083585Y-52566758D01*
X83953242Y-52436415D01*
X83797165Y-52338345D01*
X83797164Y-52338344D01*
X83797163Y-52338344D01*
X83755396Y-52323729D01*
X83623171Y-52277461D01*
X83440003Y-52256824D01*
X83439997Y-52256824D01*
X83256828Y-52277461D01*
X83082834Y-52338345D01*
X82926757Y-52436415D01*
X82796415Y-52566757D01*
X82698345Y-52722834D01*
X82637461Y-52896828D01*
X82616824Y-53079997D01*
X80038669Y-53079997D01*
X80022538Y-52936828D01*
X79967251Y-52778828D01*
X79961656Y-52762837D01*
X79863585Y-52606758D01*
X79733242Y-52476415D01*
X79721858Y-52469262D01*
X79577165Y-52378345D01*
X79577164Y-52378344D01*
X79577163Y-52378344D01*
X79535396Y-52363729D01*
X79403171Y-52317461D01*
X79220003Y-52296824D01*
X79219997Y-52296824D01*
X79036828Y-52317461D01*
X78862834Y-52378345D01*
X78706757Y-52476415D01*
X78576415Y-52606757D01*
X78478345Y-52762834D01*
X78417461Y-52936828D01*
X78396824Y-53119997D01*
X47710000Y-53119997D01*
X47710000Y-50319997D01*
X107526824Y-50319997D01*
X107526824Y-50320002D01*
X107547461Y-50503171D01*
X107608345Y-50677165D01*
X107623157Y-50700738D01*
X107706415Y-50833242D01*
X107836758Y-50963585D01*
X107992837Y-51061656D01*
X108125059Y-51107922D01*
X108166828Y-51122538D01*
X108349997Y-51143176D01*
X108350000Y-51143176D01*
X108350003Y-51143176D01*
X108533171Y-51122538D01*
X108559926Y-51113176D01*
X108707163Y-51061656D01*
X108863242Y-50963585D01*
X108863257Y-50963570D01*
X108863266Y-50963564D01*
X108868685Y-50959244D01*
X108869441Y-50960192D01*
X108924574Y-50930080D01*
X108994266Y-50935058D01*
X109016911Y-50946248D01*
X109152834Y-51031654D01*
X109152832Y-51031654D01*
X109152836Y-51031655D01*
X109152837Y-51031656D01*
X109231971Y-51059346D01*
X109326828Y-51092538D01*
X109509997Y-51113176D01*
X109510000Y-51113176D01*
X109510003Y-51113176D01*
X109693171Y-51092538D01*
X109693174Y-51092537D01*
X109867163Y-51031656D01*
X110023242Y-50933585D01*
X110153585Y-50803242D01*
X110251656Y-50647163D01*
X110312537Y-50473174D01*
X110312537Y-50473173D01*
X110312538Y-50473171D01*
X110333176Y-50290002D01*
X110333176Y-50289997D01*
X110312538Y-50106828D01*
X110297922Y-50065059D01*
X110251656Y-49932837D01*
X110153585Y-49776758D01*
X110023242Y-49646415D01*
X109867165Y-49548345D01*
X109867164Y-49548344D01*
X109867163Y-49548344D01*
X109825396Y-49533729D01*
X109693171Y-49487461D01*
X109510003Y-49466824D01*
X109509997Y-49466824D01*
X109326828Y-49487461D01*
X109152834Y-49548345D01*
X108996757Y-49646415D01*
X108996752Y-49646419D01*
X108996727Y-49646445D01*
X108996706Y-49646456D01*
X108991315Y-49650756D01*
X108990561Y-49649810D01*
X108935401Y-49679924D01*
X108865710Y-49674932D01*
X108843084Y-49663749D01*
X108707165Y-49578345D01*
X108707167Y-49578345D01*
X108533171Y-49517461D01*
X108350003Y-49496824D01*
X108349997Y-49496824D01*
X108166828Y-49517461D01*
X107992834Y-49578345D01*
X107836757Y-49676415D01*
X107706415Y-49806757D01*
X107608345Y-49962834D01*
X107547461Y-50136828D01*
X107526824Y-50319997D01*
X47710000Y-50319997D01*
X47710000Y-49019995D01*
X110924451Y-49019995D01*
X110924451Y-49020004D01*
X110944616Y-49289101D01*
X111003787Y-49548344D01*
X111004666Y-49552195D01*
X111103257Y-49803398D01*
X111238185Y-50037102D01*
X111293790Y-50106828D01*
X111406442Y-50248089D01*
X111593183Y-50421358D01*
X111604259Y-50431635D01*
X111827226Y-50583651D01*
X112070359Y-50700738D01*
X112328228Y-50780280D01*
X112328229Y-50780280D01*
X112328232Y-50780281D01*
X112595063Y-50820499D01*
X112595068Y-50820499D01*
X112595071Y-50820500D01*
X112595072Y-50820500D01*
X112864928Y-50820500D01*
X112864929Y-50820500D01*
X112864936Y-50820499D01*
X113131767Y-50780281D01*
X113131768Y-50780280D01*
X113131772Y-50780280D01*
X113389641Y-50700738D01*
X113632775Y-50583651D01*
X113855741Y-50431635D01*
X114053561Y-50248085D01*
X114221815Y-50037102D01*
X114356743Y-49803398D01*
X114455334Y-49552195D01*
X114515383Y-49289103D01*
X114535549Y-49020000D01*
X114515383Y-48750897D01*
X114455334Y-48487805D01*
X114356743Y-48236602D01*
X114221815Y-48002898D01*
X114053561Y-47791915D01*
X114053560Y-47791914D01*
X114053557Y-47791910D01*
X113855741Y-47608365D01*
X113632775Y-47456349D01*
X113632769Y-47456346D01*
X113632768Y-47456345D01*
X113632767Y-47456344D01*
X113389643Y-47339263D01*
X113389645Y-47339263D01*
X113131773Y-47259720D01*
X113131767Y-47259718D01*
X112864936Y-47219500D01*
X112864929Y-47219500D01*
X112595071Y-47219500D01*
X112595063Y-47219500D01*
X112328232Y-47259718D01*
X112328226Y-47259720D01*
X112070358Y-47339262D01*
X111827230Y-47456346D01*
X111604258Y-47608365D01*
X111406442Y-47791910D01*
X111238185Y-48002898D01*
X111103258Y-48236599D01*
X111103256Y-48236603D01*
X111004666Y-48487804D01*
X111004664Y-48487811D01*
X110944616Y-48750898D01*
X110924451Y-49019995D01*
X47710000Y-49019995D01*
X47710000Y-47539997D01*
X99356824Y-47539997D01*
X99356824Y-47540002D01*
X99377461Y-47723171D01*
X99401516Y-47791915D01*
X99438344Y-47897163D01*
X99536415Y-48053242D01*
X99666758Y-48183585D01*
X99822837Y-48281656D01*
X99955059Y-48327922D01*
X99996828Y-48342538D01*
X100179997Y-48363176D01*
X100180000Y-48363176D01*
X100180003Y-48363176D01*
X100363171Y-48342538D01*
X100363174Y-48342537D01*
X100537163Y-48281656D01*
X100693242Y-48183585D01*
X100823585Y-48053242D01*
X100921656Y-47897163D01*
X100982537Y-47723174D01*
X100982537Y-47723173D01*
X100982538Y-47723171D01*
X101003176Y-47540002D01*
X101003176Y-47539997D01*
X100982538Y-47356828D01*
X100948558Y-47259720D01*
X100921656Y-47182837D01*
X100823585Y-47026758D01*
X100693242Y-46896415D01*
X100543838Y-46802538D01*
X100537165Y-46798345D01*
X100537164Y-46798344D01*
X100537163Y-46798344D01*
X100495396Y-46783729D01*
X100363171Y-46737461D01*
X100180003Y-46716824D01*
X100179997Y-46716824D01*
X99996828Y-46737461D01*
X99822834Y-46798345D01*
X99666757Y-46896415D01*
X99536415Y-47026757D01*
X99438345Y-47182834D01*
X99377461Y-47356828D01*
X99356824Y-47539997D01*
X47710000Y-47539997D01*
X47710000Y-45999997D01*
X85166824Y-45999997D01*
X85166824Y-46000002D01*
X85187461Y-46183171D01*
X85210947Y-46250289D01*
X85248344Y-46357163D01*
X85346415Y-46513242D01*
X85476758Y-46643585D01*
X85632837Y-46741656D01*
X85765059Y-46787922D01*
X85806828Y-46802538D01*
X85989997Y-46823176D01*
X85990000Y-46823176D01*
X85990003Y-46823176D01*
X86173171Y-46802538D01*
X86185157Y-46798344D01*
X86347163Y-46741656D01*
X86503242Y-46643585D01*
X86633585Y-46513242D01*
X86731656Y-46357163D01*
X86792537Y-46183174D01*
X86792537Y-46183173D01*
X86792538Y-46183171D01*
X86813176Y-46000002D01*
X86813176Y-45999997D01*
X86792538Y-45816828D01*
X86762145Y-45729971D01*
X86731656Y-45642837D01*
X86633585Y-45486758D01*
X86503242Y-45356415D01*
X86388179Y-45284116D01*
X86347165Y-45258345D01*
X86347164Y-45258344D01*
X86347163Y-45258344D01*
X86305396Y-45243729D01*
X86173171Y-45197461D01*
X85990003Y-45176824D01*
X85989997Y-45176824D01*
X85806828Y-45197461D01*
X85632834Y-45258345D01*
X85476757Y-45356415D01*
X85346415Y-45486757D01*
X85248345Y-45642834D01*
X85187461Y-45816828D01*
X85166824Y-45999997D01*
X47710000Y-45999997D01*
X47710000Y-45990000D01*
X47610000Y-45890000D01*
X42744000Y-45890000D01*
X42676961Y-45870315D01*
X42631206Y-45817511D01*
X42620000Y-45766000D01*
X42620000Y-43234993D01*
X53864700Y-43234993D01*
X53864700Y-43235006D01*
X53883864Y-43466297D01*
X53883866Y-43466308D01*
X53940842Y-43691300D01*
X54034075Y-43903848D01*
X54161016Y-44098147D01*
X54161019Y-44098151D01*
X54161021Y-44098153D01*
X54318216Y-44268913D01*
X54318219Y-44268915D01*
X54318222Y-44268918D01*
X54501365Y-44411464D01*
X54501371Y-44411468D01*
X54501374Y-44411470D01*
X54705497Y-44521936D01*
X54794632Y-44552536D01*
X54925015Y-44597297D01*
X54925017Y-44597297D01*
X54925019Y-44597298D01*
X55153951Y-44635500D01*
X55153952Y-44635500D01*
X55386048Y-44635500D01*
X55386049Y-44635500D01*
X55614981Y-44597298D01*
X55834503Y-44521936D01*
X56038626Y-44411470D01*
X56092474Y-44369559D01*
X56194691Y-44290000D01*
X56221784Y-44268913D01*
X56378979Y-44098153D01*
X56505924Y-43903849D01*
X56599157Y-43691300D01*
X56602019Y-43679997D01*
X73306824Y-43679997D01*
X73306824Y-43680002D01*
X73327461Y-43863171D01*
X73369335Y-43982837D01*
X73385510Y-44029065D01*
X73388345Y-44037165D01*
X73481325Y-44185142D01*
X73486415Y-44193242D01*
X73616758Y-44323585D01*
X73772837Y-44421656D01*
X73905059Y-44467922D01*
X73946828Y-44482538D01*
X74129997Y-44503176D01*
X74130000Y-44503176D01*
X74130003Y-44503176D01*
X74313171Y-44482538D01*
X74313174Y-44482537D01*
X74487163Y-44421656D01*
X74617122Y-44339997D01*
X97936824Y-44339997D01*
X97936824Y-44340002D01*
X97957461Y-44523171D01*
X97983400Y-44597298D01*
X98018344Y-44697163D01*
X98116415Y-44853242D01*
X98246758Y-44983585D01*
X98402837Y-45081656D01*
X98531729Y-45126757D01*
X98576828Y-45142538D01*
X98759997Y-45163176D01*
X98760000Y-45163176D01*
X98760003Y-45163176D01*
X98943171Y-45142538D01*
X98943174Y-45142537D01*
X99117163Y-45081656D01*
X99273242Y-44983585D01*
X99403585Y-44853242D01*
X99501656Y-44697163D01*
X99562537Y-44523174D01*
X99562537Y-44523173D01*
X99562538Y-44523171D01*
X99583176Y-44340002D01*
X99583176Y-44339997D01*
X99562538Y-44156828D01*
X99545159Y-44107163D01*
X99501656Y-43982837D01*
X99403585Y-43826758D01*
X99273242Y-43696415D01*
X99234222Y-43671897D01*
X103566824Y-43671897D01*
X103566824Y-43671902D01*
X103587461Y-43855071D01*
X103614790Y-43933171D01*
X103644766Y-44018839D01*
X103648345Y-44029065D01*
X103697419Y-44107165D01*
X103746415Y-44185142D01*
X103876758Y-44315485D01*
X104032837Y-44413556D01*
X104206826Y-44474437D01*
X104209756Y-44474767D01*
X104211526Y-44475510D01*
X104213614Y-44475987D01*
X104213530Y-44476352D01*
X104274170Y-44501827D01*
X104313731Y-44559418D01*
X104315875Y-44629255D01*
X104304715Y-44657414D01*
X104276829Y-44708483D01*
X104253510Y-44771005D01*
X104181825Y-44963199D01*
X104181824Y-44963202D01*
X104181823Y-44963206D01*
X104124040Y-45228832D01*
X104124039Y-45228839D01*
X104104645Y-45499998D01*
X104104645Y-45500001D01*
X104124039Y-45771160D01*
X104124040Y-45771167D01*
X104178860Y-46023172D01*
X104181825Y-46036801D01*
X104240963Y-46195355D01*
X104276830Y-46291519D01*
X104407109Y-46530107D01*
X104407110Y-46530108D01*
X104407113Y-46530113D01*
X104570029Y-46747742D01*
X104570033Y-46747746D01*
X104570038Y-46747752D01*
X104762247Y-46939961D01*
X104762253Y-46939966D01*
X104762258Y-46939971D01*
X104979887Y-47102887D01*
X104979891Y-47102889D01*
X104979892Y-47102890D01*
X105218481Y-47233169D01*
X105218480Y-47233169D01*
X105218484Y-47233170D01*
X105218487Y-47233172D01*
X105473199Y-47328175D01*
X105738840Y-47385961D01*
X105990605Y-47403967D01*
X106009999Y-47405355D01*
X106010000Y-47405355D01*
X106010001Y-47405355D01*
X106028100Y-47404060D01*
X106281160Y-47385961D01*
X106546801Y-47328175D01*
X106801513Y-47233172D01*
X106801517Y-47233169D01*
X106801519Y-47233169D01*
X106920813Y-47168029D01*
X107040113Y-47102887D01*
X107257742Y-46939971D01*
X107449971Y-46747742D01*
X107612887Y-46530113D01*
X107693950Y-46381656D01*
X107743169Y-46291519D01*
X107743169Y-46291517D01*
X107743172Y-46291513D01*
X107838175Y-46036801D01*
X107895961Y-45771160D01*
X107905342Y-45639997D01*
X111726824Y-45639997D01*
X111726824Y-45640002D01*
X111747461Y-45823171D01*
X111808345Y-45997165D01*
X111896819Y-46137970D01*
X111906415Y-46153242D01*
X112036758Y-46283585D01*
X112192837Y-46381656D01*
X112325059Y-46427922D01*
X112366828Y-46442538D01*
X112549997Y-46463176D01*
X112550000Y-46463176D01*
X112550003Y-46463176D01*
X112733171Y-46442538D01*
X112733174Y-46442537D01*
X112907163Y-46381656D01*
X113063242Y-46283585D01*
X113193585Y-46153242D01*
X113291656Y-45997163D01*
X113352537Y-45823174D01*
X113352537Y-45823173D01*
X113352538Y-45823171D01*
X113373176Y-45640002D01*
X113373176Y-45639997D01*
X113352538Y-45456828D01*
X113337922Y-45415059D01*
X113291656Y-45282837D01*
X113193585Y-45126758D01*
X113063242Y-44996415D01*
X112907163Y-44898344D01*
X112864241Y-44883325D01*
X112733171Y-44837461D01*
X112550003Y-44816824D01*
X112549997Y-44816824D01*
X112366828Y-44837461D01*
X112192834Y-44898345D01*
X112036757Y-44996415D01*
X111906415Y-45126757D01*
X111808345Y-45282834D01*
X111747461Y-45456828D01*
X111726824Y-45639997D01*
X107905342Y-45639997D01*
X107915355Y-45500000D01*
X107895961Y-45228840D01*
X107838175Y-44963199D01*
X107743172Y-44708487D01*
X107743170Y-44708483D01*
X107743169Y-44708480D01*
X107612890Y-44469892D01*
X107612889Y-44469891D01*
X107612887Y-44469887D01*
X107449971Y-44252258D01*
X107449966Y-44252253D01*
X107449961Y-44252247D01*
X107257752Y-44060038D01*
X107257746Y-44060033D01*
X107257742Y-44060029D01*
X107040113Y-43897113D01*
X107040108Y-43897110D01*
X107040107Y-43897109D01*
X106801518Y-43766830D01*
X106801519Y-43766830D01*
X106751920Y-43748330D01*
X106546801Y-43671825D01*
X106546794Y-43671823D01*
X106546793Y-43671823D01*
X106281167Y-43614040D01*
X106281160Y-43614039D01*
X106010001Y-43594645D01*
X106009999Y-43594645D01*
X105738839Y-43614039D01*
X105738832Y-43614040D01*
X105473203Y-43671823D01*
X105372429Y-43709410D01*
X105302737Y-43714394D01*
X105241414Y-43680909D01*
X105207930Y-43619585D01*
X105205876Y-43607111D01*
X105192538Y-43488729D01*
X105192537Y-43488726D01*
X105131656Y-43314737D01*
X105033585Y-43158658D01*
X104903242Y-43028315D01*
X104864053Y-43003691D01*
X104747165Y-42930245D01*
X104747164Y-42930244D01*
X104747163Y-42930244D01*
X104705396Y-42915629D01*
X104573171Y-42869361D01*
X104390003Y-42848724D01*
X104389997Y-42848724D01*
X104206828Y-42869361D01*
X104032834Y-42930245D01*
X103876757Y-43028315D01*
X103746415Y-43158657D01*
X103648345Y-43314734D01*
X103587461Y-43488728D01*
X103566824Y-43671897D01*
X99234222Y-43671897D01*
X99142143Y-43614040D01*
X99117165Y-43598345D01*
X99117164Y-43598344D01*
X99117163Y-43598344D01*
X99075396Y-43583729D01*
X98943171Y-43537461D01*
X98760003Y-43516824D01*
X98759997Y-43516824D01*
X98576828Y-43537461D01*
X98402834Y-43598345D01*
X98246757Y-43696415D01*
X98116415Y-43826757D01*
X98018345Y-43982834D01*
X97957461Y-44156828D01*
X97936824Y-44339997D01*
X74617122Y-44339997D01*
X74643242Y-44323585D01*
X74773585Y-44193242D01*
X74871656Y-44037163D01*
X74932537Y-43863174D01*
X74932537Y-43863173D01*
X74932538Y-43863171D01*
X74953176Y-43680002D01*
X74953176Y-43679997D01*
X74932538Y-43496828D01*
X74917922Y-43455059D01*
X74871656Y-43322837D01*
X74773585Y-43166758D01*
X74643242Y-43036415D01*
X74591180Y-43003702D01*
X74487165Y-42938345D01*
X74487164Y-42938344D01*
X74487163Y-42938344D01*
X74431729Y-42918947D01*
X74313171Y-42877461D01*
X74130003Y-42856824D01*
X74129997Y-42856824D01*
X73946828Y-42877461D01*
X73772834Y-42938345D01*
X73616757Y-43036415D01*
X73486415Y-43166757D01*
X73388345Y-43322834D01*
X73327461Y-43496828D01*
X73306824Y-43679997D01*
X56602019Y-43679997D01*
X56656134Y-43466305D01*
X56668693Y-43314737D01*
X56675300Y-43235006D01*
X56675300Y-43234993D01*
X56656135Y-43003702D01*
X56656133Y-43003691D01*
X56599157Y-42778699D01*
X56505924Y-42566151D01*
X56378983Y-42371852D01*
X56378980Y-42371849D01*
X56378979Y-42371847D01*
X56221784Y-42201087D01*
X56221779Y-42201083D01*
X56221777Y-42201081D01*
X56038634Y-42058535D01*
X56038628Y-42058531D01*
X55834504Y-41948064D01*
X55834495Y-41948061D01*
X55614984Y-41872702D01*
X55434212Y-41842537D01*
X55386049Y-41834500D01*
X55153951Y-41834500D01*
X55108164Y-41842140D01*
X54925015Y-41872702D01*
X54705504Y-41948061D01*
X54705495Y-41948064D01*
X54501371Y-42058531D01*
X54501365Y-42058535D01*
X54318222Y-42201081D01*
X54318219Y-42201084D01*
X54161016Y-42371852D01*
X54034075Y-42566151D01*
X53940842Y-42778699D01*
X53883866Y-43003691D01*
X53883864Y-43003702D01*
X53864700Y-43234993D01*
X42620000Y-43234993D01*
X42620000Y-40699994D01*
X43494357Y-40699994D01*
X43494357Y-40700005D01*
X43514890Y-40947812D01*
X43514892Y-40947824D01*
X43575936Y-41188881D01*
X43675826Y-41416606D01*
X43811833Y-41624782D01*
X43811836Y-41624785D01*
X43980256Y-41807738D01*
X44176491Y-41960474D01*
X44176493Y-41960475D01*
X44357682Y-42058530D01*
X44395190Y-42078828D01*
X44630386Y-42159571D01*
X44875665Y-42200500D01*
X45124335Y-42200500D01*
X45369614Y-42159571D01*
X45604810Y-42078828D01*
X45823509Y-41960474D01*
X46019744Y-41807738D01*
X46026868Y-41799999D01*
X64525640Y-41799999D01*
X64525640Y-41800000D01*
X64545039Y-42009352D01*
X64545039Y-42009354D01*
X64545040Y-42009357D01*
X64602578Y-42211584D01*
X64602579Y-42211587D01*
X64696293Y-42399790D01*
X64696298Y-42399798D01*
X64823004Y-42567584D01*
X64978381Y-42709228D01*
X64978383Y-42709230D01*
X65053675Y-42755848D01*
X65157144Y-42819913D01*
X65353199Y-42895866D01*
X65559873Y-42934500D01*
X65559875Y-42934500D01*
X65770125Y-42934500D01*
X65770127Y-42934500D01*
X65976801Y-42895866D01*
X66172856Y-42819913D01*
X66351618Y-42709229D01*
X66506997Y-42567582D01*
X66603345Y-42439997D01*
X110146824Y-42439997D01*
X110146824Y-42440002D01*
X110167461Y-42623171D01*
X110228345Y-42797165D01*
X110278800Y-42877463D01*
X110326415Y-42953242D01*
X110456758Y-43083585D01*
X110612837Y-43181656D01*
X110745059Y-43227922D01*
X110786828Y-43242538D01*
X110969997Y-43263176D01*
X110970000Y-43263176D01*
X110970003Y-43263176D01*
X111153171Y-43242538D01*
X111153174Y-43242537D01*
X111327163Y-43181656D01*
X111483242Y-43083585D01*
X111613585Y-42953242D01*
X111711656Y-42797163D01*
X111772537Y-42623174D01*
X111772537Y-42623173D01*
X111772538Y-42623171D01*
X111793176Y-42440002D01*
X111793176Y-42439997D01*
X111772538Y-42256828D01*
X111738506Y-42159571D01*
X111711656Y-42082837D01*
X111613585Y-41926758D01*
X111483242Y-41796415D01*
X111327163Y-41698344D01*
X111284981Y-41683584D01*
X111153171Y-41637461D01*
X110970003Y-41616824D01*
X110969997Y-41616824D01*
X110786828Y-41637461D01*
X110612834Y-41698345D01*
X110456757Y-41796415D01*
X110326415Y-41926757D01*
X110228345Y-42082834D01*
X110167461Y-42256828D01*
X110146824Y-42439997D01*
X66603345Y-42439997D01*
X66633703Y-42399796D01*
X66727422Y-42211584D01*
X66784960Y-42009357D01*
X66804360Y-41800000D01*
X66784960Y-41590643D01*
X66727422Y-41388416D01*
X66725933Y-41385426D01*
X66653518Y-41239997D01*
X80016824Y-41239997D01*
X80016824Y-41240002D01*
X80037461Y-41423171D01*
X80098345Y-41597165D01*
X80161920Y-41698344D01*
X80196415Y-41753242D01*
X80326758Y-41883585D01*
X80482837Y-41981656D01*
X80615059Y-42027922D01*
X80656828Y-42042538D01*
X80839997Y-42063176D01*
X80840000Y-42063176D01*
X80840003Y-42063176D01*
X81023171Y-42042538D01*
X81023174Y-42042537D01*
X81197163Y-41981656D01*
X81353242Y-41883585D01*
X81483585Y-41753242D01*
X81581656Y-41597163D01*
X81642537Y-41423174D01*
X81642537Y-41423173D01*
X81642538Y-41423171D01*
X81663176Y-41240002D01*
X81663176Y-41239997D01*
X81642538Y-41056828D01*
X81623762Y-41003171D01*
X81581656Y-40882837D01*
X81483585Y-40726758D01*
X81353242Y-40596415D01*
X81197165Y-40498345D01*
X81197164Y-40498344D01*
X81197163Y-40498344D01*
X81155396Y-40483729D01*
X81023171Y-40437461D01*
X80840003Y-40416824D01*
X80839997Y-40416824D01*
X80656828Y-40437461D01*
X80482834Y-40498345D01*
X80326757Y-40596415D01*
X80196415Y-40726757D01*
X80098345Y-40882834D01*
X80037461Y-41056828D01*
X80016824Y-41239997D01*
X66653518Y-41239997D01*
X66633706Y-41200209D01*
X66633701Y-41200201D01*
X66506995Y-41032415D01*
X66351618Y-40890771D01*
X66351616Y-40890769D01*
X66172859Y-40780089D01*
X66172856Y-40780087D01*
X65976801Y-40704134D01*
X65770127Y-40665500D01*
X65559873Y-40665500D01*
X65353199Y-40704134D01*
X65353196Y-40704134D01*
X65353196Y-40704135D01*
X65157143Y-40780087D01*
X65157140Y-40780089D01*
X64978383Y-40890769D01*
X64978381Y-40890771D01*
X64823004Y-41032415D01*
X64696298Y-41200201D01*
X64696293Y-41200209D01*
X64602579Y-41388412D01*
X64581191Y-41463584D01*
X64553288Y-41561656D01*
X64545039Y-41590647D01*
X64525640Y-41799999D01*
X46026868Y-41799999D01*
X46188164Y-41624785D01*
X46324173Y-41416607D01*
X46424063Y-41188881D01*
X46485108Y-40947821D01*
X46485109Y-40947812D01*
X46505643Y-40700005D01*
X46505643Y-40699994D01*
X46485109Y-40452187D01*
X46485107Y-40452175D01*
X46424063Y-40211118D01*
X46324173Y-39983393D01*
X46217422Y-39819997D01*
X61096824Y-39819997D01*
X61096824Y-39820002D01*
X61117461Y-40003171D01*
X61143766Y-40078344D01*
X61178082Y-40176415D01*
X61178345Y-40177165D01*
X61242906Y-40279913D01*
X61276415Y-40333242D01*
X61406758Y-40463585D01*
X61562837Y-40561656D01*
X61689483Y-40605971D01*
X61736828Y-40622538D01*
X61919997Y-40643176D01*
X61920000Y-40643176D01*
X61920003Y-40643176D01*
X62103171Y-40622538D01*
X62103174Y-40622537D01*
X62277163Y-40561656D01*
X62433242Y-40463585D01*
X62563585Y-40333242D01*
X62661656Y-40177163D01*
X62722537Y-40003174D01*
X62722537Y-40003173D01*
X62722538Y-40003171D01*
X62743176Y-39820002D01*
X62743176Y-39819997D01*
X62722538Y-39636828D01*
X62706943Y-39592261D01*
X62661656Y-39462837D01*
X62563585Y-39306758D01*
X62516826Y-39259999D01*
X69605640Y-39259999D01*
X69605640Y-39260000D01*
X69625039Y-39469352D01*
X69625039Y-39469354D01*
X69625040Y-39469357D01*
X69672689Y-39636826D01*
X69682579Y-39671587D01*
X69776293Y-39859790D01*
X69776298Y-39859798D01*
X69903004Y-40027584D01*
X70058381Y-40169228D01*
X70058383Y-40169230D01*
X70126037Y-40211119D01*
X70237144Y-40279913D01*
X70433199Y-40355866D01*
X70639873Y-40394500D01*
X70639875Y-40394500D01*
X70850125Y-40394500D01*
X70850127Y-40394500D01*
X71056801Y-40355866D01*
X71252856Y-40279913D01*
X71431618Y-40169229D01*
X71573375Y-40040000D01*
X71573378Y-40039997D01*
X92996824Y-40039997D01*
X92996824Y-40040002D01*
X93017461Y-40223171D01*
X93078345Y-40397165D01*
X93126641Y-40474029D01*
X93145641Y-40541266D01*
X93126641Y-40605971D01*
X93078345Y-40682834D01*
X93017461Y-40856828D01*
X92996824Y-41039997D01*
X92996824Y-41040002D01*
X93017461Y-41223171D01*
X93023351Y-41240002D01*
X93078344Y-41397163D01*
X93176415Y-41553242D01*
X93306758Y-41683585D01*
X93462837Y-41781656D01*
X93595059Y-41827922D01*
X93636828Y-41842538D01*
X93819997Y-41863176D01*
X93820000Y-41863176D01*
X93820003Y-41863176D01*
X94003171Y-41842538D01*
X94003174Y-41842537D01*
X94177163Y-41781656D01*
X94333242Y-41683585D01*
X94463585Y-41553242D01*
X94561656Y-41397163D01*
X94622537Y-41223174D01*
X94622537Y-41223173D01*
X94622538Y-41223171D01*
X94643176Y-41040002D01*
X94643176Y-41039997D01*
X94622538Y-40856828D01*
X94609650Y-40819997D01*
X117846824Y-40819997D01*
X117846824Y-40820002D01*
X117867461Y-41003171D01*
X117928345Y-41177165D01*
X117967825Y-41239997D01*
X118026415Y-41333242D01*
X118156758Y-41463585D01*
X118312837Y-41561656D01*
X118414311Y-41597163D01*
X118486828Y-41622538D01*
X118669997Y-41643176D01*
X118670000Y-41643176D01*
X118670003Y-41643176D01*
X118853171Y-41622538D01*
X118853174Y-41622537D01*
X119027163Y-41561656D01*
X119183242Y-41463585D01*
X119313585Y-41333242D01*
X119411656Y-41177163D01*
X119472537Y-41003174D01*
X119472537Y-41003173D01*
X119472538Y-41003171D01*
X119493176Y-40820002D01*
X119493176Y-40819997D01*
X119472538Y-40636828D01*
X119438214Y-40538736D01*
X119411656Y-40462837D01*
X119313585Y-40306758D01*
X119183242Y-40176415D01*
X119171804Y-40169228D01*
X119027165Y-40078345D01*
X119027164Y-40078344D01*
X119027163Y-40078344D01*
X118985396Y-40063729D01*
X118853171Y-40017461D01*
X118670003Y-39996824D01*
X118669997Y-39996824D01*
X118486828Y-40017461D01*
X118312834Y-40078345D01*
X118156757Y-40176415D01*
X118026415Y-40306757D01*
X117928345Y-40462834D01*
X117867461Y-40636828D01*
X117846824Y-40819997D01*
X94609650Y-40819997D01*
X94595685Y-40780087D01*
X94561656Y-40682837D01*
X94561654Y-40682834D01*
X94561654Y-40682833D01*
X94513359Y-40605973D01*
X94494358Y-40538736D01*
X94513359Y-40474027D01*
X94561654Y-40397166D01*
X94561653Y-40397166D01*
X94561656Y-40397163D01*
X94622537Y-40223174D01*
X94622537Y-40223173D01*
X94622538Y-40223171D01*
X94643176Y-40040002D01*
X94643176Y-40039997D01*
X94622538Y-39856828D01*
X94593980Y-39775215D01*
X94561656Y-39682837D01*
X94463585Y-39526758D01*
X94426824Y-39489997D01*
X103566824Y-39489997D01*
X103566824Y-39490002D01*
X103587461Y-39673171D01*
X103623168Y-39775215D01*
X103646416Y-39841654D01*
X103648345Y-39847165D01*
X103654417Y-39856828D01*
X103746415Y-40003242D01*
X103876758Y-40133585D01*
X104032837Y-40231656D01*
X104165059Y-40277922D01*
X104206828Y-40292538D01*
X104389997Y-40313176D01*
X104390000Y-40313176D01*
X104390003Y-40313176D01*
X104573171Y-40292538D01*
X104573174Y-40292537D01*
X104747163Y-40231656D01*
X104903242Y-40133585D01*
X105033585Y-40003242D01*
X105131656Y-39847163D01*
X105192537Y-39673174D01*
X105192537Y-39673173D01*
X105192538Y-39673171D01*
X105213176Y-39490002D01*
X105213176Y-39489997D01*
X105192538Y-39306828D01*
X105154982Y-39199500D01*
X105131656Y-39132837D01*
X105033585Y-38976758D01*
X104903242Y-38846415D01*
X104747163Y-38748344D01*
X104703026Y-38732900D01*
X104573171Y-38687461D01*
X104390003Y-38666824D01*
X104389997Y-38666824D01*
X104206828Y-38687461D01*
X104032834Y-38748345D01*
X103876757Y-38846415D01*
X103746415Y-38976757D01*
X103648345Y-39132834D01*
X103587461Y-39306828D01*
X103566824Y-39489997D01*
X94426824Y-39489997D01*
X94333242Y-39396415D01*
X94213489Y-39321169D01*
X94177165Y-39298345D01*
X94177164Y-39298344D01*
X94177163Y-39298344D01*
X94133801Y-39283171D01*
X94003171Y-39237461D01*
X93820003Y-39216824D01*
X93819997Y-39216824D01*
X93636828Y-39237461D01*
X93462834Y-39298345D01*
X93306757Y-39396415D01*
X93176415Y-39526757D01*
X93078345Y-39682834D01*
X93017461Y-39856828D01*
X92996824Y-40039997D01*
X71573378Y-40039997D01*
X71586995Y-40027584D01*
X71594639Y-40017463D01*
X71713703Y-39859796D01*
X71807422Y-39671584D01*
X71864960Y-39469357D01*
X71884360Y-39260000D01*
X71882546Y-39240429D01*
X71869534Y-39100002D01*
X71869534Y-39099997D01*
X89756824Y-39099997D01*
X89756824Y-39100002D01*
X89777461Y-39283171D01*
X89838345Y-39457165D01*
X89879045Y-39521938D01*
X89936415Y-39613242D01*
X90066758Y-39743585D01*
X90222837Y-39841656D01*
X90355059Y-39887922D01*
X90396828Y-39902538D01*
X90579997Y-39923176D01*
X90580000Y-39923176D01*
X90580003Y-39923176D01*
X90763171Y-39902538D01*
X90763174Y-39902537D01*
X90937163Y-39841656D01*
X91093242Y-39743585D01*
X91223585Y-39613242D01*
X91321656Y-39457163D01*
X91382537Y-39283174D01*
X91382537Y-39283173D01*
X91382538Y-39283171D01*
X91403176Y-39100002D01*
X91403176Y-39099997D01*
X91382538Y-38916828D01*
X91357899Y-38846415D01*
X91321656Y-38742837D01*
X91223585Y-38586758D01*
X91093242Y-38456415D01*
X90937165Y-38358345D01*
X90937164Y-38358344D01*
X90937163Y-38358344D01*
X90895396Y-38343729D01*
X90763171Y-38297461D01*
X90580003Y-38276824D01*
X90579997Y-38276824D01*
X90396828Y-38297461D01*
X90222834Y-38358345D01*
X90066757Y-38456415D01*
X89936415Y-38586757D01*
X89838345Y-38742834D01*
X89777461Y-38916828D01*
X89756824Y-39099997D01*
X71869534Y-39099997D01*
X71864960Y-39050643D01*
X71807422Y-38848416D01*
X71784577Y-38802537D01*
X71713706Y-38660209D01*
X71713701Y-38660201D01*
X71586995Y-38492415D01*
X71431618Y-38350771D01*
X71431616Y-38350769D01*
X71252859Y-38240089D01*
X71252856Y-38240087D01*
X71239707Y-38234993D01*
X71056801Y-38164134D01*
X70850127Y-38125500D01*
X70639873Y-38125500D01*
X70433199Y-38164134D01*
X70433196Y-38164134D01*
X70433196Y-38164135D01*
X70237143Y-38240087D01*
X70237140Y-38240089D01*
X70058383Y-38350769D01*
X70058381Y-38350771D01*
X69903004Y-38492415D01*
X69776298Y-38660201D01*
X69776293Y-38660209D01*
X69682579Y-38848412D01*
X69682578Y-38848416D01*
X69634481Y-39017463D01*
X69625039Y-39050647D01*
X69605640Y-39259999D01*
X62516826Y-39259999D01*
X62433242Y-39176415D01*
X62363883Y-39132834D01*
X62277165Y-39078345D01*
X62277164Y-39078344D01*
X62277163Y-39078344D01*
X62235396Y-39063729D01*
X62103171Y-39017461D01*
X61920003Y-38996824D01*
X61919997Y-38996824D01*
X61736828Y-39017461D01*
X61562834Y-39078345D01*
X61406757Y-39176415D01*
X61276415Y-39306757D01*
X61178345Y-39462834D01*
X61117461Y-39636828D01*
X61096824Y-39819997D01*
X46217422Y-39819997D01*
X46188166Y-39775217D01*
X46166557Y-39751744D01*
X46019744Y-39592262D01*
X45823509Y-39439526D01*
X45823507Y-39439525D01*
X45823506Y-39439524D01*
X45604811Y-39321172D01*
X45604802Y-39321169D01*
X45369616Y-39240429D01*
X45124335Y-39199500D01*
X44875665Y-39199500D01*
X44630383Y-39240429D01*
X44395197Y-39321169D01*
X44395188Y-39321172D01*
X44176493Y-39439524D01*
X43980257Y-39592261D01*
X43811833Y-39775217D01*
X43675826Y-39983393D01*
X43575936Y-40211118D01*
X43514892Y-40452175D01*
X43514890Y-40452187D01*
X43494357Y-40699994D01*
X42620000Y-40699994D01*
X42620000Y-38234993D01*
X53864700Y-38234993D01*
X53864700Y-38235006D01*
X53883864Y-38466297D01*
X53883866Y-38466308D01*
X53940842Y-38691300D01*
X54034075Y-38903848D01*
X54161016Y-39098147D01*
X54161019Y-39098151D01*
X54161021Y-39098153D01*
X54318216Y-39268913D01*
X54318219Y-39268915D01*
X54318222Y-39268918D01*
X54501365Y-39411464D01*
X54501371Y-39411468D01*
X54501374Y-39411470D01*
X54705497Y-39521936D01*
X54819487Y-39561068D01*
X54925015Y-39597297D01*
X54925017Y-39597297D01*
X54925019Y-39597298D01*
X55153951Y-39635500D01*
X55153952Y-39635500D01*
X55386048Y-39635500D01*
X55386049Y-39635500D01*
X55614981Y-39597298D01*
X55834503Y-39521936D01*
X56038626Y-39411470D01*
X56221784Y-39268913D01*
X56378979Y-39098153D01*
X56505924Y-38903849D01*
X56599157Y-38691300D01*
X56656134Y-38466305D01*
X56656135Y-38466297D01*
X56675300Y-38235006D01*
X56675300Y-38234993D01*
X56656135Y-38003702D01*
X56656133Y-38003691D01*
X56599157Y-37778699D01*
X56505924Y-37566151D01*
X56378983Y-37371852D01*
X56378980Y-37371849D01*
X56378979Y-37371847D01*
X56221784Y-37201087D01*
X56221779Y-37201083D01*
X56221777Y-37201081D01*
X56038634Y-37058535D01*
X56038628Y-37058531D01*
X55834504Y-36948064D01*
X55834495Y-36948061D01*
X55614984Y-36872702D01*
X55443282Y-36844050D01*
X55386049Y-36834500D01*
X55153951Y-36834500D01*
X55108164Y-36842140D01*
X54925015Y-36872702D01*
X54705504Y-36948061D01*
X54705495Y-36948064D01*
X54501371Y-37058531D01*
X54501365Y-37058535D01*
X54318222Y-37201081D01*
X54318219Y-37201084D01*
X54318216Y-37201086D01*
X54318216Y-37201087D01*
X54265507Y-37258344D01*
X54161016Y-37371852D01*
X54034075Y-37566151D01*
X53940842Y-37778699D01*
X53883866Y-38003691D01*
X53883864Y-38003702D01*
X53864700Y-38234993D01*
X42620000Y-38234993D01*
X42620000Y-38161362D01*
X42639685Y-38094323D01*
X42656319Y-38073681D01*
X43063681Y-37666319D01*
X43125004Y-37632834D01*
X43151362Y-37630000D01*
X43158637Y-37630000D01*
X43225676Y-37649685D01*
X43227402Y-37651075D01*
X43229999Y-37649999D01*
X43230000Y-37650000D01*
X43230000Y-36038135D01*
X64530500Y-36038135D01*
X64530500Y-37401870D01*
X64530501Y-37401876D01*
X64536908Y-37461483D01*
X64587202Y-37596328D01*
X64587206Y-37596335D01*
X64673452Y-37711544D01*
X64673455Y-37711547D01*
X64788664Y-37797793D01*
X64788671Y-37797797D01*
X64923517Y-37848091D01*
X64923516Y-37848091D01*
X64930444Y-37848835D01*
X64983127Y-37854500D01*
X66346872Y-37854499D01*
X66406483Y-37848091D01*
X66541331Y-37797796D01*
X66656546Y-37711546D01*
X66742796Y-37596331D01*
X66793091Y-37461483D01*
X66799500Y-37401873D01*
X66799499Y-36434995D01*
X74139451Y-36434995D01*
X74139451Y-36435004D01*
X74159616Y-36704101D01*
X74219664Y-36967188D01*
X74219666Y-36967195D01*
X74311461Y-37201084D01*
X74318257Y-37218398D01*
X74453185Y-37452102D01*
X74589080Y-37622509D01*
X74621442Y-37663089D01*
X74787135Y-37816828D01*
X74819259Y-37846635D01*
X75042226Y-37998651D01*
X75285359Y-38115738D01*
X75543228Y-38195280D01*
X75543229Y-38195280D01*
X75543232Y-38195281D01*
X75810063Y-38235499D01*
X75810068Y-38235499D01*
X75810071Y-38235500D01*
X75810072Y-38235500D01*
X76079928Y-38235500D01*
X76079929Y-38235500D01*
X76079936Y-38235499D01*
X76346767Y-38195281D01*
X76346768Y-38195280D01*
X76346772Y-38195280D01*
X76604641Y-38115738D01*
X76812383Y-38015695D01*
X76844980Y-37999997D01*
X79406824Y-37999997D01*
X79406824Y-38000002D01*
X79427461Y-38183171D01*
X79467453Y-38297461D01*
X79486107Y-38350771D01*
X79488345Y-38357165D01*
X79573330Y-38492418D01*
X79586415Y-38513242D01*
X79716758Y-38643585D01*
X79872837Y-38741656D01*
X80005059Y-38787922D01*
X80046828Y-38802538D01*
X80229997Y-38823176D01*
X80230000Y-38823176D01*
X80230003Y-38823176D01*
X80413171Y-38802538D01*
X80413174Y-38802537D01*
X80587163Y-38741656D01*
X80743242Y-38643585D01*
X80873585Y-38513242D01*
X80971656Y-38357163D01*
X81032537Y-38183174D01*
X81032537Y-38183173D01*
X81032538Y-38183171D01*
X81053176Y-38000002D01*
X81053176Y-37999997D01*
X81032538Y-37816828D01*
X81015110Y-37767021D01*
X80971656Y-37642837D01*
X80873585Y-37486758D01*
X80743242Y-37356415D01*
X80686459Y-37320736D01*
X80587165Y-37258345D01*
X80587164Y-37258344D01*
X80587163Y-37258344D01*
X80545396Y-37243729D01*
X80413171Y-37197461D01*
X80230003Y-37176824D01*
X80229997Y-37176824D01*
X80046828Y-37197461D01*
X79872834Y-37258345D01*
X79716757Y-37356415D01*
X79586415Y-37486757D01*
X79488345Y-37642834D01*
X79427461Y-37816828D01*
X79406824Y-37999997D01*
X76844980Y-37999997D01*
X76847767Y-37998655D01*
X76847767Y-37998654D01*
X76847775Y-37998651D01*
X77070741Y-37846635D01*
X77268561Y-37663085D01*
X77436815Y-37452102D01*
X77571743Y-37218398D01*
X77670334Y-36967195D01*
X77730383Y-36704103D01*
X77746237Y-36492538D01*
X77750549Y-36435004D01*
X77750549Y-36434995D01*
X77730383Y-36165898D01*
X77703283Y-36047165D01*
X77670334Y-35902805D01*
X77571743Y-35651602D01*
X77436815Y-35417898D01*
X77268561Y-35206915D01*
X77268560Y-35206914D01*
X77268557Y-35206910D01*
X77070741Y-35023365D01*
X76960707Y-34948345D01*
X76847775Y-34871349D01*
X76847769Y-34871346D01*
X76847768Y-34871345D01*
X76847767Y-34871344D01*
X76782674Y-34839997D01*
X89766824Y-34839997D01*
X89766824Y-34840002D01*
X89787461Y-35023171D01*
X89848345Y-35197165D01*
X89902208Y-35282887D01*
X89946415Y-35353242D01*
X90076758Y-35483585D01*
X90232837Y-35581656D01*
X90365059Y-35627922D01*
X90406828Y-35642538D01*
X90589997Y-35663176D01*
X90590000Y-35663176D01*
X90590003Y-35663176D01*
X90773171Y-35642538D01*
X90774131Y-35642202D01*
X90947163Y-35581656D01*
X91103242Y-35483585D01*
X91233585Y-35353242D01*
X91331656Y-35197163D01*
X91392537Y-35023174D01*
X91392537Y-35023173D01*
X91392538Y-35023171D01*
X91413176Y-34840002D01*
X91413176Y-34839997D01*
X91392538Y-34656828D01*
X91349293Y-34533242D01*
X91331656Y-34482837D01*
X91233585Y-34326758D01*
X91103242Y-34196415D01*
X91061650Y-34170281D01*
X90947165Y-34098345D01*
X90947164Y-34098344D01*
X90947163Y-34098344D01*
X90905396Y-34083729D01*
X90773171Y-34037461D01*
X90590003Y-34016824D01*
X90589997Y-34016824D01*
X90406828Y-34037461D01*
X90232834Y-34098345D01*
X90076757Y-34196415D01*
X89946415Y-34326757D01*
X89848345Y-34482834D01*
X89787461Y-34656828D01*
X89766824Y-34839997D01*
X76782674Y-34839997D01*
X76604643Y-34754263D01*
X76604645Y-34754263D01*
X76346773Y-34674720D01*
X76346767Y-34674718D01*
X76079936Y-34634500D01*
X76079929Y-34634500D01*
X75810071Y-34634500D01*
X75810063Y-34634500D01*
X75543232Y-34674718D01*
X75543226Y-34674720D01*
X75285358Y-34754262D01*
X75042230Y-34871346D01*
X74819258Y-35023365D01*
X74621442Y-35206910D01*
X74453185Y-35417898D01*
X74318258Y-35651599D01*
X74318256Y-35651603D01*
X74219666Y-35902804D01*
X74219664Y-35902811D01*
X74159616Y-36165898D01*
X74139451Y-36434995D01*
X66799499Y-36434995D01*
X66799499Y-36038128D01*
X66793091Y-35978517D01*
X66784860Y-35956449D01*
X66742797Y-35843671D01*
X66742793Y-35843664D01*
X66656547Y-35728455D01*
X66656544Y-35728452D01*
X66541335Y-35642206D01*
X66541328Y-35642202D01*
X66406482Y-35591908D01*
X66406483Y-35591908D01*
X66346883Y-35585501D01*
X66346881Y-35585500D01*
X66346873Y-35585500D01*
X66346864Y-35585500D01*
X64983129Y-35585500D01*
X64983123Y-35585501D01*
X64923516Y-35591908D01*
X64788671Y-35642202D01*
X64788664Y-35642206D01*
X64673455Y-35728452D01*
X64673452Y-35728455D01*
X64587206Y-35843664D01*
X64587202Y-35843671D01*
X64536908Y-35978517D01*
X64530501Y-36038116D01*
X64530501Y-36038123D01*
X64530500Y-36038135D01*
X43230000Y-36038135D01*
X43230000Y-32409995D01*
X54814451Y-32409995D01*
X54814451Y-32410004D01*
X54834616Y-32679101D01*
X54894664Y-32942188D01*
X54894666Y-32942195D01*
X54941359Y-33061167D01*
X54993257Y-33193398D01*
X55128185Y-33427102D01*
X55191708Y-33506757D01*
X55296442Y-33638089D01*
X55454780Y-33785004D01*
X55494259Y-33821635D01*
X55717226Y-33973651D01*
X55960359Y-34090738D01*
X56218228Y-34170280D01*
X56218229Y-34170280D01*
X56218232Y-34170281D01*
X56485063Y-34210499D01*
X56485068Y-34210499D01*
X56485071Y-34210500D01*
X56485072Y-34210500D01*
X56754928Y-34210500D01*
X56754929Y-34210500D01*
X56754936Y-34210499D01*
X57021767Y-34170281D01*
X57021768Y-34170280D01*
X57021772Y-34170280D01*
X57279641Y-34090738D01*
X57522775Y-33973651D01*
X57745741Y-33821635D01*
X57943561Y-33638085D01*
X58111815Y-33427102D01*
X58246743Y-33193398D01*
X58345334Y-32942195D01*
X58405383Y-32679103D01*
X58420863Y-32472537D01*
X58425549Y-32410004D01*
X58425549Y-32409995D01*
X62434451Y-32409995D01*
X62434451Y-32410004D01*
X62454616Y-32679101D01*
X62514664Y-32942188D01*
X62514666Y-32942195D01*
X62561359Y-33061167D01*
X62613257Y-33193398D01*
X62748185Y-33427102D01*
X62811708Y-33506757D01*
X62916442Y-33638089D01*
X63074780Y-33785004D01*
X63114259Y-33821635D01*
X63337226Y-33973651D01*
X63580359Y-34090738D01*
X63838228Y-34170280D01*
X63838229Y-34170280D01*
X63838232Y-34170281D01*
X64105063Y-34210499D01*
X64105068Y-34210499D01*
X64105071Y-34210500D01*
X64105072Y-34210500D01*
X64374928Y-34210500D01*
X64374929Y-34210500D01*
X64374936Y-34210499D01*
X64641767Y-34170281D01*
X64641768Y-34170280D01*
X64641772Y-34170280D01*
X64899641Y-34090738D01*
X65142775Y-33973651D01*
X65365741Y-33821635D01*
X65563561Y-33638085D01*
X65731815Y-33427102D01*
X65866743Y-33193398D01*
X65965334Y-32942195D01*
X66025383Y-32679103D01*
X66040863Y-32472537D01*
X66045549Y-32410004D01*
X66045549Y-32409995D01*
X66025383Y-32140898D01*
X66023548Y-32132857D01*
X65965334Y-31877805D01*
X65883774Y-31669997D01*
X82426824Y-31669997D01*
X82426824Y-31670002D01*
X82447461Y-31853171D01*
X82480234Y-31946830D01*
X82504709Y-32016776D01*
X82508345Y-32027165D01*
X82574755Y-32132856D01*
X82606415Y-32183242D01*
X82736758Y-32313585D01*
X82892837Y-32411656D01*
X83025059Y-32457922D01*
X83066828Y-32472538D01*
X83249997Y-32493176D01*
X83250000Y-32493176D01*
X83250003Y-32493176D01*
X83433171Y-32472538D01*
X83439041Y-32470484D01*
X83607163Y-32411656D01*
X83763242Y-32313585D01*
X83893585Y-32183242D01*
X83991656Y-32027163D01*
X84052537Y-31853174D01*
X84052537Y-31853173D01*
X84052538Y-31853171D01*
X84073176Y-31670002D01*
X84073176Y-31669997D01*
X84052538Y-31486828D01*
X84021250Y-31397412D01*
X83991656Y-31312837D01*
X83893585Y-31156758D01*
X83763242Y-31026415D01*
X83693411Y-30982537D01*
X83607165Y-30928345D01*
X83607164Y-30928344D01*
X83607163Y-30928344D01*
X83537703Y-30904039D01*
X83433171Y-30867461D01*
X83250003Y-30846824D01*
X83249997Y-30846824D01*
X83066828Y-30867461D01*
X82892834Y-30928345D01*
X82736757Y-31026415D01*
X82606415Y-31156757D01*
X82508345Y-31312834D01*
X82447461Y-31486828D01*
X82426824Y-31669997D01*
X65883774Y-31669997D01*
X65866743Y-31626602D01*
X65731815Y-31392898D01*
X65563561Y-31181915D01*
X65563560Y-31181914D01*
X65563557Y-31181910D01*
X65365741Y-30998365D01*
X65342526Y-30982537D01*
X65142775Y-30846349D01*
X65142769Y-30846346D01*
X65142768Y-30846345D01*
X65142767Y-30846344D01*
X64899643Y-30729263D01*
X64899645Y-30729263D01*
X64641773Y-30649720D01*
X64641767Y-30649718D01*
X64374936Y-30609500D01*
X64374929Y-30609500D01*
X64105071Y-30609500D01*
X64105063Y-30609500D01*
X63838232Y-30649718D01*
X63838226Y-30649720D01*
X63580358Y-30729262D01*
X63337230Y-30846346D01*
X63114258Y-30998365D01*
X62916442Y-31181910D01*
X62748185Y-31392898D01*
X62613258Y-31626599D01*
X62613256Y-31626603D01*
X62514666Y-31877804D01*
X62514664Y-31877811D01*
X62454616Y-32140898D01*
X62434451Y-32409995D01*
X58425549Y-32409995D01*
X58405383Y-32140898D01*
X58403548Y-32132857D01*
X58345334Y-31877805D01*
X58246743Y-31626602D01*
X58111815Y-31392898D01*
X57943561Y-31181915D01*
X57943560Y-31181914D01*
X57943557Y-31181910D01*
X57745741Y-30998365D01*
X57722526Y-30982537D01*
X57522775Y-30846349D01*
X57522769Y-30846346D01*
X57522768Y-30846345D01*
X57522767Y-30846344D01*
X57279643Y-30729263D01*
X57279645Y-30729263D01*
X57021773Y-30649720D01*
X57021767Y-30649718D01*
X56754936Y-30609500D01*
X56754929Y-30609500D01*
X56485071Y-30609500D01*
X56485063Y-30609500D01*
X56218232Y-30649718D01*
X56218226Y-30649720D01*
X55960358Y-30729262D01*
X55717230Y-30846346D01*
X55494258Y-30998365D01*
X55296442Y-31181910D01*
X55128185Y-31392898D01*
X54993258Y-31626599D01*
X54993256Y-31626603D01*
X54894666Y-31877804D01*
X54894664Y-31877811D01*
X54834616Y-32140898D01*
X54814451Y-32409995D01*
X43230000Y-32409995D01*
X43230000Y-28814995D01*
X74139451Y-28814995D01*
X74139451Y-28815004D01*
X74159616Y-29084101D01*
X74219664Y-29347188D01*
X74219666Y-29347195D01*
X74318256Y-29598396D01*
X74318258Y-29598400D01*
X74332194Y-29622538D01*
X74453185Y-29832102D01*
X74584549Y-29996826D01*
X74621442Y-30043089D01*
X74777725Y-30188097D01*
X74819259Y-30226635D01*
X75042226Y-30378651D01*
X75285359Y-30495738D01*
X75543228Y-30575280D01*
X75543229Y-30575280D01*
X75543232Y-30575281D01*
X75810063Y-30615499D01*
X75810068Y-30615499D01*
X75810071Y-30615500D01*
X75810072Y-30615500D01*
X76079928Y-30615500D01*
X76079929Y-30615500D01*
X76119737Y-30609500D01*
X76346767Y-30575281D01*
X76346768Y-30575280D01*
X76346772Y-30575280D01*
X76604641Y-30495738D01*
X76847775Y-30378651D01*
X77070741Y-30226635D01*
X77268561Y-30043085D01*
X77436815Y-29832102D01*
X77571743Y-29598398D01*
X77670334Y-29347195D01*
X77730383Y-29084103D01*
X77750174Y-28820002D01*
X77750549Y-28815004D01*
X77750549Y-28814995D01*
X77730383Y-28545898D01*
X77675801Y-28306757D01*
X77670334Y-28282805D01*
X77571743Y-28031602D01*
X77436815Y-27797898D01*
X77268561Y-27586915D01*
X77268560Y-27586914D01*
X77268557Y-27586910D01*
X77070741Y-27403365D01*
X77017323Y-27366945D01*
X76847775Y-27251349D01*
X76847769Y-27251346D01*
X76847768Y-27251345D01*
X76847767Y-27251344D01*
X76604643Y-27134263D01*
X76604645Y-27134263D01*
X76346773Y-27054720D01*
X76346767Y-27054718D01*
X76079936Y-27014500D01*
X76079929Y-27014500D01*
X75810071Y-27014500D01*
X75810063Y-27014500D01*
X75543232Y-27054718D01*
X75543226Y-27054720D01*
X75285358Y-27134262D01*
X75042230Y-27251346D01*
X74819258Y-27403365D01*
X74621442Y-27586910D01*
X74453185Y-27797898D01*
X74318258Y-28031599D01*
X74318256Y-28031603D01*
X74219666Y-28282804D01*
X74219664Y-28282811D01*
X74159616Y-28545898D01*
X74139451Y-28814995D01*
X43230000Y-28814995D01*
X43230000Y-26034000D01*
X43249685Y-25966961D01*
X43302489Y-25921206D01*
X43354000Y-25910000D01*
X116228638Y-25910000D01*
X116295677Y-25929685D01*
G37*
%TD.AperFunction*%
%TD*%
%TA.AperFunction,Conductor*%
%TO.N,VIN-*%
G36*
X52280000Y-62419999D02*
G01*
X52280000Y-64088638D01*
X52260315Y-64155677D01*
X52243681Y-64176319D01*
X51706319Y-64713681D01*
X51644996Y-64747166D01*
X51618638Y-64750000D01*
X43951362Y-64750000D01*
X43884323Y-64730315D01*
X43863681Y-64713681D01*
X42786319Y-63636319D01*
X42752834Y-63574996D01*
X42750000Y-63548638D01*
X42750000Y-61799994D01*
X43494859Y-61799994D01*
X43494859Y-61800005D01*
X43515385Y-62047729D01*
X43515387Y-62047738D01*
X43576412Y-62288717D01*
X43676266Y-62516364D01*
X43776564Y-62669882D01*
X44517037Y-61929409D01*
X44534075Y-61992993D01*
X44599901Y-62107007D01*
X44692993Y-62200099D01*
X44807007Y-62265925D01*
X44870590Y-62282962D01*
X44129942Y-63023609D01*
X44176768Y-63060055D01*
X44176770Y-63060056D01*
X44395385Y-63178364D01*
X44395396Y-63178369D01*
X44630506Y-63259083D01*
X44875707Y-63300000D01*
X45124293Y-63300000D01*
X45369493Y-63259083D01*
X45604603Y-63178369D01*
X45604614Y-63178364D01*
X45823228Y-63060057D01*
X45823231Y-63060055D01*
X45870056Y-63023609D01*
X45129409Y-62282962D01*
X45192993Y-62265925D01*
X45307007Y-62200099D01*
X45400099Y-62107007D01*
X45465925Y-61992993D01*
X45482962Y-61929409D01*
X46223434Y-62669882D01*
X46323731Y-62516369D01*
X46423587Y-62288717D01*
X46484612Y-62047738D01*
X46484614Y-62047729D01*
X46505141Y-61800005D01*
X46505141Y-61799994D01*
X46484614Y-61552270D01*
X46484612Y-61552261D01*
X46423587Y-61311282D01*
X46323731Y-61083630D01*
X46223434Y-60930116D01*
X45482962Y-61670589D01*
X45465925Y-61607007D01*
X45400099Y-61492993D01*
X45307007Y-61399901D01*
X45192993Y-61334075D01*
X45129410Y-61317037D01*
X45870057Y-60576390D01*
X45870056Y-60576389D01*
X45823229Y-60539943D01*
X45604614Y-60421635D01*
X45604603Y-60421630D01*
X45369493Y-60340916D01*
X45124293Y-60300000D01*
X44875707Y-60300000D01*
X44630506Y-60340916D01*
X44395396Y-60421630D01*
X44395390Y-60421632D01*
X44176761Y-60539949D01*
X44129942Y-60576388D01*
X44129942Y-60576390D01*
X44870590Y-61317037D01*
X44807007Y-61334075D01*
X44692993Y-61399901D01*
X44599901Y-61492993D01*
X44534075Y-61607007D01*
X44517037Y-61670589D01*
X43776564Y-60930116D01*
X43676267Y-61083632D01*
X43576412Y-61311282D01*
X43515387Y-61552261D01*
X43515385Y-61552270D01*
X43494859Y-61799994D01*
X42750000Y-61799994D01*
X42750000Y-57011362D01*
X42769685Y-56944323D01*
X42786319Y-56923681D01*
X42793681Y-56916319D01*
X42855004Y-56882834D01*
X42881362Y-56880000D01*
X47710000Y-56880000D01*
X52280000Y-56880000D01*
X52280000Y-62419999D01*
G37*
%TD.AperFunction*%
%TD*%
M02*
