%TF.GenerationSoftware,KiCad,Pcbnew,8.0.2*%
%TF.CreationDate,2024-06-23T14:40:44+03:00*%
%TF.ProjectId,Chaos Circuits,4368616f-7320-4436-9972-63756974732e,1*%
%TF.SameCoordinates,Original*%
%TF.FileFunction,Copper,L3,Inr*%
%TF.FilePolarity,Positive*%
%FSLAX46Y46*%
G04 Gerber Fmt 4.6, Leading zero omitted, Abs format (unit mm)*
G04 Created by KiCad (PCBNEW 8.0.2) date 2024-06-23 14:40:44*
%MOMM*%
%LPD*%
G01*
G04 APERTURE LIST*
%TA.AperFunction,ComponentPad*%
%ADD10R,1.268000X1.268000*%
%TD*%
%TA.AperFunction,ComponentPad*%
%ADD11C,1.268000*%
%TD*%
%TA.AperFunction,ComponentPad*%
%ADD12C,2.032000*%
%TD*%
%TA.AperFunction,ComponentPad*%
%ADD13C,2.200000*%
%TD*%
%TA.AperFunction,ComponentPad*%
%ADD14C,2.800000*%
%TD*%
%TA.AperFunction,ComponentPad*%
%ADD15C,2.600000*%
%TD*%
%TA.AperFunction,ComponentPad*%
%ADD16R,1.050000X1.500000*%
%TD*%
%TA.AperFunction,ComponentPad*%
%ADD17O,1.050000X1.500000*%
%TD*%
%TA.AperFunction,ComponentPad*%
%ADD18R,1.500000X1.050000*%
%TD*%
%TA.AperFunction,ComponentPad*%
%ADD19O,1.500000X1.050000*%
%TD*%
%TA.AperFunction,ComponentPad*%
%ADD20C,2.000000*%
%TD*%
%TA.AperFunction,ComponentPad*%
%ADD21C,3.900000*%
%TD*%
%TA.AperFunction,ComponentPad*%
%ADD22C,1.800000*%
%TD*%
%TA.AperFunction,ComponentPad*%
%ADD23R,1.950000X1.950000*%
%TD*%
%TA.AperFunction,ComponentPad*%
%ADD24C,1.950000*%
%TD*%
%TA.AperFunction,ViaPad*%
%ADD25C,0.635000*%
%TD*%
%TA.AperFunction,Conductor*%
%ADD26C,0.304800*%
%TD*%
G04 APERTURE END LIST*
D10*
%TO.N,Net-(C6-Pad1)*%
%TO.C,R4*%
X65665000Y-36720000D03*
D11*
%TO.N,Net-(R4-Pad2)*%
X70745000Y-39260000D03*
%TO.N,unconnected-(R4-Pad3)*%
X65665000Y-41800000D03*
%TD*%
D12*
%TO.N,GND*%
%TO.C,J2*%
X32969999Y-70936599D03*
%TO.N,/5V*%
X32969999Y-75936599D03*
%TD*%
D13*
%TO.N,GND*%
%TO.C,TP1*%
X27757000Y-64400000D03*
%TD*%
D14*
%TO.N,Net-(U13-W)*%
%TO.C,TP27*%
X109300000Y-65720000D03*
%TD*%
%TO.N,Net-(U13-X1)*%
%TO.C,TP25*%
X104150000Y-62650000D03*
%TD*%
%TO.N,/-Y_Rossler*%
%TO.C,TP23*%
X118250000Y-44290000D03*
%TD*%
%TO.N,/-X_Rossler*%
%TO.C,TP22*%
X118220000Y-32790000D03*
%TD*%
%TO.N,/Y_Rossler*%
%TO.C,TP21*%
X106010000Y-45500000D03*
%TD*%
%TO.N,/X_Rossler*%
%TO.C,TP20*%
X106070000Y-33680000D03*
%TD*%
D15*
%TO.N,GND*%
%TO.C,TP19*%
X108600000Y-99110000D03*
%TO.N,Net-(R50-Pad2)*%
X116220000Y-99110000D03*
%TD*%
%TO.N,GND*%
%TO.C,TP18*%
X123380000Y-79380000D03*
%TO.N,Net-(R49-Pad2)*%
X123380000Y-71760000D03*
%TD*%
%TO.N,Net-(R48-Pad2)*%
%TO.C,TP17*%
X112730000Y-49020000D03*
%TO.N,GND*%
X120350000Y-49020000D03*
%TD*%
%TO.N,Net-(R47-Pad2)*%
%TO.C,TP16*%
X113440000Y-54150000D03*
%TO.N,GND*%
X121060000Y-54150000D03*
%TD*%
%TO.N,Net-(Q2-C)*%
%TO.C,TP15*%
X49547500Y-80515000D03*
%TO.N,GND*%
X49547500Y-72895000D03*
%TD*%
%TO.N,Net-(C26-Pad1)*%
%TO.C,TP14*%
X44127500Y-80600000D03*
%TO.N,GND*%
X44127500Y-72980000D03*
%TD*%
%TO.N,Net-(C25-Pad1)*%
%TO.C,TP13*%
X48897500Y-90960000D03*
%TO.N,GND*%
X56517500Y-90960000D03*
%TD*%
%TO.N,Net-(Q1-C)*%
%TO.C,TP12*%
X36072500Y-90229999D03*
%TO.N,GND*%
X36072500Y-97849999D03*
%TD*%
D10*
%TO.N,VIN+*%
%TO.C,R41*%
X111230000Y-80080000D03*
D11*
%TO.N,Net-(R40-Pad1)*%
X113770000Y-75000000D03*
%TO.N,VIN-*%
X116310000Y-80080000D03*
%TD*%
D10*
%TO.N,Net-(Q2-B)*%
%TO.C,R25*%
X49932500Y-100360000D03*
D11*
%TO.N,GND*%
X52472500Y-95280000D03*
%TO.N,unconnected-(R25-Pad3)*%
X55012500Y-100360000D03*
%TD*%
D16*
%TO.N,Net-(Q2-C)*%
%TO.C,Q2*%
X50872500Y-86515000D03*
D17*
%TO.N,Net-(Q2-B)*%
X52142501Y-86515000D03*
%TO.N,GND*%
X53412500Y-86515000D03*
%TD*%
D18*
%TO.N,Net-(Q1-C)*%
%TO.C,Q1*%
X40635000Y-89980000D03*
D19*
%TO.N,Net-(Q1-B)*%
X40635000Y-88709999D03*
%TO.N,GND*%
X40635000Y-87440000D03*
%TD*%
D20*
%TO.N,GND*%
%TO.C,TP3*%
X95750000Y-52970000D03*
%TD*%
%TO.N,VIN-*%
%TO.C,TP5*%
X45000000Y-61800000D03*
%TD*%
%TO.N,GND*%
%TO.C,TP4*%
X66470000Y-68380000D03*
%TD*%
D21*
%TO.N,N/C*%
%TO.C,H4*%
X30100000Y-100300000D03*
%TD*%
D15*
%TO.N,Net-(U1-+)*%
%TO.C,TP8*%
X75945000Y-36435000D03*
%TO.N,GND*%
X75945000Y-28815000D03*
%TD*%
D21*
%TO.N,N/C*%
%TO.C,H2*%
X122100000Y-28300000D03*
%TD*%
D15*
%TO.N,Net-(C6-Pad1)*%
%TO.C,TP7*%
X64240000Y-32410000D03*
%TO.N,GND*%
X56620000Y-32410000D03*
%TD*%
D20*
%TO.N,VIN+*%
%TO.C,TP6*%
X45000000Y-40700000D03*
%TD*%
D22*
%TO.N,Net-(C6-Pad1)*%
%TO.C,L1*%
X55270000Y-38235000D03*
%TO.N,GND*%
X55270000Y-43235000D03*
%TD*%
D15*
%TO.N,/-Y*%
%TO.C,TP11*%
X87710000Y-82000000D03*
%TO.N,GND*%
X95330000Y-82000000D03*
%TD*%
%TO.N,/Z*%
%TO.C,TP9*%
X87710000Y-94350000D03*
%TO.N,GND*%
X95330000Y-94350000D03*
%TD*%
D23*
%TO.N,VIN+*%
%TO.C,J1*%
X33000000Y-46600000D03*
D24*
%TO.N,GND*%
X33000000Y-51679999D03*
%TO.N,VIN-*%
X33000000Y-56760000D03*
%TD*%
D20*
%TO.N,GND*%
%TO.C,TP2*%
X45000000Y-51400000D03*
%TD*%
D15*
%TO.N,/X*%
%TO.C,TP10*%
X87660000Y-70300000D03*
%TO.N,GND*%
X95280000Y-70300000D03*
%TD*%
D21*
%TO.N,N/C*%
%TO.C,H3*%
X122100000Y-100300000D03*
%TD*%
%TO.N,N/C*%
%TO.C,H1*%
X30100000Y-28300000D03*
%TD*%
D25*
%TO.N,GND*%
X64730000Y-89110000D03*
X121820000Y-87110000D03*
X115690000Y-91870000D03*
X111060000Y-92530000D03*
X110800000Y-84270000D03*
X104600000Y-89180000D03*
X106420000Y-92310000D03*
X102900000Y-67690000D03*
X108690000Y-72230000D03*
X104230000Y-69330000D03*
X109790000Y-70660000D03*
X117640000Y-71530000D03*
X117040000Y-67200000D03*
X123010000Y-62470000D03*
X109790000Y-61590000D03*
X104930000Y-55260000D03*
X101730000Y-57280000D03*
X104390000Y-39490000D03*
X117250000Y-26100000D03*
X100470000Y-35690000D03*
X98810000Y-32470000D03*
X103770000Y-28610000D03*
X108704196Y-31214238D03*
X112800000Y-34020000D03*
X117200000Y-37820000D03*
X112550000Y-45640000D03*
X110970000Y-42440000D03*
X98760000Y-44340000D03*
X100180000Y-47540000D03*
X80230000Y-38000000D03*
X83250000Y-31670000D03*
X90590000Y-34840000D03*
X74130000Y-43680000D03*
X80840000Y-41240000D03*
X85990000Y-46000000D03*
X83440000Y-53080000D03*
X86880000Y-64660000D03*
X82540000Y-72790000D03*
X80600000Y-69630000D03*
X62970000Y-82470000D03*
X65480000Y-81510000D03*
X65130000Y-75650000D03*
X73480000Y-76830000D03*
X86670000Y-76360000D03*
X80280000Y-81550000D03*
X82390000Y-84230000D03*
X72220000Y-87850000D03*
X74560000Y-88550000D03*
X86910000Y-88940000D03*
X80580000Y-93420000D03*
X82390000Y-96610000D03*
X63840000Y-94190000D03*
X65990000Y-93260000D03*
X54140000Y-90660000D03*
X48090000Y-88370000D03*
X45020000Y-94660000D03*
X40260000Y-98880000D03*
X39940000Y-83370000D03*
X35340000Y-81960000D03*
X39320000Y-70960000D03*
X38390000Y-48400000D03*
X61920000Y-39820000D03*
X38650000Y-54360000D03*
X33120000Y-63860000D03*
X34650000Y-62440000D03*
X34790000Y-40480000D03*
X32660000Y-37580000D03*
%TO.N,VIN+*%
X121550000Y-91420000D03*
X111220000Y-88230000D03*
X122565102Y-64520000D03*
X109800000Y-68750000D03*
X106910000Y-63160000D03*
X104390000Y-43671900D03*
X118670000Y-40820000D03*
X117110000Y-30180000D03*
X104450000Y-31826900D03*
X73460000Y-78820000D03*
X74600000Y-90140000D03*
X88270000Y-91720000D03*
X88160000Y-79430000D03*
X88200000Y-67580000D03*
X79220000Y-53120000D03*
X90580000Y-39100000D03*
%TO.N,VIN-*%
X96280000Y-34690000D03*
X108710000Y-33330000D03*
X96290000Y-46690000D03*
X110380000Y-46490000D03*
X101740000Y-53080000D03*
X116110000Y-71570000D03*
X104670000Y-73210000D03*
X103400000Y-93840000D03*
X112180000Y-95600000D03*
X78110000Y-96590000D03*
X63780000Y-90020000D03*
X62940000Y-78370000D03*
X78270000Y-84310000D03*
X78280000Y-72790000D03*
X82930000Y-43730000D03*
X76190000Y-43750000D03*
%TO.N,/-X_Rossler*%
X121440000Y-43500000D03*
X122330000Y-43750000D03*
X113880000Y-85040000D03*
X113010000Y-84650000D03*
X93820000Y-40040000D03*
X93820000Y-41040000D03*
%TO.N,/Z_Rossler*%
X93700000Y-28820000D03*
X124860000Y-68250000D03*
%TO.N,/X_Rossler*%
X109510000Y-50290000D03*
X108350000Y-50320000D03*
%TO.N,/Z_Rossler*%
X94330000Y-27800000D03*
X124880000Y-67320000D03*
%TO.N,/X*%
X65880000Y-86940000D03*
%TO.N,/-Y*%
X73520000Y-67500000D03*
%TD*%
D26*
%TO.N,/-X_Rossler*%
X118260000Y-32790000D02*
X118220000Y-32790000D01*
X121440000Y-35970000D02*
X118260000Y-32790000D01*
X121440000Y-43500000D02*
X121440000Y-35970000D01*
X122080000Y-43500000D02*
X122330000Y-43750000D01*
X121440000Y-43500000D02*
X122080000Y-43500000D01*
X110360000Y-29940000D02*
X113210000Y-32790000D01*
X113210000Y-32790000D02*
X118220000Y-32790000D01*
X103920000Y-29940000D02*
X110360000Y-29940000D01*
X93820000Y-40040000D02*
X103920000Y-29940000D01*
X93820000Y-40040000D02*
X93820000Y-41040000D01*
%TO.N,/X_Rossler*%
X109110000Y-49890000D02*
X109510000Y-50290000D01*
X109110000Y-49560000D02*
X109110000Y-49890000D01*
X109110000Y-47460000D02*
X109110000Y-49560000D01*
X109110000Y-49560000D02*
X108350000Y-50320000D01*
X109010000Y-47460000D02*
X109110000Y-47460000D01*
X108320000Y-46770000D02*
X109010000Y-47460000D01*
X108290000Y-46740000D02*
X108320000Y-46770000D01*
X108290000Y-44450000D02*
X108290000Y-46740000D01*
X106070000Y-42230000D02*
X108290000Y-44450000D01*
X106070000Y-33680000D02*
X106070000Y-42230000D01*
%TD*%
%TA.AperFunction,Conductor*%
%TO.N,VIN+*%
G36*
X116565184Y-26569685D02*
G01*
X116603140Y-26608030D01*
X116606415Y-26613242D01*
X116736758Y-26743585D01*
X116892837Y-26841656D01*
X117066826Y-26902537D01*
X117066829Y-26902538D01*
X117192987Y-26916752D01*
X117250000Y-26923176D01*
X117250001Y-26923175D01*
X117255541Y-26923800D01*
X117319955Y-26950866D01*
X117329339Y-26959339D01*
X120111210Y-29741210D01*
X120119072Y-29749850D01*
X120310127Y-29980795D01*
X120310129Y-29980797D01*
X120310131Y-29980799D01*
X120534904Y-30191876D01*
X120625649Y-30257806D01*
X120640437Y-30270437D01*
X124433681Y-34063681D01*
X124467166Y-34125004D01*
X124470000Y-34151362D01*
X124470000Y-60740000D01*
X125436000Y-60740000D01*
X125503039Y-60759685D01*
X125548794Y-60812489D01*
X125560000Y-60864000D01*
X125560000Y-66556834D01*
X125540315Y-66623873D01*
X125487511Y-66669628D01*
X125418353Y-66679572D01*
X125370028Y-66661828D01*
X125237165Y-66578345D01*
X125237164Y-66578344D01*
X125237163Y-66578344D01*
X125175691Y-66556834D01*
X125063171Y-66517461D01*
X124880003Y-66496824D01*
X124879997Y-66496824D01*
X124696828Y-66517461D01*
X124522834Y-66578345D01*
X124366757Y-66676415D01*
X124236415Y-66806757D01*
X124138345Y-66962834D01*
X124077461Y-67136828D01*
X124056824Y-67319997D01*
X124056824Y-67320002D01*
X124077461Y-67503171D01*
X124138344Y-67677163D01*
X124154649Y-67703112D01*
X124173649Y-67770349D01*
X124154650Y-67835054D01*
X124118344Y-67892835D01*
X124057461Y-68066828D01*
X124036824Y-68249997D01*
X124036824Y-68250002D01*
X124057461Y-68433171D01*
X124090455Y-68527461D01*
X124111759Y-68588345D01*
X124118345Y-68607165D01*
X124131324Y-68627821D01*
X124216415Y-68763242D01*
X124346758Y-68893585D01*
X124502837Y-68991656D01*
X124635059Y-69037922D01*
X124676828Y-69052538D01*
X124859997Y-69073176D01*
X124860000Y-69073176D01*
X124860003Y-69073176D01*
X125043171Y-69052538D01*
X125043174Y-69052537D01*
X125217163Y-68991656D01*
X125370029Y-68895603D01*
X125437264Y-68876604D01*
X125504100Y-68896972D01*
X125549314Y-68950239D01*
X125560000Y-69000598D01*
X125560000Y-91488638D01*
X125540315Y-91555677D01*
X125523681Y-91576319D01*
X118211179Y-98888820D01*
X118149856Y-98922305D01*
X118080164Y-98917321D01*
X118024231Y-98875449D01*
X118002607Y-98828732D01*
X117945335Y-98577811D01*
X117945334Y-98577805D01*
X117846743Y-98326602D01*
X117711815Y-98092898D01*
X117543561Y-97881915D01*
X117543560Y-97881914D01*
X117543557Y-97881910D01*
X117345741Y-97698365D01*
X117122775Y-97546349D01*
X117122769Y-97546346D01*
X117122768Y-97546345D01*
X117122767Y-97546344D01*
X116879643Y-97429263D01*
X116879645Y-97429263D01*
X116621773Y-97349720D01*
X116621767Y-97349718D01*
X116354936Y-97309500D01*
X116354929Y-97309500D01*
X116085071Y-97309500D01*
X116085063Y-97309500D01*
X115818232Y-97349718D01*
X115818226Y-97349720D01*
X115560358Y-97429262D01*
X115317230Y-97546346D01*
X115094258Y-97698365D01*
X114896442Y-97881910D01*
X114728185Y-98092898D01*
X114593258Y-98326599D01*
X114593256Y-98326603D01*
X114494666Y-98577804D01*
X114494664Y-98577811D01*
X114434614Y-98840905D01*
X114434075Y-98844485D01*
X114404617Y-98907841D01*
X114345582Y-98945213D01*
X114311461Y-98950000D01*
X110508539Y-98950000D01*
X110441500Y-98930315D01*
X110395745Y-98877511D01*
X110385925Y-98844485D01*
X110385385Y-98840905D01*
X110325335Y-98577811D01*
X110325334Y-98577805D01*
X110226743Y-98326602D01*
X110091815Y-98092898D01*
X109923561Y-97881915D01*
X109923560Y-97881914D01*
X109923557Y-97881910D01*
X109725741Y-97698365D01*
X109502775Y-97546349D01*
X109502769Y-97546346D01*
X109502768Y-97546345D01*
X109502767Y-97546344D01*
X109259643Y-97429263D01*
X109259645Y-97429263D01*
X109001773Y-97349720D01*
X109001767Y-97349718D01*
X108734936Y-97309500D01*
X108734929Y-97309500D01*
X108465071Y-97309500D01*
X108465063Y-97309500D01*
X108198232Y-97349718D01*
X108198226Y-97349720D01*
X107940358Y-97429262D01*
X107697230Y-97546346D01*
X107474258Y-97698365D01*
X107276442Y-97881910D01*
X107108185Y-98092898D01*
X106973258Y-98326599D01*
X106973256Y-98326603D01*
X106874666Y-98577804D01*
X106874664Y-98577811D01*
X106814614Y-98840905D01*
X106814075Y-98844485D01*
X106784617Y-98907841D01*
X106725582Y-98945213D01*
X106691461Y-98950000D01*
X61881362Y-98950000D01*
X61814323Y-98930315D01*
X61793681Y-98913681D01*
X59756319Y-96876319D01*
X59722834Y-96814996D01*
X59720000Y-96788638D01*
X59720000Y-96589997D01*
X77286824Y-96589997D01*
X77286824Y-96590002D01*
X77307461Y-96773171D01*
X77343555Y-96876319D01*
X77368344Y-96947163D01*
X77466415Y-97103242D01*
X77596758Y-97233585D01*
X77752837Y-97331656D01*
X77885059Y-97377922D01*
X77926828Y-97392538D01*
X78109997Y-97413176D01*
X78110000Y-97413176D01*
X78110003Y-97413176D01*
X78293171Y-97392538D01*
X78293174Y-97392537D01*
X78467163Y-97331656D01*
X78623242Y-97233585D01*
X78753585Y-97103242D01*
X78851656Y-96947163D01*
X78912537Y-96773174D01*
X78912537Y-96773173D01*
X78912538Y-96773171D01*
X78930923Y-96609997D01*
X81566824Y-96609997D01*
X81566824Y-96610002D01*
X81587461Y-96793171D01*
X81633729Y-96925396D01*
X81648344Y-96967163D01*
X81746415Y-97123242D01*
X81876758Y-97253585D01*
X82032837Y-97351656D01*
X82149669Y-97392537D01*
X82206828Y-97412538D01*
X82389997Y-97433176D01*
X82390000Y-97433176D01*
X82390003Y-97433176D01*
X82573171Y-97412538D01*
X82573174Y-97412537D01*
X82747163Y-97351656D01*
X82903242Y-97253585D01*
X83033585Y-97123242D01*
X83131656Y-96967163D01*
X83192537Y-96793174D01*
X83192537Y-96793173D01*
X83192538Y-96793171D01*
X83213176Y-96610002D01*
X83213176Y-96609997D01*
X83192538Y-96426828D01*
X83162734Y-96341654D01*
X83131656Y-96252837D01*
X83033585Y-96096758D01*
X82903242Y-95966415D01*
X82819275Y-95913655D01*
X82747165Y-95868345D01*
X82747164Y-95868344D01*
X82747163Y-95868344D01*
X82690006Y-95848344D01*
X82573171Y-95807461D01*
X82390003Y-95786824D01*
X82389997Y-95786824D01*
X82206828Y-95807461D01*
X82032834Y-95868345D01*
X81876757Y-95966415D01*
X81746415Y-96096757D01*
X81648345Y-96252834D01*
X81587461Y-96426828D01*
X81566824Y-96609997D01*
X78930923Y-96609997D01*
X78933176Y-96590002D01*
X78933176Y-96589997D01*
X78912538Y-96406828D01*
X78889732Y-96341654D01*
X78851656Y-96232837D01*
X78753585Y-96076758D01*
X78623242Y-95946415D01*
X78571102Y-95913653D01*
X78467165Y-95848345D01*
X78467164Y-95848344D01*
X78467163Y-95848344D01*
X78425396Y-95833729D01*
X78293171Y-95787461D01*
X78110003Y-95766824D01*
X78109997Y-95766824D01*
X77926828Y-95787461D01*
X77752834Y-95848345D01*
X77596757Y-95946415D01*
X77466415Y-96076757D01*
X77368345Y-96232834D01*
X77307461Y-96406828D01*
X77286824Y-96589997D01*
X59720000Y-96589997D01*
X59720000Y-94189997D01*
X63016824Y-94189997D01*
X63016824Y-94190002D01*
X63037461Y-94373171D01*
X63073732Y-94476826D01*
X63098344Y-94547163D01*
X63196415Y-94703242D01*
X63326758Y-94833585D01*
X63482837Y-94931656D01*
X63615059Y-94977922D01*
X63656828Y-94992538D01*
X63839997Y-95013176D01*
X63840000Y-95013176D01*
X63840003Y-95013176D01*
X64023171Y-94992538D01*
X64023174Y-94992537D01*
X64197163Y-94931656D01*
X64353242Y-94833585D01*
X64483585Y-94703242D01*
X64581656Y-94547163D01*
X64642537Y-94373174D01*
X64642537Y-94373173D01*
X64642538Y-94373171D01*
X64645149Y-94349995D01*
X85904451Y-94349995D01*
X85904451Y-94350004D01*
X85924616Y-94619101D01*
X85984664Y-94882188D01*
X85984666Y-94882195D01*
X86064951Y-95086757D01*
X86083257Y-95133398D01*
X86218185Y-95367102D01*
X86354080Y-95537509D01*
X86386442Y-95578089D01*
X86573183Y-95751358D01*
X86584259Y-95761635D01*
X86807226Y-95913651D01*
X87050359Y-96030738D01*
X87308228Y-96110280D01*
X87308229Y-96110280D01*
X87308232Y-96110281D01*
X87575063Y-96150499D01*
X87575068Y-96150499D01*
X87575071Y-96150500D01*
X87575072Y-96150500D01*
X87844928Y-96150500D01*
X87844929Y-96150500D01*
X87844936Y-96150499D01*
X88111767Y-96110281D01*
X88111768Y-96110280D01*
X88111772Y-96110280D01*
X88369641Y-96030738D01*
X88612775Y-95913651D01*
X88835741Y-95761635D01*
X89009942Y-95600000D01*
X89033557Y-95578089D01*
X89033557Y-95578087D01*
X89033561Y-95578085D01*
X89201815Y-95367102D01*
X89336743Y-95133398D01*
X89435334Y-94882195D01*
X89495383Y-94619103D01*
X89503378Y-94512418D01*
X89515549Y-94350004D01*
X89515549Y-94349995D01*
X93524451Y-94349995D01*
X93524451Y-94350004D01*
X93544616Y-94619101D01*
X93604664Y-94882188D01*
X93604666Y-94882195D01*
X93684951Y-95086757D01*
X93703257Y-95133398D01*
X93838185Y-95367102D01*
X93974080Y-95537509D01*
X94006442Y-95578089D01*
X94193183Y-95751358D01*
X94204259Y-95761635D01*
X94427226Y-95913651D01*
X94670359Y-96030738D01*
X94928228Y-96110280D01*
X94928229Y-96110280D01*
X94928232Y-96110281D01*
X95195063Y-96150499D01*
X95195068Y-96150499D01*
X95195071Y-96150500D01*
X95195072Y-96150500D01*
X95464928Y-96150500D01*
X95464929Y-96150500D01*
X95464936Y-96150499D01*
X95731767Y-96110281D01*
X95731768Y-96110280D01*
X95731772Y-96110280D01*
X95989641Y-96030738D01*
X96232775Y-95913651D01*
X96455741Y-95761635D01*
X96629942Y-95600000D01*
X96629945Y-95599997D01*
X111356824Y-95599997D01*
X111356824Y-95600002D01*
X111377461Y-95783171D01*
X111400267Y-95848345D01*
X111438344Y-95957163D01*
X111536415Y-96113242D01*
X111666758Y-96243585D01*
X111822837Y-96341656D01*
X111955059Y-96387922D01*
X111996828Y-96402538D01*
X112179997Y-96423176D01*
X112180000Y-96423176D01*
X112180003Y-96423176D01*
X112363171Y-96402538D01*
X112363174Y-96402537D01*
X112537163Y-96341656D01*
X112693242Y-96243585D01*
X112823585Y-96113242D01*
X112921656Y-95957163D01*
X112982537Y-95783174D01*
X112982537Y-95783173D01*
X112982538Y-95783171D01*
X113003176Y-95600002D01*
X113003176Y-95599997D01*
X112982538Y-95416828D01*
X112965138Y-95367101D01*
X112921656Y-95242837D01*
X112823585Y-95086758D01*
X112693242Y-94956415D01*
X112575122Y-94882195D01*
X112537165Y-94858345D01*
X112537164Y-94858344D01*
X112537163Y-94858344D01*
X112493809Y-94843174D01*
X112363171Y-94797461D01*
X112180003Y-94776824D01*
X112179997Y-94776824D01*
X111996828Y-94797461D01*
X111822834Y-94858345D01*
X111666757Y-94956415D01*
X111536415Y-95086757D01*
X111438345Y-95242834D01*
X111377461Y-95416828D01*
X111356824Y-95599997D01*
X96629945Y-95599997D01*
X96653557Y-95578089D01*
X96653557Y-95578087D01*
X96653561Y-95578085D01*
X96821815Y-95367102D01*
X96956743Y-95133398D01*
X97055334Y-94882195D01*
X97115383Y-94619103D01*
X97123378Y-94512418D01*
X97135549Y-94350004D01*
X97135549Y-94349995D01*
X97115383Y-94080898D01*
X97115383Y-94080897D01*
X97060399Y-93839997D01*
X102576824Y-93839997D01*
X102576824Y-93840002D01*
X102597461Y-94023171D01*
X102617661Y-94080898D01*
X102655838Y-94190002D01*
X102658345Y-94197165D01*
X102674288Y-94222538D01*
X102756415Y-94353242D01*
X102886758Y-94483585D01*
X103042837Y-94581656D01*
X103175059Y-94627922D01*
X103216828Y-94642538D01*
X103399997Y-94663176D01*
X103400000Y-94663176D01*
X103400003Y-94663176D01*
X103583171Y-94642538D01*
X103583174Y-94642537D01*
X103757163Y-94581656D01*
X103913242Y-94483585D01*
X104043585Y-94353242D01*
X104141656Y-94197163D01*
X104202537Y-94023174D01*
X104202537Y-94023173D01*
X104202538Y-94023171D01*
X104223176Y-93840002D01*
X104223176Y-93839997D01*
X104202538Y-93656828D01*
X104183762Y-93603171D01*
X104141656Y-93482837D01*
X104043585Y-93326758D01*
X103913242Y-93196415D01*
X103757163Y-93098344D01*
X103715396Y-93083729D01*
X103583171Y-93037461D01*
X103400003Y-93016824D01*
X103399997Y-93016824D01*
X103216828Y-93037461D01*
X103042834Y-93098345D01*
X102886757Y-93196415D01*
X102756415Y-93326757D01*
X102658345Y-93482834D01*
X102597461Y-93656828D01*
X102576824Y-93839997D01*
X97060399Y-93839997D01*
X97055334Y-93817805D01*
X96956743Y-93566602D01*
X96821815Y-93332898D01*
X96653561Y-93121915D01*
X96653560Y-93121914D01*
X96653557Y-93121910D01*
X96455741Y-92938365D01*
X96409382Y-92906758D01*
X96232775Y-92786349D01*
X96232769Y-92786346D01*
X96232768Y-92786345D01*
X96232767Y-92786344D01*
X95989643Y-92669263D01*
X95989645Y-92669263D01*
X95731773Y-92589720D01*
X95731767Y-92589718D01*
X95464936Y-92549500D01*
X95464929Y-92549500D01*
X95195071Y-92549500D01*
X95195063Y-92549500D01*
X94928232Y-92589718D01*
X94928226Y-92589720D01*
X94670358Y-92669262D01*
X94427230Y-92786346D01*
X94204258Y-92938365D01*
X94006442Y-93121910D01*
X93838185Y-93332898D01*
X93703258Y-93566599D01*
X93703256Y-93566603D01*
X93604666Y-93817804D01*
X93604664Y-93817811D01*
X93544616Y-94080898D01*
X93524451Y-94349995D01*
X89515549Y-94349995D01*
X89495383Y-94080898D01*
X89495383Y-94080897D01*
X89435334Y-93817805D01*
X89336743Y-93566602D01*
X89201815Y-93332898D01*
X89033561Y-93121915D01*
X89033560Y-93121914D01*
X89033557Y-93121910D01*
X88835741Y-92938365D01*
X88789382Y-92906758D01*
X88612775Y-92786349D01*
X88612769Y-92786346D01*
X88612768Y-92786345D01*
X88612767Y-92786344D01*
X88369643Y-92669263D01*
X88369645Y-92669263D01*
X88111773Y-92589720D01*
X88111767Y-92589718D01*
X87844936Y-92549500D01*
X87844929Y-92549500D01*
X87575071Y-92549500D01*
X87575063Y-92549500D01*
X87308232Y-92589718D01*
X87308226Y-92589720D01*
X87050358Y-92669262D01*
X86807230Y-92786346D01*
X86584258Y-92938365D01*
X86386442Y-93121910D01*
X86218185Y-93332898D01*
X86083258Y-93566599D01*
X86083256Y-93566603D01*
X85984666Y-93817804D01*
X85984664Y-93817811D01*
X85924616Y-94080898D01*
X85904451Y-94349995D01*
X64645149Y-94349995D01*
X64663176Y-94190002D01*
X64663176Y-94189997D01*
X64642538Y-94006828D01*
X64611576Y-93918344D01*
X64581656Y-93832837D01*
X64483585Y-93676758D01*
X64353242Y-93546415D01*
X64197165Y-93448345D01*
X64197164Y-93448344D01*
X64197163Y-93448344D01*
X64155396Y-93433729D01*
X64023171Y-93387461D01*
X63840003Y-93366824D01*
X63839997Y-93366824D01*
X63656828Y-93387461D01*
X63482834Y-93448345D01*
X63326757Y-93546415D01*
X63196415Y-93676757D01*
X63098345Y-93832834D01*
X63037461Y-94006828D01*
X63016824Y-94189997D01*
X59720000Y-94189997D01*
X59720000Y-93259997D01*
X65166824Y-93259997D01*
X65166824Y-93260002D01*
X65187461Y-93443171D01*
X65223588Y-93546415D01*
X65248344Y-93617163D01*
X65346415Y-93773242D01*
X65476758Y-93903585D01*
X65632837Y-94001656D01*
X65765059Y-94047922D01*
X65806828Y-94062538D01*
X65989997Y-94083176D01*
X65990000Y-94083176D01*
X65990003Y-94083176D01*
X66173171Y-94062538D01*
X66173174Y-94062537D01*
X66347163Y-94001656D01*
X66503242Y-93903585D01*
X66633585Y-93773242D01*
X66731656Y-93617163D01*
X66792537Y-93443174D01*
X66792537Y-93443173D01*
X66792538Y-93443171D01*
X66795149Y-93419997D01*
X79756824Y-93419997D01*
X79756824Y-93420002D01*
X79777461Y-93603171D01*
X79838345Y-93777165D01*
X79877825Y-93839997D01*
X79936415Y-93933242D01*
X80066758Y-94063585D01*
X80222837Y-94161656D01*
X80324311Y-94197163D01*
X80396828Y-94222538D01*
X80579997Y-94243176D01*
X80580000Y-94243176D01*
X80580003Y-94243176D01*
X80763171Y-94222538D01*
X80763174Y-94222537D01*
X80937163Y-94161656D01*
X81093242Y-94063585D01*
X81223585Y-93933242D01*
X81321656Y-93777163D01*
X81382537Y-93603174D01*
X81382537Y-93603173D01*
X81382538Y-93603171D01*
X81403176Y-93420002D01*
X81403176Y-93419997D01*
X81382538Y-93236828D01*
X81360408Y-93173584D01*
X81321656Y-93062837D01*
X81223585Y-92906758D01*
X81093242Y-92776415D01*
X80937165Y-92678345D01*
X80937164Y-92678344D01*
X80937163Y-92678344D01*
X80895396Y-92663729D01*
X80763171Y-92617461D01*
X80580003Y-92596824D01*
X80579997Y-92596824D01*
X80396828Y-92617461D01*
X80222834Y-92678345D01*
X80066757Y-92776415D01*
X79936415Y-92906757D01*
X79838345Y-93062834D01*
X79777461Y-93236828D01*
X79756824Y-93419997D01*
X66795149Y-93419997D01*
X66813176Y-93260002D01*
X66813176Y-93259997D01*
X66792538Y-93076828D01*
X66777922Y-93035059D01*
X66731656Y-92902837D01*
X66633585Y-92746758D01*
X66503242Y-92616415D01*
X66460754Y-92589718D01*
X66347165Y-92518345D01*
X66347164Y-92518344D01*
X66347163Y-92518344D01*
X66275231Y-92493174D01*
X66173171Y-92457461D01*
X65990003Y-92436824D01*
X65989997Y-92436824D01*
X65806828Y-92457461D01*
X65632834Y-92518345D01*
X65476757Y-92616415D01*
X65346415Y-92746757D01*
X65248345Y-92902834D01*
X65187461Y-93076828D01*
X65166824Y-93259997D01*
X59720000Y-93259997D01*
X59720000Y-92309997D01*
X105596824Y-92309997D01*
X105596824Y-92310002D01*
X105617461Y-92493171D01*
X105678345Y-92667165D01*
X105746992Y-92776415D01*
X105776415Y-92823242D01*
X105906758Y-92953585D01*
X106062837Y-93051656D01*
X106195059Y-93097922D01*
X106236828Y-93112538D01*
X106419997Y-93133176D01*
X106420000Y-93133176D01*
X106420003Y-93133176D01*
X106603171Y-93112538D01*
X106603174Y-93112537D01*
X106777163Y-93051656D01*
X106933242Y-92953585D01*
X107063585Y-92823242D01*
X107161656Y-92667163D01*
X107209652Y-92529997D01*
X110236824Y-92529997D01*
X110236824Y-92530002D01*
X110257461Y-92713171D01*
X110318345Y-92887165D01*
X110330656Y-92906757D01*
X110416415Y-93043242D01*
X110546758Y-93173585D01*
X110702837Y-93271656D01*
X110835059Y-93317922D01*
X110876828Y-93332538D01*
X111059997Y-93353176D01*
X111060000Y-93353176D01*
X111060003Y-93353176D01*
X111243171Y-93332538D01*
X111243174Y-93332537D01*
X111417163Y-93271656D01*
X111573242Y-93173585D01*
X111703585Y-93043242D01*
X111801656Y-92887163D01*
X111862537Y-92713174D01*
X111862537Y-92713173D01*
X111862538Y-92713171D01*
X111883176Y-92530002D01*
X111883176Y-92529997D01*
X111862538Y-92346828D01*
X111806991Y-92188085D01*
X111801656Y-92172837D01*
X111703585Y-92016758D01*
X111573242Y-91886415D01*
X111547113Y-91869997D01*
X114866824Y-91869997D01*
X114866824Y-91870002D01*
X114887461Y-92053171D01*
X114948345Y-92227165D01*
X115039122Y-92371635D01*
X115046415Y-92383242D01*
X115176758Y-92513585D01*
X115332837Y-92611656D01*
X115465059Y-92657922D01*
X115506828Y-92672538D01*
X115689997Y-92693176D01*
X115690000Y-92693176D01*
X115690003Y-92693176D01*
X115873171Y-92672538D01*
X115873174Y-92672537D01*
X116047163Y-92611656D01*
X116203242Y-92513585D01*
X116333585Y-92383242D01*
X116431656Y-92227163D01*
X116492537Y-92053174D01*
X116492537Y-92053173D01*
X116492538Y-92053171D01*
X116513176Y-91870002D01*
X116513176Y-91869997D01*
X116492538Y-91686828D01*
X116453869Y-91576319D01*
X116431656Y-91512837D01*
X116333585Y-91356758D01*
X116203242Y-91226415D01*
X116047163Y-91128344D01*
X116005396Y-91113729D01*
X115873171Y-91067461D01*
X115690003Y-91046824D01*
X115689997Y-91046824D01*
X115506828Y-91067461D01*
X115332834Y-91128345D01*
X115176757Y-91226415D01*
X115046415Y-91356757D01*
X114948345Y-91512834D01*
X114887461Y-91686828D01*
X114866824Y-91869997D01*
X111547113Y-91869997D01*
X111430554Y-91796758D01*
X111417165Y-91788345D01*
X111417164Y-91788344D01*
X111417163Y-91788344D01*
X111375396Y-91773729D01*
X111243171Y-91727461D01*
X111060003Y-91706824D01*
X111059997Y-91706824D01*
X110876828Y-91727461D01*
X110702834Y-91788345D01*
X110546757Y-91886415D01*
X110416415Y-92016757D01*
X110318345Y-92172834D01*
X110257461Y-92346828D01*
X110236824Y-92529997D01*
X107209652Y-92529997D01*
X107222537Y-92493174D01*
X107222537Y-92493173D01*
X107222538Y-92493171D01*
X107243176Y-92310002D01*
X107243176Y-92309997D01*
X107222538Y-92126828D01*
X107196764Y-92053171D01*
X107161656Y-91952837D01*
X107063585Y-91796758D01*
X106933242Y-91666415D01*
X106777165Y-91568345D01*
X106777164Y-91568344D01*
X106777163Y-91568344D01*
X106735396Y-91553729D01*
X106603171Y-91507461D01*
X106420003Y-91486824D01*
X106419997Y-91486824D01*
X106236828Y-91507461D01*
X106062834Y-91568345D01*
X105906757Y-91666415D01*
X105776415Y-91796757D01*
X105678345Y-91952834D01*
X105617461Y-92126828D01*
X105596824Y-92309997D01*
X59720000Y-92309997D01*
X59720000Y-90019997D01*
X62956824Y-90019997D01*
X62956824Y-90020002D01*
X62977461Y-90203171D01*
X62998473Y-90263218D01*
X63038344Y-90377163D01*
X63136415Y-90533242D01*
X63266758Y-90663585D01*
X63422837Y-90761656D01*
X63555059Y-90807922D01*
X63596828Y-90822538D01*
X63779997Y-90843176D01*
X63780000Y-90843176D01*
X63780003Y-90843176D01*
X63963171Y-90822538D01*
X63963174Y-90822537D01*
X64137163Y-90761656D01*
X64293242Y-90663585D01*
X64423585Y-90533242D01*
X64521656Y-90377163D01*
X64582537Y-90203174D01*
X64582537Y-90203173D01*
X64582538Y-90203171D01*
X64600552Y-90043292D01*
X64627618Y-89978878D01*
X64685213Y-89939323D01*
X64723772Y-89933176D01*
X64730003Y-89933176D01*
X64913171Y-89912538D01*
X64913174Y-89912537D01*
X65087163Y-89851656D01*
X65243242Y-89753585D01*
X65373585Y-89623242D01*
X65471656Y-89467163D01*
X65532537Y-89293174D01*
X65532537Y-89293173D01*
X65532538Y-89293171D01*
X65553176Y-89110002D01*
X65553176Y-89109997D01*
X65532538Y-88926828D01*
X65517286Y-88883242D01*
X65471656Y-88752837D01*
X65373585Y-88596758D01*
X65243242Y-88466415D01*
X65087163Y-88368344D01*
X65045396Y-88353729D01*
X64913171Y-88307461D01*
X64730003Y-88286824D01*
X64729997Y-88286824D01*
X64546828Y-88307461D01*
X64372834Y-88368345D01*
X64216757Y-88466415D01*
X64086415Y-88596757D01*
X63988345Y-88752834D01*
X63927461Y-88926828D01*
X63909448Y-89086708D01*
X63882382Y-89151122D01*
X63824787Y-89190677D01*
X63786228Y-89196824D01*
X63779997Y-89196824D01*
X63596828Y-89217461D01*
X63422834Y-89278345D01*
X63266757Y-89376415D01*
X63136415Y-89506757D01*
X63038345Y-89662834D01*
X62977461Y-89836828D01*
X62956824Y-90019997D01*
X59720000Y-90019997D01*
X59720000Y-87849997D01*
X71396824Y-87849997D01*
X71396824Y-87850002D01*
X71417461Y-88033171D01*
X71446733Y-88116824D01*
X71478344Y-88207163D01*
X71576415Y-88363242D01*
X71706758Y-88493585D01*
X71862837Y-88591656D01*
X71995059Y-88637922D01*
X72036828Y-88652538D01*
X72219997Y-88673176D01*
X72220000Y-88673176D01*
X72220003Y-88673176D01*
X72403171Y-88652538D01*
X72403174Y-88652537D01*
X72577163Y-88591656D01*
X72643463Y-88549997D01*
X73736824Y-88549997D01*
X73736824Y-88550002D01*
X73757461Y-88733171D01*
X73788836Y-88822834D01*
X73818344Y-88907163D01*
X73916415Y-89063242D01*
X74046758Y-89193585D01*
X74202837Y-89291656D01*
X74335059Y-89337922D01*
X74376828Y-89352538D01*
X74559997Y-89373176D01*
X74560000Y-89373176D01*
X74560003Y-89373176D01*
X74743171Y-89352538D01*
X74743174Y-89352537D01*
X74917163Y-89291656D01*
X75073242Y-89193585D01*
X75203585Y-89063242D01*
X75281025Y-88939997D01*
X86086824Y-88939997D01*
X86086824Y-88940002D01*
X86107461Y-89123171D01*
X86133234Y-89196824D01*
X86166416Y-89291654D01*
X86168345Y-89297165D01*
X86209821Y-89363174D01*
X86266415Y-89453242D01*
X86396758Y-89583585D01*
X86552837Y-89681656D01*
X86685059Y-89727922D01*
X86726828Y-89742538D01*
X86909997Y-89763176D01*
X86910000Y-89763176D01*
X86910003Y-89763176D01*
X87093171Y-89742538D01*
X87093174Y-89742537D01*
X87267163Y-89681656D01*
X87423242Y-89583585D01*
X87553585Y-89453242D01*
X87651656Y-89297163D01*
X87692654Y-89179997D01*
X103776824Y-89179997D01*
X103776824Y-89180002D01*
X103797461Y-89363171D01*
X103858345Y-89537165D01*
X103887512Y-89583584D01*
X103956415Y-89693242D01*
X104086758Y-89823585D01*
X104242837Y-89921656D01*
X104375059Y-89967922D01*
X104416828Y-89982538D01*
X104599997Y-90003176D01*
X104600000Y-90003176D01*
X104600003Y-90003176D01*
X104783171Y-89982538D01*
X104793631Y-89978878D01*
X104957163Y-89921656D01*
X105113242Y-89823585D01*
X105243585Y-89693242D01*
X105341656Y-89537163D01*
X105402537Y-89363174D01*
X105402537Y-89363173D01*
X105402538Y-89363171D01*
X105423176Y-89180002D01*
X105423176Y-89179997D01*
X105402538Y-88996828D01*
X105387922Y-88955059D01*
X105341656Y-88822837D01*
X105243585Y-88666758D01*
X105113242Y-88536415D01*
X104957165Y-88438345D01*
X104957164Y-88438344D01*
X104957163Y-88438344D01*
X104915396Y-88423729D01*
X104783171Y-88377461D01*
X104600003Y-88356824D01*
X104599997Y-88356824D01*
X104416828Y-88377461D01*
X104242834Y-88438345D01*
X104086757Y-88536415D01*
X103956415Y-88666757D01*
X103858345Y-88822834D01*
X103797461Y-88996828D01*
X103776824Y-89179997D01*
X87692654Y-89179997D01*
X87712537Y-89123174D01*
X87712537Y-89123173D01*
X87712538Y-89123171D01*
X87733176Y-88940002D01*
X87733176Y-88939997D01*
X87712538Y-88756828D01*
X87697922Y-88715059D01*
X87651656Y-88582837D01*
X87553585Y-88426758D01*
X87423242Y-88296415D01*
X87281202Y-88207165D01*
X87267165Y-88198345D01*
X87267164Y-88198344D01*
X87267163Y-88198344D01*
X87225396Y-88183729D01*
X87093171Y-88137461D01*
X86910003Y-88116824D01*
X86909997Y-88116824D01*
X86726828Y-88137461D01*
X86552834Y-88198345D01*
X86396757Y-88296415D01*
X86266415Y-88426757D01*
X86168345Y-88582834D01*
X86107461Y-88756828D01*
X86086824Y-88939997D01*
X75281025Y-88939997D01*
X75301656Y-88907163D01*
X75362537Y-88733174D01*
X75362537Y-88733173D01*
X75362538Y-88733171D01*
X75383176Y-88550002D01*
X75383176Y-88549997D01*
X75362538Y-88366828D01*
X75334543Y-88286824D01*
X75301656Y-88192837D01*
X75203585Y-88036758D01*
X75073242Y-87906415D01*
X74917165Y-87808345D01*
X74917164Y-87808344D01*
X74917163Y-87808344D01*
X74875396Y-87793729D01*
X74743171Y-87747461D01*
X74560003Y-87726824D01*
X74559997Y-87726824D01*
X74376828Y-87747461D01*
X74202834Y-87808345D01*
X74046757Y-87906415D01*
X73916415Y-88036757D01*
X73818345Y-88192834D01*
X73757461Y-88366828D01*
X73736824Y-88549997D01*
X72643463Y-88549997D01*
X72733242Y-88493585D01*
X72863585Y-88363242D01*
X72961656Y-88207163D01*
X73022537Y-88033174D01*
X73022537Y-88033173D01*
X73022538Y-88033171D01*
X73043176Y-87850002D01*
X73043176Y-87849997D01*
X73022538Y-87666828D01*
X72993410Y-87583585D01*
X72961656Y-87492837D01*
X72863585Y-87336758D01*
X72733242Y-87206415D01*
X72579794Y-87109997D01*
X120996824Y-87109997D01*
X120996824Y-87110002D01*
X121017461Y-87293171D01*
X121063729Y-87425396D01*
X121078344Y-87467163D01*
X121176415Y-87623242D01*
X121306758Y-87753585D01*
X121462837Y-87851656D01*
X121595059Y-87897922D01*
X121636828Y-87912538D01*
X121819997Y-87933176D01*
X121820000Y-87933176D01*
X121820003Y-87933176D01*
X122003171Y-87912538D01*
X122003174Y-87912537D01*
X122177163Y-87851656D01*
X122333242Y-87753585D01*
X122463585Y-87623242D01*
X122561656Y-87467163D01*
X122622537Y-87293174D01*
X122622537Y-87293173D01*
X122622538Y-87293171D01*
X122643176Y-87110002D01*
X122643176Y-87109997D01*
X122622538Y-86926828D01*
X122592506Y-86841003D01*
X122561656Y-86752837D01*
X122463585Y-86596758D01*
X122333242Y-86466415D01*
X122177163Y-86368344D01*
X122135396Y-86353729D01*
X122003171Y-86307461D01*
X121820003Y-86286824D01*
X121819997Y-86286824D01*
X121636828Y-86307461D01*
X121462834Y-86368345D01*
X121306757Y-86466415D01*
X121176415Y-86596757D01*
X121078345Y-86752834D01*
X121017461Y-86926828D01*
X120996824Y-87109997D01*
X72579794Y-87109997D01*
X72577163Y-87108344D01*
X72535396Y-87093729D01*
X72403171Y-87047461D01*
X72220003Y-87026824D01*
X72219997Y-87026824D01*
X72036828Y-87047461D01*
X71862834Y-87108345D01*
X71706757Y-87206415D01*
X71576415Y-87336757D01*
X71478345Y-87492834D01*
X71417461Y-87666828D01*
X71396824Y-87849997D01*
X59720000Y-87849997D01*
X59720000Y-86939997D01*
X65056824Y-86939997D01*
X65056824Y-86940002D01*
X65077461Y-87123171D01*
X65138345Y-87297165D01*
X65236415Y-87453242D01*
X65366758Y-87583585D01*
X65522837Y-87681656D01*
X65649826Y-87726091D01*
X65696828Y-87742538D01*
X65879997Y-87763176D01*
X65880000Y-87763176D01*
X65880003Y-87763176D01*
X66063171Y-87742538D01*
X66063174Y-87742537D01*
X66237163Y-87681656D01*
X66393242Y-87583585D01*
X66523585Y-87453242D01*
X66621656Y-87297163D01*
X66682537Y-87123174D01*
X66682537Y-87123173D01*
X66682538Y-87123171D01*
X66703176Y-86940002D01*
X66703176Y-86939997D01*
X66682538Y-86756828D01*
X66667922Y-86715059D01*
X66621656Y-86582837D01*
X66523585Y-86426758D01*
X66393242Y-86296415D01*
X66237163Y-86198344D01*
X66195396Y-86183729D01*
X66063171Y-86137461D01*
X65880003Y-86116824D01*
X65879997Y-86116824D01*
X65696828Y-86137461D01*
X65522834Y-86198345D01*
X65366757Y-86296415D01*
X65236415Y-86426757D01*
X65138345Y-86582834D01*
X65077461Y-86756828D01*
X65056824Y-86939997D01*
X59720000Y-86939997D01*
X59720000Y-84309997D01*
X77446824Y-84309997D01*
X77446824Y-84310002D01*
X77467461Y-84493171D01*
X77513729Y-84625396D01*
X77522338Y-84650000D01*
X77528345Y-84667165D01*
X77576148Y-84743242D01*
X77626415Y-84823242D01*
X77756758Y-84953585D01*
X77912837Y-85051656D01*
X78031495Y-85093176D01*
X78086828Y-85112538D01*
X78269997Y-85133176D01*
X78270000Y-85133176D01*
X78270003Y-85133176D01*
X78453171Y-85112538D01*
X78453174Y-85112537D01*
X78627163Y-85051656D01*
X78783242Y-84953585D01*
X78913585Y-84823242D01*
X79011656Y-84667163D01*
X79072537Y-84493174D01*
X79072537Y-84493173D01*
X79072538Y-84493171D01*
X79093176Y-84310002D01*
X79093176Y-84309997D01*
X79084162Y-84229997D01*
X81566824Y-84229997D01*
X81566824Y-84230002D01*
X81587461Y-84413171D01*
X81648345Y-84587165D01*
X81708458Y-84682834D01*
X81746415Y-84743242D01*
X81876758Y-84873585D01*
X82032837Y-84971656D01*
X82165059Y-85017922D01*
X82206828Y-85032538D01*
X82389997Y-85053176D01*
X82390000Y-85053176D01*
X82390003Y-85053176D01*
X82573171Y-85032538D01*
X82573174Y-85032537D01*
X82747163Y-84971656D01*
X82903242Y-84873585D01*
X83033585Y-84743242D01*
X83131656Y-84587163D01*
X83192537Y-84413174D01*
X83192537Y-84413173D01*
X83192538Y-84413171D01*
X83208670Y-84269997D01*
X109976824Y-84269997D01*
X109976824Y-84270002D01*
X109997461Y-84453171D01*
X110058345Y-84627165D01*
X110083479Y-84667165D01*
X110156415Y-84783242D01*
X110286758Y-84913585D01*
X110442837Y-85011656D01*
X110561495Y-85053176D01*
X110616828Y-85072538D01*
X110799997Y-85093176D01*
X110800000Y-85093176D01*
X110800003Y-85093176D01*
X110983171Y-85072538D01*
X110983174Y-85072537D01*
X111157163Y-85011656D01*
X111313242Y-84913585D01*
X111443585Y-84783242D01*
X111527308Y-84649997D01*
X112186824Y-84649997D01*
X112186824Y-84650002D01*
X112207461Y-84833171D01*
X112268345Y-85007165D01*
X112347523Y-85133176D01*
X112366415Y-85163242D01*
X112496758Y-85293585D01*
X112652837Y-85391656D01*
X112785059Y-85437922D01*
X112826828Y-85452538D01*
X113009997Y-85473176D01*
X113010000Y-85473176D01*
X113010002Y-85473176D01*
X113097037Y-85463369D01*
X113165859Y-85475423D01*
X113215915Y-85520617D01*
X113217204Y-85522669D01*
X113236415Y-85553242D01*
X113366758Y-85683585D01*
X113522837Y-85781656D01*
X113655059Y-85827922D01*
X113696828Y-85842538D01*
X113879997Y-85863176D01*
X113880000Y-85863176D01*
X113880003Y-85863176D01*
X114063171Y-85842538D01*
X114063174Y-85842537D01*
X114237163Y-85781656D01*
X114393242Y-85683585D01*
X114523585Y-85553242D01*
X114621656Y-85397163D01*
X114682537Y-85223174D01*
X114682537Y-85223173D01*
X114682538Y-85223171D01*
X114703176Y-85040002D01*
X114703176Y-85039997D01*
X114682538Y-84856828D01*
X114642792Y-84743242D01*
X114621656Y-84682837D01*
X114523585Y-84526758D01*
X114393242Y-84396415D01*
X114255717Y-84310002D01*
X114237165Y-84298345D01*
X114237164Y-84298344D01*
X114237163Y-84298344D01*
X114195396Y-84283729D01*
X114063171Y-84237461D01*
X113880003Y-84216824D01*
X113879997Y-84216824D01*
X113792961Y-84226630D01*
X113724139Y-84214575D01*
X113674085Y-84169383D01*
X113653586Y-84136759D01*
X113523242Y-84006415D01*
X113367165Y-83908345D01*
X113367164Y-83908344D01*
X113367163Y-83908344D01*
X113325396Y-83893729D01*
X113193171Y-83847461D01*
X113010003Y-83826824D01*
X113009997Y-83826824D01*
X112826828Y-83847461D01*
X112652834Y-83908345D01*
X112496757Y-84006415D01*
X112366415Y-84136757D01*
X112268345Y-84292834D01*
X112207461Y-84466828D01*
X112186824Y-84649997D01*
X111527308Y-84649997D01*
X111541656Y-84627163D01*
X111602537Y-84453174D01*
X111602537Y-84453173D01*
X111602538Y-84453171D01*
X111623176Y-84270002D01*
X111623176Y-84269997D01*
X111602538Y-84086828D01*
X111574400Y-84006415D01*
X111541656Y-83912837D01*
X111443585Y-83756758D01*
X111313242Y-83626415D01*
X111157165Y-83528345D01*
X111157164Y-83528344D01*
X111157163Y-83528344D01*
X111115396Y-83513729D01*
X110983171Y-83467461D01*
X110800003Y-83446824D01*
X110799997Y-83446824D01*
X110616828Y-83467461D01*
X110442834Y-83528345D01*
X110286757Y-83626415D01*
X110156415Y-83756757D01*
X110058345Y-83912834D01*
X109997461Y-84086828D01*
X109976824Y-84269997D01*
X83208670Y-84269997D01*
X83213176Y-84230002D01*
X83213176Y-84229997D01*
X83192538Y-84046828D01*
X83159648Y-83952834D01*
X83131656Y-83872837D01*
X83033585Y-83716758D01*
X82903242Y-83586415D01*
X82747163Y-83488344D01*
X82705396Y-83473729D01*
X82573171Y-83427461D01*
X82390003Y-83406824D01*
X82389997Y-83406824D01*
X82206828Y-83427461D01*
X82032834Y-83488345D01*
X81876757Y-83586415D01*
X81746415Y-83716757D01*
X81648345Y-83872834D01*
X81587461Y-84046828D01*
X81566824Y-84229997D01*
X79084162Y-84229997D01*
X79072538Y-84126828D01*
X79057922Y-84085059D01*
X79011656Y-83952837D01*
X78913585Y-83796758D01*
X78783242Y-83666415D01*
X78627165Y-83568345D01*
X78627164Y-83568344D01*
X78627163Y-83568344D01*
X78585396Y-83553729D01*
X78453171Y-83507461D01*
X78270003Y-83486824D01*
X78269997Y-83486824D01*
X78086828Y-83507461D01*
X77912834Y-83568345D01*
X77756757Y-83666415D01*
X77626415Y-83796757D01*
X77528345Y-83952834D01*
X77467461Y-84126828D01*
X77446824Y-84309997D01*
X59720000Y-84309997D01*
X59720000Y-82469997D01*
X62146824Y-82469997D01*
X62146824Y-82470002D01*
X62167461Y-82653171D01*
X62213029Y-82783396D01*
X62228344Y-82827163D01*
X62326415Y-82983242D01*
X62456758Y-83113585D01*
X62612837Y-83211656D01*
X62745059Y-83257922D01*
X62786828Y-83272538D01*
X62969997Y-83293176D01*
X62970000Y-83293176D01*
X62970003Y-83293176D01*
X63153171Y-83272538D01*
X63153174Y-83272537D01*
X63327163Y-83211656D01*
X63483242Y-83113585D01*
X63613585Y-82983242D01*
X63711656Y-82827163D01*
X63772537Y-82653174D01*
X63772537Y-82653173D01*
X63772538Y-82653171D01*
X63793176Y-82470002D01*
X63793176Y-82469997D01*
X63772538Y-82286828D01*
X63740664Y-82195738D01*
X63711656Y-82112837D01*
X63613585Y-81956758D01*
X63483242Y-81826415D01*
X63334850Y-81733174D01*
X63327165Y-81728345D01*
X63327164Y-81728344D01*
X63327163Y-81728344D01*
X63285396Y-81713729D01*
X63153171Y-81667461D01*
X62970003Y-81646824D01*
X62969997Y-81646824D01*
X62786828Y-81667461D01*
X62612834Y-81728345D01*
X62456757Y-81826415D01*
X62326415Y-81956757D01*
X62228345Y-82112834D01*
X62167461Y-82286828D01*
X62146824Y-82469997D01*
X59720000Y-82469997D01*
X59720000Y-81509997D01*
X64656824Y-81509997D01*
X64656824Y-81510002D01*
X64677461Y-81693171D01*
X64738345Y-81867165D01*
X64763479Y-81907165D01*
X64836415Y-82023242D01*
X64966758Y-82153585D01*
X65122837Y-82251656D01*
X65255059Y-82297922D01*
X65296828Y-82312538D01*
X65479997Y-82333176D01*
X65480000Y-82333176D01*
X65480003Y-82333176D01*
X65663171Y-82312538D01*
X65663174Y-82312537D01*
X65837163Y-82251656D01*
X65993242Y-82153585D01*
X66123585Y-82023242D01*
X66221656Y-81867163D01*
X66282537Y-81693174D01*
X66282537Y-81693173D01*
X66282538Y-81693171D01*
X66298670Y-81549997D01*
X79456824Y-81549997D01*
X79456824Y-81550002D01*
X79477461Y-81733171D01*
X79538345Y-81907165D01*
X79596674Y-81999995D01*
X79636415Y-82063242D01*
X79766758Y-82193585D01*
X79922837Y-82291656D01*
X80041495Y-82333176D01*
X80096828Y-82352538D01*
X80279997Y-82373176D01*
X80280000Y-82373176D01*
X80280003Y-82373176D01*
X80463171Y-82352538D01*
X80463174Y-82352537D01*
X80637163Y-82291656D01*
X80793242Y-82193585D01*
X80923585Y-82063242D01*
X80963326Y-81999995D01*
X85904451Y-81999995D01*
X85904451Y-82000004D01*
X85924616Y-82269101D01*
X85984664Y-82532188D01*
X85984666Y-82532195D01*
X86083257Y-82783398D01*
X86218185Y-83017102D01*
X86295127Y-83113584D01*
X86386442Y-83228089D01*
X86456590Y-83293176D01*
X86584259Y-83411635D01*
X86807226Y-83563651D01*
X87050359Y-83680738D01*
X87308228Y-83760280D01*
X87308229Y-83760280D01*
X87308232Y-83760281D01*
X87575063Y-83800499D01*
X87575068Y-83800499D01*
X87575071Y-83800500D01*
X87575072Y-83800500D01*
X87844928Y-83800500D01*
X87844929Y-83800500D01*
X87869756Y-83796758D01*
X88111767Y-83760281D01*
X88111768Y-83760280D01*
X88111772Y-83760280D01*
X88369641Y-83680738D01*
X88612775Y-83563651D01*
X88835741Y-83411635D01*
X89033561Y-83228085D01*
X89201815Y-83017102D01*
X89336743Y-82783398D01*
X89435334Y-82532195D01*
X89495383Y-82269103D01*
X89507093Y-82112837D01*
X89515549Y-82000004D01*
X89515549Y-81999995D01*
X93524451Y-81999995D01*
X93524451Y-82000004D01*
X93544616Y-82269101D01*
X93604664Y-82532188D01*
X93604666Y-82532195D01*
X93703257Y-82783398D01*
X93838185Y-83017102D01*
X93915127Y-83113584D01*
X94006442Y-83228089D01*
X94076590Y-83293176D01*
X94204259Y-83411635D01*
X94427226Y-83563651D01*
X94670359Y-83680738D01*
X94928228Y-83760280D01*
X94928229Y-83760280D01*
X94928232Y-83760281D01*
X95195063Y-83800499D01*
X95195068Y-83800499D01*
X95195071Y-83800500D01*
X95195072Y-83800500D01*
X95464928Y-83800500D01*
X95464929Y-83800500D01*
X95489756Y-83796758D01*
X95731767Y-83760281D01*
X95731768Y-83760280D01*
X95731772Y-83760280D01*
X95989641Y-83680738D01*
X96232775Y-83563651D01*
X96455741Y-83411635D01*
X96653561Y-83228085D01*
X96821815Y-83017102D01*
X96956743Y-82783398D01*
X97055334Y-82532195D01*
X97115383Y-82269103D01*
X97127093Y-82112837D01*
X97135549Y-82000004D01*
X97135549Y-81999995D01*
X97115383Y-81730898D01*
X97115383Y-81730897D01*
X97055334Y-81467805D01*
X96956743Y-81216602D01*
X96821815Y-80982898D01*
X96653561Y-80771915D01*
X96653560Y-80771914D01*
X96653557Y-80771910D01*
X96455741Y-80588365D01*
X96232775Y-80436349D01*
X96232769Y-80436346D01*
X96232768Y-80436345D01*
X96232767Y-80436344D01*
X95989643Y-80319263D01*
X95989645Y-80319263D01*
X95731773Y-80239720D01*
X95731767Y-80239718D01*
X95464936Y-80199500D01*
X95464929Y-80199500D01*
X95195071Y-80199500D01*
X95195063Y-80199500D01*
X94928232Y-80239718D01*
X94928226Y-80239720D01*
X94670358Y-80319262D01*
X94427230Y-80436346D01*
X94204258Y-80588365D01*
X94006442Y-80771910D01*
X93838185Y-80982898D01*
X93703258Y-81216599D01*
X93703256Y-81216603D01*
X93604666Y-81467804D01*
X93604664Y-81467811D01*
X93544616Y-81730898D01*
X93524451Y-81999995D01*
X89515549Y-81999995D01*
X89495383Y-81730898D01*
X89495383Y-81730897D01*
X89435334Y-81467805D01*
X89336743Y-81216602D01*
X89201815Y-80982898D01*
X89033561Y-80771915D01*
X89033560Y-80771914D01*
X89033557Y-80771910D01*
X88835741Y-80588365D01*
X88612775Y-80436349D01*
X88612769Y-80436346D01*
X88612768Y-80436345D01*
X88612767Y-80436344D01*
X88369643Y-80319263D01*
X88369645Y-80319263D01*
X88111773Y-80239720D01*
X88111767Y-80239718D01*
X87844936Y-80199500D01*
X87844929Y-80199500D01*
X87575071Y-80199500D01*
X87575063Y-80199500D01*
X87308232Y-80239718D01*
X87308226Y-80239720D01*
X87050358Y-80319262D01*
X86807230Y-80436346D01*
X86584258Y-80588365D01*
X86386442Y-80771910D01*
X86218185Y-80982898D01*
X86083258Y-81216599D01*
X86083256Y-81216603D01*
X85984666Y-81467804D01*
X85984664Y-81467811D01*
X85924616Y-81730898D01*
X85904451Y-81999995D01*
X80963326Y-81999995D01*
X81021656Y-81907163D01*
X81082537Y-81733174D01*
X81082537Y-81733173D01*
X81082538Y-81733171D01*
X81103176Y-81550002D01*
X81103176Y-81549997D01*
X81082538Y-81366828D01*
X81058593Y-81298398D01*
X81021656Y-81192837D01*
X80923585Y-81036758D01*
X80793242Y-80906415D01*
X80733860Y-80869103D01*
X80637165Y-80808345D01*
X80637164Y-80808344D01*
X80637163Y-80808344D01*
X80567886Y-80784103D01*
X80463171Y-80747461D01*
X80280003Y-80726824D01*
X80279997Y-80726824D01*
X80096828Y-80747461D01*
X79922834Y-80808345D01*
X79766757Y-80906415D01*
X79636415Y-81036757D01*
X79538345Y-81192834D01*
X79477461Y-81366828D01*
X79456824Y-81549997D01*
X66298670Y-81549997D01*
X66303176Y-81510002D01*
X66303176Y-81509997D01*
X66282538Y-81326828D01*
X66267922Y-81285059D01*
X66221656Y-81152837D01*
X66123585Y-80996758D01*
X65993242Y-80866415D01*
X65963273Y-80847584D01*
X65837165Y-80768345D01*
X65837164Y-80768344D01*
X65837163Y-80768344D01*
X65795396Y-80753729D01*
X65663171Y-80707461D01*
X65480003Y-80686824D01*
X65479997Y-80686824D01*
X65296828Y-80707461D01*
X65122834Y-80768345D01*
X64966757Y-80866415D01*
X64836415Y-80996757D01*
X64738345Y-81152834D01*
X64677461Y-81326828D01*
X64656824Y-81509997D01*
X59720000Y-81509997D01*
X59720000Y-79398155D01*
X110096000Y-79398155D01*
X110096000Y-79830000D01*
X110942599Y-79830000D01*
X110925924Y-79846675D01*
X110875896Y-79933325D01*
X110850000Y-80029972D01*
X110850000Y-80130028D01*
X110875896Y-80226675D01*
X110925924Y-80313325D01*
X110942599Y-80330000D01*
X110096000Y-80330000D01*
X110096000Y-80761844D01*
X110102401Y-80821372D01*
X110102403Y-80821379D01*
X110152645Y-80956086D01*
X110152649Y-80956093D01*
X110238809Y-81071187D01*
X110238812Y-81071190D01*
X110353906Y-81157350D01*
X110353913Y-81157354D01*
X110488620Y-81207596D01*
X110488627Y-81207598D01*
X110548155Y-81213999D01*
X110548172Y-81214000D01*
X110980000Y-81214000D01*
X110980000Y-80367401D01*
X110996675Y-80384076D01*
X111083325Y-80434104D01*
X111179972Y-80460000D01*
X111280028Y-80460000D01*
X111376675Y-80434104D01*
X111463325Y-80384076D01*
X111480000Y-80367401D01*
X111480000Y-81214000D01*
X111911828Y-81214000D01*
X111911844Y-81213999D01*
X111971372Y-81207598D01*
X111971379Y-81207596D01*
X112106086Y-81157354D01*
X112106093Y-81157350D01*
X112221187Y-81071190D01*
X112221190Y-81071187D01*
X112307350Y-80956093D01*
X112307354Y-80956086D01*
X112357596Y-80821379D01*
X112357598Y-80821372D01*
X112363999Y-80761844D01*
X112364000Y-80761827D01*
X112364000Y-80330000D01*
X111517401Y-80330000D01*
X111534076Y-80313325D01*
X111584104Y-80226675D01*
X111610000Y-80130028D01*
X111610000Y-80079999D01*
X115170640Y-80079999D01*
X115170640Y-80080000D01*
X115190039Y-80289352D01*
X115190039Y-80289354D01*
X115190040Y-80289357D01*
X115238592Y-80460000D01*
X115247579Y-80491587D01*
X115341293Y-80679790D01*
X115341298Y-80679798D01*
X115468004Y-80847584D01*
X115623381Y-80989228D01*
X115623383Y-80989230D01*
X115698675Y-81035848D01*
X115802144Y-81099913D01*
X115998199Y-81175866D01*
X116204873Y-81214500D01*
X116204875Y-81214500D01*
X116415125Y-81214500D01*
X116415127Y-81214500D01*
X116621801Y-81175866D01*
X116817856Y-81099913D01*
X116996618Y-80989229D01*
X117151997Y-80847582D01*
X117278703Y-80679796D01*
X117372422Y-80491584D01*
X117429960Y-80289357D01*
X117449360Y-80080000D01*
X117429960Y-79870643D01*
X117372422Y-79668416D01*
X117287514Y-79497898D01*
X117278706Y-79480209D01*
X117278701Y-79480201D01*
X117203029Y-79379995D01*
X121574451Y-79379995D01*
X121574451Y-79380004D01*
X121594616Y-79649101D01*
X121654664Y-79912188D01*
X121654666Y-79912195D01*
X121700890Y-80029972D01*
X121753257Y-80163398D01*
X121888185Y-80397102D01*
X121963535Y-80491587D01*
X122056442Y-80608089D01*
X122222152Y-80761844D01*
X122254259Y-80791635D01*
X122477226Y-80943651D01*
X122720359Y-81060738D01*
X122978228Y-81140280D01*
X122978229Y-81140280D01*
X122978232Y-81140281D01*
X123245063Y-81180499D01*
X123245068Y-81180499D01*
X123245071Y-81180500D01*
X123245072Y-81180500D01*
X123514928Y-81180500D01*
X123514929Y-81180500D01*
X123545687Y-81175864D01*
X123781767Y-81140281D01*
X123781768Y-81140280D01*
X123781772Y-81140280D01*
X124039641Y-81060738D01*
X124256939Y-80956093D01*
X124282767Y-80943655D01*
X124282767Y-80943654D01*
X124282775Y-80943651D01*
X124505741Y-80791635D01*
X124703561Y-80608085D01*
X124871815Y-80397102D01*
X125006743Y-80163398D01*
X125105334Y-79912195D01*
X125165383Y-79649103D01*
X125185549Y-79380000D01*
X125180484Y-79312415D01*
X125165383Y-79110898D01*
X125160342Y-79088812D01*
X125105334Y-78847805D01*
X125006743Y-78596602D01*
X124871815Y-78362898D01*
X124703561Y-78151915D01*
X124703560Y-78151914D01*
X124703557Y-78151910D01*
X124505741Y-77968365D01*
X124282775Y-77816349D01*
X124282769Y-77816346D01*
X124282768Y-77816345D01*
X124282767Y-77816344D01*
X124039643Y-77699263D01*
X124039645Y-77699263D01*
X123781773Y-77619720D01*
X123781767Y-77619718D01*
X123514936Y-77579500D01*
X123514929Y-77579500D01*
X123245071Y-77579500D01*
X123245063Y-77579500D01*
X122978232Y-77619718D01*
X122978226Y-77619720D01*
X122720358Y-77699262D01*
X122477230Y-77816346D01*
X122254258Y-77968365D01*
X122056442Y-78151910D01*
X121888185Y-78362898D01*
X121753258Y-78596599D01*
X121753256Y-78596603D01*
X121654666Y-78847804D01*
X121654664Y-78847811D01*
X121594616Y-79110898D01*
X121574451Y-79379995D01*
X117203029Y-79379995D01*
X117151995Y-79312415D01*
X116996618Y-79170771D01*
X116996616Y-79170769D01*
X116817859Y-79060089D01*
X116817856Y-79060087D01*
X116669593Y-79002649D01*
X116621801Y-78984134D01*
X116415127Y-78945500D01*
X116204873Y-78945500D01*
X115998199Y-78984134D01*
X115998196Y-78984134D01*
X115998196Y-78984135D01*
X115802143Y-79060087D01*
X115802140Y-79060089D01*
X115623383Y-79170769D01*
X115623381Y-79170771D01*
X115468004Y-79312415D01*
X115341298Y-79480201D01*
X115341293Y-79480209D01*
X115247579Y-79668412D01*
X115247578Y-79668416D01*
X115196860Y-79846675D01*
X115190039Y-79870647D01*
X115170640Y-80079999D01*
X111610000Y-80079999D01*
X111610000Y-80029972D01*
X111584104Y-79933325D01*
X111534076Y-79846675D01*
X111517401Y-79830000D01*
X112364000Y-79830000D01*
X112364000Y-79398172D01*
X112363999Y-79398155D01*
X112357598Y-79338627D01*
X112357596Y-79338620D01*
X112307354Y-79203913D01*
X112307350Y-79203906D01*
X112221190Y-79088812D01*
X112221187Y-79088809D01*
X112106093Y-79002649D01*
X112106086Y-79002645D01*
X111971379Y-78952403D01*
X111971372Y-78952401D01*
X111911844Y-78946000D01*
X111480000Y-78946000D01*
X111480000Y-79792599D01*
X111463325Y-79775924D01*
X111376675Y-79725896D01*
X111280028Y-79700000D01*
X111179972Y-79700000D01*
X111083325Y-79725896D01*
X110996675Y-79775924D01*
X110980000Y-79792599D01*
X110980000Y-78946000D01*
X110548155Y-78946000D01*
X110488627Y-78952401D01*
X110488620Y-78952403D01*
X110353913Y-79002645D01*
X110353906Y-79002649D01*
X110238812Y-79088809D01*
X110238809Y-79088812D01*
X110152649Y-79203906D01*
X110152645Y-79203913D01*
X110102403Y-79338620D01*
X110102401Y-79338627D01*
X110096000Y-79398155D01*
X59720000Y-79398155D01*
X59720000Y-78369997D01*
X62116824Y-78369997D01*
X62116824Y-78370002D01*
X62137461Y-78553171D01*
X62152659Y-78596603D01*
X62198344Y-78727163D01*
X62296415Y-78883242D01*
X62426758Y-79013585D01*
X62582837Y-79111656D01*
X62715059Y-79157922D01*
X62756828Y-79172538D01*
X62939997Y-79193176D01*
X62940000Y-79193176D01*
X62940003Y-79193176D01*
X63123171Y-79172538D01*
X63128221Y-79170771D01*
X63297163Y-79111656D01*
X63453242Y-79013585D01*
X63583585Y-78883242D01*
X63681656Y-78727163D01*
X63742537Y-78553174D01*
X63742537Y-78553173D01*
X63742538Y-78553171D01*
X63763176Y-78370002D01*
X63763176Y-78369997D01*
X63742538Y-78186828D01*
X63727922Y-78145059D01*
X63681656Y-78012837D01*
X63583585Y-77856758D01*
X63453242Y-77726415D01*
X63303838Y-77632538D01*
X63297165Y-77628345D01*
X63297164Y-77628344D01*
X63297163Y-77628344D01*
X63255396Y-77613729D01*
X63123171Y-77567461D01*
X62940003Y-77546824D01*
X62939997Y-77546824D01*
X62756828Y-77567461D01*
X62582834Y-77628345D01*
X62426757Y-77726415D01*
X62296415Y-77856757D01*
X62198345Y-78012834D01*
X62137461Y-78186828D01*
X62116824Y-78369997D01*
X59720000Y-78369997D01*
X59720000Y-76829997D01*
X72656824Y-76829997D01*
X72656824Y-76830002D01*
X72677461Y-77013171D01*
X72708423Y-77101654D01*
X72738344Y-77187163D01*
X72836415Y-77343242D01*
X72966758Y-77473585D01*
X73122837Y-77571656D01*
X73255059Y-77617922D01*
X73296828Y-77632538D01*
X73479997Y-77653176D01*
X73480000Y-77653176D01*
X73480003Y-77653176D01*
X73663171Y-77632538D01*
X73675157Y-77628344D01*
X73837163Y-77571656D01*
X73993242Y-77473585D01*
X74123585Y-77343242D01*
X74221656Y-77187163D01*
X74282537Y-77013174D01*
X74282537Y-77013173D01*
X74282538Y-77013171D01*
X74303176Y-76830002D01*
X74303176Y-76829997D01*
X74282538Y-76646828D01*
X74267922Y-76605059D01*
X74221656Y-76472837D01*
X74150754Y-76359997D01*
X85846824Y-76359997D01*
X85846824Y-76360002D01*
X85867461Y-76543171D01*
X85903732Y-76646826D01*
X85928344Y-76717163D01*
X86026415Y-76873242D01*
X86156758Y-77003585D01*
X86312837Y-77101656D01*
X86445059Y-77147922D01*
X86486828Y-77162538D01*
X86669997Y-77183176D01*
X86670000Y-77183176D01*
X86670003Y-77183176D01*
X86853171Y-77162538D01*
X86853174Y-77162537D01*
X87027163Y-77101656D01*
X87183242Y-77003585D01*
X87313585Y-76873242D01*
X87411656Y-76717163D01*
X87472537Y-76543174D01*
X87472537Y-76543173D01*
X87472538Y-76543171D01*
X87493176Y-76360002D01*
X87493176Y-76359997D01*
X87472538Y-76176828D01*
X87441576Y-76088344D01*
X87411656Y-76002837D01*
X87313585Y-75846758D01*
X87183242Y-75716415D01*
X87027165Y-75618345D01*
X87027164Y-75618344D01*
X87027163Y-75618344D01*
X86974156Y-75599796D01*
X86853171Y-75557461D01*
X86670003Y-75536824D01*
X86669997Y-75536824D01*
X86486828Y-75557461D01*
X86312834Y-75618345D01*
X86156757Y-75716415D01*
X86026415Y-75846757D01*
X85928345Y-76002834D01*
X85867461Y-76176828D01*
X85846824Y-76359997D01*
X74150754Y-76359997D01*
X74123585Y-76316758D01*
X73993242Y-76186415D01*
X73977981Y-76176826D01*
X73837165Y-76088345D01*
X73837164Y-76088344D01*
X73837163Y-76088344D01*
X73795396Y-76073729D01*
X73663171Y-76027461D01*
X73480003Y-76006824D01*
X73479997Y-76006824D01*
X73296828Y-76027461D01*
X73122834Y-76088345D01*
X72966757Y-76186415D01*
X72836415Y-76316757D01*
X72738345Y-76472834D01*
X72677461Y-76646828D01*
X72656824Y-76829997D01*
X59720000Y-76829997D01*
X59720000Y-75649997D01*
X64306824Y-75649997D01*
X64306824Y-75650002D01*
X64327461Y-75833171D01*
X64354076Y-75909230D01*
X64388225Y-76006824D01*
X64388345Y-76007165D01*
X64444080Y-76095866D01*
X64486415Y-76163242D01*
X64616758Y-76293585D01*
X64772837Y-76391656D01*
X64905059Y-76437922D01*
X64946828Y-76452538D01*
X65129997Y-76473176D01*
X65130000Y-76473176D01*
X65130003Y-76473176D01*
X65313171Y-76452538D01*
X65313174Y-76452537D01*
X65487163Y-76391656D01*
X65643242Y-76293585D01*
X65773585Y-76163242D01*
X65871656Y-76007163D01*
X65932537Y-75833174D01*
X65932537Y-75833173D01*
X65932538Y-75833171D01*
X65953176Y-75650002D01*
X65953176Y-75649997D01*
X65932538Y-75466828D01*
X65913207Y-75411584D01*
X65871656Y-75292837D01*
X65773585Y-75136758D01*
X65643242Y-75006415D01*
X65633031Y-74999999D01*
X112630640Y-74999999D01*
X112630640Y-75000000D01*
X112650039Y-75209352D01*
X112707579Y-75411587D01*
X112801293Y-75599790D01*
X112801298Y-75599798D01*
X112928004Y-75767584D01*
X113083381Y-75909228D01*
X113083383Y-75909230D01*
X113158675Y-75955848D01*
X113262144Y-76019913D01*
X113458199Y-76095866D01*
X113664873Y-76134500D01*
X113664875Y-76134500D01*
X113875125Y-76134500D01*
X113875127Y-76134500D01*
X114081801Y-76095866D01*
X114277856Y-76019913D01*
X114456618Y-75909229D01*
X114611997Y-75767582D01*
X114738703Y-75599796D01*
X114832422Y-75411584D01*
X114889960Y-75209357D01*
X114909360Y-75000000D01*
X114889960Y-74790643D01*
X114832422Y-74588416D01*
X114810132Y-74543651D01*
X114738706Y-74400209D01*
X114738701Y-74400201D01*
X114611995Y-74232415D01*
X114456618Y-74090771D01*
X114456616Y-74090769D01*
X114277859Y-73980089D01*
X114277856Y-73980087D01*
X114204463Y-73951654D01*
X114081801Y-73904134D01*
X113875127Y-73865500D01*
X113664873Y-73865500D01*
X113458199Y-73904134D01*
X113458196Y-73904134D01*
X113458196Y-73904135D01*
X113262143Y-73980087D01*
X113262140Y-73980089D01*
X113083383Y-74090769D01*
X113083381Y-74090771D01*
X112928004Y-74232415D01*
X112801298Y-74400201D01*
X112801293Y-74400209D01*
X112707579Y-74588412D01*
X112650039Y-74790647D01*
X112630640Y-74999999D01*
X65633031Y-74999999D01*
X65487163Y-74908344D01*
X65445396Y-74893729D01*
X65313171Y-74847461D01*
X65130003Y-74826824D01*
X65129997Y-74826824D01*
X64946828Y-74847461D01*
X64772834Y-74908345D01*
X64616757Y-75006415D01*
X64486415Y-75136757D01*
X64388345Y-75292834D01*
X64327461Y-75466828D01*
X64306824Y-75649997D01*
X59720000Y-75649997D01*
X59720000Y-72789997D01*
X77456824Y-72789997D01*
X77456824Y-72790002D01*
X77477461Y-72973171D01*
X77523729Y-73105396D01*
X77538344Y-73147163D01*
X77636415Y-73303242D01*
X77766758Y-73433585D01*
X77922837Y-73531656D01*
X78024311Y-73567163D01*
X78096828Y-73592538D01*
X78279997Y-73613176D01*
X78280000Y-73613176D01*
X78280003Y-73613176D01*
X78463171Y-73592538D01*
X78463174Y-73592537D01*
X78637163Y-73531656D01*
X78793242Y-73433585D01*
X78923585Y-73303242D01*
X79021656Y-73147163D01*
X79082537Y-72973174D01*
X79082537Y-72973173D01*
X79082538Y-72973171D01*
X79103176Y-72790002D01*
X79103176Y-72789997D01*
X81716824Y-72789997D01*
X81716824Y-72790002D01*
X81737461Y-72973171D01*
X81783729Y-73105396D01*
X81798344Y-73147163D01*
X81896415Y-73303242D01*
X82026758Y-73433585D01*
X82182837Y-73531656D01*
X82284311Y-73567163D01*
X82356828Y-73592538D01*
X82539997Y-73613176D01*
X82540000Y-73613176D01*
X82540003Y-73613176D01*
X82723171Y-73592538D01*
X82723174Y-73592537D01*
X82897163Y-73531656D01*
X83053242Y-73433585D01*
X83183585Y-73303242D01*
X83242175Y-73209997D01*
X103846824Y-73209997D01*
X103846824Y-73210002D01*
X103867461Y-73393171D01*
X103928345Y-73567165D01*
X103944288Y-73592538D01*
X104026415Y-73723242D01*
X104156758Y-73853585D01*
X104312837Y-73951656D01*
X104442715Y-73997102D01*
X104486828Y-74012538D01*
X104669997Y-74033176D01*
X104670000Y-74033176D01*
X104670003Y-74033176D01*
X104853171Y-74012538D01*
X104853174Y-74012537D01*
X105027163Y-73951656D01*
X105183242Y-73853585D01*
X105313585Y-73723242D01*
X105411656Y-73567163D01*
X105472537Y-73393174D01*
X105472537Y-73393173D01*
X105472538Y-73393171D01*
X105493176Y-73210002D01*
X105493176Y-73209997D01*
X105472538Y-73026828D01*
X105426409Y-72895000D01*
X105411656Y-72852837D01*
X105313585Y-72696758D01*
X105183242Y-72566415D01*
X105146611Y-72543398D01*
X105027165Y-72468345D01*
X105027164Y-72468344D01*
X105027163Y-72468344D01*
X104968466Y-72447805D01*
X104853171Y-72407461D01*
X104670003Y-72386824D01*
X104669997Y-72386824D01*
X104486828Y-72407461D01*
X104312834Y-72468345D01*
X104156757Y-72566415D01*
X104026415Y-72696757D01*
X103928345Y-72852834D01*
X103867461Y-73026828D01*
X103846824Y-73209997D01*
X83242175Y-73209997D01*
X83281656Y-73147163D01*
X83342537Y-72973174D01*
X83342537Y-72973173D01*
X83342538Y-72973171D01*
X83363176Y-72790002D01*
X83363176Y-72789997D01*
X83342538Y-72606828D01*
X83320342Y-72543396D01*
X83281656Y-72432837D01*
X83183585Y-72276758D01*
X83136824Y-72229997D01*
X107866824Y-72229997D01*
X107866824Y-72230002D01*
X107887461Y-72413171D01*
X107948345Y-72587165D01*
X108017207Y-72696758D01*
X108046415Y-72743242D01*
X108176758Y-72873585D01*
X108332837Y-72971656D01*
X108465059Y-73017922D01*
X108506828Y-73032538D01*
X108689997Y-73053176D01*
X108690000Y-73053176D01*
X108690003Y-73053176D01*
X108873171Y-73032538D01*
X108889495Y-73026826D01*
X109047163Y-72971656D01*
X109203242Y-72873585D01*
X109333585Y-72743242D01*
X109431656Y-72587163D01*
X109492537Y-72413174D01*
X109492537Y-72413173D01*
X109492538Y-72413171D01*
X109513176Y-72230002D01*
X109513176Y-72229997D01*
X109492538Y-72046828D01*
X109469412Y-71980738D01*
X109431656Y-71872837D01*
X109333585Y-71716758D01*
X109203242Y-71586415D01*
X109177113Y-71569997D01*
X115286824Y-71569997D01*
X115286824Y-71570002D01*
X115307461Y-71753171D01*
X115368345Y-71927165D01*
X115444487Y-72048344D01*
X115466415Y-72083242D01*
X115596758Y-72213585D01*
X115752837Y-72311656D01*
X115871495Y-72353176D01*
X115926828Y-72372538D01*
X116109997Y-72393176D01*
X116110000Y-72393176D01*
X116110003Y-72393176D01*
X116293171Y-72372538D01*
X116293174Y-72372537D01*
X116467163Y-72311656D01*
X116623242Y-72213585D01*
X116753585Y-72083242D01*
X116782573Y-72037106D01*
X116834905Y-71990817D01*
X116903958Y-71980167D01*
X116967807Y-72008541D01*
X116992558Y-72037104D01*
X116996415Y-72043242D01*
X117126758Y-72173585D01*
X117282837Y-72271656D01*
X117415059Y-72317922D01*
X117456828Y-72332538D01*
X117639997Y-72353176D01*
X117640000Y-72353176D01*
X117640003Y-72353176D01*
X117823171Y-72332538D01*
X117823174Y-72332537D01*
X117997163Y-72271656D01*
X118153242Y-72173585D01*
X118283585Y-72043242D01*
X118381656Y-71887163D01*
X118426154Y-71759995D01*
X121574451Y-71759995D01*
X121574451Y-71760004D01*
X121594616Y-72029101D01*
X121654664Y-72292188D01*
X121654666Y-72292195D01*
X121723800Y-72468345D01*
X121753257Y-72543398D01*
X121888185Y-72777102D01*
X121948582Y-72852837D01*
X122056442Y-72988089D01*
X122243183Y-73161358D01*
X122254259Y-73171635D01*
X122477226Y-73323651D01*
X122720359Y-73440738D01*
X122978228Y-73520280D01*
X122978229Y-73520280D01*
X122978232Y-73520281D01*
X123245063Y-73560499D01*
X123245068Y-73560499D01*
X123245071Y-73560500D01*
X123245072Y-73560500D01*
X123514928Y-73560500D01*
X123514929Y-73560500D01*
X123514936Y-73560499D01*
X123781767Y-73520281D01*
X123781768Y-73520280D01*
X123781772Y-73520280D01*
X124039641Y-73440738D01*
X124282775Y-73323651D01*
X124505741Y-73171635D01*
X124703561Y-72988085D01*
X124871815Y-72777102D01*
X125006743Y-72543398D01*
X125105334Y-72292195D01*
X125165383Y-72029103D01*
X125177093Y-71872837D01*
X125185549Y-71760004D01*
X125185549Y-71759995D01*
X125165383Y-71490898D01*
X125165383Y-71490897D01*
X125105334Y-71227805D01*
X125006743Y-70976602D01*
X124871815Y-70742898D01*
X124703561Y-70531915D01*
X124703560Y-70531914D01*
X124703557Y-70531910D01*
X124505741Y-70348365D01*
X124438959Y-70302834D01*
X124282775Y-70196349D01*
X124282769Y-70196346D01*
X124282768Y-70196345D01*
X124282767Y-70196344D01*
X124039643Y-70079263D01*
X124039645Y-70079263D01*
X123781773Y-69999720D01*
X123781767Y-69999718D01*
X123514936Y-69959500D01*
X123514929Y-69959500D01*
X123245071Y-69959500D01*
X123245063Y-69959500D01*
X122978232Y-69999718D01*
X122978226Y-69999720D01*
X122720358Y-70079262D01*
X122477230Y-70196346D01*
X122254258Y-70348365D01*
X122056442Y-70531910D01*
X121888185Y-70742898D01*
X121753258Y-70976599D01*
X121753256Y-70976603D01*
X121654666Y-71227804D01*
X121654664Y-71227811D01*
X121594616Y-71490898D01*
X121574451Y-71759995D01*
X118426154Y-71759995D01*
X118442537Y-71713174D01*
X118442537Y-71713173D01*
X118442538Y-71713171D01*
X118463176Y-71530002D01*
X118463176Y-71529997D01*
X118442538Y-71346828D01*
X118400892Y-71227811D01*
X118381656Y-71172837D01*
X118283585Y-71016758D01*
X118153242Y-70886415D01*
X117997165Y-70788345D01*
X117997164Y-70788344D01*
X117997163Y-70788344D01*
X117955396Y-70773729D01*
X117823171Y-70727461D01*
X117640003Y-70706824D01*
X117639997Y-70706824D01*
X117456828Y-70727461D01*
X117282834Y-70788345D01*
X117126757Y-70886415D01*
X116996413Y-71016759D01*
X116967426Y-71062893D01*
X116915092Y-71109183D01*
X116846038Y-71119831D01*
X116782190Y-71091456D01*
X116757439Y-71062892D01*
X116753584Y-71056757D01*
X116623242Y-70926415D01*
X116467165Y-70828345D01*
X116467164Y-70828344D01*
X116467163Y-70828344D01*
X116425396Y-70813729D01*
X116293171Y-70767461D01*
X116110003Y-70746824D01*
X116109997Y-70746824D01*
X115926828Y-70767461D01*
X115752834Y-70828345D01*
X115596757Y-70926415D01*
X115466415Y-71056757D01*
X115368345Y-71212834D01*
X115307461Y-71386828D01*
X115286824Y-71569997D01*
X109177113Y-71569997D01*
X109174516Y-71568365D01*
X109047165Y-71488345D01*
X109047164Y-71488344D01*
X109047163Y-71488344D01*
X109005396Y-71473729D01*
X108873171Y-71427461D01*
X108690003Y-71406824D01*
X108689997Y-71406824D01*
X108506828Y-71427461D01*
X108332834Y-71488345D01*
X108176757Y-71586415D01*
X108046415Y-71716757D01*
X107948345Y-71872834D01*
X107887461Y-72046828D01*
X107866824Y-72229997D01*
X83136824Y-72229997D01*
X83053242Y-72146415D01*
X82897165Y-72048345D01*
X82897164Y-72048344D01*
X82897163Y-72048344D01*
X82842175Y-72029103D01*
X82723171Y-71987461D01*
X82540003Y-71966824D01*
X82539997Y-71966824D01*
X82356828Y-71987461D01*
X82182834Y-72048345D01*
X82026757Y-72146415D01*
X81896415Y-72276757D01*
X81798345Y-72432834D01*
X81737461Y-72606828D01*
X81716824Y-72789997D01*
X79103176Y-72789997D01*
X79082538Y-72606828D01*
X79060342Y-72543396D01*
X79021656Y-72432837D01*
X78923585Y-72276758D01*
X78793242Y-72146415D01*
X78637165Y-72048345D01*
X78637164Y-72048344D01*
X78637163Y-72048344D01*
X78582175Y-72029103D01*
X78463171Y-71987461D01*
X78280003Y-71966824D01*
X78279997Y-71966824D01*
X78096828Y-71987461D01*
X77922834Y-72048345D01*
X77766757Y-72146415D01*
X77636415Y-72276757D01*
X77538345Y-72432834D01*
X77477461Y-72606828D01*
X77456824Y-72789997D01*
X59720000Y-72789997D01*
X59720000Y-69860000D01*
X58239994Y-68379994D01*
X64964357Y-68379994D01*
X64964357Y-68380005D01*
X64984890Y-68627812D01*
X64984892Y-68627824D01*
X65045936Y-68868881D01*
X65145826Y-69096606D01*
X65281833Y-69304782D01*
X65281836Y-69304785D01*
X65450256Y-69487738D01*
X65646491Y-69640474D01*
X65865190Y-69758828D01*
X66100386Y-69839571D01*
X66345665Y-69880500D01*
X66594335Y-69880500D01*
X66839614Y-69839571D01*
X67074810Y-69758828D01*
X67293509Y-69640474D01*
X67306970Y-69629997D01*
X79776824Y-69629997D01*
X79776824Y-69630002D01*
X79797461Y-69813171D01*
X79858345Y-69987165D01*
X79916214Y-70079262D01*
X79956415Y-70143242D01*
X80086758Y-70273585D01*
X80242837Y-70371656D01*
X80375059Y-70417922D01*
X80416828Y-70432538D01*
X80599997Y-70453176D01*
X80600000Y-70453176D01*
X80600003Y-70453176D01*
X80783171Y-70432538D01*
X80783174Y-70432537D01*
X80957163Y-70371656D01*
X81071211Y-70299995D01*
X85854451Y-70299995D01*
X85854451Y-70300004D01*
X85874616Y-70569101D01*
X85934664Y-70832188D01*
X85934666Y-70832195D01*
X85991342Y-70976603D01*
X86033257Y-71083398D01*
X86168185Y-71317102D01*
X86284166Y-71462537D01*
X86336442Y-71528089D01*
X86486062Y-71666915D01*
X86534259Y-71711635D01*
X86757226Y-71863651D01*
X87000359Y-71980738D01*
X87258228Y-72060280D01*
X87258229Y-72060280D01*
X87258232Y-72060281D01*
X87525063Y-72100499D01*
X87525068Y-72100499D01*
X87525071Y-72100500D01*
X87525072Y-72100500D01*
X87794928Y-72100500D01*
X87794929Y-72100500D01*
X87794936Y-72100499D01*
X88061767Y-72060281D01*
X88061768Y-72060280D01*
X88061772Y-72060280D01*
X88319641Y-71980738D01*
X88562775Y-71863651D01*
X88785741Y-71711635D01*
X88981497Y-71530000D01*
X88983557Y-71528089D01*
X88983557Y-71528087D01*
X88983561Y-71528085D01*
X89151815Y-71317102D01*
X89286743Y-71083398D01*
X89385334Y-70832195D01*
X89445383Y-70569103D01*
X89460179Y-70371656D01*
X89465549Y-70300004D01*
X89465549Y-70299995D01*
X93474451Y-70299995D01*
X93474451Y-70300004D01*
X93494616Y-70569101D01*
X93554664Y-70832188D01*
X93554666Y-70832195D01*
X93611342Y-70976603D01*
X93653257Y-71083398D01*
X93788185Y-71317102D01*
X93904166Y-71462537D01*
X93956442Y-71528089D01*
X94106062Y-71666915D01*
X94154259Y-71711635D01*
X94377226Y-71863651D01*
X94620359Y-71980738D01*
X94878228Y-72060280D01*
X94878229Y-72060280D01*
X94878232Y-72060281D01*
X95145063Y-72100499D01*
X95145068Y-72100499D01*
X95145071Y-72100500D01*
X95145072Y-72100500D01*
X95414928Y-72100500D01*
X95414929Y-72100500D01*
X95414936Y-72100499D01*
X95681767Y-72060281D01*
X95681768Y-72060280D01*
X95681772Y-72060280D01*
X95939641Y-71980738D01*
X96182775Y-71863651D01*
X96405741Y-71711635D01*
X96601497Y-71530000D01*
X96603557Y-71528089D01*
X96603557Y-71528087D01*
X96603561Y-71528085D01*
X96771815Y-71317102D01*
X96906743Y-71083398D01*
X97005334Y-70832195D01*
X97044637Y-70659997D01*
X108966824Y-70659997D01*
X108966824Y-70660002D01*
X108987461Y-70843171D01*
X109016590Y-70926415D01*
X109048202Y-71016758D01*
X109048345Y-71017165D01*
X109073223Y-71056758D01*
X109146415Y-71173242D01*
X109276758Y-71303585D01*
X109432837Y-71401656D01*
X109565059Y-71447922D01*
X109606828Y-71462538D01*
X109789997Y-71483176D01*
X109790000Y-71483176D01*
X109790003Y-71483176D01*
X109973171Y-71462538D01*
X109973174Y-71462537D01*
X110147163Y-71401656D01*
X110303242Y-71303585D01*
X110433585Y-71173242D01*
X110531656Y-71017163D01*
X110592537Y-70843174D01*
X110592537Y-70843173D01*
X110592538Y-70843171D01*
X110613176Y-70660002D01*
X110613176Y-70659997D01*
X110592538Y-70476828D01*
X110577040Y-70432537D01*
X110531656Y-70302837D01*
X110433585Y-70146758D01*
X110303242Y-70016415D01*
X110256688Y-69987163D01*
X110147165Y-69918345D01*
X110147164Y-69918344D01*
X110147163Y-69918344D01*
X110105396Y-69903729D01*
X109973171Y-69857461D01*
X109790003Y-69836824D01*
X109789997Y-69836824D01*
X109606828Y-69857461D01*
X109432834Y-69918345D01*
X109276757Y-70016415D01*
X109146415Y-70146757D01*
X109048345Y-70302834D01*
X108987461Y-70476828D01*
X108966824Y-70659997D01*
X97044637Y-70659997D01*
X97065383Y-70569103D01*
X97080179Y-70371656D01*
X97085549Y-70300004D01*
X97085549Y-70299995D01*
X97065383Y-70030898D01*
X97065383Y-70030897D01*
X97005334Y-69767805D01*
X96906743Y-69516602D01*
X96799007Y-69329997D01*
X103406824Y-69329997D01*
X103406824Y-69330002D01*
X103427461Y-69513171D01*
X103488345Y-69687165D01*
X103567520Y-69813171D01*
X103586415Y-69843242D01*
X103716758Y-69973585D01*
X103872837Y-70071656D01*
X104005059Y-70117922D01*
X104046828Y-70132538D01*
X104229997Y-70153176D01*
X104230000Y-70153176D01*
X104230003Y-70153176D01*
X104413171Y-70132538D01*
X104413174Y-70132537D01*
X104587163Y-70071656D01*
X104743242Y-69973585D01*
X104873585Y-69843242D01*
X104971656Y-69687163D01*
X105032537Y-69513174D01*
X105032537Y-69513173D01*
X105032538Y-69513171D01*
X105053176Y-69330002D01*
X105053176Y-69329997D01*
X105032538Y-69146828D01*
X105006766Y-69073176D01*
X104971656Y-68972837D01*
X104873585Y-68816758D01*
X104743242Y-68686415D01*
X104649976Y-68627812D01*
X104587165Y-68588345D01*
X104587164Y-68588344D01*
X104587163Y-68588344D01*
X104545396Y-68573729D01*
X104413171Y-68527461D01*
X104230003Y-68506824D01*
X104229997Y-68506824D01*
X104046828Y-68527461D01*
X103872834Y-68588345D01*
X103716757Y-68686415D01*
X103586415Y-68816757D01*
X103488345Y-68972834D01*
X103427461Y-69146828D01*
X103406824Y-69329997D01*
X96799007Y-69329997D01*
X96771815Y-69282898D01*
X96603561Y-69071915D01*
X96603560Y-69071914D01*
X96603557Y-69071910D01*
X96405741Y-68888365D01*
X96300713Y-68816758D01*
X96182775Y-68736349D01*
X96182769Y-68736346D01*
X96182768Y-68736345D01*
X96182767Y-68736344D01*
X95939643Y-68619263D01*
X95939645Y-68619263D01*
X95681773Y-68539720D01*
X95681767Y-68539718D01*
X95414936Y-68499500D01*
X95414929Y-68499500D01*
X95145071Y-68499500D01*
X95145063Y-68499500D01*
X94878232Y-68539718D01*
X94878226Y-68539720D01*
X94620358Y-68619262D01*
X94377230Y-68736346D01*
X94154258Y-68888365D01*
X93956442Y-69071910D01*
X93788185Y-69282898D01*
X93653258Y-69516599D01*
X93653256Y-69516603D01*
X93554666Y-69767804D01*
X93554664Y-69767811D01*
X93494616Y-70030898D01*
X93474451Y-70299995D01*
X89465549Y-70299995D01*
X89445383Y-70030898D01*
X89445383Y-70030897D01*
X89385334Y-69767805D01*
X89286743Y-69516602D01*
X89151815Y-69282898D01*
X88983561Y-69071915D01*
X88983560Y-69071914D01*
X88983557Y-69071910D01*
X88785741Y-68888365D01*
X88680713Y-68816758D01*
X88562775Y-68736349D01*
X88562769Y-68736346D01*
X88562768Y-68736345D01*
X88562767Y-68736344D01*
X88319643Y-68619263D01*
X88319645Y-68619263D01*
X88061773Y-68539720D01*
X88061767Y-68539718D01*
X87794936Y-68499500D01*
X87794929Y-68499500D01*
X87525071Y-68499500D01*
X87525063Y-68499500D01*
X87258232Y-68539718D01*
X87258226Y-68539720D01*
X87000358Y-68619262D01*
X86757230Y-68736346D01*
X86534258Y-68888365D01*
X86336442Y-69071910D01*
X86168185Y-69282898D01*
X86033258Y-69516599D01*
X86033256Y-69516603D01*
X85934666Y-69767804D01*
X85934664Y-69767811D01*
X85874616Y-70030898D01*
X85854451Y-70299995D01*
X81071211Y-70299995D01*
X81113242Y-70273585D01*
X81243585Y-70143242D01*
X81341656Y-69987163D01*
X81402537Y-69813174D01*
X81402537Y-69813173D01*
X81402538Y-69813171D01*
X81423176Y-69630002D01*
X81423176Y-69629997D01*
X81402538Y-69446828D01*
X81387922Y-69405059D01*
X81341656Y-69272837D01*
X81243585Y-69116758D01*
X81113242Y-68986415D01*
X81055668Y-68950239D01*
X80957165Y-68888345D01*
X80957164Y-68888344D01*
X80957163Y-68888344D01*
X80901541Y-68868881D01*
X80783171Y-68827461D01*
X80600003Y-68806824D01*
X80599997Y-68806824D01*
X80416828Y-68827461D01*
X80242834Y-68888345D01*
X80086757Y-68986415D01*
X79956415Y-69116757D01*
X79858345Y-69272834D01*
X79797461Y-69446828D01*
X79776824Y-69629997D01*
X67306970Y-69629997D01*
X67489744Y-69487738D01*
X67658164Y-69304785D01*
X67794173Y-69096607D01*
X67894063Y-68868881D01*
X67955108Y-68627821D01*
X67958379Y-68588344D01*
X67975643Y-68380005D01*
X67975643Y-68379994D01*
X67955109Y-68132187D01*
X67955107Y-68132175D01*
X67894063Y-67891118D01*
X67794173Y-67663393D01*
X67687422Y-67499997D01*
X72696824Y-67499997D01*
X72696824Y-67500002D01*
X72717461Y-67683171D01*
X72778345Y-67857165D01*
X72869689Y-68002537D01*
X72876415Y-68013242D01*
X73006758Y-68143585D01*
X73162837Y-68241656D01*
X73295059Y-68287922D01*
X73336828Y-68302538D01*
X73519997Y-68323176D01*
X73520000Y-68323176D01*
X73520003Y-68323176D01*
X73703171Y-68302538D01*
X73703174Y-68302537D01*
X73877163Y-68241656D01*
X74033242Y-68143585D01*
X74163585Y-68013242D01*
X74261656Y-67857163D01*
X74320150Y-67689997D01*
X102076824Y-67689997D01*
X102076824Y-67690002D01*
X102097461Y-67873171D01*
X102158345Y-68047165D01*
X102211763Y-68132179D01*
X102256415Y-68203242D01*
X102386758Y-68333585D01*
X102542837Y-68431656D01*
X102675059Y-68477922D01*
X102716828Y-68492538D01*
X102899997Y-68513176D01*
X102900000Y-68513176D01*
X102900003Y-68513176D01*
X103083171Y-68492538D01*
X103083174Y-68492537D01*
X103257163Y-68431656D01*
X103413242Y-68333585D01*
X103543585Y-68203242D01*
X103641656Y-68047163D01*
X103702537Y-67873174D01*
X103702537Y-67873173D01*
X103702538Y-67873171D01*
X103723176Y-67690002D01*
X103723176Y-67689997D01*
X103702538Y-67506828D01*
X103683762Y-67453169D01*
X103641656Y-67332837D01*
X103543585Y-67176758D01*
X103413242Y-67046415D01*
X103366155Y-67016828D01*
X103257165Y-66948345D01*
X103257164Y-66948344D01*
X103257163Y-66948344D01*
X103215396Y-66933729D01*
X103083171Y-66887461D01*
X102900003Y-66866824D01*
X102899997Y-66866824D01*
X102716828Y-66887461D01*
X102542834Y-66948345D01*
X102386757Y-67046415D01*
X102256415Y-67176757D01*
X102158345Y-67332834D01*
X102097461Y-67506828D01*
X102076824Y-67689997D01*
X74320150Y-67689997D01*
X74322537Y-67683174D01*
X74322537Y-67683173D01*
X74322538Y-67683171D01*
X74343176Y-67500002D01*
X74343176Y-67499997D01*
X74322538Y-67316828D01*
X74306943Y-67272261D01*
X74261656Y-67142837D01*
X74163585Y-66986758D01*
X74033242Y-66856415D01*
X74011628Y-66842834D01*
X73877165Y-66758345D01*
X73877164Y-66758344D01*
X73877163Y-66758344D01*
X73835396Y-66743729D01*
X73703171Y-66697461D01*
X73520003Y-66676824D01*
X73519997Y-66676824D01*
X73336828Y-66697461D01*
X73162834Y-66758345D01*
X73006757Y-66856415D01*
X72876415Y-66986757D01*
X72778345Y-67142834D01*
X72717461Y-67316828D01*
X72696824Y-67499997D01*
X67687422Y-67499997D01*
X67658166Y-67455217D01*
X67636557Y-67431744D01*
X67489744Y-67272262D01*
X67293509Y-67119526D01*
X67293507Y-67119525D01*
X67293506Y-67119524D01*
X67074811Y-67001172D01*
X67074802Y-67001169D01*
X66839616Y-66920429D01*
X66594335Y-66879500D01*
X66345665Y-66879500D01*
X66100383Y-66920429D01*
X65865197Y-67001169D01*
X65865188Y-67001172D01*
X65646493Y-67119524D01*
X65450257Y-67272261D01*
X65281833Y-67455217D01*
X65145826Y-67663393D01*
X65045936Y-67891118D01*
X64984892Y-68132175D01*
X64984890Y-68132187D01*
X64964357Y-68379994D01*
X58239994Y-68379994D01*
X55579998Y-65719998D01*
X107394645Y-65719998D01*
X107394645Y-65720001D01*
X107414039Y-65991160D01*
X107414040Y-65991167D01*
X107471823Y-66256793D01*
X107471825Y-66256801D01*
X107546997Y-66458344D01*
X107566830Y-66511519D01*
X107697109Y-66750107D01*
X107697110Y-66750108D01*
X107697113Y-66750113D01*
X107860029Y-66967742D01*
X107860033Y-66967746D01*
X107860038Y-66967752D01*
X108052247Y-67159961D01*
X108052253Y-67159966D01*
X108052258Y-67159971D01*
X108269887Y-67322887D01*
X108269891Y-67322889D01*
X108269892Y-67322890D01*
X108508481Y-67453169D01*
X108508480Y-67453169D01*
X108508484Y-67453170D01*
X108508487Y-67453172D01*
X108763199Y-67548175D01*
X109028840Y-67605961D01*
X109280605Y-67623967D01*
X109299999Y-67625355D01*
X109300000Y-67625355D01*
X109300001Y-67625355D01*
X109318100Y-67624060D01*
X109571160Y-67605961D01*
X109836801Y-67548175D01*
X110091513Y-67453172D01*
X110091517Y-67453169D01*
X110091519Y-67453169D01*
X110219711Y-67383171D01*
X110330113Y-67322887D01*
X110494274Y-67199997D01*
X116216824Y-67199997D01*
X116216824Y-67200002D01*
X116237461Y-67383171D01*
X116280730Y-67506826D01*
X116295199Y-67548176D01*
X116298345Y-67557165D01*
X116329005Y-67605960D01*
X116396415Y-67713242D01*
X116526758Y-67843585D01*
X116682837Y-67941656D01*
X116815059Y-67987922D01*
X116856828Y-68002538D01*
X117039997Y-68023176D01*
X117040000Y-68023176D01*
X117040003Y-68023176D01*
X117223171Y-68002538D01*
X117223174Y-68002537D01*
X117397163Y-67941656D01*
X117553242Y-67843585D01*
X117683585Y-67713242D01*
X117781656Y-67557163D01*
X117842537Y-67383174D01*
X117842537Y-67383173D01*
X117842538Y-67383171D01*
X117863176Y-67200002D01*
X117863176Y-67199997D01*
X117842538Y-67016828D01*
X117825361Y-66967740D01*
X117781656Y-66842837D01*
X117683585Y-66686758D01*
X117553242Y-66556415D01*
X117491247Y-66517461D01*
X117397165Y-66458345D01*
X117397164Y-66458344D01*
X117397163Y-66458344D01*
X117355396Y-66443729D01*
X117223171Y-66397461D01*
X117040003Y-66376824D01*
X117039997Y-66376824D01*
X116856828Y-66397461D01*
X116682834Y-66458345D01*
X116526757Y-66556415D01*
X116396415Y-66686757D01*
X116298345Y-66842834D01*
X116237461Y-67016828D01*
X116216824Y-67199997D01*
X110494274Y-67199997D01*
X110547742Y-67159971D01*
X110739971Y-66967742D01*
X110902887Y-66750113D01*
X111033172Y-66511513D01*
X111128175Y-66256801D01*
X111185961Y-65991160D01*
X111205355Y-65720000D01*
X111185961Y-65448840D01*
X111128175Y-65183199D01*
X111033172Y-64928487D01*
X111033170Y-64928484D01*
X111033169Y-64928480D01*
X110902890Y-64689892D01*
X110902889Y-64689891D01*
X110902887Y-64689887D01*
X110739971Y-64472258D01*
X110739966Y-64472253D01*
X110739961Y-64472247D01*
X110547752Y-64280038D01*
X110547746Y-64280033D01*
X110547742Y-64280029D01*
X110330113Y-64117113D01*
X110330108Y-64117110D01*
X110330107Y-64117109D01*
X110091518Y-63986830D01*
X110091519Y-63986830D01*
X110041920Y-63968330D01*
X109836801Y-63891825D01*
X109836794Y-63891823D01*
X109836793Y-63891823D01*
X109571167Y-63834040D01*
X109571160Y-63834039D01*
X109300001Y-63814645D01*
X109299999Y-63814645D01*
X109028839Y-63834039D01*
X109028832Y-63834040D01*
X108763206Y-63891823D01*
X108763202Y-63891824D01*
X108763199Y-63891825D01*
X108635843Y-63939326D01*
X108508480Y-63986830D01*
X108269892Y-64117109D01*
X108269891Y-64117110D01*
X108052259Y-64280028D01*
X108052247Y-64280038D01*
X107860038Y-64472247D01*
X107860028Y-64472259D01*
X107697110Y-64689891D01*
X107697109Y-64689892D01*
X107566830Y-64928480D01*
X107533753Y-65017163D01*
X107471825Y-65183199D01*
X107471824Y-65183202D01*
X107471823Y-65183206D01*
X107414040Y-65448832D01*
X107414039Y-65448839D01*
X107394645Y-65719998D01*
X55579998Y-65719998D01*
X54519997Y-64659997D01*
X86056824Y-64659997D01*
X86056824Y-64660002D01*
X86077461Y-64843171D01*
X86107315Y-64928487D01*
X86138344Y-65017163D01*
X86236415Y-65173242D01*
X86366758Y-65303585D01*
X86522837Y-65401656D01*
X86655059Y-65447922D01*
X86696828Y-65462538D01*
X86879997Y-65483176D01*
X86880000Y-65483176D01*
X86880003Y-65483176D01*
X87063171Y-65462538D01*
X87063174Y-65462537D01*
X87237163Y-65401656D01*
X87393242Y-65303585D01*
X87523585Y-65173242D01*
X87621656Y-65017163D01*
X87682537Y-64843174D01*
X87682537Y-64843173D01*
X87682538Y-64843171D01*
X87703176Y-64660002D01*
X87703176Y-64659997D01*
X87682538Y-64476828D01*
X87649765Y-64383169D01*
X87621656Y-64302837D01*
X87523585Y-64146758D01*
X87393242Y-64016415D01*
X87237163Y-63918344D01*
X87178314Y-63897752D01*
X87063171Y-63857461D01*
X86880003Y-63836824D01*
X86879997Y-63836824D01*
X86696828Y-63857461D01*
X86522834Y-63918345D01*
X86366757Y-64016415D01*
X86236415Y-64146757D01*
X86138345Y-64302834D01*
X86077461Y-64476828D01*
X86056824Y-64659997D01*
X54519997Y-64659997D01*
X52509998Y-62649998D01*
X102244645Y-62649998D01*
X102244645Y-62650001D01*
X102264039Y-62921160D01*
X102264040Y-62921167D01*
X102321823Y-63186793D01*
X102321825Y-63186801D01*
X102361501Y-63293176D01*
X102416830Y-63441519D01*
X102547109Y-63680107D01*
X102547110Y-63680108D01*
X102547113Y-63680113D01*
X102710029Y-63897742D01*
X102710033Y-63897746D01*
X102710038Y-63897752D01*
X102902247Y-64089961D01*
X102902253Y-64089966D01*
X102902258Y-64089971D01*
X103119887Y-64252887D01*
X103119891Y-64252889D01*
X103119892Y-64252890D01*
X103358481Y-64383169D01*
X103358480Y-64383169D01*
X103358484Y-64383170D01*
X103358487Y-64383172D01*
X103613199Y-64478175D01*
X103878840Y-64535961D01*
X104130605Y-64553967D01*
X104149999Y-64555355D01*
X104150000Y-64555355D01*
X104150001Y-64555355D01*
X104168100Y-64554060D01*
X104421160Y-64535961D01*
X104686801Y-64478175D01*
X104941513Y-64383172D01*
X104941517Y-64383169D01*
X104941519Y-64383169D01*
X105088636Y-64302837D01*
X105180113Y-64252887D01*
X105397742Y-64089971D01*
X105589971Y-63897742D01*
X105752887Y-63680113D01*
X105883172Y-63441513D01*
X105978175Y-63186801D01*
X106035961Y-62921160D01*
X106055355Y-62650000D01*
X106042481Y-62469997D01*
X122186824Y-62469997D01*
X122186824Y-62470002D01*
X122207461Y-62653171D01*
X122253729Y-62785396D01*
X122268344Y-62827163D01*
X122366415Y-62983242D01*
X122496758Y-63113585D01*
X122652837Y-63211656D01*
X122785059Y-63257922D01*
X122826828Y-63272538D01*
X123009997Y-63293176D01*
X123010000Y-63293176D01*
X123010003Y-63293176D01*
X123193171Y-63272538D01*
X123193174Y-63272537D01*
X123367163Y-63211656D01*
X123523242Y-63113585D01*
X123653585Y-62983242D01*
X123751656Y-62827163D01*
X123812537Y-62653174D01*
X123812537Y-62653173D01*
X123812538Y-62653171D01*
X123833176Y-62470002D01*
X123833176Y-62469997D01*
X123812538Y-62286828D01*
X123793907Y-62233584D01*
X123751656Y-62112837D01*
X123653585Y-61956758D01*
X123523242Y-61826415D01*
X123481203Y-61800000D01*
X123367165Y-61728345D01*
X123367164Y-61728344D01*
X123367163Y-61728344D01*
X123325396Y-61713729D01*
X123193171Y-61667461D01*
X123010003Y-61646824D01*
X123009997Y-61646824D01*
X122826828Y-61667461D01*
X122652834Y-61728345D01*
X122496757Y-61826415D01*
X122366415Y-61956757D01*
X122268345Y-62112834D01*
X122207461Y-62286828D01*
X122186824Y-62469997D01*
X106042481Y-62469997D01*
X106035961Y-62378840D01*
X105978175Y-62113199D01*
X105883172Y-61858487D01*
X105883170Y-61858484D01*
X105883169Y-61858480D01*
X105752890Y-61619892D01*
X105752889Y-61619891D01*
X105752887Y-61619887D01*
X105730511Y-61589997D01*
X108966824Y-61589997D01*
X108966824Y-61590002D01*
X108987461Y-61773171D01*
X109017315Y-61858487D01*
X109048344Y-61947163D01*
X109146415Y-62103242D01*
X109276758Y-62233585D01*
X109432837Y-62331656D01*
X109565059Y-62377922D01*
X109606828Y-62392538D01*
X109789997Y-62413176D01*
X109790000Y-62413176D01*
X109790003Y-62413176D01*
X109973171Y-62392538D01*
X109973174Y-62392537D01*
X110147163Y-62331656D01*
X110303242Y-62233585D01*
X110433585Y-62103242D01*
X110531656Y-61947163D01*
X110592537Y-61773174D01*
X110592537Y-61773173D01*
X110592538Y-61773171D01*
X110613176Y-61590002D01*
X110613176Y-61589997D01*
X110592538Y-61406828D01*
X110577922Y-61365059D01*
X110531656Y-61232837D01*
X110433585Y-61076758D01*
X110303242Y-60946415D01*
X110189928Y-60875215D01*
X110147165Y-60848345D01*
X110147164Y-60848344D01*
X110147163Y-60848344D01*
X110071376Y-60821825D01*
X109973171Y-60787461D01*
X109790003Y-60766824D01*
X109789997Y-60766824D01*
X109606828Y-60787461D01*
X109432834Y-60848345D01*
X109276757Y-60946415D01*
X109146415Y-61076757D01*
X109048345Y-61232834D01*
X108987461Y-61406828D01*
X108966824Y-61589997D01*
X105730511Y-61589997D01*
X105589971Y-61402258D01*
X105589966Y-61402253D01*
X105589961Y-61402247D01*
X105397752Y-61210038D01*
X105397746Y-61210033D01*
X105397742Y-61210029D01*
X105180113Y-61047113D01*
X105180108Y-61047110D01*
X105180107Y-61047109D01*
X104941518Y-60916830D01*
X104941519Y-60916830D01*
X104891920Y-60898330D01*
X104686801Y-60821825D01*
X104686794Y-60821823D01*
X104686793Y-60821823D01*
X104421167Y-60764040D01*
X104421160Y-60764039D01*
X104150001Y-60744645D01*
X104149999Y-60744645D01*
X103878839Y-60764039D01*
X103878832Y-60764040D01*
X103613206Y-60821823D01*
X103613202Y-60821824D01*
X103613199Y-60821825D01*
X103500124Y-60864000D01*
X103358480Y-60916830D01*
X103119892Y-61047109D01*
X103119891Y-61047110D01*
X102902259Y-61210028D01*
X102902247Y-61210038D01*
X102710038Y-61402247D01*
X102710028Y-61402259D01*
X102547110Y-61619891D01*
X102547109Y-61619892D01*
X102416830Y-61858480D01*
X102383753Y-61947163D01*
X102321825Y-62113199D01*
X102321824Y-62113202D01*
X102321823Y-62113206D01*
X102264040Y-62378832D01*
X102264039Y-62378839D01*
X102244645Y-62649998D01*
X52509998Y-62649998D01*
X51710000Y-61850000D01*
X48591362Y-61850000D01*
X48524323Y-61830315D01*
X48503681Y-61813681D01*
X47756319Y-61066319D01*
X47722834Y-61004996D01*
X47720000Y-60978638D01*
X47720000Y-57279997D01*
X100906824Y-57279997D01*
X100906824Y-57280002D01*
X100927461Y-57463171D01*
X100973729Y-57595396D01*
X100988344Y-57637163D01*
X101086415Y-57793242D01*
X101216758Y-57923585D01*
X101372837Y-58021656D01*
X101505059Y-58067922D01*
X101546828Y-58082538D01*
X101729997Y-58103176D01*
X101730000Y-58103176D01*
X101730003Y-58103176D01*
X101913171Y-58082538D01*
X101913174Y-58082537D01*
X102087163Y-58021656D01*
X102243242Y-57923585D01*
X102373585Y-57793242D01*
X102471656Y-57637163D01*
X102532537Y-57463174D01*
X102532537Y-57463173D01*
X102532538Y-57463171D01*
X102553176Y-57280002D01*
X102553176Y-57279997D01*
X102532538Y-57096828D01*
X102517922Y-57055059D01*
X102471656Y-56922837D01*
X102373585Y-56766758D01*
X102243242Y-56636415D01*
X102087163Y-56538344D01*
X102045396Y-56523729D01*
X101913171Y-56477461D01*
X101730003Y-56456824D01*
X101729997Y-56456824D01*
X101546828Y-56477461D01*
X101372834Y-56538345D01*
X101216757Y-56636415D01*
X101086415Y-56766757D01*
X100988345Y-56922834D01*
X100927461Y-57096828D01*
X100906824Y-57279997D01*
X47720000Y-57279997D01*
X47720000Y-55259997D01*
X104106824Y-55259997D01*
X104106824Y-55260002D01*
X104127461Y-55443171D01*
X104168914Y-55561634D01*
X104188344Y-55617163D01*
X104286415Y-55773242D01*
X104416758Y-55903585D01*
X104572837Y-56001656D01*
X104705059Y-56047922D01*
X104746828Y-56062538D01*
X104929997Y-56083176D01*
X104930000Y-56083176D01*
X104930003Y-56083176D01*
X105113171Y-56062538D01*
X105113174Y-56062537D01*
X105287163Y-56001656D01*
X105443242Y-55903585D01*
X105573585Y-55773242D01*
X105671656Y-55617163D01*
X105732537Y-55443174D01*
X105732537Y-55443173D01*
X105732538Y-55443171D01*
X105753176Y-55260002D01*
X105753176Y-55259997D01*
X105732538Y-55076828D01*
X105682350Y-54933400D01*
X105671656Y-54902837D01*
X105573585Y-54746758D01*
X105443242Y-54616415D01*
X105287163Y-54518344D01*
X105245396Y-54503729D01*
X105113171Y-54457461D01*
X104930003Y-54436824D01*
X104929997Y-54436824D01*
X104746828Y-54457461D01*
X104572834Y-54518345D01*
X104416757Y-54616415D01*
X104286415Y-54746757D01*
X104188345Y-54902834D01*
X104127461Y-55076828D01*
X104106824Y-55259997D01*
X47720000Y-55259997D01*
X47720000Y-53079997D01*
X82616824Y-53079997D01*
X82616824Y-53080002D01*
X82637461Y-53263171D01*
X82673653Y-53366599D01*
X82698344Y-53437163D01*
X82796415Y-53593242D01*
X82926758Y-53723585D01*
X83082837Y-53821656D01*
X83215059Y-53867922D01*
X83256828Y-53882538D01*
X83439997Y-53903176D01*
X83440000Y-53903176D01*
X83440003Y-53903176D01*
X83623171Y-53882538D01*
X83627861Y-53880897D01*
X83797163Y-53821656D01*
X83953242Y-53723585D01*
X84083585Y-53593242D01*
X84181656Y-53437163D01*
X84242537Y-53263174D01*
X84242537Y-53263173D01*
X84242538Y-53263171D01*
X84263176Y-53080002D01*
X84263176Y-53079997D01*
X84250782Y-52969994D01*
X94244357Y-52969994D01*
X94244357Y-52970005D01*
X94264890Y-53217812D01*
X94264892Y-53217824D01*
X94325936Y-53458881D01*
X94425826Y-53686606D01*
X94561833Y-53894782D01*
X94561836Y-53894785D01*
X94730256Y-54077738D01*
X94926491Y-54230474D01*
X95145190Y-54348828D01*
X95380386Y-54429571D01*
X95625665Y-54470500D01*
X95874335Y-54470500D01*
X96119614Y-54429571D01*
X96354810Y-54348828D01*
X96573509Y-54230474D01*
X96676908Y-54149995D01*
X111634451Y-54149995D01*
X111634451Y-54150004D01*
X111654616Y-54419101D01*
X111714664Y-54682188D01*
X111714666Y-54682195D01*
X111801262Y-54902837D01*
X111813257Y-54933398D01*
X111948185Y-55167102D01*
X112022267Y-55259997D01*
X112116442Y-55378089D01*
X112303183Y-55551358D01*
X112314259Y-55561635D01*
X112537226Y-55713651D01*
X112780359Y-55830738D01*
X113038228Y-55910280D01*
X113038229Y-55910280D01*
X113038232Y-55910281D01*
X113305063Y-55950499D01*
X113305068Y-55950499D01*
X113305071Y-55950500D01*
X113305072Y-55950500D01*
X113574928Y-55950500D01*
X113574929Y-55950500D01*
X113574936Y-55950499D01*
X113841767Y-55910281D01*
X113841768Y-55910280D01*
X113841772Y-55910280D01*
X114099641Y-55830738D01*
X114342775Y-55713651D01*
X114565741Y-55561635D01*
X114763561Y-55378085D01*
X114931815Y-55167102D01*
X115066743Y-54933398D01*
X115165334Y-54682195D01*
X115225383Y-54419103D01*
X115232105Y-54329402D01*
X115245549Y-54150004D01*
X115245549Y-54149995D01*
X119254451Y-54149995D01*
X119254451Y-54150004D01*
X119274616Y-54419101D01*
X119334664Y-54682188D01*
X119334666Y-54682195D01*
X119421262Y-54902837D01*
X119433257Y-54933398D01*
X119568185Y-55167102D01*
X119642267Y-55259997D01*
X119736442Y-55378089D01*
X119923183Y-55551358D01*
X119934259Y-55561635D01*
X120157226Y-55713651D01*
X120400359Y-55830738D01*
X120658228Y-55910280D01*
X120658229Y-55910280D01*
X120658232Y-55910281D01*
X120925063Y-55950499D01*
X120925068Y-55950499D01*
X120925071Y-55950500D01*
X120925072Y-55950500D01*
X121194928Y-55950500D01*
X121194929Y-55950500D01*
X121194936Y-55950499D01*
X121461767Y-55910281D01*
X121461768Y-55910280D01*
X121461772Y-55910280D01*
X121719641Y-55830738D01*
X121962775Y-55713651D01*
X122185741Y-55561635D01*
X122383561Y-55378085D01*
X122551815Y-55167102D01*
X122686743Y-54933398D01*
X122785334Y-54682195D01*
X122845383Y-54419103D01*
X122852105Y-54329402D01*
X122865549Y-54150004D01*
X122865549Y-54149995D01*
X122846424Y-53894785D01*
X122845383Y-53880897D01*
X122785334Y-53617805D01*
X122686743Y-53366602D01*
X122551815Y-53132898D01*
X122383561Y-52921915D01*
X122383560Y-52921914D01*
X122383557Y-52921910D01*
X122185741Y-52738365D01*
X122162012Y-52722187D01*
X121962775Y-52586349D01*
X121962769Y-52586346D01*
X121962768Y-52586345D01*
X121962767Y-52586344D01*
X121719643Y-52469263D01*
X121719645Y-52469263D01*
X121461773Y-52389720D01*
X121461767Y-52389718D01*
X121194936Y-52349500D01*
X121194929Y-52349500D01*
X120925071Y-52349500D01*
X120925063Y-52349500D01*
X120658232Y-52389718D01*
X120658226Y-52389720D01*
X120400358Y-52469262D01*
X120157230Y-52586346D01*
X119934258Y-52738365D01*
X119736442Y-52921910D01*
X119568185Y-53132898D01*
X119433258Y-53366599D01*
X119433256Y-53366603D01*
X119334666Y-53617804D01*
X119334664Y-53617811D01*
X119274616Y-53880898D01*
X119254451Y-54149995D01*
X115245549Y-54149995D01*
X115226424Y-53894785D01*
X115225383Y-53880897D01*
X115165334Y-53617805D01*
X115066743Y-53366602D01*
X114931815Y-53132898D01*
X114763561Y-52921915D01*
X114763560Y-52921914D01*
X114763557Y-52921910D01*
X114565741Y-52738365D01*
X114542012Y-52722187D01*
X114342775Y-52586349D01*
X114342769Y-52586346D01*
X114342768Y-52586345D01*
X114342767Y-52586344D01*
X114099643Y-52469263D01*
X114099645Y-52469263D01*
X113841773Y-52389720D01*
X113841767Y-52389718D01*
X113574936Y-52349500D01*
X113574929Y-52349500D01*
X113305071Y-52349500D01*
X113305063Y-52349500D01*
X113038232Y-52389718D01*
X113038226Y-52389720D01*
X112780358Y-52469262D01*
X112537230Y-52586346D01*
X112314258Y-52738365D01*
X112116442Y-52921910D01*
X111948185Y-53132898D01*
X111813258Y-53366599D01*
X111813256Y-53366603D01*
X111714666Y-53617804D01*
X111714664Y-53617811D01*
X111654616Y-53880898D01*
X111634451Y-54149995D01*
X96676908Y-54149995D01*
X96769744Y-54077738D01*
X96938164Y-53894785D01*
X97074173Y-53686607D01*
X97174063Y-53458881D01*
X97235108Y-53217821D01*
X97246528Y-53080000D01*
X97246528Y-53079997D01*
X100916824Y-53079997D01*
X100916824Y-53080002D01*
X100937461Y-53263171D01*
X100973653Y-53366599D01*
X100998344Y-53437163D01*
X101096415Y-53593242D01*
X101226758Y-53723585D01*
X101382837Y-53821656D01*
X101515059Y-53867922D01*
X101556828Y-53882538D01*
X101739997Y-53903176D01*
X101740000Y-53903176D01*
X101740003Y-53903176D01*
X101923171Y-53882538D01*
X101927861Y-53880897D01*
X102097163Y-53821656D01*
X102253242Y-53723585D01*
X102383585Y-53593242D01*
X102481656Y-53437163D01*
X102542537Y-53263174D01*
X102542537Y-53263173D01*
X102542538Y-53263171D01*
X102563176Y-53080002D01*
X102563176Y-53079997D01*
X102542538Y-52896828D01*
X102527922Y-52855059D01*
X102481656Y-52722837D01*
X102383585Y-52566758D01*
X102253242Y-52436415D01*
X102097165Y-52338345D01*
X102097164Y-52338344D01*
X102097163Y-52338344D01*
X102055396Y-52323729D01*
X101923171Y-52277461D01*
X101740003Y-52256824D01*
X101739997Y-52256824D01*
X101556828Y-52277461D01*
X101382834Y-52338345D01*
X101226757Y-52436415D01*
X101096415Y-52566757D01*
X100998345Y-52722834D01*
X100937461Y-52896828D01*
X100916824Y-53079997D01*
X97246528Y-53079997D01*
X97255643Y-52970005D01*
X97255643Y-52969994D01*
X97235109Y-52722187D01*
X97235107Y-52722175D01*
X97174063Y-52481118D01*
X97074173Y-52253393D01*
X96938166Y-52045217D01*
X96916557Y-52021744D01*
X96769744Y-51862262D01*
X96573509Y-51709526D01*
X96573507Y-51709525D01*
X96573506Y-51709524D01*
X96354811Y-51591172D01*
X96354802Y-51591169D01*
X96119616Y-51510429D01*
X95874335Y-51469500D01*
X95625665Y-51469500D01*
X95380383Y-51510429D01*
X95145197Y-51591169D01*
X95145188Y-51591172D01*
X94926493Y-51709524D01*
X94730257Y-51862261D01*
X94561833Y-52045217D01*
X94425826Y-52253393D01*
X94325936Y-52481118D01*
X94264892Y-52722175D01*
X94264890Y-52722187D01*
X94244357Y-52969994D01*
X84250782Y-52969994D01*
X84242538Y-52896828D01*
X84227922Y-52855059D01*
X84181656Y-52722837D01*
X84083585Y-52566758D01*
X83953242Y-52436415D01*
X83797165Y-52338345D01*
X83797164Y-52338344D01*
X83797163Y-52338344D01*
X83755396Y-52323729D01*
X83623171Y-52277461D01*
X83440003Y-52256824D01*
X83439997Y-52256824D01*
X83256828Y-52277461D01*
X83082834Y-52338345D01*
X82926757Y-52436415D01*
X82796415Y-52566757D01*
X82698345Y-52722834D01*
X82637461Y-52896828D01*
X82616824Y-53079997D01*
X47720000Y-53079997D01*
X47720000Y-47539997D01*
X99356824Y-47539997D01*
X99356824Y-47540002D01*
X99377461Y-47723171D01*
X99401516Y-47791915D01*
X99438344Y-47897163D01*
X99536415Y-48053242D01*
X99666758Y-48183585D01*
X99822837Y-48281656D01*
X99955059Y-48327922D01*
X99996828Y-48342538D01*
X100179997Y-48363176D01*
X100180000Y-48363176D01*
X100180003Y-48363176D01*
X100363171Y-48342538D01*
X100363174Y-48342537D01*
X100537163Y-48281656D01*
X100693242Y-48183585D01*
X100823585Y-48053242D01*
X100921656Y-47897163D01*
X100982537Y-47723174D01*
X100982537Y-47723173D01*
X100982538Y-47723171D01*
X101003176Y-47540002D01*
X101003176Y-47539997D01*
X100982538Y-47356828D01*
X100948558Y-47259720D01*
X100921656Y-47182837D01*
X100823585Y-47026758D01*
X100693242Y-46896415D01*
X100656254Y-46873174D01*
X100537165Y-46798345D01*
X100537164Y-46798344D01*
X100537163Y-46798344D01*
X100495396Y-46783729D01*
X100363171Y-46737461D01*
X100180003Y-46716824D01*
X100179997Y-46716824D01*
X99996828Y-46737461D01*
X99822834Y-46798345D01*
X99666757Y-46896415D01*
X99536415Y-47026757D01*
X99438345Y-47182834D01*
X99377461Y-47356828D01*
X99356824Y-47539997D01*
X47720000Y-47539997D01*
X47720000Y-46000000D01*
X47719997Y-45999997D01*
X85166824Y-45999997D01*
X85166824Y-46000002D01*
X85187461Y-46183171D01*
X85222598Y-46283584D01*
X85248344Y-46357163D01*
X85346415Y-46513242D01*
X85476758Y-46643585D01*
X85632837Y-46741656D01*
X85765059Y-46787922D01*
X85806828Y-46802538D01*
X85989997Y-46823176D01*
X85990000Y-46823176D01*
X85990003Y-46823176D01*
X86173171Y-46802538D01*
X86185157Y-46798344D01*
X86347163Y-46741656D01*
X86429378Y-46689997D01*
X95466824Y-46689997D01*
X95466824Y-46690002D01*
X95487461Y-46873171D01*
X95548345Y-47047165D01*
X95616857Y-47156201D01*
X95646415Y-47203242D01*
X95776758Y-47333585D01*
X95932837Y-47431656D01*
X96065059Y-47477922D01*
X96106828Y-47492538D01*
X96289997Y-47513176D01*
X96290000Y-47513176D01*
X96290003Y-47513176D01*
X96473171Y-47492538D01*
X96473174Y-47492537D01*
X96647163Y-47431656D01*
X96803242Y-47333585D01*
X96933585Y-47203242D01*
X97031656Y-47047163D01*
X97092537Y-46873174D01*
X97092537Y-46873173D01*
X97092538Y-46873171D01*
X97113176Y-46690002D01*
X97113176Y-46689997D01*
X97092538Y-46506828D01*
X97077263Y-46463176D01*
X97031656Y-46332837D01*
X96933585Y-46176758D01*
X96803242Y-46046415D01*
X96647163Y-45948344D01*
X96605396Y-45933729D01*
X96473171Y-45887461D01*
X96290003Y-45866824D01*
X96289997Y-45866824D01*
X96106828Y-45887461D01*
X95932834Y-45948345D01*
X95776757Y-46046415D01*
X95646415Y-46176757D01*
X95548345Y-46332834D01*
X95487461Y-46506828D01*
X95466824Y-46689997D01*
X86429378Y-46689997D01*
X86503242Y-46643585D01*
X86633585Y-46513242D01*
X86731656Y-46357163D01*
X86792537Y-46183174D01*
X86792537Y-46183173D01*
X86792538Y-46183171D01*
X86813176Y-46000002D01*
X86813176Y-45999997D01*
X86792538Y-45816828D01*
X86776558Y-45771160D01*
X86731656Y-45642837D01*
X86633585Y-45486758D01*
X86503242Y-45356415D01*
X86445458Y-45320107D01*
X86347165Y-45258345D01*
X86347164Y-45258344D01*
X86347163Y-45258344D01*
X86305396Y-45243729D01*
X86173171Y-45197461D01*
X85990003Y-45176824D01*
X85989997Y-45176824D01*
X85806828Y-45197461D01*
X85632834Y-45258345D01*
X85476757Y-45356415D01*
X85346415Y-45486757D01*
X85248345Y-45642834D01*
X85187461Y-45816828D01*
X85166824Y-45999997D01*
X47719997Y-45999997D01*
X47620000Y-45900000D01*
X42754000Y-45900000D01*
X42686961Y-45880315D01*
X42641206Y-45827511D01*
X42630000Y-45776000D01*
X42630000Y-43234993D01*
X53864700Y-43234993D01*
X53864700Y-43235006D01*
X53883864Y-43466297D01*
X53883866Y-43466308D01*
X53940842Y-43691300D01*
X54034075Y-43903848D01*
X54161016Y-44098147D01*
X54161019Y-44098151D01*
X54161021Y-44098153D01*
X54318216Y-44268913D01*
X54318219Y-44268915D01*
X54318222Y-44268918D01*
X54501365Y-44411464D01*
X54501371Y-44411468D01*
X54501374Y-44411470D01*
X54705497Y-44521936D01*
X54736380Y-44532538D01*
X54925015Y-44597297D01*
X54925017Y-44597297D01*
X54925019Y-44597298D01*
X55153951Y-44635500D01*
X55153952Y-44635500D01*
X55386048Y-44635500D01*
X55386049Y-44635500D01*
X55614981Y-44597298D01*
X55834503Y-44521936D01*
X56038626Y-44411470D01*
X56221784Y-44268913D01*
X56378979Y-44098153D01*
X56505924Y-43903849D01*
X56599157Y-43691300D01*
X56602019Y-43679997D01*
X73306824Y-43679997D01*
X73306824Y-43680002D01*
X73327461Y-43863171D01*
X73369335Y-43982837D01*
X73387167Y-44033800D01*
X73388345Y-44037165D01*
X73486415Y-44193242D01*
X73616758Y-44323585D01*
X73772837Y-44421656D01*
X73905059Y-44467922D01*
X73946828Y-44482538D01*
X74129997Y-44503176D01*
X74130000Y-44503176D01*
X74130003Y-44503176D01*
X74313171Y-44482538D01*
X74344270Y-44471656D01*
X74487163Y-44421656D01*
X74643242Y-44323585D01*
X74773585Y-44193242D01*
X74871656Y-44037163D01*
X74932537Y-43863174D01*
X74932537Y-43863173D01*
X74932538Y-43863171D01*
X74945290Y-43749997D01*
X75366824Y-43749997D01*
X75366824Y-43750002D01*
X75387461Y-43933171D01*
X75423850Y-44037163D01*
X75445191Y-44098153D01*
X75448345Y-44107165D01*
X75502431Y-44193242D01*
X75546415Y-44263242D01*
X75676758Y-44393585D01*
X75832837Y-44491656D01*
X75949669Y-44532537D01*
X76006828Y-44552538D01*
X76189997Y-44573176D01*
X76190000Y-44573176D01*
X76190003Y-44573176D01*
X76373171Y-44552538D01*
X76373174Y-44552537D01*
X76547163Y-44491656D01*
X76703242Y-44393585D01*
X76833585Y-44263242D01*
X76931656Y-44107163D01*
X76992537Y-43933174D01*
X76992537Y-43933173D01*
X76992538Y-43933171D01*
X77013176Y-43750002D01*
X77013176Y-43749997D01*
X77010923Y-43729997D01*
X82106824Y-43729997D01*
X82106824Y-43730002D01*
X82127461Y-43913171D01*
X82164437Y-44018840D01*
X82178849Y-44060029D01*
X82188345Y-44087165D01*
X82195249Y-44098153D01*
X82286415Y-44243242D01*
X82416758Y-44373585D01*
X82572837Y-44471656D01*
X82662917Y-44503176D01*
X82746828Y-44532538D01*
X82929997Y-44553176D01*
X82930000Y-44553176D01*
X82930003Y-44553176D01*
X83113171Y-44532538D01*
X83113174Y-44532537D01*
X83287163Y-44471656D01*
X83443242Y-44373585D01*
X83476830Y-44339997D01*
X97936824Y-44339997D01*
X97936824Y-44340002D01*
X97957461Y-44523171D01*
X97983400Y-44597298D01*
X98018344Y-44697163D01*
X98116415Y-44853242D01*
X98246758Y-44983585D01*
X98402837Y-45081656D01*
X98531729Y-45126757D01*
X98576828Y-45142538D01*
X98759997Y-45163176D01*
X98760000Y-45163176D01*
X98760003Y-45163176D01*
X98943171Y-45142538D01*
X98943174Y-45142537D01*
X99117163Y-45081656D01*
X99273242Y-44983585D01*
X99403585Y-44853242D01*
X99501656Y-44697163D01*
X99562537Y-44523174D01*
X99562537Y-44523173D01*
X99562538Y-44523171D01*
X99583176Y-44340002D01*
X99583176Y-44339997D01*
X99562538Y-44156828D01*
X99545159Y-44107163D01*
X99501656Y-43982837D01*
X99403585Y-43826758D01*
X99273242Y-43696415D01*
X99142143Y-43614040D01*
X99117165Y-43598345D01*
X99117164Y-43598344D01*
X99117163Y-43598344D01*
X99075396Y-43583729D01*
X98943171Y-43537461D01*
X98760003Y-43516824D01*
X98759997Y-43516824D01*
X98576828Y-43537461D01*
X98402834Y-43598345D01*
X98246757Y-43696415D01*
X98116415Y-43826757D01*
X98018345Y-43982834D01*
X97957461Y-44156828D01*
X97936824Y-44339997D01*
X83476830Y-44339997D01*
X83573585Y-44243242D01*
X83671656Y-44087163D01*
X83732537Y-43913174D01*
X83732537Y-43913173D01*
X83732538Y-43913171D01*
X83753176Y-43730002D01*
X83753176Y-43729997D01*
X83732538Y-43546828D01*
X83715041Y-43496826D01*
X83671656Y-43372837D01*
X83573585Y-43216758D01*
X83443242Y-43086415D01*
X83438738Y-43083585D01*
X83287165Y-42988345D01*
X83287164Y-42988344D01*
X83287163Y-42988344D01*
X83245396Y-42973729D01*
X83113171Y-42927461D01*
X82930003Y-42906824D01*
X82929997Y-42906824D01*
X82746828Y-42927461D01*
X82572834Y-42988345D01*
X82416757Y-43086415D01*
X82286415Y-43216757D01*
X82188345Y-43372834D01*
X82127461Y-43546828D01*
X82106824Y-43729997D01*
X77010923Y-43729997D01*
X76992538Y-43566828D01*
X76969154Y-43500000D01*
X76931656Y-43392837D01*
X76833585Y-43236758D01*
X76703242Y-43106415D01*
X76666907Y-43083584D01*
X76547165Y-43008345D01*
X76547164Y-43008344D01*
X76547163Y-43008344D01*
X76490006Y-42988344D01*
X76373171Y-42947461D01*
X76190003Y-42926824D01*
X76189997Y-42926824D01*
X76006828Y-42947461D01*
X75832834Y-43008345D01*
X75676757Y-43106415D01*
X75546415Y-43236757D01*
X75448345Y-43392834D01*
X75387461Y-43566828D01*
X75366824Y-43749997D01*
X74945290Y-43749997D01*
X74953176Y-43680002D01*
X74953176Y-43679997D01*
X74932538Y-43496828D01*
X74917922Y-43455059D01*
X74871656Y-43322837D01*
X74773585Y-43166758D01*
X74643242Y-43036415D01*
X74591180Y-43003702D01*
X74487165Y-42938345D01*
X74487164Y-42938344D01*
X74487163Y-42938344D01*
X74442412Y-42922685D01*
X74313171Y-42877461D01*
X74130003Y-42856824D01*
X74129997Y-42856824D01*
X73946828Y-42877461D01*
X73772834Y-42938345D01*
X73616757Y-43036415D01*
X73486415Y-43166757D01*
X73388345Y-43322834D01*
X73327461Y-43496828D01*
X73306824Y-43679997D01*
X56602019Y-43679997D01*
X56656134Y-43466305D01*
X56668520Y-43316826D01*
X56675300Y-43235006D01*
X56675300Y-43234993D01*
X56656135Y-43003702D01*
X56656133Y-43003691D01*
X56599157Y-42778699D01*
X56505924Y-42566151D01*
X56378983Y-42371852D01*
X56378980Y-42371849D01*
X56378979Y-42371847D01*
X56221784Y-42201087D01*
X56221779Y-42201083D01*
X56221777Y-42201081D01*
X56038634Y-42058535D01*
X56038628Y-42058531D01*
X55834504Y-41948064D01*
X55834495Y-41948061D01*
X55614984Y-41872702D01*
X55434212Y-41842537D01*
X55386049Y-41834500D01*
X55153951Y-41834500D01*
X55108164Y-41842140D01*
X54925015Y-41872702D01*
X54705504Y-41948061D01*
X54705495Y-41948064D01*
X54501371Y-42058531D01*
X54501365Y-42058535D01*
X54318222Y-42201081D01*
X54318219Y-42201084D01*
X54161016Y-42371852D01*
X54034075Y-42566151D01*
X53940842Y-42778699D01*
X53883866Y-43003691D01*
X53883864Y-43003702D01*
X53864700Y-43234993D01*
X42630000Y-43234993D01*
X42630000Y-40699994D01*
X43494859Y-40699994D01*
X43494859Y-40700005D01*
X43515385Y-40947729D01*
X43515387Y-40947738D01*
X43576412Y-41188717D01*
X43676266Y-41416364D01*
X43776564Y-41569882D01*
X44517037Y-40829409D01*
X44534075Y-40892993D01*
X44599901Y-41007007D01*
X44692993Y-41100099D01*
X44807007Y-41165925D01*
X44870590Y-41182962D01*
X44129942Y-41923609D01*
X44176768Y-41960055D01*
X44176770Y-41960056D01*
X44395385Y-42078364D01*
X44395396Y-42078369D01*
X44630506Y-42159083D01*
X44875707Y-42200000D01*
X45124293Y-42200000D01*
X45369493Y-42159083D01*
X45604603Y-42078369D01*
X45604614Y-42078364D01*
X45823228Y-41960057D01*
X45823231Y-41960055D01*
X45870056Y-41923609D01*
X45746446Y-41799999D01*
X64525640Y-41799999D01*
X64525640Y-41800000D01*
X64545039Y-42009352D01*
X64545039Y-42009354D01*
X64545040Y-42009357D01*
X64602578Y-42211584D01*
X64602579Y-42211587D01*
X64696293Y-42399790D01*
X64696298Y-42399798D01*
X64823004Y-42567584D01*
X64978381Y-42709228D01*
X64978383Y-42709230D01*
X65053675Y-42755848D01*
X65157144Y-42819913D01*
X65353199Y-42895866D01*
X65559873Y-42934500D01*
X65559875Y-42934500D01*
X65770125Y-42934500D01*
X65770127Y-42934500D01*
X65976801Y-42895866D01*
X66172856Y-42819913D01*
X66351618Y-42709229D01*
X66506997Y-42567582D01*
X66633703Y-42399796D01*
X66727422Y-42211584D01*
X66784960Y-42009357D01*
X66804360Y-41800000D01*
X66784960Y-41590643D01*
X66727422Y-41388416D01*
X66725933Y-41385426D01*
X66653518Y-41239997D01*
X80016824Y-41239997D01*
X80016824Y-41240002D01*
X80037461Y-41423171D01*
X80098345Y-41597165D01*
X80161920Y-41698344D01*
X80196415Y-41753242D01*
X80326758Y-41883585D01*
X80482837Y-41981656D01*
X80615059Y-42027922D01*
X80656828Y-42042538D01*
X80839997Y-42063176D01*
X80840000Y-42063176D01*
X80840003Y-42063176D01*
X81023171Y-42042538D01*
X81023174Y-42042537D01*
X81197163Y-41981656D01*
X81353242Y-41883585D01*
X81483585Y-41753242D01*
X81581656Y-41597163D01*
X81642537Y-41423174D01*
X81642537Y-41423173D01*
X81642538Y-41423171D01*
X81663176Y-41240002D01*
X81663176Y-41239997D01*
X81642538Y-41056828D01*
X81625105Y-41007007D01*
X81581656Y-40882837D01*
X81483585Y-40726758D01*
X81353242Y-40596415D01*
X81197165Y-40498345D01*
X81197164Y-40498344D01*
X81197163Y-40498344D01*
X81127666Y-40474026D01*
X81023171Y-40437461D01*
X80840003Y-40416824D01*
X80839997Y-40416824D01*
X80656828Y-40437461D01*
X80482834Y-40498345D01*
X80326757Y-40596415D01*
X80196415Y-40726757D01*
X80098345Y-40882834D01*
X80037461Y-41056828D01*
X80016824Y-41239997D01*
X66653518Y-41239997D01*
X66633706Y-41200209D01*
X66633701Y-41200201D01*
X66506995Y-41032415D01*
X66351618Y-40890771D01*
X66351616Y-40890769D01*
X66172859Y-40780089D01*
X66172856Y-40780087D01*
X65976801Y-40704134D01*
X65770127Y-40665500D01*
X65559873Y-40665500D01*
X65353199Y-40704134D01*
X65353196Y-40704134D01*
X65353196Y-40704135D01*
X65157143Y-40780087D01*
X65157140Y-40780089D01*
X64978383Y-40890769D01*
X64978381Y-40890771D01*
X64823004Y-41032415D01*
X64696298Y-41200201D01*
X64696293Y-41200209D01*
X64602579Y-41388412D01*
X64545039Y-41590647D01*
X64525640Y-41799999D01*
X45746446Y-41799999D01*
X45129409Y-41182962D01*
X45192993Y-41165925D01*
X45307007Y-41100099D01*
X45400099Y-41007007D01*
X45465925Y-40892993D01*
X45482962Y-40829409D01*
X46223434Y-41569882D01*
X46323731Y-41416369D01*
X46423587Y-41188717D01*
X46484612Y-40947738D01*
X46484614Y-40947729D01*
X46505141Y-40700005D01*
X46505141Y-40699994D01*
X46484614Y-40452270D01*
X46484612Y-40452261D01*
X46423587Y-40211282D01*
X46323731Y-39983630D01*
X46223434Y-39830116D01*
X45482962Y-40570589D01*
X45465925Y-40507007D01*
X45400099Y-40392993D01*
X45307007Y-40299901D01*
X45192993Y-40234075D01*
X45129410Y-40217037D01*
X45526450Y-39819997D01*
X61096824Y-39819997D01*
X61096824Y-39820002D01*
X61117461Y-40003171D01*
X61159112Y-40122202D01*
X61175567Y-40169228D01*
X61178345Y-40177165D01*
X61242906Y-40279913D01*
X61276415Y-40333242D01*
X61406758Y-40463585D01*
X61562837Y-40561656D01*
X61689480Y-40605970D01*
X61736828Y-40622538D01*
X61919997Y-40643176D01*
X61920000Y-40643176D01*
X61920003Y-40643176D01*
X62103171Y-40622538D01*
X62103174Y-40622537D01*
X62277163Y-40561656D01*
X62433242Y-40463585D01*
X62563585Y-40333242D01*
X62661656Y-40177163D01*
X62722537Y-40003174D01*
X62722537Y-40003173D01*
X62722538Y-40003171D01*
X62743176Y-39820002D01*
X62743176Y-39819997D01*
X62722538Y-39636828D01*
X62707922Y-39595059D01*
X62661656Y-39462837D01*
X62563585Y-39306758D01*
X62516826Y-39259999D01*
X69605640Y-39259999D01*
X69605640Y-39260000D01*
X69625039Y-39469352D01*
X69625039Y-39469354D01*
X69625040Y-39469357D01*
X69672689Y-39636826D01*
X69682579Y-39671587D01*
X69776293Y-39859790D01*
X69776298Y-39859798D01*
X69903004Y-40027584D01*
X70058381Y-40169228D01*
X70058383Y-40169230D01*
X70071199Y-40177165D01*
X70237144Y-40279913D01*
X70433199Y-40355866D01*
X70639873Y-40394500D01*
X70639875Y-40394500D01*
X70850125Y-40394500D01*
X70850127Y-40394500D01*
X71056801Y-40355866D01*
X71252856Y-40279913D01*
X71431618Y-40169229D01*
X71573375Y-40040000D01*
X71573378Y-40039997D01*
X92996824Y-40039997D01*
X92996824Y-40040002D01*
X93017461Y-40223171D01*
X93078345Y-40397165D01*
X93126641Y-40474027D01*
X93145641Y-40541263D01*
X93126642Y-40605970D01*
X93078344Y-40682837D01*
X93017461Y-40856828D01*
X92996824Y-41039997D01*
X92996824Y-41040002D01*
X93017461Y-41223171D01*
X93023351Y-41240002D01*
X93078344Y-41397163D01*
X93176415Y-41553242D01*
X93306758Y-41683585D01*
X93462837Y-41781656D01*
X93595059Y-41827922D01*
X93636828Y-41842538D01*
X93819997Y-41863176D01*
X93820000Y-41863176D01*
X93820003Y-41863176D01*
X94003171Y-41842538D01*
X94003174Y-41842537D01*
X94177163Y-41781656D01*
X94333242Y-41683585D01*
X94463585Y-41553242D01*
X94561656Y-41397163D01*
X94622537Y-41223174D01*
X94622537Y-41223173D01*
X94622538Y-41223171D01*
X94643176Y-41040002D01*
X94643176Y-41039997D01*
X94622538Y-40856828D01*
X94590695Y-40765826D01*
X94561656Y-40682837D01*
X94513357Y-40605970D01*
X94494358Y-40538734D01*
X94513358Y-40474027D01*
X94561656Y-40397163D01*
X94622537Y-40223174D01*
X94625598Y-40196000D01*
X94652661Y-40131589D01*
X94661127Y-40122212D01*
X95293342Y-39489997D01*
X103566824Y-39489997D01*
X103566824Y-39490002D01*
X103587461Y-39673171D01*
X103648345Y-39847165D01*
X103654417Y-39856828D01*
X103746415Y-40003242D01*
X103876758Y-40133585D01*
X104032837Y-40231656D01*
X104165059Y-40277922D01*
X104206828Y-40292538D01*
X104389997Y-40313176D01*
X104390000Y-40313176D01*
X104390003Y-40313176D01*
X104573171Y-40292538D01*
X104573174Y-40292537D01*
X104747163Y-40231656D01*
X104903242Y-40133585D01*
X105033585Y-40003242D01*
X105131656Y-39847163D01*
X105176058Y-39720267D01*
X105216780Y-39663492D01*
X105281733Y-39637745D01*
X105350294Y-39651201D01*
X105400697Y-39699588D01*
X105417100Y-39761223D01*
X105417100Y-42294305D01*
X105417100Y-42294307D01*
X105417099Y-42294307D01*
X105435070Y-42384645D01*
X105435070Y-42384646D01*
X105438927Y-42404039D01*
X105442191Y-42420444D01*
X105491408Y-42539264D01*
X105547472Y-42623171D01*
X105562862Y-42646204D01*
X105562863Y-42646205D01*
X106314837Y-43398178D01*
X106348322Y-43459501D01*
X106343338Y-43529192D01*
X106301466Y-43585126D01*
X106236002Y-43609543D01*
X106218310Y-43609543D01*
X106010001Y-43594645D01*
X106009999Y-43594645D01*
X105738839Y-43614039D01*
X105738832Y-43614040D01*
X105473206Y-43671823D01*
X105473202Y-43671824D01*
X105473199Y-43671825D01*
X105345843Y-43719326D01*
X105218480Y-43766830D01*
X104979892Y-43897109D01*
X104979891Y-43897110D01*
X104762259Y-44060028D01*
X104762247Y-44060038D01*
X104570038Y-44252247D01*
X104570028Y-44252259D01*
X104407110Y-44469891D01*
X104407109Y-44469892D01*
X104276830Y-44708480D01*
X104236420Y-44816824D01*
X104181825Y-44963199D01*
X104181824Y-44963202D01*
X104181823Y-44963206D01*
X104124040Y-45228832D01*
X104124039Y-45228839D01*
X104104645Y-45499998D01*
X104104645Y-45500001D01*
X104124039Y-45771160D01*
X104124040Y-45771167D01*
X104178860Y-46023172D01*
X104181825Y-46036801D01*
X104240963Y-46195355D01*
X104276830Y-46291519D01*
X104407109Y-46530107D01*
X104407110Y-46530108D01*
X104407113Y-46530113D01*
X104570029Y-46747742D01*
X104570033Y-46747746D01*
X104570038Y-46747752D01*
X104762247Y-46939961D01*
X104762253Y-46939966D01*
X104762258Y-46939971D01*
X104979887Y-47102887D01*
X104979891Y-47102889D01*
X104979892Y-47102890D01*
X105218481Y-47233169D01*
X105218480Y-47233169D01*
X105218484Y-47233170D01*
X105218487Y-47233172D01*
X105473199Y-47328175D01*
X105738840Y-47385961D01*
X105990605Y-47403967D01*
X106009999Y-47405355D01*
X106010000Y-47405355D01*
X106010001Y-47405355D01*
X106028100Y-47404060D01*
X106281160Y-47385961D01*
X106546801Y-47328175D01*
X106801513Y-47233172D01*
X106801517Y-47233169D01*
X106801519Y-47233169D01*
X106952484Y-47150736D01*
X107040113Y-47102887D01*
X107257742Y-46939971D01*
X107432629Y-46765084D01*
X107493952Y-46731599D01*
X107563643Y-46736583D01*
X107619577Y-46778454D01*
X107641927Y-46828573D01*
X107662189Y-46930438D01*
X107662191Y-46930444D01*
X107710538Y-47047165D01*
X107711408Y-47049264D01*
X107782859Y-47156200D01*
X107812858Y-47186199D01*
X107812859Y-47186200D01*
X108119197Y-47492538D01*
X108420781Y-47794121D01*
X108454266Y-47855444D01*
X108457100Y-47881802D01*
X108457100Y-49238197D01*
X108437415Y-49305236D01*
X108420785Y-49325873D01*
X108322782Y-49423877D01*
X108267797Y-49478862D01*
X108206474Y-49512346D01*
X108194001Y-49514400D01*
X108166828Y-49517461D01*
X107992834Y-49578345D01*
X107836757Y-49676415D01*
X107706415Y-49806757D01*
X107608345Y-49962834D01*
X107547461Y-50136828D01*
X107526824Y-50319997D01*
X107526824Y-50320002D01*
X107547461Y-50503171D01*
X107608345Y-50677165D01*
X107623157Y-50700738D01*
X107706415Y-50833242D01*
X107836758Y-50963585D01*
X107992837Y-51061656D01*
X108125059Y-51107922D01*
X108166828Y-51122538D01*
X108349997Y-51143176D01*
X108350000Y-51143176D01*
X108350003Y-51143176D01*
X108533171Y-51122538D01*
X108559926Y-51113176D01*
X108707163Y-51061656D01*
X108863242Y-50963585D01*
X108863257Y-50963570D01*
X108863266Y-50963564D01*
X108868685Y-50959244D01*
X108869441Y-50960192D01*
X108924574Y-50930080D01*
X108994266Y-50935058D01*
X109016911Y-50946248D01*
X109152834Y-51031654D01*
X109152832Y-51031654D01*
X109152836Y-51031655D01*
X109152837Y-51031656D01*
X109231971Y-51059346D01*
X109326828Y-51092538D01*
X109509997Y-51113176D01*
X109510000Y-51113176D01*
X109510003Y-51113176D01*
X109693171Y-51092538D01*
X109693174Y-51092537D01*
X109867163Y-51031656D01*
X110023242Y-50933585D01*
X110153585Y-50803242D01*
X110251656Y-50647163D01*
X110312537Y-50473174D01*
X110312537Y-50473173D01*
X110312538Y-50473171D01*
X110333176Y-50290002D01*
X110333176Y-50289997D01*
X110312538Y-50106828D01*
X110297922Y-50065059D01*
X110251656Y-49932837D01*
X110153585Y-49776758D01*
X110023242Y-49646415D01*
X109867163Y-49548343D01*
X109867158Y-49548341D01*
X109845942Y-49540917D01*
X109789167Y-49500194D01*
X109763422Y-49435241D01*
X109762900Y-49423877D01*
X109762900Y-49019995D01*
X110924451Y-49019995D01*
X110924451Y-49020004D01*
X110944616Y-49289101D01*
X111003787Y-49548344D01*
X111004666Y-49552195D01*
X111103257Y-49803398D01*
X111238185Y-50037102D01*
X111293790Y-50106828D01*
X111406442Y-50248089D01*
X111593183Y-50421358D01*
X111604259Y-50431635D01*
X111827226Y-50583651D01*
X112070359Y-50700738D01*
X112328228Y-50780280D01*
X112328229Y-50780280D01*
X112328232Y-50780281D01*
X112595063Y-50820499D01*
X112595068Y-50820499D01*
X112595071Y-50820500D01*
X112595072Y-50820500D01*
X112864928Y-50820500D01*
X112864929Y-50820500D01*
X112864936Y-50820499D01*
X113131767Y-50780281D01*
X113131768Y-50780280D01*
X113131772Y-50780280D01*
X113389641Y-50700738D01*
X113632775Y-50583651D01*
X113855741Y-50431635D01*
X114053561Y-50248085D01*
X114221815Y-50037102D01*
X114356743Y-49803398D01*
X114455334Y-49552195D01*
X114515383Y-49289103D01*
X114535549Y-49020000D01*
X114535549Y-49019995D01*
X118544451Y-49019995D01*
X118544451Y-49020004D01*
X118564616Y-49289101D01*
X118623787Y-49548344D01*
X118624666Y-49552195D01*
X118723257Y-49803398D01*
X118858185Y-50037102D01*
X118913790Y-50106828D01*
X119026442Y-50248089D01*
X119213183Y-50421358D01*
X119224259Y-50431635D01*
X119447226Y-50583651D01*
X119690359Y-50700738D01*
X119948228Y-50780280D01*
X119948229Y-50780280D01*
X119948232Y-50780281D01*
X120215063Y-50820499D01*
X120215068Y-50820499D01*
X120215071Y-50820500D01*
X120215072Y-50820500D01*
X120484928Y-50820500D01*
X120484929Y-50820500D01*
X120484936Y-50820499D01*
X120751767Y-50780281D01*
X120751768Y-50780280D01*
X120751772Y-50780280D01*
X121009641Y-50700738D01*
X121252775Y-50583651D01*
X121475741Y-50431635D01*
X121673561Y-50248085D01*
X121841815Y-50037102D01*
X121976743Y-49803398D01*
X122075334Y-49552195D01*
X122135383Y-49289103D01*
X122155549Y-49020000D01*
X122135383Y-48750897D01*
X122075334Y-48487805D01*
X121976743Y-48236602D01*
X121841815Y-48002898D01*
X121673561Y-47791915D01*
X121673560Y-47791914D01*
X121673557Y-47791910D01*
X121475741Y-47608365D01*
X121375468Y-47540000D01*
X121252775Y-47456349D01*
X121252769Y-47456346D01*
X121252768Y-47456345D01*
X121252767Y-47456344D01*
X121009643Y-47339263D01*
X121009645Y-47339263D01*
X120751773Y-47259720D01*
X120751767Y-47259718D01*
X120484936Y-47219500D01*
X120484929Y-47219500D01*
X120215071Y-47219500D01*
X120215063Y-47219500D01*
X119948232Y-47259718D01*
X119948226Y-47259720D01*
X119690358Y-47339262D01*
X119447230Y-47456346D01*
X119224258Y-47608365D01*
X119026442Y-47791910D01*
X118858185Y-48002898D01*
X118723258Y-48236599D01*
X118723256Y-48236603D01*
X118624666Y-48487804D01*
X118624664Y-48487811D01*
X118564616Y-48750898D01*
X118544451Y-49019995D01*
X114535549Y-49019995D01*
X114515383Y-48750897D01*
X114455334Y-48487805D01*
X114356743Y-48236602D01*
X114221815Y-48002898D01*
X114053561Y-47791915D01*
X114053560Y-47791914D01*
X114053557Y-47791910D01*
X113855741Y-47608365D01*
X113755468Y-47540000D01*
X113632775Y-47456349D01*
X113632769Y-47456346D01*
X113632768Y-47456345D01*
X113632767Y-47456344D01*
X113389643Y-47339263D01*
X113389645Y-47339263D01*
X113131773Y-47259720D01*
X113131767Y-47259718D01*
X112864936Y-47219500D01*
X112864929Y-47219500D01*
X112595071Y-47219500D01*
X112595063Y-47219500D01*
X112328232Y-47259718D01*
X112328226Y-47259720D01*
X112070358Y-47339262D01*
X111827230Y-47456346D01*
X111604258Y-47608365D01*
X111406442Y-47791910D01*
X111238185Y-48002898D01*
X111103258Y-48236599D01*
X111103256Y-48236603D01*
X111004666Y-48487804D01*
X111004664Y-48487811D01*
X110944616Y-48750898D01*
X110924451Y-49019995D01*
X109762900Y-49019995D01*
X109762900Y-47395692D01*
X109744643Y-47303911D01*
X109750870Y-47234319D01*
X109793733Y-47179142D01*
X109859622Y-47155897D01*
X109927619Y-47171965D01*
X109932229Y-47174723D01*
X110022837Y-47231656D01*
X110131150Y-47269556D01*
X110196828Y-47292538D01*
X110379997Y-47313176D01*
X110380000Y-47313176D01*
X110380003Y-47313176D01*
X110563171Y-47292538D01*
X110563174Y-47292537D01*
X110737163Y-47231656D01*
X110893242Y-47133585D01*
X111023585Y-47003242D01*
X111121656Y-46847163D01*
X111182537Y-46673174D01*
X111182537Y-46673173D01*
X111182538Y-46673171D01*
X111203176Y-46490002D01*
X111203176Y-46489997D01*
X111182538Y-46306828D01*
X111167922Y-46265059D01*
X111121656Y-46132837D01*
X111023585Y-45976758D01*
X110893242Y-45846415D01*
X110737165Y-45748345D01*
X110737164Y-45748344D01*
X110737163Y-45748344D01*
X110684627Y-45729961D01*
X110563171Y-45687461D01*
X110380003Y-45666824D01*
X110379997Y-45666824D01*
X110196828Y-45687461D01*
X110022834Y-45748345D01*
X109866757Y-45846415D01*
X109736415Y-45976757D01*
X109638345Y-46132834D01*
X109577461Y-46306828D01*
X109556824Y-46489997D01*
X109556824Y-46490002D01*
X109577462Y-46673174D01*
X109577462Y-46673176D01*
X109598413Y-46733048D01*
X109601975Y-46802827D01*
X109567247Y-46863454D01*
X109505253Y-46895682D01*
X109435678Y-46889277D01*
X109422919Y-46883361D01*
X109419267Y-46881409D01*
X109331914Y-46845226D01*
X109291686Y-46818346D01*
X108979219Y-46505878D01*
X108945734Y-46444555D01*
X108942900Y-46418197D01*
X108942900Y-45639997D01*
X111726824Y-45639997D01*
X111726824Y-45640002D01*
X111747461Y-45823171D01*
X111808345Y-45997165D01*
X111893592Y-46132834D01*
X111906415Y-46153242D01*
X112036758Y-46283585D01*
X112192837Y-46381656D01*
X112297266Y-46418197D01*
X112366828Y-46442538D01*
X112549997Y-46463176D01*
X112550000Y-46463176D01*
X112550003Y-46463176D01*
X112733171Y-46442538D01*
X112733174Y-46442537D01*
X112907163Y-46381656D01*
X113063242Y-46283585D01*
X113193585Y-46153242D01*
X113291656Y-45997163D01*
X113352537Y-45823174D01*
X113352537Y-45823173D01*
X113352538Y-45823171D01*
X113373176Y-45640002D01*
X113373176Y-45639997D01*
X113352538Y-45456828D01*
X113337922Y-45415059D01*
X113291656Y-45282837D01*
X113193585Y-45126758D01*
X113063242Y-44996415D01*
X112907163Y-44898344D01*
X112865396Y-44883729D01*
X112733171Y-44837461D01*
X112550003Y-44816824D01*
X112549997Y-44816824D01*
X112366828Y-44837461D01*
X112192834Y-44898345D01*
X112036757Y-44996415D01*
X111906415Y-45126757D01*
X111808345Y-45282834D01*
X111747461Y-45456828D01*
X111726824Y-45639997D01*
X108942900Y-45639997D01*
X108942900Y-44385692D01*
X108923865Y-44289998D01*
X116344645Y-44289998D01*
X116344645Y-44290001D01*
X116364039Y-44561160D01*
X116364040Y-44561167D01*
X116421823Y-44826793D01*
X116421825Y-44826801D01*
X116448510Y-44898345D01*
X116516830Y-45081519D01*
X116647109Y-45320107D01*
X116647110Y-45320108D01*
X116647113Y-45320113D01*
X116810029Y-45537742D01*
X116810033Y-45537746D01*
X116810038Y-45537752D01*
X117002247Y-45729961D01*
X117002253Y-45729966D01*
X117002258Y-45729971D01*
X117219887Y-45892887D01*
X117219891Y-45892889D01*
X117219892Y-45892890D01*
X117458481Y-46023169D01*
X117458480Y-46023169D01*
X117458484Y-46023170D01*
X117458487Y-46023172D01*
X117713199Y-46118175D01*
X117978840Y-46175961D01*
X118230605Y-46193967D01*
X118249999Y-46195355D01*
X118250000Y-46195355D01*
X118250001Y-46195355D01*
X118268100Y-46194060D01*
X118521160Y-46175961D01*
X118786801Y-46118175D01*
X119041513Y-46023172D01*
X119041517Y-46023169D01*
X119041519Y-46023169D01*
X119267086Y-45900000D01*
X119280113Y-45892887D01*
X119497742Y-45729971D01*
X119689971Y-45537742D01*
X119852887Y-45320113D01*
X119949850Y-45142538D01*
X119983169Y-45081519D01*
X119983169Y-45081517D01*
X119983172Y-45081513D01*
X120078175Y-44826801D01*
X120135961Y-44561160D01*
X120155355Y-44290000D01*
X120135961Y-44018840D01*
X120078175Y-43753199D01*
X119983172Y-43498487D01*
X119983170Y-43498484D01*
X119983169Y-43498480D01*
X119852890Y-43259892D01*
X119852889Y-43259891D01*
X119852887Y-43259887D01*
X119689971Y-43042258D01*
X119689966Y-43042253D01*
X119689961Y-43042247D01*
X119497752Y-42850038D01*
X119497746Y-42850033D01*
X119497742Y-42850029D01*
X119280113Y-42687113D01*
X119280108Y-42687110D01*
X119280107Y-42687109D01*
X119041518Y-42556830D01*
X119041519Y-42556830D01*
X118991920Y-42538330D01*
X118786801Y-42461825D01*
X118786794Y-42461823D01*
X118786793Y-42461823D01*
X118521167Y-42404040D01*
X118521160Y-42404039D01*
X118250001Y-42384645D01*
X118249999Y-42384645D01*
X117978839Y-42404039D01*
X117978832Y-42404040D01*
X117713206Y-42461823D01*
X117713202Y-42461824D01*
X117713199Y-42461825D01*
X117585843Y-42509326D01*
X117458480Y-42556830D01*
X117219892Y-42687109D01*
X117219891Y-42687110D01*
X117002259Y-42850028D01*
X117002247Y-42850038D01*
X116810038Y-43042247D01*
X116810028Y-43042259D01*
X116647110Y-43259891D01*
X116647109Y-43259892D01*
X116516830Y-43498480D01*
X116491338Y-43566828D01*
X116421825Y-43753199D01*
X116421824Y-43753202D01*
X116421823Y-43753206D01*
X116364040Y-44018832D01*
X116364039Y-44018839D01*
X116344645Y-44289998D01*
X108923865Y-44289998D01*
X108917810Y-44259561D01*
X108917809Y-44259560D01*
X108917809Y-44259556D01*
X108868592Y-44140736D01*
X108827069Y-44078592D01*
X108812104Y-44056196D01*
X108797141Y-44033801D01*
X108797137Y-44033796D01*
X107203338Y-42439997D01*
X110146824Y-42439997D01*
X110146824Y-42440002D01*
X110167461Y-42623171D01*
X110228345Y-42797165D01*
X110278800Y-42877463D01*
X110326415Y-42953242D01*
X110456758Y-43083585D01*
X110612837Y-43181656D01*
X110745059Y-43227922D01*
X110786828Y-43242538D01*
X110969997Y-43263176D01*
X110970000Y-43263176D01*
X110970003Y-43263176D01*
X111153171Y-43242538D01*
X111153174Y-43242537D01*
X111327163Y-43181656D01*
X111483242Y-43083585D01*
X111613585Y-42953242D01*
X111711656Y-42797163D01*
X111772537Y-42623174D01*
X111772537Y-42623173D01*
X111772538Y-42623171D01*
X111793176Y-42440002D01*
X111793176Y-42439997D01*
X111772538Y-42256828D01*
X111738335Y-42159083D01*
X111711656Y-42082837D01*
X111613585Y-41926758D01*
X111483242Y-41796415D01*
X111327163Y-41698344D01*
X111284981Y-41683584D01*
X111153171Y-41637461D01*
X110970003Y-41616824D01*
X110969997Y-41616824D01*
X110786828Y-41637461D01*
X110612834Y-41698345D01*
X110456757Y-41796415D01*
X110326415Y-41926757D01*
X110228345Y-42082834D01*
X110167461Y-42256828D01*
X110146824Y-42439997D01*
X107203338Y-42439997D01*
X106759219Y-41995878D01*
X106725734Y-41934555D01*
X106722900Y-41908197D01*
X106722900Y-37819997D01*
X116376824Y-37819997D01*
X116376824Y-37820002D01*
X116397461Y-38003171D01*
X116440266Y-38125500D01*
X116453785Y-38164135D01*
X116458345Y-38177165D01*
X116497882Y-38240087D01*
X116556415Y-38333242D01*
X116686758Y-38463585D01*
X116842837Y-38561656D01*
X116975059Y-38607922D01*
X117016828Y-38622538D01*
X117199997Y-38643176D01*
X117200000Y-38643176D01*
X117200003Y-38643176D01*
X117383171Y-38622538D01*
X117383174Y-38622537D01*
X117557163Y-38561656D01*
X117713242Y-38463585D01*
X117843585Y-38333242D01*
X117941656Y-38177163D01*
X118002537Y-38003174D01*
X118002537Y-38003173D01*
X118002538Y-38003171D01*
X118023176Y-37820002D01*
X118023176Y-37819997D01*
X118002538Y-37636828D01*
X117977807Y-37566151D01*
X117941656Y-37462837D01*
X117843585Y-37306758D01*
X117713242Y-37176415D01*
X117557163Y-37078344D01*
X117500552Y-37058535D01*
X117383171Y-37017461D01*
X117200003Y-36996824D01*
X117199997Y-36996824D01*
X117016828Y-37017461D01*
X116842834Y-37078345D01*
X116686757Y-37176415D01*
X116556415Y-37306757D01*
X116458345Y-37462834D01*
X116397461Y-37636828D01*
X116376824Y-37819997D01*
X106722900Y-37819997D01*
X106722900Y-35550966D01*
X106742585Y-35483927D01*
X106795389Y-35438172D01*
X106803548Y-35434791D01*
X106861513Y-35413172D01*
X107100113Y-35282887D01*
X107317742Y-35119971D01*
X107509971Y-34927742D01*
X107672887Y-34710113D01*
X107769466Y-34533242D01*
X107803169Y-34471519D01*
X107803169Y-34471517D01*
X107803172Y-34471513D01*
X107898175Y-34216801D01*
X107946706Y-33993703D01*
X107980190Y-33932380D01*
X108041513Y-33898895D01*
X108111205Y-33903879D01*
X108155553Y-33932380D01*
X108196758Y-33973585D01*
X108352837Y-34071656D01*
X108485059Y-34117922D01*
X108526828Y-34132538D01*
X108709997Y-34153176D01*
X108710000Y-34153176D01*
X108710003Y-34153176D01*
X108893171Y-34132538D01*
X108914702Y-34125004D01*
X109067163Y-34071656D01*
X109223242Y-33973585D01*
X109353585Y-33843242D01*
X109451656Y-33687163D01*
X109512537Y-33513174D01*
X109512537Y-33513173D01*
X109512538Y-33513171D01*
X109533176Y-33330002D01*
X109533176Y-33329997D01*
X109512538Y-33146828D01*
X109497922Y-33105059D01*
X109451656Y-32972837D01*
X109353585Y-32816758D01*
X109223242Y-32686415D01*
X109165116Y-32649892D01*
X109067165Y-32588345D01*
X109067164Y-32588344D01*
X109067163Y-32588344D01*
X109025396Y-32573729D01*
X108893171Y-32527461D01*
X108710003Y-32506824D01*
X108709997Y-32506824D01*
X108526828Y-32527461D01*
X108352834Y-32588345D01*
X108196757Y-32686415D01*
X108066415Y-32816757D01*
X108066413Y-32816760D01*
X108017106Y-32895231D01*
X107964771Y-32941522D01*
X107895718Y-32952169D01*
X107831869Y-32923794D01*
X107803281Y-32888685D01*
X107672890Y-32649892D01*
X107672889Y-32649891D01*
X107672887Y-32649887D01*
X107509971Y-32432258D01*
X107509966Y-32432253D01*
X107509961Y-32432247D01*
X107317752Y-32240038D01*
X107317746Y-32240033D01*
X107317742Y-32240029D01*
X107100113Y-32077113D01*
X107100108Y-32077110D01*
X107100107Y-32077109D01*
X106861518Y-31946830D01*
X106861519Y-31946830D01*
X106811920Y-31928330D01*
X106606801Y-31851825D01*
X106606794Y-31851823D01*
X106606793Y-31851823D01*
X106341167Y-31794040D01*
X106341160Y-31794039D01*
X106070001Y-31774645D01*
X106069999Y-31774645D01*
X105798839Y-31794039D01*
X105798832Y-31794040D01*
X105533206Y-31851823D01*
X105533202Y-31851824D01*
X105533199Y-31851825D01*
X105405843Y-31899326D01*
X105278480Y-31946830D01*
X105039892Y-32077109D01*
X105039891Y-32077110D01*
X104822259Y-32240028D01*
X104822247Y-32240038D01*
X104630038Y-32432247D01*
X104630028Y-32432259D01*
X104467110Y-32649891D01*
X104467109Y-32649892D01*
X104336830Y-32888480D01*
X104305368Y-32972834D01*
X104241825Y-33143199D01*
X104241824Y-33143202D01*
X104241823Y-33143206D01*
X104184040Y-33408832D01*
X104184039Y-33408839D01*
X104164645Y-33679998D01*
X104164645Y-33680001D01*
X104184039Y-33951160D01*
X104184040Y-33951167D01*
X104240454Y-34210499D01*
X104241825Y-34216801D01*
X104301637Y-34377163D01*
X104336830Y-34471519D01*
X104467109Y-34710107D01*
X104467110Y-34710108D01*
X104467113Y-34710113D01*
X104630029Y-34927742D01*
X104630033Y-34927746D01*
X104630038Y-34927752D01*
X104822247Y-35119961D01*
X104822253Y-35119966D01*
X104822258Y-35119971D01*
X105039887Y-35282887D01*
X105039891Y-35282889D01*
X105039892Y-35282890D01*
X105278481Y-35413169D01*
X105278484Y-35413171D01*
X105278487Y-35413172D01*
X105336434Y-35434785D01*
X105392366Y-35476655D01*
X105416784Y-35542119D01*
X105417100Y-35550966D01*
X105417100Y-39218776D01*
X105397415Y-39285815D01*
X105344611Y-39331570D01*
X105275453Y-39341514D01*
X105211897Y-39312489D01*
X105176059Y-39259731D01*
X105131657Y-39132840D01*
X105131656Y-39132836D01*
X105033584Y-38976757D01*
X104903242Y-38846415D01*
X104747165Y-38748345D01*
X104747164Y-38748344D01*
X104747163Y-38748344D01*
X104705396Y-38733729D01*
X104573171Y-38687461D01*
X104390003Y-38666824D01*
X104389997Y-38666824D01*
X104206828Y-38687461D01*
X104032834Y-38748345D01*
X103876757Y-38846415D01*
X103746415Y-38976757D01*
X103648345Y-39132834D01*
X103587461Y-39306828D01*
X103566824Y-39489997D01*
X95293342Y-39489997D01*
X99493739Y-35289601D01*
X99555061Y-35256117D01*
X99624753Y-35261101D01*
X99680686Y-35302973D01*
X99705103Y-35368437D01*
X99698461Y-35418237D01*
X99667462Y-35506827D01*
X99646824Y-35689997D01*
X99646824Y-35690002D01*
X99667461Y-35873171D01*
X99704324Y-35978517D01*
X99728344Y-36047163D01*
X99826415Y-36203242D01*
X99956758Y-36333585D01*
X100112837Y-36431656D01*
X100245059Y-36477922D01*
X100286828Y-36492538D01*
X100469997Y-36513176D01*
X100470000Y-36513176D01*
X100470003Y-36513176D01*
X100653171Y-36492538D01*
X100653174Y-36492537D01*
X100827163Y-36431656D01*
X100983242Y-36333585D01*
X101113585Y-36203242D01*
X101211656Y-36047163D01*
X101272537Y-35873174D01*
X101272537Y-35873173D01*
X101272538Y-35873171D01*
X101293176Y-35690002D01*
X101293176Y-35689997D01*
X101272538Y-35506828D01*
X101248514Y-35438172D01*
X101211656Y-35332837D01*
X101113585Y-35176758D01*
X100983242Y-35046415D01*
X100946254Y-35023174D01*
X100827165Y-34948345D01*
X100827164Y-34948344D01*
X100827163Y-34948344D01*
X100768314Y-34927752D01*
X100653171Y-34887461D01*
X100470003Y-34866824D01*
X100469997Y-34866824D01*
X100286827Y-34887462D01*
X100198237Y-34918461D01*
X100128458Y-34922022D01*
X100067831Y-34887293D01*
X100035604Y-34825300D01*
X100042009Y-34755724D01*
X100069600Y-34713739D01*
X104154122Y-30629219D01*
X104215445Y-30595734D01*
X104241803Y-30592900D01*
X107904171Y-30592900D01*
X107971210Y-30612585D01*
X108016965Y-30665389D01*
X108026909Y-30734547D01*
X108009165Y-30782872D01*
X107962541Y-30857072D01*
X107901657Y-31031066D01*
X107881020Y-31214235D01*
X107881020Y-31214240D01*
X107901657Y-31397409D01*
X107932946Y-31486826D01*
X107952342Y-31542258D01*
X107962541Y-31571403D01*
X108022900Y-31667463D01*
X108060611Y-31727480D01*
X108190954Y-31857823D01*
X108347033Y-31955894D01*
X108468758Y-31998487D01*
X108521024Y-32016776D01*
X108704193Y-32037414D01*
X108704196Y-32037414D01*
X108704199Y-32037414D01*
X108887367Y-32016776D01*
X108887370Y-32016775D01*
X109061359Y-31955894D01*
X109217438Y-31857823D01*
X109347781Y-31727480D01*
X109445852Y-31571401D01*
X109506733Y-31397412D01*
X109506733Y-31397411D01*
X109506734Y-31397409D01*
X109527372Y-31214240D01*
X109527372Y-31214235D01*
X109506734Y-31031066D01*
X109482505Y-30961825D01*
X109445852Y-30857075D01*
X109399226Y-30782871D01*
X109380227Y-30715636D01*
X109400594Y-30648800D01*
X109453862Y-30603586D01*
X109504221Y-30592900D01*
X110038197Y-30592900D01*
X110105236Y-30612585D01*
X110125878Y-30629219D01*
X111374470Y-31877811D01*
X112549358Y-33052698D01*
X112582843Y-33114021D01*
X112577859Y-33183713D01*
X112535987Y-33239646D01*
X112502632Y-33257420D01*
X112442840Y-33278342D01*
X112442836Y-33278343D01*
X112286757Y-33376415D01*
X112156415Y-33506757D01*
X112058345Y-33662834D01*
X111997461Y-33836828D01*
X111976824Y-34019997D01*
X111976824Y-34020002D01*
X111997461Y-34203171D01*
X112058345Y-34377165D01*
X112124743Y-34482837D01*
X112156415Y-34533242D01*
X112286758Y-34663585D01*
X112442837Y-34761656D01*
X112575059Y-34807922D01*
X112616828Y-34822538D01*
X112799997Y-34843176D01*
X112800000Y-34843176D01*
X112800003Y-34843176D01*
X112983171Y-34822538D01*
X112983174Y-34822537D01*
X113157163Y-34761656D01*
X113313242Y-34663585D01*
X113443585Y-34533242D01*
X113541656Y-34377163D01*
X113602537Y-34203174D01*
X113602537Y-34203173D01*
X113602538Y-34203171D01*
X113623176Y-34020002D01*
X113623176Y-34019997D01*
X113602538Y-33836828D01*
X113587922Y-33795059D01*
X113541656Y-33662837D01*
X113522828Y-33632872D01*
X113503828Y-33565635D01*
X113524196Y-33498800D01*
X113577464Y-33453586D01*
X113627822Y-33442900D01*
X116349033Y-33442900D01*
X116416072Y-33462585D01*
X116461827Y-33515389D01*
X116465215Y-33523566D01*
X116486830Y-33581518D01*
X116617109Y-33820107D01*
X116617110Y-33820108D01*
X116617113Y-33820113D01*
X116780029Y-34037742D01*
X116780033Y-34037746D01*
X116780038Y-34037752D01*
X116972247Y-34229961D01*
X116972253Y-34229966D01*
X116972258Y-34229971D01*
X117189887Y-34392887D01*
X117189891Y-34392889D01*
X117189892Y-34392890D01*
X117428481Y-34523169D01*
X117428480Y-34523169D01*
X117428484Y-34523170D01*
X117428487Y-34523172D01*
X117683199Y-34618175D01*
X117948840Y-34675961D01*
X118200605Y-34693967D01*
X118219999Y-34695355D01*
X118220000Y-34695355D01*
X118220001Y-34695355D01*
X118238100Y-34694060D01*
X118491160Y-34675961D01*
X118756801Y-34618175D01*
X118979327Y-34535176D01*
X119049015Y-34530193D01*
X119110338Y-34563678D01*
X120750781Y-36204121D01*
X120784266Y-36265444D01*
X120787100Y-36291802D01*
X120787100Y-42965858D01*
X120768094Y-43031830D01*
X120698344Y-43142836D01*
X120637461Y-43316828D01*
X120616824Y-43499997D01*
X120616824Y-43500002D01*
X120637461Y-43683171D01*
X120666735Y-43766830D01*
X120698344Y-43857163D01*
X120796415Y-44013242D01*
X120926758Y-44143585D01*
X121082837Y-44241656D01*
X121215059Y-44287922D01*
X121256828Y-44302538D01*
X121439997Y-44323176D01*
X121440000Y-44323176D01*
X121440003Y-44323176D01*
X121623166Y-44302538D01*
X121623166Y-44302537D01*
X121623174Y-44302537D01*
X121625578Y-44301695D01*
X121627230Y-44301611D01*
X121629956Y-44300989D01*
X121630064Y-44301466D01*
X121695352Y-44298125D01*
X121754224Y-44331051D01*
X121816758Y-44393585D01*
X121972837Y-44491656D01*
X122089669Y-44532537D01*
X122146828Y-44552538D01*
X122329997Y-44573176D01*
X122330000Y-44573176D01*
X122330003Y-44573176D01*
X122513171Y-44552538D01*
X122513174Y-44552537D01*
X122687163Y-44491656D01*
X122843242Y-44393585D01*
X122973585Y-44263242D01*
X123071656Y-44107163D01*
X123132537Y-43933174D01*
X123132537Y-43933173D01*
X123132538Y-43933171D01*
X123153176Y-43750002D01*
X123153176Y-43749997D01*
X123132538Y-43566828D01*
X123109154Y-43500000D01*
X123071656Y-43392837D01*
X122973585Y-43236758D01*
X122843242Y-43106415D01*
X122811412Y-43086415D01*
X122687164Y-43008344D01*
X122551683Y-42960938D01*
X122513174Y-42947463D01*
X122513173Y-42947462D01*
X122513168Y-42947461D01*
X122440981Y-42939328D01*
X122395485Y-42922685D01*
X122394634Y-42924278D01*
X122389266Y-42921408D01*
X122270444Y-42872191D01*
X122270439Y-42872189D01*
X122192707Y-42856727D01*
X122130797Y-42824341D01*
X122096223Y-42763625D01*
X122092900Y-42735110D01*
X122092900Y-35905692D01*
X122067810Y-35779561D01*
X122067809Y-35779560D01*
X122067809Y-35779556D01*
X122018592Y-35660736D01*
X121969845Y-35587781D01*
X121947140Y-35553800D01*
X121947138Y-35553797D01*
X121947135Y-35553794D01*
X120015410Y-33622070D01*
X119981925Y-33560747D01*
X119986908Y-33491059D01*
X120048175Y-33326801D01*
X120058717Y-33278342D01*
X120077195Y-33193396D01*
X120105961Y-33061160D01*
X120125355Y-32790000D01*
X120105961Y-32518840D01*
X120048175Y-32253199D01*
X119953172Y-31998487D01*
X119953169Y-31998481D01*
X119953169Y-31998480D01*
X119822890Y-31759892D01*
X119822889Y-31759891D01*
X119822887Y-31759887D01*
X119659971Y-31542258D01*
X119659966Y-31542253D01*
X119659961Y-31542247D01*
X119467752Y-31350038D01*
X119467746Y-31350033D01*
X119467742Y-31350029D01*
X119250113Y-31187113D01*
X119250108Y-31187110D01*
X119250107Y-31187109D01*
X119011518Y-31056830D01*
X119011519Y-31056830D01*
X118961920Y-31038330D01*
X118756801Y-30961825D01*
X118756794Y-30961823D01*
X118756793Y-30961823D01*
X118491167Y-30904040D01*
X118491160Y-30904039D01*
X118220001Y-30884645D01*
X118219999Y-30884645D01*
X117948839Y-30904039D01*
X117948832Y-30904040D01*
X117683206Y-30961823D01*
X117683202Y-30961824D01*
X117683199Y-30961825D01*
X117585232Y-30998365D01*
X117428480Y-31056830D01*
X117189892Y-31187109D01*
X117189891Y-31187110D01*
X116972259Y-31350028D01*
X116972247Y-31350038D01*
X116780038Y-31542247D01*
X116780028Y-31542259D01*
X116617110Y-31759891D01*
X116617109Y-31759892D01*
X116486830Y-31998481D01*
X116465215Y-32056434D01*
X116423343Y-32112368D01*
X116357878Y-32136784D01*
X116349033Y-32137100D01*
X113531802Y-32137100D01*
X113464763Y-32117415D01*
X113444121Y-32100781D01*
X110776205Y-29432863D01*
X110776204Y-29432862D01*
X110776200Y-29432859D01*
X110669264Y-29361408D01*
X110606388Y-29335364D01*
X110550444Y-29312191D01*
X110550438Y-29312189D01*
X110424307Y-29287100D01*
X110424305Y-29287100D01*
X104534987Y-29287100D01*
X104467948Y-29267415D01*
X104422193Y-29214611D01*
X104412249Y-29145453D01*
X104429994Y-29097128D01*
X104511652Y-28967170D01*
X104511654Y-28967167D01*
X104511654Y-28967165D01*
X104511656Y-28967163D01*
X104572537Y-28793174D01*
X104572537Y-28793173D01*
X104572538Y-28793171D01*
X104593176Y-28610002D01*
X104593176Y-28609997D01*
X104572538Y-28426828D01*
X104532792Y-28313242D01*
X104511656Y-28252837D01*
X104413585Y-28096758D01*
X104283242Y-27966415D01*
X104127163Y-27868344D01*
X104085396Y-27853729D01*
X103953171Y-27807461D01*
X103770003Y-27786824D01*
X103769997Y-27786824D01*
X103586828Y-27807461D01*
X103412834Y-27868345D01*
X103256757Y-27966415D01*
X103126415Y-28096757D01*
X103028345Y-28252834D01*
X102967461Y-28426828D01*
X102946824Y-28609997D01*
X102946824Y-28610002D01*
X102967461Y-28793171D01*
X103028345Y-28967165D01*
X103028348Y-28967170D01*
X103126415Y-29123242D01*
X103256758Y-29253585D01*
X103386909Y-29335364D01*
X103433200Y-29387699D01*
X103443848Y-29456752D01*
X103415473Y-29520601D01*
X103408618Y-29528039D01*
X93737796Y-39198861D01*
X93676473Y-39232346D01*
X93664001Y-39234400D01*
X93636831Y-39237461D01*
X93462835Y-39298344D01*
X93306757Y-39396415D01*
X93176415Y-39526757D01*
X93078345Y-39682834D01*
X93017461Y-39856828D01*
X92996824Y-40039997D01*
X71573378Y-40039997D01*
X71586995Y-40027584D01*
X71605378Y-40003242D01*
X71713703Y-39859796D01*
X71807422Y-39671584D01*
X71864960Y-39469357D01*
X71884360Y-39260000D01*
X71864960Y-39050643D01*
X71807422Y-38848416D01*
X71784577Y-38802537D01*
X71713706Y-38660209D01*
X71713701Y-38660201D01*
X71586995Y-38492415D01*
X71431618Y-38350771D01*
X71431616Y-38350769D01*
X71252859Y-38240089D01*
X71252856Y-38240087D01*
X71239707Y-38234993D01*
X71056801Y-38164134D01*
X70850127Y-38125500D01*
X70639873Y-38125500D01*
X70433199Y-38164134D01*
X70433196Y-38164134D01*
X70433196Y-38164135D01*
X70237143Y-38240087D01*
X70237140Y-38240089D01*
X70058383Y-38350769D01*
X70058381Y-38350771D01*
X69903004Y-38492415D01*
X69776298Y-38660201D01*
X69776293Y-38660209D01*
X69682579Y-38848412D01*
X69682578Y-38848416D01*
X69634481Y-39017463D01*
X69625039Y-39050647D01*
X69605640Y-39259999D01*
X62516826Y-39259999D01*
X62433242Y-39176415D01*
X62363888Y-39132837D01*
X62277165Y-39078345D01*
X62277164Y-39078344D01*
X62277163Y-39078344D01*
X62235396Y-39063729D01*
X62103171Y-39017461D01*
X61920003Y-38996824D01*
X61919997Y-38996824D01*
X61736828Y-39017461D01*
X61562834Y-39078345D01*
X61406757Y-39176415D01*
X61276415Y-39306757D01*
X61178345Y-39462834D01*
X61117461Y-39636828D01*
X61096824Y-39819997D01*
X45526450Y-39819997D01*
X45870057Y-39476390D01*
X45870056Y-39476389D01*
X45823229Y-39439943D01*
X45604614Y-39321635D01*
X45604603Y-39321630D01*
X45369493Y-39240916D01*
X45124293Y-39200000D01*
X44875707Y-39200000D01*
X44630506Y-39240916D01*
X44395396Y-39321630D01*
X44395390Y-39321632D01*
X44176761Y-39439949D01*
X44129942Y-39476388D01*
X44129942Y-39476390D01*
X44870590Y-40217037D01*
X44807007Y-40234075D01*
X44692993Y-40299901D01*
X44599901Y-40392993D01*
X44534075Y-40507007D01*
X44517037Y-40570589D01*
X43776564Y-39830116D01*
X43676267Y-39983632D01*
X43576412Y-40211282D01*
X43515387Y-40452261D01*
X43515385Y-40452270D01*
X43494859Y-40699994D01*
X42630000Y-40699994D01*
X42630000Y-38234993D01*
X53864700Y-38234993D01*
X53864700Y-38235006D01*
X53883864Y-38466297D01*
X53883866Y-38466308D01*
X53940842Y-38691300D01*
X54034075Y-38903848D01*
X54161016Y-39098147D01*
X54161019Y-39098151D01*
X54161021Y-39098153D01*
X54318216Y-39268913D01*
X54318219Y-39268915D01*
X54318222Y-39268918D01*
X54501365Y-39411464D01*
X54501371Y-39411468D01*
X54501374Y-39411470D01*
X54705497Y-39521936D01*
X54819487Y-39561068D01*
X54925015Y-39597297D01*
X54925017Y-39597297D01*
X54925019Y-39597298D01*
X55153951Y-39635500D01*
X55153952Y-39635500D01*
X55386048Y-39635500D01*
X55386049Y-39635500D01*
X55614981Y-39597298D01*
X55834503Y-39521936D01*
X56038626Y-39411470D01*
X56221784Y-39268913D01*
X56378979Y-39098153D01*
X56505924Y-38903849D01*
X56599157Y-38691300D01*
X56656134Y-38466305D01*
X56656135Y-38466297D01*
X56675300Y-38235006D01*
X56675300Y-38234993D01*
X56656135Y-38003702D01*
X56656133Y-38003691D01*
X56599157Y-37778699D01*
X56505924Y-37566151D01*
X56378983Y-37371852D01*
X56378980Y-37371849D01*
X56378979Y-37371847D01*
X56221784Y-37201087D01*
X56221779Y-37201083D01*
X56221777Y-37201081D01*
X56038634Y-37058535D01*
X56038628Y-37058531D01*
X55834504Y-36948064D01*
X55834495Y-36948061D01*
X55614984Y-36872702D01*
X55443282Y-36844050D01*
X55386049Y-36834500D01*
X55153951Y-36834500D01*
X55108164Y-36842140D01*
X54925015Y-36872702D01*
X54705504Y-36948061D01*
X54705495Y-36948064D01*
X54501371Y-37058531D01*
X54501365Y-37058535D01*
X54318222Y-37201081D01*
X54318219Y-37201084D01*
X54318216Y-37201086D01*
X54318216Y-37201087D01*
X54265507Y-37258344D01*
X54161016Y-37371852D01*
X54034075Y-37566151D01*
X53940842Y-37778699D01*
X53883866Y-38003691D01*
X53883864Y-38003702D01*
X53864700Y-38234993D01*
X42630000Y-38234993D01*
X42630000Y-38171362D01*
X42649685Y-38104323D01*
X42666319Y-38083681D01*
X43073681Y-37676319D01*
X43135004Y-37642834D01*
X43161362Y-37640000D01*
X43168637Y-37640000D01*
X43235676Y-37659685D01*
X43237402Y-37661075D01*
X43239999Y-37659999D01*
X43240000Y-37660000D01*
X43240000Y-36038135D01*
X64530500Y-36038135D01*
X64530500Y-37401870D01*
X64530501Y-37401876D01*
X64536908Y-37461483D01*
X64587202Y-37596328D01*
X64587206Y-37596335D01*
X64673452Y-37711544D01*
X64673455Y-37711547D01*
X64788664Y-37797793D01*
X64788671Y-37797797D01*
X64923517Y-37848091D01*
X64923516Y-37848091D01*
X64930444Y-37848835D01*
X64983127Y-37854500D01*
X66346872Y-37854499D01*
X66406483Y-37848091D01*
X66541331Y-37797796D01*
X66656546Y-37711546D01*
X66742796Y-37596331D01*
X66793091Y-37461483D01*
X66799500Y-37401873D01*
X66799499Y-36434995D01*
X74139451Y-36434995D01*
X74139451Y-36435004D01*
X74159616Y-36704101D01*
X74219664Y-36967188D01*
X74219666Y-36967195D01*
X74311461Y-37201084D01*
X74318257Y-37218398D01*
X74453185Y-37452102D01*
X74589080Y-37622509D01*
X74621442Y-37663089D01*
X74787135Y-37816828D01*
X74819259Y-37846635D01*
X75042226Y-37998651D01*
X75285359Y-38115738D01*
X75543228Y-38195280D01*
X75543229Y-38195280D01*
X75543232Y-38195281D01*
X75810063Y-38235499D01*
X75810068Y-38235499D01*
X75810071Y-38235500D01*
X75810072Y-38235500D01*
X76079928Y-38235500D01*
X76079929Y-38235500D01*
X76079936Y-38235499D01*
X76346767Y-38195281D01*
X76346768Y-38195280D01*
X76346772Y-38195280D01*
X76604641Y-38115738D01*
X76796765Y-38023216D01*
X76844980Y-37999997D01*
X79406824Y-37999997D01*
X79406824Y-38000002D01*
X79427461Y-38183171D01*
X79447378Y-38240089D01*
X79486107Y-38350771D01*
X79488345Y-38357165D01*
X79573330Y-38492418D01*
X79586415Y-38513242D01*
X79716758Y-38643585D01*
X79872837Y-38741656D01*
X80005059Y-38787922D01*
X80046828Y-38802538D01*
X80229997Y-38823176D01*
X80230000Y-38823176D01*
X80230003Y-38823176D01*
X80413171Y-38802538D01*
X80413174Y-38802537D01*
X80587163Y-38741656D01*
X80743242Y-38643585D01*
X80873585Y-38513242D01*
X80971656Y-38357163D01*
X81032537Y-38183174D01*
X81032537Y-38183173D01*
X81032538Y-38183171D01*
X81053176Y-38000002D01*
X81053176Y-37999997D01*
X81032538Y-37816828D01*
X81017922Y-37775059D01*
X80971656Y-37642837D01*
X80873585Y-37486758D01*
X80743242Y-37356415D01*
X80587165Y-37258345D01*
X80587164Y-37258344D01*
X80587163Y-37258344D01*
X80545396Y-37243729D01*
X80413171Y-37197461D01*
X80230003Y-37176824D01*
X80229997Y-37176824D01*
X80046828Y-37197461D01*
X79872834Y-37258345D01*
X79716757Y-37356415D01*
X79586415Y-37486757D01*
X79488345Y-37642834D01*
X79427461Y-37816828D01*
X79406824Y-37999997D01*
X76844980Y-37999997D01*
X76847767Y-37998655D01*
X76847767Y-37998654D01*
X76847775Y-37998651D01*
X77070741Y-37846635D01*
X77268561Y-37663085D01*
X77436815Y-37452102D01*
X77571743Y-37218398D01*
X77670334Y-36967195D01*
X77730383Y-36704103D01*
X77746237Y-36492538D01*
X77750549Y-36435004D01*
X77750549Y-36434995D01*
X77730383Y-36165898D01*
X77703283Y-36047165D01*
X77670334Y-35902805D01*
X77571743Y-35651602D01*
X77436815Y-35417898D01*
X77268561Y-35206915D01*
X77268560Y-35206914D01*
X77268557Y-35206910D01*
X77070741Y-35023365D01*
X76960707Y-34948345D01*
X76847775Y-34871349D01*
X76847769Y-34871346D01*
X76847768Y-34871345D01*
X76847767Y-34871344D01*
X76782674Y-34839997D01*
X89766824Y-34839997D01*
X89766824Y-34840002D01*
X89787461Y-35023171D01*
X89848345Y-35197165D01*
X89885387Y-35256117D01*
X89946415Y-35353242D01*
X90076758Y-35483585D01*
X90232837Y-35581656D01*
X90365059Y-35627922D01*
X90406828Y-35642538D01*
X90589997Y-35663176D01*
X90590000Y-35663176D01*
X90590003Y-35663176D01*
X90773171Y-35642538D01*
X90774131Y-35642202D01*
X90947163Y-35581656D01*
X91103242Y-35483585D01*
X91233585Y-35353242D01*
X91331656Y-35197163D01*
X91392537Y-35023174D01*
X91392537Y-35023173D01*
X91392538Y-35023171D01*
X91413176Y-34840002D01*
X91413176Y-34839997D01*
X91396275Y-34689997D01*
X95456824Y-34689997D01*
X95456824Y-34690002D01*
X95477461Y-34873171D01*
X95503766Y-34948344D01*
X95538344Y-35047163D01*
X95636415Y-35203242D01*
X95766758Y-35333585D01*
X95922837Y-35431656D01*
X96051438Y-35476655D01*
X96096828Y-35492538D01*
X96279997Y-35513176D01*
X96280000Y-35513176D01*
X96280003Y-35513176D01*
X96463171Y-35492538D01*
X96463174Y-35492537D01*
X96637163Y-35431656D01*
X96793242Y-35333585D01*
X96923585Y-35203242D01*
X97021656Y-35047163D01*
X97082537Y-34873174D01*
X97082537Y-34873173D01*
X97082538Y-34873171D01*
X97103176Y-34690002D01*
X97103176Y-34689997D01*
X97082538Y-34506828D01*
X97042669Y-34392890D01*
X97021656Y-34332837D01*
X96923585Y-34176758D01*
X96793242Y-34046415D01*
X96709353Y-33993704D01*
X96637165Y-33948345D01*
X96637164Y-33948344D01*
X96637163Y-33948344D01*
X96591540Y-33932380D01*
X96463171Y-33887461D01*
X96280003Y-33866824D01*
X96279997Y-33866824D01*
X96096828Y-33887461D01*
X95922834Y-33948345D01*
X95766757Y-34046415D01*
X95636415Y-34176757D01*
X95538345Y-34332834D01*
X95477461Y-34506828D01*
X95456824Y-34689997D01*
X91396275Y-34689997D01*
X91392538Y-34656828D01*
X91348226Y-34530193D01*
X91331656Y-34482837D01*
X91233585Y-34326758D01*
X91103242Y-34196415D01*
X91071958Y-34176758D01*
X90947165Y-34098345D01*
X90947164Y-34098344D01*
X90947163Y-34098344D01*
X90870893Y-34071656D01*
X90773171Y-34037461D01*
X90590003Y-34016824D01*
X90589997Y-34016824D01*
X90406828Y-34037461D01*
X90232834Y-34098345D01*
X90076757Y-34196415D01*
X89946415Y-34326757D01*
X89848345Y-34482834D01*
X89787461Y-34656828D01*
X89766824Y-34839997D01*
X76782674Y-34839997D01*
X76604643Y-34754263D01*
X76604645Y-34754263D01*
X76346773Y-34674720D01*
X76346767Y-34674718D01*
X76079936Y-34634500D01*
X76079929Y-34634500D01*
X75810071Y-34634500D01*
X75810063Y-34634500D01*
X75543232Y-34674718D01*
X75543226Y-34674720D01*
X75285358Y-34754262D01*
X75042230Y-34871346D01*
X74819258Y-35023365D01*
X74621442Y-35206910D01*
X74453185Y-35417898D01*
X74318258Y-35651599D01*
X74318256Y-35651603D01*
X74219666Y-35902804D01*
X74219664Y-35902811D01*
X74159616Y-36165898D01*
X74139451Y-36434995D01*
X66799499Y-36434995D01*
X66799499Y-36038128D01*
X66793091Y-35978517D01*
X66764852Y-35902805D01*
X66742797Y-35843671D01*
X66742793Y-35843664D01*
X66656547Y-35728455D01*
X66656544Y-35728452D01*
X66541335Y-35642206D01*
X66541328Y-35642202D01*
X66406482Y-35591908D01*
X66406483Y-35591908D01*
X66346883Y-35585501D01*
X66346881Y-35585500D01*
X66346873Y-35585500D01*
X66346864Y-35585500D01*
X64983129Y-35585500D01*
X64983123Y-35585501D01*
X64923516Y-35591908D01*
X64788671Y-35642202D01*
X64788664Y-35642206D01*
X64673455Y-35728452D01*
X64673452Y-35728455D01*
X64587206Y-35843664D01*
X64587202Y-35843671D01*
X64536908Y-35978517D01*
X64530501Y-36038116D01*
X64530501Y-36038123D01*
X64530500Y-36038135D01*
X43240000Y-36038135D01*
X43240000Y-32409995D01*
X54814451Y-32409995D01*
X54814451Y-32410004D01*
X54834616Y-32679101D01*
X54894664Y-32942188D01*
X54894666Y-32942195D01*
X54974978Y-33146826D01*
X54993257Y-33193398D01*
X55128185Y-33427102D01*
X55251324Y-33581513D01*
X55296442Y-33638089D01*
X55359339Y-33696448D01*
X55494259Y-33821635D01*
X55717226Y-33973651D01*
X55960359Y-34090738D01*
X56218228Y-34170280D01*
X56218229Y-34170280D01*
X56218232Y-34170281D01*
X56485063Y-34210499D01*
X56485068Y-34210499D01*
X56485071Y-34210500D01*
X56485072Y-34210500D01*
X56754928Y-34210500D01*
X56754929Y-34210500D01*
X56754936Y-34210499D01*
X57021767Y-34170281D01*
X57021768Y-34170280D01*
X57021772Y-34170280D01*
X57279641Y-34090738D01*
X57471765Y-33998216D01*
X57522767Y-33973655D01*
X57522767Y-33973654D01*
X57522775Y-33973651D01*
X57745741Y-33821635D01*
X57943561Y-33638085D01*
X58111815Y-33427102D01*
X58246743Y-33193398D01*
X58345334Y-32942195D01*
X58405383Y-32679103D01*
X58425549Y-32410000D01*
X58425549Y-32409995D01*
X62434451Y-32409995D01*
X62434451Y-32410004D01*
X62454616Y-32679101D01*
X62514664Y-32942188D01*
X62514666Y-32942195D01*
X62594978Y-33146826D01*
X62613257Y-33193398D01*
X62748185Y-33427102D01*
X62871324Y-33581513D01*
X62916442Y-33638089D01*
X62979339Y-33696448D01*
X63114259Y-33821635D01*
X63337226Y-33973651D01*
X63580359Y-34090738D01*
X63838228Y-34170280D01*
X63838229Y-34170280D01*
X63838232Y-34170281D01*
X64105063Y-34210499D01*
X64105068Y-34210499D01*
X64105071Y-34210500D01*
X64105072Y-34210500D01*
X64374928Y-34210500D01*
X64374929Y-34210500D01*
X64374936Y-34210499D01*
X64641767Y-34170281D01*
X64641768Y-34170280D01*
X64641772Y-34170280D01*
X64899641Y-34090738D01*
X65091765Y-33998216D01*
X65142767Y-33973655D01*
X65142767Y-33973654D01*
X65142775Y-33973651D01*
X65365741Y-33821635D01*
X65563561Y-33638085D01*
X65731815Y-33427102D01*
X65866743Y-33193398D01*
X65965334Y-32942195D01*
X66025383Y-32679103D01*
X66045549Y-32410000D01*
X66032812Y-32240038D01*
X66025383Y-32140898D01*
X66016227Y-32100781D01*
X65965334Y-31877805D01*
X65883774Y-31669997D01*
X82426824Y-31669997D01*
X82426824Y-31670002D01*
X82447461Y-31853171D01*
X82480234Y-31946830D01*
X82504709Y-32016776D01*
X82508345Y-32027165D01*
X82565053Y-32117415D01*
X82606415Y-32183242D01*
X82736758Y-32313585D01*
X82892837Y-32411656D01*
X83025059Y-32457922D01*
X83066828Y-32472538D01*
X83249997Y-32493176D01*
X83250000Y-32493176D01*
X83250003Y-32493176D01*
X83433171Y-32472538D01*
X83433174Y-32472537D01*
X83440433Y-32469997D01*
X97986824Y-32469997D01*
X97986824Y-32470002D01*
X98007461Y-32653171D01*
X98019094Y-32686415D01*
X98055339Y-32789998D01*
X98068345Y-32827165D01*
X98159875Y-32972834D01*
X98166415Y-32983242D01*
X98296758Y-33113585D01*
X98452837Y-33211656D01*
X98583624Y-33257420D01*
X98626828Y-33272538D01*
X98809997Y-33293176D01*
X98810000Y-33293176D01*
X98810003Y-33293176D01*
X98993171Y-33272538D01*
X98993174Y-33272537D01*
X99167163Y-33211656D01*
X99323242Y-33113585D01*
X99453585Y-32983242D01*
X99551656Y-32827163D01*
X99612537Y-32653174D01*
X99612537Y-32653173D01*
X99612538Y-32653171D01*
X99633176Y-32470002D01*
X99633176Y-32469997D01*
X99612538Y-32286828D01*
X99596162Y-32240028D01*
X99551656Y-32112837D01*
X99453585Y-31956758D01*
X99323242Y-31826415D01*
X99240851Y-31774645D01*
X99167165Y-31728345D01*
X99167164Y-31728344D01*
X99167163Y-31728344D01*
X99125396Y-31713729D01*
X98993171Y-31667461D01*
X98810003Y-31646824D01*
X98809997Y-31646824D01*
X98626828Y-31667461D01*
X98452834Y-31728345D01*
X98296757Y-31826415D01*
X98166415Y-31956757D01*
X98068345Y-32112834D01*
X98007461Y-32286828D01*
X97986824Y-32469997D01*
X83440433Y-32469997D01*
X83607163Y-32411656D01*
X83763242Y-32313585D01*
X83893585Y-32183242D01*
X83991656Y-32027163D01*
X84052537Y-31853174D01*
X84052537Y-31853173D01*
X84052538Y-31853171D01*
X84073176Y-31670002D01*
X84073176Y-31669997D01*
X84052538Y-31486828D01*
X84021250Y-31397412D01*
X83991656Y-31312837D01*
X83893585Y-31156758D01*
X83763242Y-31026415D01*
X83660448Y-30961825D01*
X83607165Y-30928345D01*
X83607164Y-30928344D01*
X83607163Y-30928344D01*
X83537703Y-30904039D01*
X83433171Y-30867461D01*
X83250003Y-30846824D01*
X83249997Y-30846824D01*
X83066828Y-30867461D01*
X82892834Y-30928345D01*
X82736757Y-31026415D01*
X82606415Y-31156757D01*
X82508345Y-31312834D01*
X82447461Y-31486828D01*
X82426824Y-31669997D01*
X65883774Y-31669997D01*
X65866743Y-31626602D01*
X65731815Y-31392898D01*
X65563561Y-31181915D01*
X65563560Y-31181914D01*
X65563557Y-31181910D01*
X65365741Y-30998365D01*
X65312144Y-30961823D01*
X65142775Y-30846349D01*
X65142769Y-30846346D01*
X65142768Y-30846345D01*
X65142767Y-30846344D01*
X64899643Y-30729263D01*
X64899645Y-30729263D01*
X64641773Y-30649720D01*
X64641767Y-30649718D01*
X64374936Y-30609500D01*
X64374929Y-30609500D01*
X64105071Y-30609500D01*
X64105063Y-30609500D01*
X63838232Y-30649718D01*
X63838226Y-30649720D01*
X63580358Y-30729262D01*
X63337230Y-30846346D01*
X63114258Y-30998365D01*
X62916442Y-31181910D01*
X62748185Y-31392898D01*
X62613258Y-31626599D01*
X62613256Y-31626603D01*
X62514666Y-31877804D01*
X62514664Y-31877811D01*
X62454616Y-32140898D01*
X62434451Y-32409995D01*
X58425549Y-32409995D01*
X58412812Y-32240038D01*
X58405383Y-32140898D01*
X58396227Y-32100781D01*
X58345334Y-31877805D01*
X58246743Y-31626602D01*
X58111815Y-31392898D01*
X57943561Y-31181915D01*
X57943560Y-31181914D01*
X57943557Y-31181910D01*
X57745741Y-30998365D01*
X57692144Y-30961823D01*
X57522775Y-30846349D01*
X57522769Y-30846346D01*
X57522768Y-30846345D01*
X57522767Y-30846344D01*
X57279643Y-30729263D01*
X57279645Y-30729263D01*
X57021773Y-30649720D01*
X57021767Y-30649718D01*
X56754936Y-30609500D01*
X56754929Y-30609500D01*
X56485071Y-30609500D01*
X56485063Y-30609500D01*
X56218232Y-30649718D01*
X56218226Y-30649720D01*
X55960358Y-30729262D01*
X55717230Y-30846346D01*
X55494258Y-30998365D01*
X55296442Y-31181910D01*
X55128185Y-31392898D01*
X54993258Y-31626599D01*
X54993256Y-31626603D01*
X54894666Y-31877804D01*
X54894664Y-31877811D01*
X54834616Y-32140898D01*
X54814451Y-32409995D01*
X43240000Y-32409995D01*
X43240000Y-28814995D01*
X74139451Y-28814995D01*
X74139451Y-28815004D01*
X74159616Y-29084101D01*
X74219664Y-29347188D01*
X74219666Y-29347195D01*
X74318256Y-29598396D01*
X74318258Y-29598400D01*
X74332194Y-29622538D01*
X74453185Y-29832102D01*
X74571764Y-29980795D01*
X74621442Y-30043089D01*
X74808183Y-30216358D01*
X74819259Y-30226635D01*
X75042226Y-30378651D01*
X75285359Y-30495738D01*
X75543228Y-30575280D01*
X75543229Y-30575280D01*
X75543232Y-30575281D01*
X75810063Y-30615499D01*
X75810068Y-30615499D01*
X75810071Y-30615500D01*
X75810072Y-30615500D01*
X76079928Y-30615500D01*
X76079929Y-30615500D01*
X76119737Y-30609500D01*
X76346767Y-30575281D01*
X76346768Y-30575280D01*
X76346772Y-30575280D01*
X76604641Y-30495738D01*
X76847775Y-30378651D01*
X77070741Y-30226635D01*
X77268561Y-30043085D01*
X77436815Y-29832102D01*
X77571743Y-29598398D01*
X77670334Y-29347195D01*
X77730383Y-29084103D01*
X77750174Y-28820002D01*
X77750174Y-28819997D01*
X92876824Y-28819997D01*
X92876824Y-28820002D01*
X92897461Y-29003171D01*
X92958345Y-29177165D01*
X93043188Y-29312191D01*
X93056415Y-29333242D01*
X93186758Y-29463585D01*
X93342837Y-29561656D01*
X93475059Y-29607922D01*
X93516828Y-29622538D01*
X93699997Y-29643176D01*
X93700000Y-29643176D01*
X93700003Y-29643176D01*
X93883171Y-29622538D01*
X93883174Y-29622537D01*
X94057163Y-29561656D01*
X94213242Y-29463585D01*
X94343585Y-29333242D01*
X94441656Y-29177163D01*
X94502537Y-29003174D01*
X94502537Y-29003173D01*
X94502538Y-29003171D01*
X94523176Y-28820002D01*
X94523176Y-28819997D01*
X94510296Y-28705684D01*
X94522350Y-28636862D01*
X94569699Y-28585482D01*
X94592562Y-28574758D01*
X94687163Y-28541656D01*
X94843242Y-28443585D01*
X94973585Y-28313242D01*
X95071656Y-28157163D01*
X95132537Y-27983174D01*
X95132537Y-27983173D01*
X95132538Y-27983171D01*
X95153176Y-27800002D01*
X95153176Y-27799997D01*
X95132538Y-27616828D01*
X95090354Y-27496274D01*
X95071656Y-27442837D01*
X94973585Y-27286758D01*
X94843242Y-27156415D01*
X94687163Y-27058344D01*
X94645396Y-27043729D01*
X94513171Y-26997461D01*
X94330003Y-26976824D01*
X94329997Y-26976824D01*
X94146828Y-26997461D01*
X93972834Y-27058345D01*
X93816757Y-27156415D01*
X93686415Y-27286757D01*
X93588345Y-27442834D01*
X93527461Y-27616828D01*
X93506824Y-27799997D01*
X93506824Y-27800002D01*
X93519704Y-27914316D01*
X93507650Y-27983138D01*
X93460301Y-28034518D01*
X93437438Y-28045242D01*
X93342835Y-28078344D01*
X93186757Y-28176415D01*
X93056415Y-28306757D01*
X92958345Y-28462834D01*
X92897461Y-28636828D01*
X92876824Y-28819997D01*
X77750174Y-28819997D01*
X77750549Y-28815004D01*
X77750549Y-28814995D01*
X77730383Y-28545898D01*
X77707031Y-28443585D01*
X77670334Y-28282805D01*
X77571743Y-28031602D01*
X77436815Y-27797898D01*
X77268561Y-27586915D01*
X77268560Y-27586914D01*
X77268557Y-27586910D01*
X77070741Y-27403365D01*
X77017323Y-27366945D01*
X76847775Y-27251349D01*
X76847769Y-27251346D01*
X76847768Y-27251345D01*
X76847767Y-27251344D01*
X76604643Y-27134263D01*
X76604645Y-27134263D01*
X76346773Y-27054720D01*
X76346767Y-27054718D01*
X76079936Y-27014500D01*
X76079929Y-27014500D01*
X75810071Y-27014500D01*
X75810063Y-27014500D01*
X75543232Y-27054718D01*
X75543226Y-27054720D01*
X75285358Y-27134262D01*
X75042230Y-27251346D01*
X74819258Y-27403365D01*
X74621442Y-27586910D01*
X74453185Y-27797898D01*
X74318258Y-28031599D01*
X74318256Y-28031603D01*
X74219666Y-28282804D01*
X74219664Y-28282811D01*
X74159616Y-28545898D01*
X74139451Y-28814995D01*
X43240000Y-28814995D01*
X43240000Y-26674000D01*
X43259685Y-26606961D01*
X43312489Y-26561206D01*
X43364000Y-26550000D01*
X116498145Y-26550000D01*
X116565184Y-26569685D01*
G37*
%TD.AperFunction*%
%TD*%
M02*
