%TF.GenerationSoftware,KiCad,Pcbnew,8.0.2*%
%TF.CreationDate,2024-06-23T14:40:44+03:00*%
%TF.ProjectId,Chaos Circuits,4368616f-7320-4436-9972-63756974732e,1*%
%TF.SameCoordinates,Original*%
%TF.FileFunction,Paste,Top*%
%TF.FilePolarity,Positive*%
%FSLAX46Y46*%
G04 Gerber Fmt 4.6, Leading zero omitted, Abs format (unit mm)*
G04 Created by KiCad (PCBNEW 8.0.2) date 2024-06-23 14:40:44*
%MOMM*%
%LPD*%
G01*
G04 APERTURE LIST*
G04 Aperture macros list*
%AMRoundRect*
0 Rectangle with rounded corners*
0 $1 Rounding radius*
0 $2 $3 $4 $5 $6 $7 $8 $9 X,Y pos of 4 corners*
0 Add a 4 corners polygon primitive as box body*
4,1,4,$2,$3,$4,$5,$6,$7,$8,$9,$2,$3,0*
0 Add four circle primitives for the rounded corners*
1,1,$1+$1,$2,$3*
1,1,$1+$1,$4,$5*
1,1,$1+$1,$6,$7*
1,1,$1+$1,$8,$9*
0 Add four rect primitives between the rounded corners*
20,1,$1+$1,$2,$3,$4,$5,0*
20,1,$1+$1,$4,$5,$6,$7,0*
20,1,$1+$1,$6,$7,$8,$9,0*
20,1,$1+$1,$8,$9,$2,$3,0*%
G04 Aperture macros list end*
%ADD10R,1.460500X0.558800*%
%ADD11R,0.558800X1.460500*%
%ADD12R,0.558800X1.981200*%
%ADD13RoundRect,0.250000X-0.450000X0.262500X-0.450000X-0.262500X0.450000X-0.262500X0.450000X0.262500X0*%
%ADD14RoundRect,0.250000X-0.262500X-0.450000X0.262500X-0.450000X0.262500X0.450000X-0.262500X0.450000X0*%
%ADD15RoundRect,0.250000X0.450000X-0.262500X0.450000X0.262500X-0.450000X0.262500X-0.450000X-0.262500X0*%
%ADD16RoundRect,0.250000X0.262500X0.450000X-0.262500X0.450000X-0.262500X-0.450000X0.262500X-0.450000X0*%
%ADD17RoundRect,0.250000X-0.312500X-0.625000X0.312500X-0.625000X0.312500X0.625000X-0.312500X0.625000X0*%
%ADD18RoundRect,0.250000X0.475000X-0.250000X0.475000X0.250000X-0.475000X0.250000X-0.475000X-0.250000X0*%
%ADD19RoundRect,0.250000X-0.250000X-0.475000X0.250000X-0.475000X0.250000X0.475000X-0.250000X0.475000X0*%
%ADD20RoundRect,0.250000X-0.475000X0.250000X-0.475000X-0.250000X0.475000X-0.250000X0.475000X0.250000X0*%
%ADD21RoundRect,0.250000X0.250000X0.475000X-0.250000X0.475000X-0.250000X-0.475000X0.250000X-0.475000X0*%
%ADD22RoundRect,0.200000X-0.200000X-0.275000X0.200000X-0.275000X0.200000X0.275000X-0.200000X0.275000X0*%
%ADD23RoundRect,0.200000X-0.275000X0.200000X-0.275000X-0.200000X0.275000X-0.200000X0.275000X0.200000X0*%
%ADD24RoundRect,0.250000X0.900000X-1.000000X0.900000X1.000000X-0.900000X1.000000X-0.900000X-1.000000X0*%
%ADD25R,2.209800X1.701800*%
%ADD26R,1.981200X0.558800*%
%ADD27RoundRect,0.250000X-0.650000X0.325000X-0.650000X-0.325000X0.650000X-0.325000X0.650000X0.325000X0*%
%ADD28RoundRect,0.250000X0.650000X-0.325000X0.650000X0.325000X-0.650000X0.325000X-0.650000X-0.325000X0*%
%ADD29RoundRect,0.200000X0.200000X0.275000X-0.200000X0.275000X-0.200000X-0.275000X0.200000X-0.275000X0*%
%ADD30RoundRect,0.250001X0.462499X0.624999X-0.462499X0.624999X-0.462499X-0.624999X0.462499X-0.624999X0*%
%ADD31RoundRect,0.250001X-0.462499X-0.624999X0.462499X-0.624999X0.462499X0.624999X-0.462499X0.624999X0*%
G04 APERTURE END LIST*
D10*
%TO.C,U16*%
X114295850Y-89155000D03*
X114295850Y-90425000D03*
X114295850Y-91695000D03*
X114295850Y-92965000D03*
X119744150Y-92965000D03*
X119744150Y-91695000D03*
X119744150Y-90425000D03*
X119744150Y-89155000D03*
%TD*%
%TO.C,U15*%
X103325850Y-86595000D03*
X103325850Y-87865000D03*
X103325850Y-89135000D03*
X103325850Y-90405000D03*
X108774150Y-90405000D03*
X108774150Y-89135000D03*
X108774150Y-87865000D03*
X108774150Y-86595000D03*
%TD*%
%TO.C,U14*%
X115865850Y-64455000D03*
X115865850Y-65725000D03*
X115865850Y-66995000D03*
X115865850Y-68265000D03*
X121314150Y-68265000D03*
X121314150Y-66995000D03*
X121314150Y-65725000D03*
X121314150Y-64455000D03*
%TD*%
D11*
%TO.C,U12*%
X107450000Y-54110000D03*
X106180001Y-54110000D03*
X104910001Y-54110000D03*
X103640002Y-54110000D03*
X103640002Y-59558300D03*
X104910001Y-59558300D03*
X106180001Y-59558300D03*
X107450000Y-59558300D03*
%TD*%
D10*
%TO.C,U11*%
X109675850Y-39910000D03*
X109675850Y-41180000D03*
X109675850Y-42450000D03*
X109675850Y-43720000D03*
X115124150Y-43720000D03*
X115124150Y-42450000D03*
X115124150Y-41180000D03*
X115124150Y-39910000D03*
%TD*%
%TO.C,U10*%
X97475850Y-41805000D03*
X97475850Y-43075000D03*
X97475850Y-44345000D03*
X97475850Y-45615000D03*
X102924150Y-45615000D03*
X102924150Y-44345000D03*
X102924150Y-43075000D03*
X102924150Y-41805000D03*
%TD*%
%TO.C,U9*%
X109675850Y-28145000D03*
X109675850Y-29415000D03*
X109675850Y-30685000D03*
X109675850Y-31955000D03*
X115124150Y-31955000D03*
X115124150Y-30685000D03*
X115124150Y-29415000D03*
X115124150Y-28145000D03*
%TD*%
%TO.C,U8*%
X97531700Y-29960000D03*
X97531700Y-31230000D03*
X97531700Y-32500000D03*
X97531700Y-33770000D03*
X102980000Y-33770000D03*
X102980000Y-32500000D03*
X102980000Y-31230000D03*
X102980000Y-29960000D03*
%TD*%
%TO.C,U5*%
X79396700Y-90895000D03*
X79396700Y-92165000D03*
X79396700Y-93435000D03*
X79396700Y-94705000D03*
X84845000Y-94705000D03*
X84845000Y-93435000D03*
X84845000Y-92165000D03*
X84845000Y-90895000D03*
%TD*%
%TO.C,U3*%
X79396700Y-78550000D03*
X79396700Y-79820000D03*
X79396700Y-81090000D03*
X79396700Y-82360000D03*
X84845000Y-82360000D03*
X84845000Y-81090000D03*
X84845000Y-79820000D03*
X84845000Y-78550000D03*
%TD*%
%TO.C,U4*%
X79346700Y-67090000D03*
X79346700Y-68360000D03*
X79346700Y-69630000D03*
X79346700Y-70900000D03*
X84795000Y-70900000D03*
X84795000Y-69630000D03*
X84795000Y-68360000D03*
X84795000Y-67090000D03*
%TD*%
D11*
%TO.C,U2*%
X81274999Y-51059150D03*
X80005000Y-51059150D03*
X78735000Y-51059150D03*
X77465001Y-51059150D03*
X77465001Y-45610850D03*
X78735000Y-45610850D03*
X80005000Y-45610850D03*
X81274999Y-45610850D03*
%TD*%
D10*
%TO.C,U1*%
X83071700Y-37125000D03*
X83071700Y-38395000D03*
X83071700Y-39665000D03*
X83071700Y-40935000D03*
X88520000Y-40935000D03*
X88520000Y-39665000D03*
X88520000Y-38395000D03*
X88520000Y-37125000D03*
%TD*%
D12*
%TO.C,U13*%
X102885000Y-70963800D03*
X104155000Y-70963800D03*
X105425000Y-70963800D03*
X106695000Y-70963800D03*
X106695000Y-66036200D03*
X105425000Y-66036200D03*
X104155000Y-66036200D03*
X102885000Y-66036200D03*
%TD*%
D13*
%TO.C,R50*%
X117070000Y-94667500D03*
X117070000Y-96492500D03*
%TD*%
%TO.C,R49*%
X123380000Y-67317500D03*
X123380000Y-69142500D03*
%TD*%
D14*
%TO.C,R48*%
X108157500Y-47990000D03*
X109982500Y-47990000D03*
%TD*%
D13*
%TO.C,R47*%
X109900000Y-51417500D03*
X109900000Y-53242500D03*
%TD*%
D14*
%TO.C,R46*%
X116117500Y-87250000D03*
X117942500Y-87250000D03*
%TD*%
D13*
%TO.C,R45*%
X112850000Y-85937500D03*
X112850000Y-87762500D03*
%TD*%
D14*
%TO.C,R44*%
X105157500Y-84700000D03*
X106982500Y-84700000D03*
%TD*%
%TO.C,R43*%
X110617500Y-89530000D03*
X112442500Y-89530000D03*
%TD*%
%TO.C,R42*%
X99657500Y-87870000D03*
X101482500Y-87870000D03*
%TD*%
D15*
%TO.C,R40*%
X113790000Y-69302500D03*
X113790000Y-67477500D03*
%TD*%
D14*
%TO.C,R39*%
X112167500Y-65720000D03*
X113992500Y-65720000D03*
%TD*%
D13*
%TO.C,R38*%
X109310000Y-56077500D03*
X109310000Y-57902500D03*
%TD*%
D15*
%TO.C,R37*%
X104800000Y-52252500D03*
X104800000Y-50427500D03*
%TD*%
D13*
%TO.C,R36*%
X106740000Y-50437500D03*
X106740000Y-52262500D03*
%TD*%
D14*
%TO.C,R35*%
X111477500Y-38030000D03*
X113302500Y-38030000D03*
%TD*%
D15*
%TO.C,R34*%
X107490000Y-42735000D03*
X107490000Y-40910000D03*
%TD*%
D14*
%TO.C,R33*%
X93797500Y-44480000D03*
X95622500Y-44480000D03*
%TD*%
%TO.C,R32*%
X93805000Y-42540000D03*
X95630000Y-42540000D03*
%TD*%
D15*
%TO.C,R31*%
X107470000Y-30922500D03*
X107470000Y-29097500D03*
%TD*%
D14*
%TO.C,R30*%
X111627500Y-26230000D03*
X113452500Y-26230000D03*
%TD*%
%TO.C,R29*%
X93857500Y-32410000D03*
X95682500Y-32410000D03*
%TD*%
%TO.C,R28*%
X93867500Y-30480000D03*
X95692500Y-30480000D03*
%TD*%
D16*
%TO.C,R27*%
X48622500Y-84740000D03*
X46797500Y-84740000D03*
%TD*%
D17*
%TO.C,R26*%
X40335000Y-97315000D03*
X43260000Y-97315000D03*
%TD*%
D15*
%TO.C,R24*%
X43060001Y-94052500D03*
X43060001Y-92227500D03*
%TD*%
D16*
%TO.C,R23*%
X45197500Y-84790000D03*
X43372500Y-84790000D03*
%TD*%
D15*
%TO.C,R22*%
X45060000Y-88340000D03*
X45060000Y-86515000D03*
%TD*%
D14*
%TO.C,R21*%
X43422500Y-90090000D03*
X45247500Y-90090000D03*
%TD*%
D15*
%TO.C,R20*%
X40635000Y-94102500D03*
X40635000Y-92277500D03*
%TD*%
D18*
%TO.C,C49*%
X112210000Y-94469999D03*
X112210000Y-92570001D03*
%TD*%
%TO.C,C48*%
X121810000Y-90039999D03*
X121810000Y-88140001D03*
%TD*%
D19*
%TO.C,C47*%
X103410000Y-92320000D03*
X105310000Y-92320000D03*
%TD*%
D18*
%TO.C,C46*%
X110830000Y-87279999D03*
X110830000Y-85380001D03*
%TD*%
D19*
%TO.C,C45*%
X116130000Y-70180000D03*
X118030000Y-70180000D03*
%TD*%
D18*
%TO.C,C44*%
X123370000Y-65429998D03*
X123370000Y-63530000D03*
%TD*%
D19*
%TO.C,C43*%
X117640000Y-62530000D03*
X119540000Y-62530000D03*
%TD*%
%TO.C,C42*%
X105820000Y-73130000D03*
X107720000Y-73130000D03*
%TD*%
D20*
%TO.C,C41*%
X101730000Y-54230001D03*
X101730000Y-56129999D03*
%TD*%
D19*
%TO.C,C40*%
X106950000Y-61610000D03*
X108850000Y-61610000D03*
%TD*%
D20*
%TO.C,C39*%
X108350000Y-68770001D03*
X108350000Y-70669999D03*
%TD*%
D19*
%TO.C,C38*%
X109460000Y-45630000D03*
X111360000Y-45630000D03*
%TD*%
D18*
%TO.C,C37*%
X117200000Y-40809999D03*
X117200000Y-38910001D03*
%TD*%
D19*
%TO.C,C36*%
X97240001Y-47540000D03*
X99139999Y-47540000D03*
%TD*%
D18*
%TO.C,C35*%
X105000000Y-42729999D03*
X105000000Y-40830001D03*
%TD*%
D19*
%TO.C,C34*%
X109790000Y-33890000D03*
X111690000Y-33890000D03*
%TD*%
D18*
%TO.C,C33*%
X117180000Y-29049999D03*
X117180000Y-27150001D03*
%TD*%
D19*
%TO.C,C32*%
X99180000Y-39890000D03*
X101080000Y-39890000D03*
%TD*%
%TO.C,C31*%
X97380000Y-35700000D03*
X99280000Y-35700000D03*
%TD*%
D18*
%TO.C,C30*%
X105050000Y-30889999D03*
X105050000Y-28990001D03*
%TD*%
D19*
%TO.C,C29*%
X99370000Y-28030000D03*
X101270000Y-28030000D03*
%TD*%
%TO.C,C28*%
X52247501Y-89540000D03*
X54147499Y-89540000D03*
%TD*%
D21*
%TO.C,C27*%
X41834999Y-84740000D03*
X39935001Y-84740000D03*
%TD*%
D20*
%TO.C,C26*%
X47010000Y-86490001D03*
X47010000Y-88389999D03*
%TD*%
%TO.C,C25*%
X45035000Y-91815002D03*
X45035000Y-93715000D03*
%TD*%
D18*
%TO.C,C8*%
X90595000Y-37959998D03*
X90595000Y-36060000D03*
%TD*%
D22*
%TO.C,R1*%
X38750000Y-64600000D03*
X40400000Y-64600000D03*
%TD*%
D19*
%TO.C,C15*%
X81170000Y-84250000D03*
X79270000Y-84250000D03*
%TD*%
D23*
%TO.C,R3*%
X39270000Y-76795000D03*
X39270000Y-78445000D03*
%TD*%
D19*
%TO.C,C10*%
X80370000Y-53110000D03*
X82270000Y-53110000D03*
%TD*%
D17*
%TO.C,R6*%
X66915000Y-33000000D03*
X69840000Y-33000000D03*
%TD*%
D18*
%TO.C,C23*%
X73120000Y-90524999D03*
X73120000Y-88625001D03*
%TD*%
D14*
%TO.C,R7*%
X84970000Y-42835000D03*
X86795000Y-42835000D03*
%TD*%
D19*
%TO.C,C17*%
X79370000Y-72800000D03*
X81270000Y-72800000D03*
%TD*%
D24*
%TO.C,D2*%
X40400000Y-48200002D03*
X40400000Y-43900000D03*
%TD*%
D16*
%TO.C,R9*%
X84820000Y-45985000D03*
X82995000Y-45985000D03*
%TD*%
D18*
%TO.C,C19*%
X86895000Y-91775000D03*
X86895000Y-89875002D03*
%TD*%
D25*
%TO.C,D3*%
X36539200Y-62100000D03*
X40400000Y-62100000D03*
%TD*%
D17*
%TO.C,R5*%
X74102500Y-39550000D03*
X77027500Y-39550000D03*
%TD*%
D26*
%TO.C,U6*%
X65142400Y-76615000D03*
X65142400Y-77885000D03*
X65142400Y-79155000D03*
X65142400Y-80425000D03*
X70070000Y-80425000D03*
X70070000Y-79155000D03*
X70070000Y-77885000D03*
X70070000Y-76615000D03*
%TD*%
D20*
%TO.C,C6*%
X61920000Y-36760000D03*
X61920000Y-38659998D03*
%TD*%
D14*
%TO.C,R14*%
X75732500Y-78450000D03*
X77557500Y-78450000D03*
%TD*%
D27*
%TO.C,C2*%
X43800000Y-44424999D03*
X43800000Y-47375001D03*
%TD*%
%TO.C,C3*%
X46100000Y-55149998D03*
X46100000Y-58100000D03*
%TD*%
D18*
%TO.C,C14*%
X86895000Y-79425000D03*
X86895000Y-77525002D03*
%TD*%
D28*
%TO.C,C5*%
X39270000Y-75245001D03*
X39270000Y-72294999D03*
%TD*%
D24*
%TO.C,D1*%
X40400000Y-58700002D03*
X40400000Y-54400000D03*
%TD*%
D20*
%TO.C,C22*%
X62970000Y-79475001D03*
X62970000Y-81374999D03*
%TD*%
D14*
%TO.C,R19*%
X75657500Y-67575000D03*
X77482500Y-67575000D03*
%TD*%
D29*
%TO.C,R2*%
X40400000Y-38000000D03*
X38750000Y-38000000D03*
%TD*%
D21*
%TO.C,C11*%
X76045000Y-44985000D03*
X74145002Y-44985000D03*
%TD*%
D18*
%TO.C,C7*%
X78840000Y-39925000D03*
X78840000Y-38025002D03*
%TD*%
%TO.C,C21*%
X72170000Y-78825000D03*
X72170000Y-76925002D03*
%TD*%
D30*
%TO.C,D5*%
X37075000Y-65000000D03*
X34100000Y-65000000D03*
%TD*%
D14*
%TO.C,R11*%
X84970000Y-35235000D03*
X86795000Y-35235000D03*
%TD*%
D13*
%TO.C,R8*%
X83245000Y-32960000D03*
X83245000Y-34785000D03*
%TD*%
D19*
%TO.C,C18*%
X81195000Y-89000000D03*
X83095000Y-89000000D03*
%TD*%
D14*
%TO.C,R17*%
X75732500Y-92150000D03*
X77557500Y-92150000D03*
%TD*%
D19*
%TO.C,C20*%
X81195000Y-96600000D03*
X79295000Y-96600000D03*
%TD*%
D13*
%TO.C,R13*%
X83170000Y-47735000D03*
X83170000Y-49560000D03*
%TD*%
D27*
%TO.C,C1*%
X43800000Y-55124999D03*
X43800000Y-58075001D03*
%TD*%
D14*
%TO.C,R18*%
X75732500Y-94075000D03*
X77557500Y-94075000D03*
%TD*%
D26*
%TO.C,U7*%
X66006200Y-88345000D03*
X66006200Y-89615000D03*
X66006200Y-90885000D03*
X66006200Y-92155000D03*
X70933800Y-92155000D03*
X70933800Y-90885000D03*
X70933800Y-89615000D03*
X70933800Y-88345000D03*
%TD*%
D19*
%TO.C,C13*%
X81145000Y-76625000D03*
X83045000Y-76625000D03*
%TD*%
D31*
%TO.C,D6*%
X34125000Y-37600000D03*
X37100000Y-37600000D03*
%TD*%
%TO.C,D8*%
X36307500Y-80770000D03*
X39282500Y-80770000D03*
%TD*%
D19*
%TO.C,C12*%
X81345000Y-65150000D03*
X83245000Y-65150000D03*
%TD*%
D27*
%TO.C,C4*%
X46100000Y-44449998D03*
X46100000Y-47400000D03*
%TD*%
D14*
%TO.C,R15*%
X75732500Y-80400000D03*
X77557500Y-80400000D03*
%TD*%
D20*
%TO.C,C24*%
X63820000Y-91175000D03*
X63820000Y-93074998D03*
%TD*%
D15*
%TO.C,R12*%
X76920000Y-71162500D03*
X76920000Y-69337500D03*
%TD*%
D21*
%TO.C,C9*%
X82719998Y-42535000D03*
X80820000Y-42535000D03*
%TD*%
D18*
%TO.C,C16*%
X86845000Y-67625000D03*
X86845000Y-65725002D03*
%TD*%
D13*
%TO.C,R10*%
X75545000Y-47385000D03*
X75545000Y-49210000D03*
%TD*%
D14*
%TO.C,R16*%
X75732500Y-82300000D03*
X77557500Y-82300000D03*
%TD*%
D25*
%TO.C,D4*%
X40430400Y-40500000D03*
X36569600Y-40500000D03*
%TD*%
M02*
